<svg width="75" height="75" viewBox="0 0 75 75" fill="none" xmlns="http://www.w3.org/2000/svg">
<circle cx="37.5" cy="37.5" r="37.5" fill="#0047A3"/>
<path d="M56 39.5L51.5 30.5H44.75V26C44.75 25.3906 44.5273 24.8633 44.082 24.418C43.6367 23.9727 43.1094 23.75 42.5 23.75H22.25C21.6406 23.75 21.1133 23.9727 20.668 24.418C20.2227 24.8633 20 25.3906 20 26V44L22.25 46.25H25.0977C24.9102 46.5781 24.7578 46.9414 24.6406 47.3398C24.5469 47.7148 24.5 48.1016 24.5 48.5C24.5 49.7422 24.9336 50.8086 25.8008 51.6992C26.6914 52.5664 27.7578 53 29 53C30.2422 53 31.2969 52.5664 32.1641 51.6992C33.0547 50.8086 33.5 49.7422 33.5 48.5C33.5 48.1016 33.4414 47.7148 33.3242 47.3398C33.2305 46.9414 33.0898 46.5781 32.9023 46.25H45.3477C45.1602 46.5781 45.0078 46.9414 44.8906 47.3398C44.7969 47.7148 44.75 48.1016 44.75 48.5C44.75 49.7422 45.1836 50.8086 46.0508 51.6992C46.9414 52.5664 48.0078 53 49.25 53C50.4922 53 51.5469 52.5664 52.4141 51.6992C53.3047 50.8086 53.75 49.7422 53.75 48.5C53.75 48.1016 53.6914 47.7148 53.5742 47.3398C53.4805 46.9414 53.3398 46.5781 53.1523 46.25H56V39.5ZM44.75 39.5V32.75H49.4258L52.8008 39.5H44.75Z" fill="white"/>
</svg>
