<svg width="75" height="75" viewBox="0 0 75 75" fill="none" xmlns="http://www.w3.org/2000/svg">
<circle cx="37.5" cy="37.5" r="37.5" fill="#0047A3"/>
<path d="M45.875 19.25H30.125C29.1875 19.25 28.3906 19.5781 27.7344 20.2344C27.0781 20.8906 26.75 21.6875 26.75 22.625V51.875C26.75 52.8125 27.0781 53.6094 27.7344 54.2656C28.3906 54.9219 29.1875 55.25 30.125 55.25H45.875C46.8125 55.25 47.6094 54.9219 48.2656 54.2656C48.9219 53.6094 49.25 52.8125 49.25 51.875V22.625C49.25 21.6875 48.9219 20.8906 48.2656 20.2344C47.6094 19.5781 46.8125 19.25 45.875 19.25ZM33.5 20.9375H42.5V22.0625H33.5V20.9375ZM38 53C37.3672 53 36.8281 52.7891 36.3828 52.3672C35.9609 51.9219 35.75 51.3828 35.75 50.75C35.75 50.1172 35.9609 49.5898 36.3828 49.168C36.8281 48.7227 37.3672 48.5 38 48.5C38.6328 48.5 39.1602 48.7227 39.582 49.168C40.0273 49.5898 40.25 50.1172 40.25 50.75C40.25 51.3828 40.0273 51.9219 39.582 52.3672C39.1602 52.7891 38.6328 53 38 53ZM47 46.25H29V23.75H47V46.25Z" fill="white"/>
</svg>
