<svg width="75" height="75" viewBox="0 0 75 75" fill="none" xmlns="http://www.w3.org/2000/svg">
<circle cx="37.5" cy="37.5" r="37.5" fill="#0047A3"/>
<path d="M24.5 30.5V53C24.5 53.6094 24.7227 54.1367 25.168 54.582C25.6133 55.0273 26.1406 55.25 26.75 55.25H47C47.6094 55.25 48.1367 55.0273 48.582 54.582C49.0273 54.1367 49.25 53.6094 49.25 53V30.5H24.5ZM31.25 50.75H29V35H31.25V50.75ZM35.75 50.75H33.5V35H35.75V50.75ZM40.25 50.75H38V35H40.25V50.75ZM44.75 50.75H42.5V35H44.75V50.75ZM49.8125 23.75H42.5V20.9375C42.5 20.4688 42.3359 20.0703 42.0078 19.7422C41.6797 19.4141 41.2812 19.25 40.8125 19.25H32.9375C32.4688 19.25 32.0703 19.4141 31.7422 19.7422C31.4141 20.0703 31.25 20.4688 31.25 20.9375V23.75H23.9375C23.4688 23.75 23.0703 23.9141 22.7422 24.2422C22.4141 24.5703 22.25 24.9688 22.25 25.4375V28.25H51.5V25.4375C51.5 24.9688 51.3359 24.5703 51.0078 24.2422C50.6797 23.9141 50.2812 23.75 49.8125 23.75ZM40.25 23.75H33.5V21.5352H40.25V23.75Z" fill="white"/>
</svg>
