<svg width="75" height="75" viewBox="0 0 75 75" fill="none" xmlns="http://www.w3.org/2000/svg">
<circle cx="37.5" cy="37.5" r="37.5" fill="#0047A3"/>
<path d="M51.5 25.25H44.75V20.75C44.75 20.1406 44.5273 19.6133 44.082 19.168C43.6367 18.7227 43.1094 18.5 42.5 18.5H33.5C32.8906 18.5 32.3633 18.7227 31.918 19.168C31.4727 19.6133 31.25 20.1406 31.25 20.75V25.25H24.5C23.2578 25.25 22.1914 25.6953 21.3008 26.5859C20.4336 27.4531 20 28.5078 20 29.75V47.75C20 48.9922 20.4336 50.0469 21.3008 50.9141C22.1914 51.8047 23.2578 52.25 24.5 52.25H51.5C52.7422 52.25 53.7969 51.8047 54.6641 50.9141C55.5547 50.0469 56 48.9922 56 47.75V29.75C56 28.5078 55.5547 27.4531 54.6641 26.5859C53.7969 25.6953 52.7422 25.25 51.5 25.25ZM33.5 20.75H42.5V25.25H33.5V20.75ZM47 41H40.25V47.75H35.75V41H29V36.5H35.75V29.75H40.25V36.5H47V41Z" fill="white"/>
</svg>
