<?xml version="1.0" standalone="no"?>
<!DOCTYPE svg PUBLIC "-//W3C//DTD SVG 1.1//EN" "http://www.w3.org/Graphics/SVG/1.1/DTD/svg11.dtd" >
<svg xmlns="http://www.w3.org/2000/svg" xmlns:xlink="http://www.w3.org/1999/xlink" version="1.1">
<metadata>
Created by FontForge 20170731 at Thu Oct 15 22:27:36 2020
 By Aleksey,,,
(c)2013-2015 Orkney is a trademark of Samuel Oakes and Alfredo Marco Pradil. All rights reserved.
</metadata>
<defs>
<font id="Orkney-Light" horiz-adv-x="0" >
  <font-face 
    font-family="Orkney Light"
    font-weight="300"
    font-stretch="normal"
    units-per-em="2048"
    panose-1="0 0 4 0 0 0 0 0 0 0"
    ascent="1536"
    descent="-512"
    x-height="1024"
    cap-height="1536"
    bbox="-1518 -649 2419 2056"
    underline-thickness="65"
    underline-position="-269"
    unicode-range="U+0020-FB02"
  />
<missing-glyph horiz-adv-x="1200" 
d="M193 0v1536h815v-1536h-815zM299 109h602v1321h-602v-1321z" />
    <glyph glyph-name="fi" unicode="fi" horiz-adv-x="1183" 
d="M692 1442q-134 0 -215.5 -77.5t-81.5 -213.5v-127h619v-1024h-133v918h-486v-918h-133v918h-172v106h172v133q0 183 115 291t303 108q160 0 336 -90v-127q-179 103 -324 103z" />
    <glyph glyph-name="fl" unicode="fl" horiz-adv-x="1343" 
d="M1268 141l75 -92q-69 -69 -186 -69q-122 0 -196 73.5t-74 192.5v1157q-92 39 -201 39q-128 0 -209.5 -78t-81.5 -213v-127h281v-106h-281v-918h-133v918h-172v106h172v133q0 182 115 290.5t295 108.5q117 0 215 -32v12h135v-209v-1081q0 -71 37 -109.5t102 -38.5
q67 0 107 43z" />
    <glyph glyph-name=".notdef" horiz-adv-x="1200" 
d="M193 0v1536h815v-1536h-815zM299 109h602v1321h-602v-1321z" />
    <glyph glyph-name=".null" 
 />
    <glyph glyph-name="nonmarkingreturn" horiz-adv-x="682" 
 />
    <glyph glyph-name="space" unicode=" " horiz-adv-x="532" 
 />
    <glyph glyph-name="exclam" unicode="!" horiz-adv-x="583" 
d="M238 422l-13 1114h133l-12 -1114h-108zM293 -20q-41 0 -70.5 30t-29.5 70q0 42 29 71t71 29q40 0 70 -29t30 -71q0 -40 -30 -70t-70 -30z" />
    <glyph glyph-name="quotedbl" unicode="&#x22;" horiz-adv-x="831" 
d="M205 956l-12 580h126l-12 -580h-102zM526 956l-14 580h129l-14 -580h-101z" />
    <glyph glyph-name="numbersign" unicode="#" horiz-adv-x="1536" 
d="M365 0l51 365h-289l14 104h289l74 500h-291l16 102h285l53 367h103l-52 -367h400l51 367h102l-51 -367h289l-16 -102h-287l-70 -500h287l-14 -104h-287l-55 -365h-101l52 365h-402l-49 -365h-102zM532 469h400l72 500h-400z" />
    <glyph glyph-name="dollar" unicode="$" horiz-adv-x="1316" 
d="M1145 401q0 -92 -35 -167.5t-95 -124.5t-132.5 -79t-153.5 -40v-172h-121v170q-154 12 -275.5 94.5t-174.5 200.5l102 57q43 -103 150.5 -171.5t248.5 -68.5q154 0 259.5 79.5t105.5 215.5q0 64 -27.5 115t-73.5 86.5t-106 65t-126 55t-132.5 53t-126.5 63t-106 79
t-73.5 107.5t-27.5 144q0 88 32.5 160t87 118t121.5 73t142 34v176h121v-180q98 -13 183.5 -60.5t142.5 -113.5l-84 -70q-48 62 -130 102t-177 40q-82 0 -152 -29.5t-117 -93t-47 -150.5q0 -64 27.5 -115t73.5 -86.5t105.5 -65t126 -55.5t132.5 -53.5t125.5 -63t105.5 -79
t73.5 -107.5t27.5 -143z" />
    <glyph glyph-name="percent" unicode="%" horiz-adv-x="1480" 
d="M391 938q-110 0 -188 90.5t-78 218.5t78 218.5t188 90.5t188 -90.5t78 -218.5t-78 -218.5t-188 -90.5zM141 0l1057 1536h141l-1056 -1536h-142zM391 1044q65 0 112.5 59.5t47.5 143.5t-47.5 143.5t-112.5 59.5t-111.5 -59.5t-46.5 -143.5t46.5 -143.5t111.5 -59.5z
M1092 -20q-110 0 -188.5 91t-78.5 220q0 128 78.5 218.5t188.5 90.5t188 -90.5t78 -218.5q0 -129 -78 -220t-188 -91zM1092 88q65 0 111 58.5t46 144.5q0 84 -46 142.5t-111 58.5q-66 0 -113 -58.5t-47 -142.5q0 -86 47 -144.5t113 -58.5z" />
    <glyph glyph-name="ampersand" unicode="&#x26;" horiz-adv-x="1521" 
d="M1432 530l-226 -223l226 -221l-91 -88l-223 221l-108 -106q-135 -136 -330 -135.5t-332 135.5q-89 89 -120 209.5t0 240.5t120 209l111 107l-72 71q-50 50 -76 116.5t-26 135.5q0 147 103.5 249.5t250.5 102.5t251.5 -102.5t104.5 -249.5h-125q0 95 -68 163.5t-163 68.5
q-97 0 -165 -69t-68 -167q0 -95 67 -162l647 -643l226 223zM924 201l108 106l-487 486l-109 -109q-101 -100 -101 -241.5t101 -241.5q103 -101 245 -101t243 101z" />
    <glyph glyph-name="quotesingle" unicode="'" horiz-adv-x="512" 
d="M205 956l-12 580h126l-12 -580h-102z" />
    <glyph glyph-name="parenleft" unicode="(" horiz-adv-x="819" 
d="M676 -631q-227 21 -375.5 329.5t-148.5 809.5q0 252 40.5 464t111 357t166 230t206.5 96v-99q-114 -18 -205 -148.5t-145 -365.5t-54 -534q0 -297 54 -530t145 -362.5t205 -147.5v-99z" />
    <glyph glyph-name="parenright" unicode=")" horiz-adv-x="819" 
d="M143 -631v99q114 18 205 147.5t145 362.5t54 530q0 299 -54 534t-145 365.5t-205 148.5v99q111 -11 206.5 -96t166.5 -230t111.5 -357t40.5 -464q0 -251 -40.5 -462t-111.5 -355t-166.5 -228t-206.5 -94z" />
    <glyph glyph-name="asterisk" unicode="*" horiz-adv-x="686" 
d="M262 1067l-72 43l107 152l-186 -13v84l186 -14l-107 151l72 43l82 -165l80 165l74 -43l-107 -151l187 14v-84l-187 13l107 -152l-74 -43l-80 166z" />
    <glyph glyph-name="plus" unicode="+" horiz-adv-x="1652" 
d="M774 0v582h-581v108h581v580h107v-580h581v-108h-581v-582h-107z" />
    <glyph glyph-name="comma" unicode="," horiz-adv-x="407" 
d="M96 -391v72q57 0 97 74t40 147q0 78 -47 78q-41 0 -69.5 29.5t-28.5 70.5q0 43 28.5 71.5t71.5 28.5q66 0 100 -60.5t34 -152.5q0 -84 -26 -164.5t-79.5 -137t-120.5 -56.5z" />
    <glyph glyph-name="hyphen" unicode="-" horiz-adv-x="1099" 
d="M193 483v99h716v-99h-716z" />
    <glyph glyph-name="period" unicode="." horiz-adv-x="344" 
d="M172 -20q-40 0 -70 29.5t-30 70.5t30 70.5t70 29.5q41 0 70.5 -29.5t29.5 -70.5t-29.5 -70.5t-70.5 -29.5z" />
    <glyph glyph-name="slash" unicode="/" horiz-adv-x="1179" 
d="M-31 -512l1080 2048h131l-1078 -2048h-133z" />
    <glyph glyph-name="zero" unicode="0" horiz-adv-x="1396" 
d="M698 -20q-153 0 -278.5 103.5t-196.5 284t-71 400.5t71 400.5t196.5 284t278.5 103.5q152 0 277.5 -103.5t197.5 -284t72 -400.5t-72 -400.5t-197.5 -284t-277.5 -103.5zM700 100q113 0 207 88t148.5 241.5t54.5 338.5t-54.5 339t-148.5 241.5t-207 87.5
q-114 0 -209 -87.5t-149.5 -241.5t-54.5 -339t54.5 -338.5t149.5 -241.5t209 -88z" />
    <glyph glyph-name="one" unicode="1" horiz-adv-x="772" 
d="M385 0v1370l-313 -246v166l321 246h125v-1536h-133z" />
    <glyph glyph-name="two" unicode="2" horiz-adv-x="1222" 
d="M82 0v86q80 80 218 219q429 431 531.5 558t102.5 251q0 149 -91.5 234.5t-230.5 87.5q-142 3 -237 -85.5t-99 -236.5l-129 2q1 130 63.5 232.5t169 157t236.5 53.5q187 -3 312.5 -115.5t134.5 -302.5q1 -35 -0.5 -65t-12 -64t-20 -60.5t-35.5 -65.5t-45.5 -67t-64.5 -79
t-78 -87t-99.5 -103.5t-116 -117.5t-139.5 -140q-110 -109 -171 -171h839v-121h-1038z" />
    <glyph glyph-name="three" unicode="3" horiz-adv-x="1218" 
d="M780 860q128 -52 207.5 -163.5t79.5 -250.5q0 -95 -37 -181.5t-99.5 -148.5t-149.5 -99t-183 -37q-127 0 -234.5 60t-170 162.5t-62.5 223.5l133 2q0 -133 98 -227.5t236 -94.5q141 0 238.5 99.5t97.5 240.5t-97.5 240.5t-238.5 99.5h-123v111h117q112 0 190 78.5
t78 191.5q0 110 -78 187.5t-190 77.5q-109 0 -185.5 -74t-76.5 -180l-129 2q0 157 113.5 266.5t277.5 109.5t277.5 -109.5t113.5 -266.5q0 -104 -55 -188.5t-148 -131.5z" />
    <glyph glyph-name="four" unicode="4" horiz-adv-x="1208" 
d="M1079 444v-120h-170v-324h-133v324h-745v88l714 1124h164v-1092h170zM190 444h586v942z" />
    <glyph glyph-name="five" unicode="5" horiz-adv-x="1261" 
d="M610 -20q-132 0 -251 56.5t-195 156.5l90 92q62 -85 154.5 -133t195.5 -48q165 0 278 114t113 280t-113.5 280.5t-277.5 114.5q-83 0 -162 -33.5t-139 -93.5l-119 57l92 709h766v-121h-659l-72 -512q131 115 322 115q212 0 354.5 -147.5t142.5 -364.5q0 -224 -148.5 -373
t-371.5 -149z" />
    <glyph glyph-name="six" unicode="6" horiz-adv-x="1323" 
d="M1192 530q10 -215 -137 -373.5t-365 -172.5q-145 -8 -271 55.5t-202.5 179.5t-83.5 256q-6 103 29.5 200.5t105.5 176.5l549 684h164l-440 -532q44 12 123 16q209 3 362.5 -140t165.5 -350zM688 102q109 7 197 66.5t134.5 155t39.5 204.5q-11 168 -134 276.5t-290 96.5
q-166 -9 -273.5 -134t-95.5 -292q9 -166 132 -274.5t290 -98.5z" />
    <glyph glyph-name="seven" unicode="7" horiz-adv-x="1118" 
d="M109 0l817 1415h-854v121h1015v-82l-823 -1454h-155z" />
    <glyph glyph-name="eight" unicode="8" horiz-adv-x="1148" 
d="M774 854q127 -55 203 -166t76 -248q0 -192 -139 -326t-341 -134q-199 0 -338 134t-139 326q0 138 76.5 249.5t202.5 164.5q-89 48 -141 134.5t-52 191.5q0 158 113.5 267t279.5 109q164 0 278 -109t114 -267q0 -104 -52.5 -191t-140.5 -135zM575 1446q-116 0 -196 -80
t-80 -195t80.5 -195.5t195.5 -80.5q114 0 194.5 80.5t80.5 195.5t-80.5 195t-194.5 80zM573 100q144 0 244.5 102t100.5 247q0 143 -100 242.5t-245 99.5q-143 0 -242.5 -99.5t-99.5 -242.5q0 -145 100 -247t242 -102z" />
    <glyph glyph-name="nine" unicode="9" horiz-adv-x="1323" 
d="M1192 1063q12 -207 -135 -377l-551 -686h-164l453 545q-41 -27 -136 -27q-209 -4 -362 138.5t-164 349.5q-8 142 57 265t182.5 198t260.5 83q146 8 272 -55t202.5 -178t84.5 -256zM688 635q109 7 197 67t134.5 155.5t39.5 203.5q-12 167 -135 276t-289 99
q-167 -12 -275 -136t-96 -290q11 -167 134 -276t290 -99z" />
    <glyph glyph-name="colon" unicode=":" horiz-adv-x="583" 
d="M293 844q-41 0 -70.5 29.5t-29.5 70.5t29.5 70.5t70.5 29.5q40 0 70 -29.5t30 -70.5t-30 -70.5t-70 -29.5zM293 -20q-41 0 -70.5 29.5t-29.5 70.5t29.5 70.5t70.5 29.5q40 0 70 -29.5t30 -70.5t-30 -70.5t-70 -29.5z" />
    <glyph glyph-name="semicolon" unicode=";" horiz-adv-x="604" 
d="M295 844q-40 0 -70 29.5t-30 70.5t30 70.5t70 29.5q41 0 70.5 -29.5t29.5 -70.5t-29.5 -70.5t-70.5 -29.5zM203 -391v72q51 4 91 92q38 86 33 157q-3 50 -32 50q-41 0 -70.5 29.5t-29.5 70.5q0 42 29 71t71 29q98 0 119 -141.5t-42 -284t-169 -145.5z" />
    <glyph glyph-name="less" unicode="&#x3c;" horiz-adv-x="1513" 
d="M1323 1317v-117l-1020 -514l1020 -514v-119l-1130 572v125z" />
    <glyph glyph-name="equal" unicode="=" horiz-adv-x="1488" 
d="M131 688v94h1229v-94h-1229zM131 305v94h1229v-94h-1229z" />
    <glyph glyph-name="greater" unicode="&#x3e;" horiz-adv-x="1513" 
d="M193 1317l1130 -567v-125l-1130 -572v119l1017 514l-1017 514v117z" />
    <glyph glyph-name="question" unicode="?" horiz-adv-x="1118" 
d="M498 424v137q0 75 20.5 130t53 86.5t71.5 56.5t78 48.5t71.5 52.5t53 79t20.5 119q0 129 -86 209.5t-221 80.5q-126 0 -212 -77.5t-95 -198.5h-121q6 172 127 283.5t301 111.5q187 0 307.5 -115t120.5 -294q0 -70 -15.5 -125.5t-41.5 -90.5t-59 -64.5t-67 -49t-67 -42.5
t-59 -45t-41.5 -57t-15.5 -79v-156h-123zM567 -20q-41 0 -70.5 29.5t-29.5 70.5t29.5 70.5t70.5 29.5q40 0 70.5 -29.5t30.5 -70.5t-30.5 -70.5t-70.5 -29.5z" />
    <glyph glyph-name="at" unicode="@" horiz-adv-x="1239" 
d="M1047 305h-91v82q-35 -45 -93 -74.5t-111 -29.5q-111 0 -188 75t-77 183q0 107 77 181.5t186 74.5q58 0 116.5 -31.5t89.5 -79.5v64q0 118 -87.5 200t-213.5 82q-181 0 -307.5 -136t-126.5 -331q0 -200 144 -337.5t350 -137.5h332v-90h-332q-161 0 -295.5 74.5
t-211.5 204.5t-77 286q0 153 69.5 281.5t190 203t264.5 74.5q166 0 279 -108t113 -266v-445zM776 365q66 0 116.5 36.5t63.5 96.5v86q-14 59 -64 96t-116 37q-78 0 -132 -50.5t-54 -125.5t54 -125.5t132 -50.5z" />
    <glyph glyph-name="A" unicode="A" horiz-adv-x="1480" 
d="M1282 0l-129 334h-825l-129 -334h-152l617 1536h153l617 -1536h-152zM375 453h731l-367 938z" />
    <glyph glyph-name="B" unicode="B" horiz-adv-x="1316" 
d="M889 788q144 -29 236 -133t92 -252q0 -173 -120 -288t-294 -115h-639v1536h514q175 0 296.5 -115t121.5 -288q0 -116 -55.5 -205t-151.5 -140zM956 1120q0 121 -85 207t-205 86h-365v-586h365q121 0 205.5 85.5t84.5 207.5zM786 125q121 0 206 86t85 207t-85 207t-206 86
h-485v-586h485z" />
    <glyph glyph-name="C" unicode="C" horiz-adv-x="1396" 
d="M858 -20q-213 0 -385.5 106t-268 286t-95.5 396t95.5 396t268 286t385.5 106q250 0 442 -159v-170q-186 198 -442 198q-179 0 -321 -87.5t-219.5 -237.5t-77.5 -332t77.5 -331t219.5 -236.5t321 -87.5q261 0 442 196v-168q-195 -161 -442 -161z" />
    <glyph glyph-name="D" unicode="D" horiz-adv-x="1447" 
d="M164 0v1536h407q209 0 385.5 -103t279.5 -279.5t103 -385.5t-103 -385.5t-279.5 -279.5t-385.5 -103h-407zM301 125h268q130 0 247 50.5t201 136.5t133.5 205t49.5 251t-49.5 251.5t-133.5 205.5t-201 137t-247 51h-268v-1288z" />
    <glyph glyph-name="E" unicode="E" horiz-adv-x="1107" 
d="M991 1413h-688v-582h602v-124h-602v-582h688v-125h-827v1536h827v-123z" />
    <glyph glyph-name="F" unicode="F" horiz-adv-x="1054" 
d="M991 1413h-688v-582h602v-124h-602v-707h-139v1536h827v-123z" />
    <glyph glyph-name="G" unicode="G" horiz-adv-x="1507" 
d="M920 1425q-132 0 -249.5 -49t-204 -135t-137 -210t-50.5 -267t50.5 -267t137 -209.5t203.5 -134.5t248 -49q161 0 301 76v488h-398v125h522v-693q-198 -129 -428 -129q-157 0 -297.5 59.5t-243.5 163t-163.5 252t-60.5 318.5t60.5 318.5t164 251.5t243.5 162.5t295 59.5
q236 0 430 -126v-175q-83 82 -193 126t-230 44z" />
    <glyph glyph-name="H" unicode="H" horiz-adv-x="1482" 
d="M1182 1536h137v-1536h-137v707h-879v-707h-139v1536h139v-705h879v705z" />
    <glyph glyph-name="I" unicode="I" horiz-adv-x="466" 
d="M164 0v1536h139v-1536h-139z" />
    <glyph glyph-name="J" unicode="J" horiz-adv-x="768" 
d="M264 -20q-90 0 -153 18v143q68 -22 153 -22q80 0 138.5 57.5t58.5 138.5v1221h137v-1221q0 -139 -98 -237t-236 -98z" />
    <glyph glyph-name="K" unicode="K" horiz-adv-x="1206" 
d="M1151 143v-184l-848 840v-799h-139v1536h139v-662l658 662h180l-697 -694z" />
    <glyph glyph-name="L" unicode="L" horiz-adv-x="929" 
d="M164 0v1536h139v-1411h580v-125h-719z" />
    <glyph glyph-name="M" unicode="M" horiz-adv-x="1828" 
d="M1522 1536h143v-1536h-137v1329l-615 -919l-610 919v-1329h-139v1536h145l604 -899z" />
    <glyph glyph-name="N" unicode="N" horiz-adv-x="1566" 
d="M1266 1536h137v-1536h-125l-975 1303v-1303h-139v1536h125l977 -1303v1303z" />
    <glyph glyph-name="O" unicode="O" horiz-adv-x="1716" 
d="M858 -20q-213 0 -385.5 106t-268 286t-95.5 396t95.5 396t268 286t385.5 106q160 0 300 -62t238.5 -168t155 -251t56.5 -307t-56.5 -307t-155 -251t-238.5 -168t-300 -62zM858 113q134 0 250 51t196 139t125.5 208.5t45.5 256.5q0 183 -77.5 332.5t-219 237t-320.5 87.5
t-321 -87.5t-219.5 -237.5t-77.5 -332t77.5 -331t219.5 -236.5t321 -87.5z" />
    <glyph glyph-name="P" unicode="P" horiz-adv-x="1179" 
d="M698 1536q175 0 298.5 -123.5t123.5 -298.5q0 -176 -123.5 -299t-298.5 -123h-395v-692h-139v1536h534zM690 811q126 0 214.5 85.5t88.5 215.5q0 128 -88.5 214.5t-214.5 86.5h-387v-602h387z" />
    <glyph glyph-name="Q" unicode="Q" horiz-adv-x="1701" 
d="M1599 131h70v-131h-72q-91 0 -172 84l-77 80q-206 -184 -490 -184q-213 0 -385.5 106t-268 286t-95.5 396t95.5 396t268 286t385.5 106q160 0 300 -62t238.5 -168t155 -251t56.5 -307q0 -296 -172 -512l88 -92q33 -33 75 -33zM858 113q235 0 399 145l-268 283l88 88
l266 -279q132 181 132 418q0 183 -77.5 332.5t-219 237t-320.5 87.5t-321 -87.5t-219.5 -237.5t-77.5 -332t77.5 -331t219.5 -236.5t321 -87.5z" />
    <glyph glyph-name="R" unicode="R" horiz-adv-x="1185" 
d="M762 707l393 -707h-156l-378 700h-318v-700h-139v1536h534q175 0 298.5 -123.5t123.5 -300.5q0 -156 -102.5 -270.5t-255.5 -134.5zM303 817h391q124 0 211.5 87.5t87.5 211.5q0 123 -88 210t-211 87h-391v-596z" />
    <glyph glyph-name="S" unicode="S" horiz-adv-x="1273" 
d="M659 -20q-186 0 -337 82t-224 212l99 103q47 -115 173.5 -189.5t291.5 -74.5q160 0 262 70t102 212q0 44 -12 82.5t-29.5 67.5t-51 57t-61 46t-76 40t-79 33.5t-86.5 32.5q-175 66 -245 107q-160 94 -183 243q-4 27 -4 57q0 97 37.5 174t102 124.5t146 72t174.5 24.5
q156 0 281 -55t201 -145l-94 -96q-56 79 -155.5 127.5t-232.5 48.5q-135 0 -227 -67.5t-92 -197.5q0 -36 11 -68.5t26.5 -57t45 -48.5t54.5 -40t68 -35.5t72 -31t79 -30.5q181 -70 255 -113q177 -103 208 -265q8 -38 8 -81q0 -104 -39.5 -185.5t-109 -132.5t-160.5 -77
t-199 -26z" />
    <glyph glyph-name="T" unicode="T" horiz-adv-x="1052" 
d="M1026 1538v-125h-430v-1411h-137v1411h-430v125h997z" />
    <glyph glyph-name="U" unicode="U" horiz-adv-x="1474" 
d="M737 -20q-155 0 -285.5 70t-206 191t-75.5 265v1030h139v-1010q0 -175 125 -298.5t303 -123.5q180 0 305 123.5t125 298.5v1010h138v-1030q0 -144 -76 -265t-206.5 -191t-285.5 -70z" />
    <glyph glyph-name="V" unicode="V" horiz-adv-x="1378" 
d="M1227 1536h155l-616 -1536h-154l-618 1536h158l536 -1374z" />
    <glyph glyph-name="W" unicode="W" horiz-adv-x="2142" 
d="M2013 1536h150l-650 -1536h-149l-293 692l-291 -692h-149l-651 1536h149l580 -1370l292 692l-286 678h143l578 -1372z" />
    <glyph glyph-name="X" unicode="X" horiz-adv-x="1290" 
d="M1243 0h-162l-438 662l-436 -662h-160l520 776l-510 760h158l428 -645l430 645h158l-512 -760z" />
    <glyph glyph-name="Y" unicode="Y" horiz-adv-x="1302" 
d="M1255 1536l-534 -807v-729h-137v725l-537 811h156l448 -688l451 688h153z" />
    <glyph glyph-name="Z" unicode="Z" horiz-adv-x="1353" 
d="M289 125h966v-125h-1159v70l932 1343h-909v123h1102v-70z" />
    <glyph glyph-name="bracketleft" unicode="[" horiz-adv-x="552" 
d="M170 -649v2322h383v-106h-264v-2110h264v-106h-383z" />
    <glyph glyph-name="backslash" unicode="\" horiz-adv-x="1179" 
d="M1049 -512l-1080 2048h133l1078 -2048h-131z" />
    <glyph glyph-name="bracketright" unicode="]" horiz-adv-x="552" 
d="M170 -649v106h264v2110h-264v106h383v-2322h-383z" />
    <glyph glyph-name="asciicircum" unicode="^" horiz-adv-x="1402" 
d="M1333 406h-119l-514 1017l-512 -1017h-118l569 1130h125z" />
    <glyph glyph-name="underscore" unicode="_" horiz-adv-x="1406" 
d="M193 -98v98h1024v-98h-1024z" />
    <glyph glyph-name="grave" unicode="`" horiz-adv-x="108" 
d="M285 1229l-215 307h141l188 -307h-114z" />
    <glyph glyph-name="a" unicode="a" horiz-adv-x="1097" 
d="M530 1044q117 0 207 -39.5t145.5 -125.5t55.5 -209v-670h-121l-6 168q-92 -89 -197.5 -138.5t-210.5 -49.5q-136 0 -223.5 88t-87.5 225q0 72 27 130t88 103t158 55t237 -14l205 -39v148q0 126 -78.5 189t-206.5 63q-102 0 -181.5 -41t-121.5 -117l-94 82q56 90 159 141
t246 51zM432 100q187 0 375 191v133l-203 43q-195 39 -285 -13.5t-90 -154.5q0 -88 55.5 -143.5t147.5 -55.5z" />
    <glyph glyph-name="b" unicode="b" horiz-adv-x="1224" 
d="M666 1044q211 0 342 -152.5t131 -379.5q0 -148 -57.5 -268.5t-166.5 -192t-249 -71.5q-119 0 -215.5 54t-159.5 150l-4 -184h-123v1536h133v-690q62 93 157 145.5t212 52.5zM647 100q162 0 261.5 118.5t99.5 293.5q0 176 -99.5 294t-261.5 118q-133 0 -228 -88.5
t-122 -227.5v-192q27 -139 122 -227.5t228 -88.5z" />
    <glyph glyph-name="c" unicode="c" horiz-adv-x="933" 
d="M567 -20q-217 0 -349 151t-132 381t132 381t349 151q160 0 277 -94v-139q-107 117 -264 117q-163 0 -263 -118t-100 -298q0 -178 100 -297t263 -119q77 0 146.5 31t117.5 84v-137q-114 -94 -277 -94z" />
    <glyph glyph-name="d" unicode="d" horiz-adv-x="1224" 
d="M930 1536h131v-1536h-121l-8 184q-63 -96 -158.5 -150t-214.5 -54q-140 0 -249 71.5t-166.5 192t-57.5 268.5q0 227 131 379.5t342 152.5q117 0 212.5 -52.5t158.5 -145.5v690zM578 100q132 0 228 88.5t124 227.5v192q-28 139 -124 227.5t-228 88.5q-161 0 -261 -118
t-100 -294q0 -174 100 -293t261 -119z" />
    <glyph glyph-name="e" unicode="e" horiz-adv-x="1124" 
d="M1040 520q0 -35 -2 -53h-821q12 -167 107 -268t251 -101q100 0 172 41t132 133l94 -67q-63 -108 -165 -166.5t-237 -58.5q-145 0 -256.5 70.5t-170 190.5t-58.5 271q0 150 58.5 270.5t170 191t256.5 70.5q213 0 341 -146t128 -378zM573 928q-150 0 -243 -97.5
t-111 -257.5h699q-14 160 -105.5 257.5t-239.5 97.5z" />
    <glyph glyph-name="f" unicode="f" horiz-adv-x="714" 
d="M547 1442q-64 0 -108 -48.5t-44 -119.5v-250h281v-106h-281v-918h-133v918h-172v106h172v256q0 115 83 195.5t200 80.5q137 0 217 -102l-78 -82q-50 70 -137 70z" />
    <glyph glyph-name="g" unicode="g" horiz-adv-x="1224" 
d="M940 1024h121v-1010q0 -148 -59.5 -267.5t-170 -189t-251.5 -69.5q-182 0 -320 113v151q136 -143 328 -143q149 0 245.5 113t96.5 292v170q-64 -96 -160 -150t-211 -54q-140 0 -249 71.5t-166.5 192t-57.5 268.5q0 227 131 379.5t342 152.5q116 0 213 -55.5t160 -152.5z
M578 100q128 0 226 90.5t126 229.5v186q-28 138 -126 228t-226 90q-161 0 -261 -118t-100 -294q0 -174 100 -293t261 -119z" />
    <glyph glyph-name="h" unicode="h" horiz-adv-x="1191" 
d="M635 1044q169 0 283 -113.5t114 -283.5v-647h-135v635q0 122 -85.5 205.5t-209.5 83.5q-126 0 -214.5 -86t-88.5 -209v-629h-135v1536h135v-662q56 79 144 124.5t192 45.5z" />
    <glyph glyph-name="i" unicode="i" horiz-adv-x="536" 
d="M268 1219q-40 0 -70 29.5t-30 70.5t30 70.5t70 29.5q41 0 71 -29.5t30 -70.5t-30 -70.5t-71 -29.5zM201 0v1024h135v-1024h-135z" />
    <glyph glyph-name="j" unicode="j" horiz-adv-x="532" 
d="M299 1219q-41 0 -70.5 29.5t-29.5 70.5t29.5 70.5t70.5 29.5q40 0 70 -29.5t30 -70.5t-30 -70.5t-70 -29.5zM82 -532q-32 0 -69.5 9.5t-57.5 22.5v121q21 -17 54.5 -28t60.5 -11q68 0 114.5 49t46.5 119v1274h136v-1280q0 -115 -83 -195.5t-202 -80.5z" />
    <glyph glyph-name="k" unicode="k" horiz-adv-x="980" 
d="M973 80v-168l-674 614v-524h-135v1536h135v-930l461 416h174l-502 -451z" />
    <glyph glyph-name="l" unicode="l" horiz-adv-x="626" 
d="M440 -20q-122 0 -196 73.5t-74 192.5v1290h133l2 -1290q0 -71 36 -109.5t101 -38.5q69 0 109 43l76 -92q-69 -69 -187 -69z" />
    <glyph glyph-name="m" unicode="m" horiz-adv-x="1843" 
d="M1305 1044q163 0 270.5 -109t107.5 -273v-662h-135v649q0 116 -78.5 195.5t-195.5 79.5q-118 0 -200.5 -82t-82.5 -201v-641h-135v649q0 116 -78.5 195.5t-195.5 79.5q-118 0 -200.5 -82t-82.5 -201v-641h-135v1024h125l6 -141q54 75 136.5 118t180.5 43
q113 0 202.5 -54.5t135.5 -149.5q53 94 147 149t208 55z" />
    <glyph glyph-name="n" unicode="n" horiz-adv-x="1191" 
d="M635 1044q169 0 283 -113.5t114 -283.5v-647h-135v635q0 122 -85.5 205.5t-209.5 83.5q-126 0 -214.5 -86t-88.5 -209v-629h-135v1024h125l6 -154q57 81 146 127.5t194 46.5z" />
    <glyph glyph-name="o" unicode="o" horiz-adv-x="1157" 
d="M578 -20q-143 0 -256.5 71.5t-174.5 192.5t-61 268t61 268t174.5 192.5t256.5 71.5q144 0 257.5 -71.5t174.5 -192.5t61 -268t-61 -268t-174.5 -192.5t-257.5 -71.5zM578 100q162 0 261 118.5t99 293.5q0 176 -99 294t-261 118q-161 0 -261 -118t-100 -294
q0 -174 100 -293t261 -119z" />
    <glyph glyph-name="p" unicode="p" horiz-adv-x="1224" 
d="M666 1044q211 0 342 -152.5t131 -379.5q0 -148 -57.5 -268.5t-166.5 -192t-249 -71.5q-117 0 -212 52.5t-157 145.5v-690h-133v1536h133v-178q62 93 157 145.5t212 52.5zM647 100q162 0 261.5 118.5t99.5 293.5q0 176 -99.5 294t-261.5 118q-133 0 -228 -88.5
t-122 -227.5v-192q27 -139 122 -227.5t228 -88.5z" />
    <glyph glyph-name="q" unicode="q" horiz-adv-x="1224" 
d="M930 1024h131v-1536h-131v690q-63 -93 -158.5 -145.5t-212.5 -52.5q-140 0 -249 71.5t-166.5 192t-57.5 268.5q0 227 131 379.5t342 152.5q117 0 212.5 -52.5t158.5 -145.5v178zM578 100q132 0 228 88.5t124 227.5v192q-28 139 -124 227.5t-228 88.5q-161 0 -261 -118
t-100 -294q0 -174 100 -293t261 -119z" />
    <glyph glyph-name="r" unicode="r" horiz-adv-x="774" 
d="M608 1044q126 0 197 -49l-64 -98q-61 27 -139 27q-121 0 -212 -94.5t-91 -231.5v-598h-135v1024h125l6 -168q55 86 138 137t175 51z" />
    <glyph glyph-name="s" unicode="s" horiz-adv-x="958" 
d="M489 -20q-126 0 -242.5 49t-166.5 123l78 86q35 -60 130 -102t195 -44q109 -2 181.5 46t72.5 134q0 29 -9 52.5t-29 42t-40 32t-54 26t-59 20.5t-66 20q-5 1 -7.5 2t-6.5 2t-7 2q-41 12 -68 20.5t-64 23.5t-61.5 29.5t-51.5 36.5t-42.5 46.5t-26 58t-10.5 72.5
q0 88 54.5 155t135 99t171.5 32q94 0 184.5 -32.5t146.5 -81.5l-79 -92q-40 43 -102 68t-128 28q-98 3 -173 -38.5t-75 -121.5q0 -36 15 -65t35.5 -47.5t59 -35.5t67.5 -26t79 -22q36 -10 50 -14t48 -14.5t49.5 -17t44.5 -19t43 -24t35.5 -28t32 -34.5t22.5 -40.5t16.5 -49
t4.5 -56.5q0 -131 -109.5 -216t-273.5 -85z" />
    <glyph glyph-name="t" unicode="t" horiz-adv-x="657" 
d="M571 141l76 -92q-69 -69 -186 -69q-122 0 -196.5 73.5t-74.5 192.5v672h-141v106h141v348h136v-348h264v-106h-264v-672q0 -71 37 -109.5t102 -38.5q66 0 106 43z" />
    <glyph glyph-name="u" unicode="u" horiz-adv-x="1198" 
d="M901 1024h133v-1024h-123l-8 156q-57 -81 -145 -128.5t-189 -47.5q-168 0 -285.5 117.5t-117.5 285.5v641h135v-627q0 -123 86.5 -210t210.5 -87q125 0 214 87t89 210v627z" />
    <glyph glyph-name="v" unicode="v" horiz-adv-x="993" 
d="M829 1024h144l-412 -1024h-131l-410 1024h146l332 -864z" />
    <glyph glyph-name="w" unicode="w" horiz-adv-x="1435" 
d="M1264 1024h147l-350 -1024h-150l-196 559l-189 -559h-147l-352 1024h149l285 -862l192 575l-100 287h133l293 -866z" />
    <glyph glyph-name="x" unicode="x" horiz-adv-x="1005" 
d="M1010 1024l-426 -512l426 -512h-164l-344 414l-342 -414h-166l426 512l-426 512h164l344 -414l344 414h164z" />
    <glyph glyph-name="y" unicode="y" horiz-adv-x="1200" 
d="M1034 1024l2 -1075q0 -102 -28 -187t-82.5 -150t-143.5 -101.5t-204 -36.5q-212 0 -361 112v152q151 -144 369 -144q162 0 238.5 95t76.5 260v201q-58 -78 -145.5 -124t-186.5 -46q-168 0 -285.5 117.5t-117.5 285.5v641h135v-627q0 -123 86.5 -210t210.5 -87
q125 0 214 87t89 210v627h133z" />
    <glyph glyph-name="z" unicode="z" horiz-adv-x="1054" 
d="M86 0v90l678 819h-662v115h846v-84l-678 -825h699v-115h-883z" />
    <glyph glyph-name="braceleft" unicode="{" horiz-adv-x="653" 
d="M461 -635q-84 0 -140.5 75.5t-56.5 186.5v486q0 152 -28 225.5t-125 122.5v100q42 21 70 47.5t44.5 54t25 68.5t11 78.5t2.5 97.5v479q0 111 56.5 187t140.5 76h80v-101q-94 0 -131 -39t-37 -137v-495q0 -129 -29 -216.5t-119 -150.5q90 -62 119 -149.5t29 -217.5v-501
q0 -89 38 -129.5t130 -40.5v-107h-80z" />
    <glyph glyph-name="bar" unicode="|" horiz-adv-x="587" 
d="M248 -307v1843h92v-1843h-92z" />
    <glyph glyph-name="braceright" unicode="}" horiz-adv-x="653" 
d="M113 -635v107q93 0 130.5 40.5t37.5 129.5v501q0 131 29 218t120 149q-91 63 -120 150t-29 217v495q0 99 -36.5 137.5t-131.5 38.5v105h82q84 0 140 -74.5t56 -185.5v-486q0 -59 2.5 -97t11 -79t25 -68.5t45 -54t70.5 -47.5v-100q-42 -21 -69.5 -46t-44.5 -52t-26 -67.5
t-11.5 -80.5t-2.5 -102v-486q0 -111 -56 -186.5t-140 -75.5h-82z" />
    <glyph glyph-name="asciitilde" unicode="~" horiz-adv-x="1150" 
d="M799 377q-45 0 -84 12.5t-72.5 39t-52.5 45.5t-49 54q-47 56 -88.5 84.5t-94.5 28.5q-86 0 -139.5 -69t-50.5 -171h-82q-4 141 73.5 230.5t198.5 89.5q78 0 134.5 -38.5t117.5 -113.5q45 -55 86 -83.5t97 -28.5q86 0 140 66t50 169h82q6 -135 -70.5 -225t-195.5 -90z" />
    <glyph glyph-name="exclamdown" unicode="&#xa1;" horiz-adv-x="583" 
d="M293 823q-41 0 -70.5 30t-29.5 71t29.5 70.5t70.5 29.5q40 0 70 -29.5t30 -70.5t-30 -71t-70 -30zM225 -512l13 1114h108l12 -1114h-133z" />
    <glyph glyph-name="cent" unicode="&#xa2;" horiz-adv-x="1097" 
d="M655 1128q-172 0 -291.5 -119.5t-119.5 -291.5q0 -171 120 -291.5t291 -120.5q177 0 293 107v-138q-124 -84 -272 -90v-186h-88v190q-204 25 -341.5 175.5t-137.5 353.5t137.5 353t341.5 175v193h88v-189q145 -6 272 -90v-137q-118 106 -293 106z" />
    <glyph glyph-name="sterling" unicode="&#xa3;" horiz-adv-x="1228" 
d="M352 102h778v-102h-884v709h-164v96h164v297q0 200 122.5 327t317.5 127q137 0 254 -83.5t158 -212.5l-103 -46q-28 102 -116 168t-193 66q-151 0 -242.5 -95.5t-91.5 -250.5v-297h381v-96h-381v-607z" />
    <glyph glyph-name="currency" unicode="&#xa4;" horiz-adv-x="1208" 
d="M233 297l-75 80l102 100q-92 115 -92 266.5t94 266.5l-102 100l76 80l102 -105q117 94 266.5 94.5t265.5 -94.5l103 103l76 -76l-101 -100q94 -117 94 -267.5t-94 -267.5l101 -100l-74 -80l-105 104q-116 -94 -266.5 -94t-267.5 94zM369 512q98 -98 234.5 -98t234.5 98
q95 95 95 231.5t-95 233.5q-97 95 -233.5 95t-233.5 -97q-95 -97 -95.5 -233t93.5 -230z" />
    <glyph glyph-name="yen" unicode="&#xa5;" horiz-adv-x="1357" 
d="M739 737v-30h435v-95h-435v-213h435v-90h-435v-309h-121v309h-428v90h428v213h-428v95h428v30l-528 799h131l457 -700l459 700h131z" />
    <glyph glyph-name="brokenbar" unicode="&#xa6;" horiz-adv-x="587" 
d="M248 799v737h92v-737h-92zM248 -307v737h92v-737h-92z" />
    <glyph glyph-name="section" unicode="&#xa7;" horiz-adv-x="1249" 
d="M1032 496q84 -74 84 -179q0 -95 -68.5 -167.5t-177.5 -109t-237 -36.5q-173 0 -307 65t-189 164l90 52q40 -79 150 -132t260 -53q156 0 264.5 57.5t108.5 159.5q0 60 -44 104.5t-115 73t-156 53t-170.5 52.5t-156.5 64t-115 96t-44 139q0 107 84 182q-82 72 -82 179
q0 94 62 163t156 101t204 32q120 0 226 -39t171 -102l-76 -59q-50 50 -133 79t-182 29q-133 0 -228.5 -53t-95.5 -147q0 -60 44 -105t115 -73t156 -53t170.5 -53.5t156.5 -65t115 -96.5t44 -140q0 -104 -84 -182zM315 903q0 -60 41.5 -105t115 -75t150.5 -53t171 -54
t155 -63q62 56 62 127q0 59 -42 103t-115.5 73.5t-150.5 52.5t-171 53t-154 62q-62 -49 -62 -121z" />
    <glyph glyph-name="dieresis" unicode="&#xa8;" horiz-adv-x="108" 
d="M236 1219q-41 0 -71 29.5t-30 70.5t30 70.5t71 29.5q40 0 70 -29.5t30 -70.5t-30 -70.5t-70 -29.5zM594 1219q-41 0 -70.5 29.5t-29.5 70.5t29.5 70.5t70.5 29.5q40 0 69 -29.5t29 -70.5t-29 -70.5t-69 -29.5z" />
    <glyph glyph-name="copyright" unicode="&#xa9;" horiz-adv-x="1794" 
d="M897 -20q-160 0 -306 62.5t-251.5 168t-168 251.5t-62.5 306t62.5 306t168 251.5t251.5 168t306 62.5q128 0 248.5 -40t217.5 -113t170 -170t113 -217t40 -248t-40 -248t-113 -217t-170 -170t-217.5 -113t-248.5 -40zM897 63q145 0 276 55.5t225.5 150t150 225
t55.5 274.5t-55.5 274.5t-150 225t-225.5 150t-276 55.5q-192 0 -354 -94t-256 -256.5t-94 -354.5t94 -354.5t256 -256.5t354 -94zM918 342q-178 0 -303.5 123t-125.5 297t125.5 297t303.5 123q128 0 237 -76v-96l-10 -2q-94 84 -225 84q-138 0 -235 -94.5t-97 -235.5
q0 -140 97 -235t235 -95q130 0 225 82l10 -2v-94q-105 -76 -237 -76z" />
    <glyph glyph-name="ordfeminine" unicode="&#xaa;" horiz-adv-x="829" 
d="M641 1536h78v-614h-78v143q-39 -72 -109 -114t-155 -42q-129 0 -221.5 93.5t-92.5 226.5q0 132 92.5 225.5t221.5 93.5q85 0 155 -42.5t109 -114.5v145zM391 979q103 0 176.5 73t73.5 177q0 103 -73.5 175.5t-176.5 72.5q-104 0 -177 -72.5t-73 -175.5q0 -104 73 -177
t177 -73z" />
    <glyph glyph-name="guillemotleft" unicode="&#xab;" horiz-adv-x="1253" 
d="M547 195l-311 376l311 377h119l-312 -377l312 -376h-119zM899 195l-311 376l311 377h121l-311 -377l311 -376h-121z" />
    <glyph glyph-name="logicalnot" unicode="&#xac;" horiz-adv-x="1589" 
d="M1305 252v524h-1112v94h1206v-618h-94z" />
    <glyph glyph-name="uni00AD" unicode="&#xad;" horiz-adv-x="1208" 
d="M193 483v99h716v-99h-716z" />
    <glyph glyph-name="registered" unicode="&#xae;" horiz-adv-x="1794" 
d="M897 1556q128 0 248.5 -40t217.5 -113t170 -170t113 -217t40 -248t-40 -248t-113 -217t-170 -170t-217.5 -113t-248.5 -40q-160 0 -306 62.5t-251.5 168t-168 251.5t-62.5 306t62.5 306t168 251.5t251.5 168t306 62.5zM897 63q145 0 276 55.5t225.5 150t150 225
t55.5 274.5t-55.5 274.5t-150 225t-225.5 150t-276 55.5q-192 0 -354 -94t-256 -256.5t-94 -354.5t94 -354.5t256 -256.5t354 -94zM1178 944q0 -77 -48 -137.5t-122 -79.5l198 -358h-88l-196 350h-152v-350h-80v800h260q94 0 161 -66t67 -159zM770 1090v-291h180
q61 0 104.5 42.5t43.5 102.5q0 61 -43 103.5t-105 42.5h-180z" />
    <glyph glyph-name="macron" unicode="&#xaf;" horiz-adv-x="137" 
d="M70 1243v94h635v-94h-635z" />
    <glyph glyph-name="degree" unicode="&#xb0;" horiz-adv-x="1013" 
d="M508 1008q-114 0 -194.5 80.5t-80.5 193.5q0 114 80.5 194t194.5 80q113 0 193.5 -80t80.5 -194q0 -112 -81 -193t-193 -81zM508 1085q82 0 139.5 57.5t57.5 139.5q0 83 -57.5 140t-139.5 57q-83 0 -140 -57t-57 -140q0 -82 57 -139.5t140 -57.5z" />
    <glyph glyph-name="plusminus" unicode="&#xb1;" horiz-adv-x="1626" 
d="M860 860h656v-94h-656v-369h-94v369h-655v94h655v369h94v-369zM111 0v88h1405v-88h-1405z" />
    <glyph glyph-name="uni00B2" unicode="&#xb2;" horiz-adv-x="702" 
d="M82 778v51q280 286 320 330q80 88 92 137q4 16 4 37q0 72 -44 113t-110 43q-69 0 -114 -42.5t-46 -113.5h-73q0 100 68.5 162.5t168.5 60.5q93 0 156.5 -56t66.5 -150q1 -45 -9.5 -80t-52.5 -89t-93.5 -107.5t-163.5 -166.5q-12 -12 -19.5 -19t-18.5 -18.5t-21 -21.5h407
v-70h-518z" />
    <glyph glyph-name="uni00B3" unicode="&#xb3;" horiz-adv-x="753" 
d="M463 1210q63 -29 101 -83t38 -123q0 -98 -68 -167t-167 -69q-98 0 -167 65.5t-69 157.5l76 2q0 -63 47 -107t113 -44q67 0 113 47t46 115q0 69 -45.5 115t-113.5 46h-62v66h57q54 0 92 37t38 92q0 52 -38 88.5t-92 36.5q-52 0 -88 -34.5t-36 -84.5h-74q0 80 57.5 135
t140.5 55t141 -55.5t58 -134.5q0 -50 -26.5 -91t-71.5 -65z" />
    <glyph glyph-name="acute" unicode="&#xb4;" horiz-adv-x="108" 
d="M70 1229l188 307h141l-215 -307h-114z" />
    <glyph glyph-name="uni00B5" unicode="&#xb5;" horiz-adv-x="1208" 
d="M905 1024h135v-1024h-135v164q-56 -86 -144 -135t-190 -49q-176 0 -295 129v-621h-104v1536h133v-627q0 -123 87 -210t210 -87q126 0 214.5 87t88.5 210v627z" />
    <glyph glyph-name="paragraph" unicode="&#xb6;" horiz-adv-x="1255" 
d="M649 -307v1157h-71q-171 0 -268 89.5t-97 254.5t97 253.5t268 88.5h151v-1843h-80zM922 -307v1843h79v-1843h-79z" />
    <glyph glyph-name="periodcentered" unicode="&#xb7;" horiz-adv-x="552" 
d="M276 653q-34 0 -58.5 24.5t-24.5 59.5q0 34 24.5 59t58.5 25t59 -25t25 -59q0 -35 -25 -59.5t-59 -24.5z" />
    <glyph glyph-name="cedilla" unicode="&#xb8;" horiz-adv-x="108" 
d="M303 -532q-66 0 -133.5 34.5t-99.5 85.5l65 33q26 -34 75 -57t93 -23q55 0 92 37.5t37 93.5q0 77 -63.5 108t-155.5 -1l-63 45l86 176h75l-65 -143q109 22 185.5 -32.5t76.5 -152.5q0 -86 -59.5 -145t-145.5 -59z" />
    <glyph glyph-name="uni00B9" unicode="&#xb9;" horiz-adv-x="522" 
d="M190 768v700h-118v68h196v-768h-78z" />
    <glyph glyph-name="ordmasculine" unicode="&#xba;" horiz-adv-x="782" 
d="M391 909q-135 0 -231.5 93.5t-96.5 226.5q0 132 96.5 225.5t231.5 93.5q136 0 232 -93.5t96 -225.5q0 -133 -95.5 -226.5t-232.5 -93.5zM391 979q103 0 176.5 73t73.5 177q0 103 -73.5 175.5t-176.5 72.5q-104 0 -177 -72.5t-73 -175.5q0 -104 73 -177t177 -73z" />
    <glyph glyph-name="guillemotright" unicode="&#xbb;" horiz-adv-x="1253" 
d="M233 195l312 376l-312 377h119l312 -377l-312 -376h-119zM586 195l311 376l-311 377h121l311 -377l-311 -376h-121z" />
    <glyph glyph-name="questiondown" unicode="&#xbf;" horiz-adv-x="1114" 
d="M549 1059q41 0 70.5 -29.5t29.5 -71.5q0 -40 -29.5 -70t-70.5 -30q-40 0 -70 30t-30 70q0 42 30 71.5t70 29.5zM618 616v-139q0 -75 -20.5 -129.5t-53 -86t-71.5 -56t-78 -48t-71.5 -52.5t-53 -79.5t-20.5 -119.5q0 -129 86 -210t221 -81q126 0 212 77.5t95 198.5h121
q-6 -172 -127 -283.5t-301 -111.5q-187 0 -307.5 115.5t-120.5 294.5q0 70 16 126t41.5 91t58.5 65t67.5 49t67.5 42t58.5 45t41.5 56.5t16 78.5v157h122z" />
    <glyph glyph-name="Agrave" unicode="&#xc0;" horiz-adv-x="1480" 
d="M793 1741h-115l-215 307h141zM1282 0l-129 334h-825l-129 -334h-152l617 1536h153l617 -1536h-152zM375 453h731l-367 938z" />
    <glyph glyph-name="Aacute" unicode="&#xc1;" horiz-adv-x="1480" 
d="M1018 2048l-215 -307h-115l189 307h141zM1282 0l-129 334h-825l-129 -334h-152l617 1536h153l617 -1536h-152zM375 453h731l-367 938z" />
    <glyph glyph-name="Acircumflex" unicode="&#xc2;" horiz-adv-x="1480" 
d="M741 1978l-163 -280h-115l205 350h145l205 -350h-115zM1282 0l-129 334h-825l-129 -334h-152l617 1536h153l617 -1536h-152zM375 453h731l-367 938z" />
    <glyph glyph-name="Atilde" unicode="&#xc3;" horiz-adv-x="1480" 
d="M498 1747h-90q-10 107 43 176.5t143 69.5q115 0 184 -109q41 -67 109 -67q51 0 79 43t21 112h88q12 -106 -41 -174.5t-145 -68.5q-117 0 -184 108q-42 68 -107 68q-53 0 -81 -44.5t-19 -113.5zM1282 0l-129 334h-825l-129 -334h-152l617 1536h153l617 -1536h-152z
M375 453h731l-367 938z" />
    <glyph glyph-name="Adieresis" unicode="&#xc4;" horiz-adv-x="1480" 
d="M563 1731q-41 0 -70.5 29.5t-29.5 70.5t29.5 70.5t70.5 29.5q40 0 70.5 -29.5t30.5 -70.5t-30.5 -70.5t-70.5 -29.5zM922 1731q-41 0 -71 29.5t-30 70.5t30 70.5t71 29.5q40 0 69 -29.5t29 -70.5t-29 -70.5t-69 -29.5zM1282 0l-129 334h-825l-129 -334h-152l617 1536h153
l617 -1536h-152zM375 453h731l-367 938z" />
    <glyph glyph-name="Aring" unicode="&#xc5;" horiz-adv-x="1480" 
d="M1282 0l-129 334h-825l-129 -334h-152l600 1497q-46 25 -74 71t-28 101q0 82 57.5 139.5t140.5 57.5q80 0 137.5 -58t57.5 -139q0 -56 -28.5 -102.5t-75.5 -71.5l600 -1495h-152zM743 1798q-54 0 -91.5 -37.5t-37.5 -91.5q0 -55 37.5 -92t91.5 -37q53 0 90 37t37 92
q0 54 -37 91.5t-90 37.5zM375 453h731l-367 938z" />
    <glyph glyph-name="AE" unicode="&#xc6;" horiz-adv-x="1792" 
d="M47 0l617 1536h1011v-121h-690v-592h604v-110h-604v-592h690v-121h-825v344h-516l-131 -344h-156zM381 455h469v960h-88z" />
    <glyph glyph-name="Ccedilla" unicode="&#xc7;" horiz-adv-x="1396" 
d="M858 1425q-179 0 -321 -87.5t-219.5 -237.5t-77.5 -332t77.5 -331t219.5 -236.5t321 -87.5q261 0 442 196v-168q-178 -149 -411 -161l-58 -123q109 22 186 -32.5t77 -152.5q0 -86 -59.5 -145t-145.5 -59q-66 0 -134 34.5t-100 85.5l66 33q26 -34 75 -57t93 -23
q55 0 92 37.5t37 93.5q0 77 -63.5 108t-155.5 -1l-64 45l76 158q-202 11 -363.5 119t-250 283.5t-88.5 383.5q0 216 95.5 396t268 286t385.5 106q250 0 442 -159v-170q-186 198 -442 198z" />
    <glyph glyph-name="Egrave" unicode="&#xc8;" horiz-adv-x="1107" 
d="M629 1741h-115l-215 307h141zM991 1413h-688v-582h602v-124h-602v-582h688v-125h-827v1536h827v-123z" />
    <glyph glyph-name="Eacute" unicode="&#xc9;" horiz-adv-x="1107" 
d="M854 2048l-215 -307h-115l189 307h141zM991 1413h-688v-582h602v-124h-602v-582h688v-125h-827v1536h827v-123z" />
    <glyph glyph-name="Ecircumflex" unicode="&#xca;" horiz-adv-x="1107" 
d="M578 1978l-164 -280h-115l205 350h145l205 -350h-115zM991 1413h-688v-582h602v-124h-602v-582h688v-125h-827v1536h827v-123z" />
    <glyph glyph-name="Edieresis" unicode="&#xcb;" horiz-adv-x="1107" 
d="M399 1731q-41 0 -70.5 29.5t-29.5 70.5t29.5 70.5t70.5 29.5q40 0 70.5 -29.5t30.5 -70.5t-30.5 -70.5t-70.5 -29.5zM758 1731q-41 0 -71 29.5t-30 70.5t30 70.5t71 29.5q40 0 69 -29.5t29 -70.5t-29 -70.5t-69 -29.5zM991 1413h-688v-582h602v-124h-602v-582h688v-125
h-827v1536h827v-123z" />
    <glyph glyph-name="Igrave" unicode="&#xcc;" horiz-adv-x="466" 
d="M168 1741l-217 307h143l189 -307h-115zM164 0v1536h139v-1536h-139z" />
    <glyph glyph-name="Iacute" unicode="&#xcd;" horiz-adv-x="466" 
d="M180 1741l189 307h141l-215 -307h-115zM164 0v1536h139v-1536h-139z" />
    <glyph glyph-name="Icircumflex" unicode="&#xce;" horiz-adv-x="466" 
d="M-47 1698l207 350h145l205 -350h-115l-162 280l-163 -280h-117zM164 0v1536h139v-1536h-139z" />
    <glyph glyph-name="Idieresis" unicode="&#xcf;" horiz-adv-x="466" 
d="M53 1731q-41 0 -71.5 29.5t-30.5 70.5t30.5 70.5t71.5 29.5q40 0 70.5 -29.5t30.5 -70.5t-30.5 -70.5t-70.5 -29.5zM412 1731q-41 0 -71 29.5t-30 70.5t30 70.5t71 29.5q40 0 69 -29.5t29 -70.5t-29 -70.5t-69 -29.5zM164 0v1536h139v-1536h-139z" />
    <glyph glyph-name="Eth" unicode="&#xd0;" horiz-adv-x="1447" 
d="M571 1536q209 0 385.5 -103t279.5 -279.5t103 -385.5t-103 -385.5t-279.5 -279.5t-385.5 -103h-407v719h-160v100h160v717h407zM569 125q130 0 247 50.5t201 136.5t133.5 205t49.5 251t-49.5 251.5t-133.5 205.5t-201 137t-247 51h-268v-594h281v-100h-281v-594h268z" />
    <glyph glyph-name="Ntilde" unicode="&#xd1;" horiz-adv-x="1566" 
d="M532 1747h-90q-10 106 43.5 176t143.5 70q115 0 184 -109q41 -67 109 -67q51 0 79 43t21 112h88q12 -106 -41 -174.5t-145 -68.5q-118 0 -185 108q-42 68 -106 68q-53 0 -81.5 -44.5t-19.5 -113.5zM1266 1536h137v-1536h-125l-975 1303v-1303h-139v1536h125l977 -1303
v1303z" />
    <glyph glyph-name="Ograve" unicode="&#xd2;" horiz-adv-x="1716" 
d="M795 1741l-215 307h141l188 -307h-114zM858 -20q-213 0 -385.5 106t-268 286t-95.5 396t95.5 396t268 286t385.5 106q160 0 300 -62t238.5 -168t155 -251t56.5 -307t-56.5 -307t-155 -251t-238.5 -168t-300 -62zM858 113q134 0 250 51t196 139t125.5 208.5t45.5 256.5
q0 183 -77.5 332.5t-219 237t-320.5 87.5t-321 -87.5t-219.5 -237.5t-77.5 -332t77.5 -331t219.5 -236.5t321 -87.5z" />
    <glyph glyph-name="Oacute" unicode="&#xd3;" horiz-adv-x="1716" 
d="M807 1741l188 307h142l-215 -307h-115zM858 -20q-213 0 -385.5 106t-268 286t-95.5 396t95.5 396t268 286t385.5 106q160 0 300 -62t238.5 -168t155 -251t56.5 -307t-56.5 -307t-155 -251t-238.5 -168t-300 -62zM858 113q134 0 250 51t196 139t125.5 208.5t45.5 256.5
q0 183 -77.5 332.5t-219 237t-320.5 87.5t-321 -87.5t-219.5 -237.5t-77.5 -332t77.5 -331t219.5 -236.5t321 -87.5z" />
    <glyph glyph-name="Ocircumflex" unicode="&#xd4;" horiz-adv-x="1716" 
d="M582 1698l204 350h146l205 -350h-115l-162 280l-164 -280h-114zM858 -20q-213 0 -385.5 106t-268 286t-95.5 396t95.5 396t268 286t385.5 106q160 0 300 -62t238.5 -168t155 -251t56.5 -307t-56.5 -307t-155 -251t-238.5 -168t-300 -62zM858 113q134 0 250 51t196 139
t125.5 208.5t45.5 256.5q0 183 -77.5 332.5t-219 237t-320.5 87.5t-321 -87.5t-219.5 -237.5t-77.5 -332t77.5 -331t219.5 -236.5t321 -87.5z" />
    <glyph glyph-name="Otilde" unicode="&#xd5;" horiz-adv-x="1716" 
d="M1006 1729q-118 0 -185 108q-42 68 -106 68q-53 0 -81.5 -44.5t-19.5 -113.5h-90q-10 106 43.5 176t143.5 70q115 0 184 -109q41 -67 109 -67q51 0 79 43t21 112h88q12 -106 -41 -174.5t-145 -68.5zM858 -20q-213 0 -385.5 106t-268 286t-95.5 396t95.5 396t268 286
t385.5 106q160 0 300 -62t238.5 -168t155 -251t56.5 -307t-56.5 -307t-155 -251t-238.5 -168t-300 -62zM858 113q134 0 250 51t196 139t125.5 208.5t45.5 256.5q0 183 -77.5 332.5t-219 237t-320.5 87.5t-321 -87.5t-219.5 -237.5t-77.5 -332t77.5 -331t219.5 -236.5
t321 -87.5z" />
    <glyph glyph-name="Odieresis" unicode="&#xd6;" horiz-adv-x="1716" 
d="M680 1731q-41 0 -70.5 29.5t-29.5 70.5t29.5 70.5t70.5 29.5q40 0 70 -29.5t30 -70.5t-30 -70.5t-70 -29.5zM1038 1731q-41 0 -70.5 29.5t-29.5 70.5t29.5 70.5t70.5 29.5q40 0 69.5 -29.5t29.5 -70.5t-29.5 -70.5t-69.5 -29.5zM858 -20q-213 0 -385.5 106t-268 286
t-95.5 396t95.5 396t268 286t385.5 106q160 0 300 -62t238.5 -168t155 -251t56.5 -307t-56.5 -307t-155 -251t-238.5 -168t-300 -62zM858 113q134 0 250 51t196 139t125.5 208.5t45.5 256.5q0 183 -77.5 332.5t-219 237t-320.5 87.5t-321 -87.5t-219.5 -237.5t-77.5 -332
t77.5 -331t219.5 -236.5t321 -87.5z" />
    <glyph glyph-name="multiply" unicode="&#xd7;" horiz-adv-x="1497" 
d="M1264 1047l-412 -412l412 -410l-76 -75l-412 409l-409 -409l-76 75l409 410l-409 412l76 75l409 -411l412 411z" />
    <glyph glyph-name="Oslash" unicode="&#xd8;" horiz-adv-x="1716" 
d="M1333 1386q129 -110 202 -271.5t73 -346.5q0 -162 -56.5 -307t-155 -251t-238.5 -168t-300 -62q-220 0 -399 114l-76 -110h-107l111 163q-131 108 -204.5 270.5t-73.5 350.5q0 216 95.5 396t268 286t385.5 106q227 0 406 -118l75 112h105zM240 768q0 -156 58 -289
t163 -223l729 1073q-148 96 -332 96q-179 0 -321 -87.5t-219.5 -237.5t-77.5 -332zM858 113q134 0 250 51t196 139t125.5 208.5t45.5 256.5q0 154 -56.5 286t-158.5 222l-728 -1073q145 -90 326 -90z" />
    <glyph glyph-name="Ugrave" unicode="&#xd9;" horiz-adv-x="1474" 
d="M674 1741l-215 307h141l188 -307h-114zM737 -20q-155 0 -285.5 70t-206 191t-75.5 265v1030h139v-1010q0 -175 125 -298.5t303 -123.5q180 0 305 123.5t125 298.5v1010h138v-1030q0 -144 -76 -265t-206.5 -191t-285.5 -70z" />
    <glyph glyph-name="Uacute" unicode="&#xda;" horiz-adv-x="1474" 
d="M686 1741l188 307h142l-215 -307h-115zM737 -20q-155 0 -285.5 70t-206 191t-75.5 265v1030h139v-1010q0 -175 125 -298.5t303 -123.5q180 0 305 123.5t125 298.5v1010h138v-1030q0 -144 -76 -265t-206.5 -191t-285.5 -70z" />
    <glyph glyph-name="Ucircumflex" unicode="&#xdb;" horiz-adv-x="1474" 
d="M461 1698l205 350h145l205 -350h-115l-162 280l-164 -280h-114zM737 -20q-155 0 -285.5 70t-206 191t-75.5 265v1030h139v-1010q0 -175 125 -298.5t303 -123.5q180 0 305 123.5t125 298.5v1010h138v-1030q0 -144 -76 -265t-206.5 -191t-285.5 -70z" />
    <glyph glyph-name="Udieresis" unicode="&#xdc;" horiz-adv-x="1474" 
d="M559 1731q-41 0 -70.5 29.5t-29.5 70.5t29.5 70.5t70.5 29.5q40 0 70 -29.5t30 -70.5t-30 -70.5t-70 -29.5zM918 1731q-41 0 -71 29.5t-30 70.5t30 70.5t71 29.5q40 0 69 -29.5t29 -70.5t-29 -70.5t-69 -29.5zM737 -20q-155 0 -285.5 70t-206 191t-75.5 265v1030h139
v-1010q0 -175 125 -298.5t303 -123.5q180 0 305 123.5t125 298.5v1010h138v-1030q0 -144 -76 -265t-206.5 -191t-285.5 -70z" />
    <glyph glyph-name="Yacute" unicode="&#xdd;" horiz-adv-x="1302" 
d="M930 2048l-215 -307h-115l188 307h142zM1255 1536l-534 -807v-729h-137v725l-537 811h156l448 -688l451 688h153z" />
    <glyph glyph-name="Thorn" unicode="&#xde;" horiz-adv-x="1189" 
d="M696 1325q175 0 298.5 -123.5t123.5 -300.5q0 -173 -123.5 -295.5t-298.5 -122.5h-397v-483h-135v1325v203h135v-203h397zM692 604q126 0 213.5 87.5t87.5 213.5q0 124 -88 211.5t-213 87.5h-393v-600h393z" />
    <glyph glyph-name="germandbls" unicode="&#xdf;" horiz-adv-x="1351" 
d="M938 780q119 -50 191.5 -154.5t72.5 -232.5q0 -172 -117.5 -292.5t-279.5 -120.5q-88 0 -181 37.5t-151 97.5l62 98q43 -44 111 -75.5t136 -31.5q115 2 200 86.5t85 206.5q0 126 -90 213.5t-219 87.5h-127v115h53q126 0 213.5 88.5t87.5 216.5t-90.5 211.5t-230.5 83.5
q-145 0 -241.5 -87t-96.5 -220v-1108h-133v1108q0 185 133.5 306.5t335.5 121.5q196 0 324 -117.5t128 -294.5q0 -106 -47 -196t-129 -148z" />
    <glyph glyph-name="agrave" unicode="&#xe0;" horiz-adv-x="1097" 
d="M598 1229h-115l-215 307h142zM530 1044q117 0 207 -39.5t145.5 -125.5t55.5 -209v-670h-121l-6 168q-92 -89 -197.5 -138.5t-210.5 -49.5q-136 0 -223.5 88t-87.5 225q0 72 27 130t88 103t158 55t237 -14l205 -39v148q0 126 -78.5 189t-206.5 63q-102 0 -181.5 -41
t-121.5 -117l-94 82q56 90 159 141t246 51zM432 100q187 0 375 191v133l-203 43q-195 39 -285 -13.5t-90 -154.5q0 -88 55.5 -143.5t147.5 -55.5z" />
    <glyph glyph-name="aacute" unicode="&#xe1;" horiz-adv-x="1097" 
d="M823 1536l-215 -307h-114l188 307h141zM530 1044q117 0 207 -39.5t145.5 -125.5t55.5 -209v-670h-121l-6 168q-92 -89 -197.5 -138.5t-210.5 -49.5q-136 0 -223.5 88t-87.5 225q0 72 27 130t88 103t158 55t237 -14l205 -39v148q0 126 -78.5 189t-206.5 63
q-102 0 -181.5 -41t-121.5 -117l-94 82q56 90 159 141t246 51zM432 100q187 0 375 191v133l-203 43q-195 39 -285 -13.5t-90 -154.5q0 -88 55.5 -143.5t147.5 -55.5z" />
    <glyph glyph-name="acircumflex" unicode="&#xe2;" horiz-adv-x="1097" 
d="M547 1466l-164 -280h-115l205 350h145l205 -350h-114zM530 1044q117 0 207 -39.5t145.5 -125.5t55.5 -209v-670h-121l-6 168q-92 -89 -197.5 -138.5t-210.5 -49.5q-136 0 -223.5 88t-87.5 225q0 72 27 130t88 103t158 55t237 -14l205 -39v148q0 126 -78.5 189t-206.5 63
q-102 0 -181.5 -41t-121.5 -117l-94 82q56 90 159 141t246 51zM432 100q187 0 375 191v133l-203 43q-195 39 -285 -13.5t-90 -154.5q0 -88 55.5 -143.5t147.5 -55.5z" />
    <glyph glyph-name="atilde" unicode="&#xe3;" horiz-adv-x="1097" 
d="M303 1235h-90q-10 107 43 176.5t143 69.5q116 0 185 -109q41 -67 108 -67q51 0 79.5 43t21.5 112h88q12 -105 -41 -174t-146 -69q-117 0 -184 108q-42 68 -107 68q-53 0 -81 -44.5t-19 -113.5zM530 1044q117 0 207 -39.5t145.5 -125.5t55.5 -209v-670h-121l-6 168
q-92 -89 -197.5 -138.5t-210.5 -49.5q-136 0 -223.5 88t-87.5 225q0 72 27 130t88 103t158 55t237 -14l205 -39v148q0 126 -78.5 189t-206.5 63q-102 0 -181.5 -41t-121.5 -117l-94 82q56 90 159 141t246 51zM432 100q187 0 375 191v133l-203 43q-195 39 -285 -13.5
t-90 -154.5q0 -88 55.5 -143.5t147.5 -55.5z" />
    <glyph glyph-name="adieresis" unicode="&#xe4;" horiz-adv-x="1097" 
d="M369 1219q-41 0 -71 29.5t-30 70.5t30 70.5t71 29.5q40 0 70 -29.5t30 -70.5t-30 -70.5t-70 -29.5zM727 1219q-41 0 -70.5 29.5t-29.5 70.5t29.5 70.5t70.5 29.5q40 0 69 -29.5t29 -70.5t-29 -70.5t-69 -29.5zM530 1044q117 0 207 -39.5t145.5 -125.5t55.5 -209v-670
h-121l-6 168q-92 -89 -197.5 -138.5t-210.5 -49.5q-136 0 -223.5 88t-87.5 225q0 72 27 130t88 103t158 55t237 -14l205 -39v148q0 126 -78.5 189t-206.5 63q-102 0 -181.5 -41t-121.5 -117l-94 82q56 90 159 141t246 51zM432 100q187 0 375 191v133l-203 43
q-195 39 -285 -13.5t-90 -154.5q0 -88 55.5 -143.5t147.5 -55.5z" />
    <glyph glyph-name="aring" unicode="&#xe5;" horiz-adv-x="1097" 
d="M547 1149q-83 0 -141 58.5t-58 138.5q0 82 58 140t141 58q80 0 137 -58t57 -140q0 -80 -57.5 -138.5t-136.5 -58.5zM547 1477q-54 0 -91.5 -38.5t-37.5 -92.5t37.5 -90.5t91.5 -36.5q53 0 90 36.5t37 90.5t-37.5 92.5t-89.5 38.5zM530 1044q117 0 207 -39.5t145.5 -125.5
t55.5 -209v-670h-121l-6 168q-92 -89 -197.5 -138.5t-210.5 -49.5q-136 0 -223.5 88t-87.5 225q0 72 27 130t88 103t158 55t237 -14l205 -39v148q0 126 -78.5 189t-206.5 63q-102 0 -181.5 -41t-121.5 -117l-94 82q56 90 159 141t246 51zM432 100q187 0 375 191v133l-203 43
q-195 39 -285 -13.5t-90 -154.5q0 -88 55.5 -143.5t147.5 -55.5z" />
    <glyph glyph-name="ae" unicode="&#xe6;" horiz-adv-x="1816" 
d="M1731 520q0 -35 -2 -53h-820q11 -165 106 -267t251 -102q100 0 171.5 41t131.5 133l96 -67q-134 -225 -403 -225q-138 0 -244.5 63t-169.5 174q-103 -115 -219 -176t-232 -61q-137 0 -224 88t-87 225q0 72 27 130t87.5 103t157.5 55t238 -14l180 -35q3 69 23 152
q-3 122 -81 183t-204 61q-102 0 -180.5 -41t-122.5 -117l-94 82q55 90 159.5 141t245.5 51q138 0 232 -47.5t129 -138.5q64 88 161 137t218 49q214 0 341.5 -146t127.5 -378zM1264 928q-150 0 -242.5 -97t-110.5 -258h697q-11 160 -102.5 257.5t-241.5 97.5zM424 100
q186 0 385 205q-22 70 -29 123l-182 39q-106 19 -178 14.5t-116.5 -32.5t-63.5 -65.5t-19 -84.5q0 -88 55.5 -143.5t147.5 -55.5z" />
    <glyph glyph-name="ccedilla" unicode="&#xe7;" horiz-adv-x="933" 
d="M580 928q-163 0 -263 -118t-100 -298q0 -178 100 -297t263 -119q77 0 146.5 31t117.5 84v-137q-106 -87 -256 -94l-58 -123q109 22 186 -32.5t77 -152.5q0 -86 -59.5 -145t-145.5 -59q-66 0 -134 34.5t-100 85.5l66 33q26 -34 75 -57t93 -23q55 0 92 37.5t37 93.5
q0 77 -63.5 108t-155.5 -1l-64 45l78 158q-195 21 -310.5 168t-115.5 362q0 230 132 381t349 151q160 0 277 -94v-139q-107 117 -264 117z" />
    <glyph glyph-name="egrave" unicode="&#xe8;" horiz-adv-x="1124" 
d="M623 1241h-115l-215 307h141zM1040 520q0 -35 -2 -53h-821q12 -167 107 -268t251 -101q100 0 172 41t132 133l94 -67q-63 -108 -165 -166.5t-237 -58.5q-145 0 -256.5 70.5t-170 190.5t-58.5 271q0 150 58.5 270.5t170 191t256.5 70.5q213 0 341 -146t128 -378zM573 928
q-150 0 -243 -97.5t-111 -257.5h699q-14 160 -105.5 257.5t-239.5 97.5z" />
    <glyph glyph-name="eacute" unicode="&#xe9;" horiz-adv-x="1124" 
d="M850 1548l-215 -307h-115l189 307h141zM1040 520q0 -35 -2 -53h-821q12 -167 107 -268t251 -101q100 0 172 41t132 133l94 -67q-63 -108 -165 -166.5t-237 -58.5q-145 0 -256.5 70.5t-170 190.5t-58.5 271q0 150 58.5 270.5t170 191t256.5 70.5q213 0 341 -146t128 -378z
M573 928q-150 0 -243 -97.5t-111 -257.5h699q-14 160 -105.5 257.5t-239.5 97.5z" />
    <glyph glyph-name="ecircumflex" unicode="&#xea;" horiz-adv-x="1124" 
d="M573 1479l-163 -281h-115l205 350h145l205 -350h-115zM1040 520q0 -35 -2 -53h-821q12 -167 107 -268t251 -101q100 0 172 41t132 133l94 -67q-63 -108 -165 -166.5t-237 -58.5q-145 0 -256.5 70.5t-170 190.5t-58.5 271q0 150 58.5 270.5t170 191t256.5 70.5
q213 0 341 -146t128 -378zM573 928q-150 0 -243 -97.5t-111 -257.5h699q-14 160 -105.5 257.5t-239.5 97.5z" />
    <glyph glyph-name="edieresis" unicode="&#xeb;" horiz-adv-x="1124" 
d="M393 1231q-41 0 -70.5 29.5t-29.5 70.5t29.5 71t70.5 30q40 0 70.5 -30t30.5 -71t-30.5 -70.5t-70.5 -29.5zM752 1231q-41 0 -71 29.5t-30 70.5t30 71t71 30q40 0 69 -30t29 -71t-29 -70.5t-69 -29.5zM1040 520q0 -35 -2 -53h-821q12 -167 107 -268t251 -101
q100 0 172 41t132 133l94 -67q-63 -108 -165 -166.5t-237 -58.5q-145 0 -256.5 70.5t-170 190.5t-58.5 271q0 150 58.5 270.5t170 191t256.5 70.5q213 0 341 -146t128 -378zM573 928q-150 0 -243 -97.5t-111 -257.5h699q-14 160 -105.5 257.5t-239.5 97.5z" />
    <glyph glyph-name="igrave" unicode="&#xec;" horiz-adv-x="462" 
d="M168 1229l-217 307h143l189 -307h-115zM164 0v1024h135v-1024h-135z" />
    <glyph glyph-name="iacute" unicode="&#xed;" horiz-adv-x="462" 
d="M180 1229l189 307h141l-215 -307h-115zM164 0v1024h135v-1024h-135z" />
    <glyph glyph-name="icircumflex" unicode="&#xee;" horiz-adv-x="462" 
d="M-49 1186l207 350h145l205 -350h-115l-162 280l-163 -280h-117zM164 0v1024h135v-1024h-135z" />
    <glyph glyph-name="idieresis" unicode="&#xef;" horiz-adv-x="462" 
d="M53 1219q-41 0 -71.5 29.5t-30.5 70.5t30.5 70.5t71.5 29.5q40 0 70.5 -29.5t30.5 -70.5t-30.5 -70.5t-70.5 -29.5zM412 1219q-41 0 -71 29.5t-30 70.5t30 70.5t71 29.5q40 0 69 -29.5t29 -70.5t-29 -70.5t-69 -29.5zM164 0v1024h135v-1024h-135z" />
    <glyph glyph-name="eth" unicode="&#xf0;" horiz-adv-x="1265" 
d="M809 1395q171 -142 270 -374.5t99 -508.5q0 -145 -73 -267.5t-199 -193.5t-275 -71q-148 0 -273.5 71t-198.5 193.5t-73 267.5t73 267.5t198.5 193.5t273.5 71q203 0 352 -124q-76 240 -246 383l-114 -146l-52 43l113 141q-157 106 -342 109l23 111q211 0 391 -125
l96 120l51 -40zM631 100q170 0 290.5 121t120.5 291q0 113 -55 207.5t-149.5 149.5t-206.5 55q-171 0 -291.5 -120.5t-120.5 -291.5q0 -170 121 -291t291 -121z" />
    <glyph glyph-name="ntilde" unicode="&#xf1;" horiz-adv-x="1191" 
d="M354 1235h-90q-10 106 43.5 176t143.5 70q115 0 184 -109q41 -67 108 -67q51 0 79.5 43t21.5 112h88q12 -105 -41 -174t-146 -69q-117 0 -184 108q-42 68 -106 68q-53 0 -81.5 -44.5t-19.5 -113.5zM635 1044q169 0 283 -113.5t114 -283.5v-647h-135v635
q0 122 -85.5 205.5t-209.5 83.5q-126 0 -214.5 -86t-88.5 -209v-629h-135v1024h125l6 -154q57 81 146 127.5t194 46.5z" />
    <glyph glyph-name="ograve" unicode="&#xf2;" horiz-adv-x="1157" 
d="M514 1229l-215 307h141l189 -307h-115zM578 -20q-143 0 -256.5 71.5t-174.5 192.5t-61 268t61 268t174.5 192.5t256.5 71.5q144 0 257.5 -71.5t174.5 -192.5t61 -268t-61 -268t-174.5 -192.5t-257.5 -71.5zM578 100q162 0 261 118.5t99 293.5q0 176 -99 294t-261 118
q-161 0 -261 -118t-100 -294q0 -174 100 -293t261 -119z" />
    <glyph glyph-name="oacute" unicode="&#xf3;" horiz-adv-x="1157" 
d="M526 1229l189 307h141l-215 -307h-115zM578 -20q-143 0 -256.5 71.5t-174.5 192.5t-61 268t61 268t174.5 192.5t256.5 71.5q144 0 257.5 -71.5t174.5 -192.5t61 -268t-61 -268t-174.5 -192.5t-257.5 -71.5zM578 100q162 0 261 118.5t99 293.5q0 176 -99 294t-261 118
q-161 0 -261 -118t-100 -294q0 -174 100 -293t261 -119z" />
    <glyph glyph-name="ocircumflex" unicode="&#xf4;" horiz-adv-x="1157" 
d="M301 1186l205 350h145l205 -350h-115l-161 280l-164 -280h-115zM578 -20q-143 0 -256.5 71.5t-174.5 192.5t-61 268t61 268t174.5 192.5t256.5 71.5q144 0 257.5 -71.5t174.5 -192.5t61 -268t-61 -268t-174.5 -192.5t-257.5 -71.5zM578 100q162 0 261 118.5t99 293.5
q0 176 -99 294t-261 118q-161 0 -261 -118t-100 -294q0 -174 100 -293t261 -119z" />
    <glyph glyph-name="otilde" unicode="&#xf5;" horiz-adv-x="1157" 
d="M725 1217q-117 0 -184 108q-42 68 -107 68q-53 0 -81 -44.5t-19 -113.5h-90q-10 107 43 176.5t143 69.5q115 0 184 -109q41 -67 109 -67q51 0 79 43t21 112h88q12 -106 -41 -174.5t-145 -68.5zM578 -20q-143 0 -256.5 71.5t-174.5 192.5t-61 268t61 268t174.5 192.5
t256.5 71.5q144 0 257.5 -71.5t174.5 -192.5t61 -268t-61 -268t-174.5 -192.5t-257.5 -71.5zM578 100q162 0 261 118.5t99 293.5q0 176 -99 294t-261 118q-161 0 -261 -118t-100 -294q0 -174 100 -293t261 -119z" />
    <glyph glyph-name="odieresis" unicode="&#xf6;" horiz-adv-x="1157" 
d="M399 1219q-41 0 -70.5 29.5t-29.5 70.5t29.5 70.5t70.5 29.5q40 0 70.5 -29.5t30.5 -70.5t-30.5 -70.5t-70.5 -29.5zM758 1219q-41 0 -71 29.5t-30 70.5t30 70.5t71 29.5q40 0 69 -29.5t29 -70.5t-29 -70.5t-69 -29.5zM578 -20q-143 0 -256.5 71.5t-174.5 192.5t-61 268
t61 268t174.5 192.5t256.5 71.5q144 0 257.5 -71.5t174.5 -192.5t61 -268t-61 -268t-174.5 -192.5t-257.5 -71.5zM578 100q162 0 261 118.5t99 293.5q0 176 -99 294t-261 118q-161 0 -261 -118t-100 -294q0 -174 100 -293t261 -119z" />
    <glyph glyph-name="divide" unicode="&#xf7;" horiz-adv-x="1488" 
d="M745 819q-38 0 -66 26.5t-28 65.5q0 38 28.5 66.5t65.5 28.5t66 -28.5t29 -66.5q0 -39 -28.5 -65.5t-66.5 -26.5zM131 524v80h1229v-80h-1229zM745 123q-38 0 -66 26.5t-28 65.5q0 38 28.5 66t65.5 28t66 -28t29 -66q0 -39 -28.5 -65.5t-66.5 -26.5z" />
    <glyph glyph-name="oslash" unicode="&#xf8;" horiz-adv-x="1157" 
d="M899 926q82 -74 127 -181.5t45 -232.5q0 -147 -61 -268t-174.5 -192.5t-257.5 -71.5q-150 0 -269 77l-80 -118h-77l108 157q-83 74 -128.5 182t-45.5 234q0 147 61 268t174.5 192.5t256.5 71.5q152 0 270 -79l82 118h76zM217 512q0 -191 115 -309l446 657q-86 64 -200 64
q-161 0 -261 -118t-100 -294zM578 100q162 0 261 118.5t99 293.5q0 188 -113 307l-444 -659q86 -60 197 -60z" />
    <glyph glyph-name="ugrave" unicode="&#xf9;" horiz-adv-x="1198" 
d="M651 1229h-114l-215 307h141zM901 1024h133v-1024h-123l-8 156q-57 -81 -145 -128.5t-189 -47.5q-168 0 -285.5 117.5t-117.5 285.5v641h135v-627q0 -123 86.5 -210t210.5 -87q125 0 214 87t89 210v627z" />
    <glyph glyph-name="uacute" unicode="&#xfa;" horiz-adv-x="1198" 
d="M879 1536l-215 -307h-115l188 307h142zM901 1024h133v-1024h-123l-8 156q-57 -81 -145 -128.5t-189 -47.5q-168 0 -285.5 117.5t-117.5 285.5v641h135v-627q0 -123 86.5 -210t210.5 -87q125 0 214 87t89 210v627z" />
    <glyph glyph-name="ucircumflex" unicode="&#xfb;" horiz-adv-x="1198" 
d="M602 1466l-164 -280h-114l204 350h146l205 -350h-115zM901 1024h133v-1024h-123l-8 156q-57 -81 -145 -128.5t-189 -47.5q-168 0 -285.5 117.5t-117.5 285.5v641h135v-627q0 -123 86.5 -210t210.5 -87q125 0 214 87t89 210v627z" />
    <glyph glyph-name="udieresis" unicode="&#xfc;" horiz-adv-x="1198" 
d="M422 1219q-41 0 -70.5 29.5t-29.5 70.5t29.5 70.5t70.5 29.5q40 0 70 -29.5t30 -70.5t-30 -70.5t-70 -29.5zM780 1219q-41 0 -70.5 29.5t-29.5 70.5t29.5 70.5t70.5 29.5q40 0 69.5 -29.5t29.5 -70.5t-29.5 -70.5t-69.5 -29.5zM901 1024h133v-1024h-123l-8 156
q-57 -81 -145 -128.5t-189 -47.5q-168 0 -285.5 117.5t-117.5 285.5v641h135v-627q0 -123 86.5 -210t210.5 -87q125 0 214 87t89 210v627z" />
    <glyph glyph-name="yacute" unicode="&#xfd;" horiz-adv-x="1200" 
d="M879 1536l-215 -307h-115l188 307h142zM1034 1024l2 -1075q0 -102 -28 -187t-82.5 -150t-143.5 -101.5t-204 -36.5q-212 0 -361 112v152q151 -144 369 -144q162 0 238.5 95t76.5 260v201q-58 -78 -145.5 -124t-186.5 -46q-168 0 -285.5 117.5t-117.5 285.5v641h135v-627
q0 -123 86.5 -210t210.5 -87q125 0 214 87t89 210v627h133z" />
    <glyph glyph-name="thorn" unicode="&#xfe;" horiz-adv-x="1333" 
d="M727 1044q142 0 262.5 -71t190 -193.5t69.5 -267.5t-69.5 -267.5t-190 -193.5t-262.5 -71q-136 0 -248.5 65.5t-179.5 177.5v-733h-135v2046h135v-735q67 112 179.5 177.5t248.5 65.5zM711 100q170 0 290.5 121t120.5 291q0 113 -55 207.5t-149.5 149.5t-206.5 55
q-171 0 -291.5 -120.5t-120.5 -291.5q0 -170 121 -291t291 -121z" />
    <glyph glyph-name="ydieresis" unicode="&#xff;" horiz-adv-x="1200" 
d="M422 1219q-41 0 -70.5 29.5t-29.5 70.5t29.5 70.5t70.5 29.5q40 0 70 -29.5t30 -70.5t-30 -70.5t-70 -29.5zM780 1219q-41 0 -70.5 29.5t-29.5 70.5t29.5 70.5t70.5 29.5q40 0 69.5 -29.5t29.5 -70.5t-29.5 -70.5t-69.5 -29.5zM1034 1024l2 -1075q0 -102 -28 -187
t-82.5 -150t-143.5 -101.5t-204 -36.5q-212 0 -361 112v152q151 -144 369 -144q162 0 238.5 95t76.5 260v201q-58 -78 -145.5 -124t-186.5 -46q-168 0 -285.5 117.5t-117.5 285.5v641h135v-627q0 -123 86.5 -210t210.5 -87q125 0 214 87t89 210v627h133z" />
    <glyph glyph-name="Amacron" unicode="&#x100;" horiz-adv-x="1480" 
d="M1059 1849v-94h-635v94h635zM1282 0l-129 334h-825l-129 -334h-152l617 1536h153l617 -1536h-152zM375 453h731l-367 938z" />
    <glyph glyph-name="amacron" unicode="&#x101;" horiz-adv-x="1097" 
d="M864 1337v-94h-635v94h635zM530 1044q117 0 207 -39.5t145.5 -125.5t55.5 -209v-670h-121l-6 168q-92 -89 -197.5 -138.5t-210.5 -49.5q-136 0 -223.5 88t-87.5 225q0 72 27 130t88 103t158 55t237 -14l205 -39v148q0 126 -78.5 189t-206.5 63q-102 0 -181.5 -41
t-121.5 -117l-94 82q56 90 159 141t246 51zM432 100q187 0 375 191v133l-203 43q-195 39 -285 -13.5t-90 -154.5q0 -88 55.5 -143.5t147.5 -55.5z" />
    <glyph glyph-name="Abreve" unicode="&#x102;" horiz-adv-x="1480" 
d="M739 1677q-143 0 -236 84.5t-93 220.5h88q0 -90 69 -153.5t172 -63.5q105 0 175.5 63.5t70.5 153.5h86q0 -136 -94 -220.5t-238 -84.5zM1282 0l-129 334h-825l-129 -334h-152l617 1536h153l617 -1536h-152zM375 453h731l-367 938z" />
    <glyph glyph-name="abreve" unicode="&#x103;" horiz-adv-x="1097" 
d="M545 1165q-143 0 -236.5 84.5t-93.5 220.5h88q0 -90 69.5 -153.5t172.5 -63.5q105 0 175.5 63.5t70.5 153.5h86q0 -136 -94 -220.5t-238 -84.5zM530 1044q117 0 207 -39.5t145.5 -125.5t55.5 -209v-670h-121l-6 168q-92 -89 -197.5 -138.5t-210.5 -49.5q-136 0 -223.5 88
t-87.5 225q0 72 27 130t88 103t158 55t237 -14l205 -39v148q0 126 -78.5 189t-206.5 63q-102 0 -181.5 -41t-121.5 -117l-94 82q56 90 159 141t246 51zM432 100q187 0 375 191v133l-203 43q-195 39 -285 -13.5t-90 -154.5q0 -88 55.5 -143.5t147.5 -55.5z" />
    <glyph glyph-name="Aogonek" unicode="&#x104;" horiz-adv-x="1480" 
d="M1518 -365l47 -67q-106 -103 -265 -100q-100 3 -158.5 59t-58.5 149q0 172 236 324h-37l-129 334h-825l-129 -334h-152l617 1536h153l617 -1536h2q-98 -42 -177 -128t-79 -183q0 -64 36.5 -103t104.5 -39q119 0 197 88zM375 453h731l-367 938z" />
    <glyph glyph-name="aogonek" unicode="&#x105;" horiz-adv-x="1097" 
d="M1022 -365l47 -67q-106 -103 -264 -100q-100 3 -158.5 59t-58.5 149q0 172 235 324h-6l-6 168q-92 -89 -197.5 -138.5t-210.5 -49.5q-136 0 -223.5 88t-87.5 225q0 72 27 130t88 103t158 55t237 -14l205 -39v148q0 126 -78.5 189t-206.5 63q-102 0 -181.5 -41
t-121.5 -117l-94 82q56 90 159 141t246 51q117 0 207 -39.5t145.5 -125.5t55.5 -209v-670h2q-98 -42 -177 -128t-79 -183q0 -64 36.5 -103t104.5 -39q119 0 197 88zM432 100q187 0 375 191v133l-203 43q-195 39 -285 -13.5t-90 -154.5q0 -88 55.5 -143.5t147.5 -55.5z" />
    <glyph glyph-name="Cacute" unicode="&#x106;" horiz-adv-x="1396" 
d="M807 1741l188 307h142l-215 -307h-115zM858 -20q-213 0 -385.5 106t-268 286t-95.5 396t95.5 396t268 286t385.5 106q250 0 442 -159v-170q-186 198 -442 198q-179 0 -321 -87.5t-219.5 -237.5t-77.5 -332t77.5 -331t219.5 -236.5t321 -87.5q261 0 442 196v-168
q-195 -161 -442 -161z" />
    <glyph glyph-name="cacute" unicode="&#x107;" horiz-adv-x="933" 
d="M506 1229l188 307h142l-215 -307h-115zM567 -20q-217 0 -349 151t-132 381t132 381t349 151q160 0 277 -94v-139q-107 117 -264 117q-163 0 -263 -118t-100 -298q0 -178 100 -297t263 -119q77 0 146.5 31t117.5 84v-137q-114 -94 -277 -94z" />
    <glyph glyph-name="Cdotaccent" unicode="&#x10a;" horiz-adv-x="1396" 
d="M860 1731q-41 0 -70.5 29.5t-29.5 70.5t29.5 70.5t70.5 29.5q40 0 70.5 -29.5t30.5 -70.5t-30.5 -70.5t-70.5 -29.5zM858 -20q-213 0 -385.5 106t-268 286t-95.5 396t95.5 396t268 286t385.5 106q250 0 442 -159v-170q-186 198 -442 198q-179 0 -321 -87.5t-219.5 -237.5
t-77.5 -332t77.5 -331t219.5 -236.5t321 -87.5q261 0 442 196v-168q-195 -161 -442 -161z" />
    <glyph glyph-name="cdotaccent" unicode="&#x10b;" horiz-adv-x="933" 
d="M559 1219q-41 0 -70.5 29.5t-29.5 70.5t29.5 70.5t70.5 29.5q40 0 70 -29.5t30 -70.5t-30 -70.5t-70 -29.5zM567 -20q-217 0 -349 151t-132 381t132 381t349 151q160 0 277 -94v-139q-107 117 -264 117q-163 0 -263 -118t-100 -298q0 -178 100 -297t263 -119
q77 0 146.5 31t117.5 84v-137q-114 -94 -277 -94z" />
    <glyph glyph-name="Ccaron" unicode="&#x10c;" horiz-adv-x="1396" 
d="M786 1698l-204 350h110l168 -272l166 272h111l-205 -350h-146zM858 -20q-213 0 -385.5 106t-268 286t-95.5 396t95.5 396t268 286t385.5 106q250 0 442 -159v-170q-186 198 -442 198q-179 0 -321 -87.5t-219.5 -237.5t-77.5 -332t77.5 -331t219.5 -236.5t321 -87.5
q261 0 442 196v-168q-195 -161 -442 -161z" />
    <glyph glyph-name="ccaron" unicode="&#x10d;" horiz-adv-x="933" 
d="M485 1186l-204 350h110l168 -272l166 272h111l-205 -350h-146zM567 -20q-217 0 -349 151t-132 381t132 381t349 151q160 0 277 -94v-139q-107 117 -264 117q-163 0 -263 -118t-100 -298q0 -178 100 -297t263 -119q77 0 146.5 31t117.5 84v-137q-114 -94 -277 -94z" />
    <glyph glyph-name="Dcaron" unicode="&#x10e;" horiz-adv-x="1447" 
d="M498 1698l-205 350h110l168 -272l166 272h111l-205 -350h-145zM164 0v1536h407q209 0 385.5 -103t279.5 -279.5t103 -385.5t-103 -385.5t-279.5 -279.5t-385.5 -103h-407zM301 125h268q130 0 247 50.5t201 136.5t133.5 205t49.5 251t-49.5 251.5t-133.5 205.5t-201 137
t-247 51h-268v-1288z" />
    <glyph glyph-name="dcaron" unicode="&#x10f;" horiz-adv-x="1533" 
d="M1423 1542q59 0 90 -57.5t31 -145.5q0 -84 -24.5 -166t-75 -140.5t-113.5 -59.5v71q49 3 86 82.5t37 151.5q0 65 -33 65q-41 0 -69.5 29t-28.5 72q0 41 28.5 69.5t71.5 28.5zM930 846v690h131v-1536h-121l-8 184q-63 -96 -158.5 -150t-214.5 -54q-140 0 -249 71.5
t-166.5 192t-57.5 268.5q0 227 131 379.5t342 152.5q117 0 212.5 -52.5t158.5 -145.5zM578 100q132 0 228 88.5t124 227.5v192q-28 139 -124 227.5t-228 88.5q-161 0 -261 -118t-100 -294q0 -174 100 -293t261 -119z" />
    <glyph glyph-name="Dcroat" unicode="&#x110;" horiz-adv-x="1447" 
d="M571 1536q209 0 385.5 -103t279.5 -279.5t103 -385.5t-103 -385.5t-279.5 -279.5t-385.5 -103h-407v719h-160v100h160v717h407zM569 125q130 0 247 50.5t201 136.5t133.5 205t49.5 251t-49.5 251.5t-133.5 205.5t-201 137t-247 51h-268v-594h281v-100h-281v-594h268z" />
    <glyph glyph-name="dcroat" unicode="&#x111;" horiz-adv-x="1224" 
d="M1200 1323v-100h-139v-1223h-121l-8 184q-63 -96 -158.5 -150t-214.5 -54q-140 0 -249 71.5t-166.5 192t-57.5 268.5q0 227 131 379.5t342 152.5q117 0 212.5 -52.5t158.5 -145.5v377h-307v100h307v213h131v-213h139zM578 100q132 0 228 88.5t124 227.5v192
q-28 139 -124 227.5t-228 88.5q-161 0 -261 -118t-100 -294q0 -174 100 -293t261 -119z" />
    <glyph glyph-name="Emacron" unicode="&#x112;" horiz-adv-x="1107" 
d="M895 1849v-94h-635v94h635zM991 1413h-688v-582h602v-124h-602v-582h688v-125h-827v1536h827v-123z" />
    <glyph glyph-name="emacron" unicode="&#x113;" horiz-adv-x="1124" 
d="M891 1350v-95h-635v95h635zM1040 520q0 -35 -2 -53h-821q12 -167 107 -268t251 -101q100 0 172 41t132 133l94 -67q-63 -108 -165 -166.5t-237 -58.5q-145 0 -256.5 70.5t-170 190.5t-58.5 271q0 150 58.5 270.5t170 191t256.5 70.5q213 0 341 -146t128 -378zM573 928
q-150 0 -243 -97.5t-111 -257.5h699q-14 160 -105.5 257.5t-239.5 97.5z" />
    <glyph glyph-name="Edotaccent" unicode="&#x116;" horiz-adv-x="1107" 
d="M578 1731q-41 0 -71 29.5t-30 70.5t30 70.5t71 29.5q40 0 70 -29.5t30 -70.5t-30 -70.5t-70 -29.5zM991 1413h-688v-582h602v-124h-602v-582h688v-125h-827v1536h827v-123z" />
    <glyph glyph-name="edotaccent" unicode="&#x117;" horiz-adv-x="1124" 
d="M573 1231q-41 0 -70.5 29.5t-29.5 70.5t29.5 71t70.5 30q40 0 70.5 -30t30.5 -71t-30.5 -70.5t-70.5 -29.5zM1040 520q0 -35 -2 -53h-821q12 -167 107 -268t251 -101q100 0 172 41t132 133l94 -67q-63 -108 -165 -166.5t-237 -58.5q-145 0 -256.5 70.5t-170 190.5
t-58.5 271q0 150 58.5 270.5t170 191t256.5 70.5q213 0 341 -146t128 -378zM573 928q-150 0 -243 -97.5t-111 -257.5h699q-14 160 -105.5 257.5t-239.5 97.5z" />
    <glyph glyph-name="Eogonek" unicode="&#x118;" horiz-adv-x="1107" 
d="M1073 -365l47 -67q-106 -103 -264 -100q-100 3 -158.5 59t-58.5 149q0 172 235 324h-710v1536h827v-123h-688v-582h602v-124h-602v-582h688v-125q-98 -42 -177 -128t-79 -183q0 -64 37 -103t105 -39q118 0 196 88z" />
    <glyph glyph-name="eogonek" unicode="&#x119;" horiz-adv-x="1124" 
d="M1008 -213l47 -68q-106 -103 -264 -100q-100 3 -159 59.5t-59 149.5q0 78 50 154q-16 -2 -52 -2q-145 0 -256.5 70.5t-170 190.5t-58.5 271q0 150 58.5 270.5t170 191t256.5 70.5q213 0 341 -146t128 -378q0 -35 -2 -53h-821q12 -167 107 -268t251 -101q100 0 172 41
t132 133l94 -67q-85 -148 -240 -201q-63 -80 -63 -164q0 -64 36.5 -102.5t104.5 -38.5q119 0 197 88zM573 928q-150 0 -243 -97.5t-111 -257.5h699q-14 160 -105.5 257.5t-239.5 97.5z" />
    <glyph glyph-name="Ecaron" unicode="&#x11a;" horiz-adv-x="1107" 
d="M649 1698h-145l-205 350h111l168 -272l165 272h111zM991 1413h-688v-582h602v-124h-602v-582h688v-125h-827v1536h827v-123z" />
    <glyph glyph-name="ecaron" unicode="&#x11b;" horiz-adv-x="1124" 
d="M645 1198h-145l-205 350h111l167 -272l166 272h111zM1040 520q0 -35 -2 -53h-821q12 -167 107 -268t251 -101q100 0 172 41t132 133l94 -67q-63 -108 -165 -166.5t-237 -58.5q-145 0 -256.5 70.5t-170 190.5t-58.5 271q0 150 58.5 270.5t170 191t256.5 70.5
q213 0 341 -146t128 -378zM573 928q-150 0 -243 -97.5t-111 -257.5h699q-14 160 -105.5 257.5t-239.5 97.5z" />
    <glyph glyph-name="Gbreve" unicode="&#x11e;" horiz-adv-x="1507" 
d="M922 1677q-143 0 -236.5 84.5t-93.5 220.5h88q0 -90 69.5 -153.5t172.5 -63.5q105 0 175 63.5t70 153.5h86q0 -136 -93.5 -220.5t-237.5 -84.5zM920 1425q-132 0 -249.5 -49t-204 -135t-137 -210t-50.5 -267t50.5 -267t137 -209.5t203.5 -134.5t248 -49q161 0 301 76v488
h-398v125h522v-693q-198 -129 -428 -129q-157 0 -297.5 59.5t-243.5 163t-163.5 252t-60.5 318.5t60.5 318.5t164 251.5t243.5 162.5t295 59.5q236 0 430 -126v-175q-83 82 -193 126t-230 44z" />
    <glyph glyph-name="gbreve" unicode="&#x11f;" horiz-adv-x="1224" 
d="M571 1165q-143 0 -236 84.5t-93 220.5h88q0 -90 69 -153.5t172 -63.5q105 0 175.5 63.5t70.5 153.5h86q0 -136 -94 -220.5t-238 -84.5zM940 1024h121v-1010q0 -148 -59.5 -267.5t-170 -189t-251.5 -69.5q-182 0 -320 113v151q136 -143 328 -143q149 0 245.5 113t96.5 292
v170q-64 -96 -160 -150t-211 -54q-140 0 -249 71.5t-166.5 192t-57.5 268.5q0 227 131 379.5t342 152.5q116 0 213 -55.5t160 -152.5zM578 100q128 0 226 90.5t126 229.5v186q-28 138 -126 228t-226 90q-161 0 -261 -118t-100 -294q0 -174 100 -293t261 -119z" />
    <glyph glyph-name="Gdotaccent" unicode="&#x120;" horiz-adv-x="1507" 
d="M924 1731q-41 0 -71 29.5t-30 70.5t30 70.5t71 29.5q40 0 70 -29.5t30 -70.5t-30 -70.5t-70 -29.5zM920 1425q-132 0 -249.5 -49t-204 -135t-137 -210t-50.5 -267t50.5 -267t137 -209.5t203.5 -134.5t248 -49q161 0 301 76v488h-398v125h522v-693q-198 -129 -428 -129
q-157 0 -297.5 59.5t-243.5 163t-163.5 252t-60.5 318.5t60.5 318.5t164 251.5t243.5 162.5t295 59.5q236 0 430 -126v-175q-83 82 -193 126t-230 44z" />
    <glyph glyph-name="gdotaccent" unicode="&#x121;" horiz-adv-x="1224" 
d="M573 1219q-41 0 -70.5 29.5t-29.5 70.5t29.5 70.5t70.5 29.5q40 0 70.5 -29.5t30.5 -70.5t-30.5 -70.5t-70.5 -29.5zM940 1024h121v-1010q0 -148 -59.5 -267.5t-170 -189t-251.5 -69.5q-182 0 -320 113v151q136 -143 328 -143q149 0 245.5 113t96.5 292v170
q-64 -96 -160 -150t-211 -54q-140 0 -249 71.5t-166.5 192t-57.5 268.5q0 227 131 379.5t342 152.5q116 0 213 -55.5t160 -152.5zM578 100q128 0 226 90.5t126 229.5v186q-28 138 -126 228t-226 90q-161 0 -261 -118t-100 -294q0 -174 100 -293t261 -119z" />
    <glyph glyph-name="Gcommaaccent" unicode="&#x122;" horiz-adv-x="1507" 
d="M920 1425q-132 0 -249.5 -49t-204 -135t-137 -210t-50.5 -267t50.5 -267t137 -209.5t203.5 -134.5t248 -49q161 0 301 76v488h-398v125h522v-693q-198 -129 -428 -129q-157 0 -297.5 59.5t-243.5 163t-163.5 252t-60.5 318.5t60.5 318.5t164 251.5t243.5 162.5t295 59.5
q236 0 430 -126v-175q-83 82 -193 126t-230 44zM913 -82q43 0 72 -30.5t29 -77.5q1 -77 -19 -146.5t-65.5 -118t-108.5 -47.5v60q46 1 74.5 42t27 76t-9.5 41q-43 0 -71.5 28.5t-28.5 72.5q0 43 28.5 71.5t71.5 28.5z" />
    <glyph glyph-name="gcommaaccent" unicode="&#x123;" horiz-adv-x="1224" 
d="M573 1208q-42 0 -71 31t-29 76q-3 110 59 207.5t134 105.5v-59q-40 -13 -69 -54.5t-31 -70.5t7 -35q42 0 71.5 -29t29.5 -71q0 -41 -30 -71t-71 -30zM940 1024h121v-1010q0 -148 -59.5 -267.5t-170 -189t-251.5 -69.5q-182 0 -320 113v151q136 -143 328 -143
q149 0 245.5 113t96.5 292v170q-64 -96 -160 -150t-211 -54q-140 0 -249 71.5t-166.5 192t-57.5 268.5q0 227 131 379.5t342 152.5q116 0 213 -55.5t160 -152.5zM578 100q128 0 226 90.5t126 229.5v186q-28 138 -126 228t-226 90q-161 0 -261 -118t-100 -294
q0 -174 100 -293t261 -119z" />
    <glyph glyph-name="Hbar" unicode="&#x126;" horiz-adv-x="1482" 
d="M1464 1231v-68h-145v-1163h-137v707h-879v-707h-139v1163h-148v68h148v305h139v-305h879v305h137v-305h145zM1182 831v332h-879v-332h879z" />
    <glyph glyph-name="hbar" unicode="&#x127;" horiz-adv-x="1191" 
d="M635 1044q169 0 283 -113.5t114 -283.5v-647h-135v635q0 122 -85.5 205.5t-209.5 83.5q-126 0 -214.5 -86t-88.5 -209v-629h-135v1229h-109v100h109v207h135v-207h334v-100h-334v-355q56 79 144 124.5t192 45.5z" />
    <glyph glyph-name="Itilde" unicode="&#x128;" horiz-adv-x="466" 
d="M379 1729q-117 0 -184 108q-42 68 -107 68q-52 0 -81 -44.5t-21 -113.5h-90q-10 106 44 176t144 70q115 0 184 -109q41 -67 109 -67q51 0 79 43t21 112h88q12 -106 -41 -174.5t-145 -68.5zM164 0v1536h139v-1536h-139z" />
    <glyph glyph-name="itilde" unicode="&#x129;" horiz-adv-x="462" 
d="M379 1217q-117 0 -184 108q-42 68 -107 68q-52 0 -81 -44.5t-21 -113.5h-90q-10 106 44 176t144 70q115 0 184 -109q41 -67 109 -67q51 0 79 43t21 112h88q12 -106 -41 -174.5t-145 -68.5zM164 0v1024h135v-1024h-135z" />
    <glyph glyph-name="Imacron" unicode="&#x12a;" horiz-adv-x="466" 
d="M-86 1755v94h637v-94h-637zM164 0v1536h139v-1536h-139z" />
    <glyph glyph-name="imacron" unicode="&#x12b;" horiz-adv-x="462" 
d="M-88 1243v94h637v-94h-637zM164 0v1024h135v-1024h-135z" />
    <glyph glyph-name="Iogonek" unicode="&#x12e;" horiz-adv-x="466" 
d="M373 -365l47 -67q-106 -103 -264 -100q-100 3 -159.5 59t-59.5 149q0 171 237 324h-10v1536h139v-1536h-12q-98 -42 -177 -128t-79 -183q0 -64 36.5 -103t104.5 -39q119 0 197 88z" />
    <glyph glyph-name="iogonek" unicode="&#x12f;" horiz-adv-x="462" 
d="M231 1219q-41 0 -70.5 29.5t-29.5 70.5t29.5 70.5t70.5 29.5q40 0 70.5 -29.5t30.5 -70.5t-30.5 -70.5t-70.5 -29.5zM371 -365l47 -67q-106 -103 -264 -100q-100 3 -160 59t-60 149q0 170 238 324h-8v1024h135v-1024h-10q-98 -42 -177 -128t-79 -183q0 -64 36.5 -103
t104.5 -39q119 0 197 88z" />
    <glyph glyph-name="Idotaccent" unicode="&#x130;" horiz-adv-x="466" 
d="M233 1731q-41 0 -70.5 29.5t-29.5 70.5t29.5 70.5t70.5 29.5q40 0 70.5 -29.5t30.5 -70.5t-30.5 -70.5t-70.5 -29.5zM164 0v1536h139v-1536h-139z" />
    <glyph glyph-name="dotlessi" unicode="&#x131;" horiz-adv-x="462" 
d="M164 0v1024h135v-1024h-135z" />
    <glyph glyph-name="IJ" unicode="&#x132;" horiz-adv-x="1234" 
d="M164 0v1536h139v-1536h-139zM731 -20q-90 0 -153 18v143q68 -22 153 -22q80 0 138.5 57.5t58.5 138.5v1221h137v-1221q0 -139 -98 -237t-236 -98z" />
    <glyph glyph-name="ij" unicode="&#x133;" horiz-adv-x="1069" 
d="M836 1219q-41 0 -71 29.5t-30 70.5t30 70.5t71 29.5q40 0 70 -29.5t30 -70.5t-30 -70.5t-70 -29.5zM268 1219q-40 0 -70 29.5t-30 70.5t30 70.5t70 29.5q41 0 71 -29.5t30 -70.5t-30 -70.5t-71 -29.5zM201 0v1024h135v-1024h-135zM618 -532q-32 0 -68 9t-56 23v121
q21 -17 53 -28t59 -11q68 0 115 49t47 119v1274h135v-1280q0 -115 -83 -195.5t-202 -80.5z" />
    <glyph glyph-name="Kcommaaccent" unicode="&#x136;" horiz-adv-x="1206" 
d="M444 842l707 -699v-184l-848 840v-799h-139v1536h139v-662l658 662h180zM616 -82q43 0 72 -30.5t29 -77.5q1 -77 -19 -146.5t-65.5 -118t-108.5 -47.5v60q46 1 74.5 42t27 76t-9.5 41q-43 0 -71.5 28.5t-28.5 72.5q0 43 28.5 71.5t71.5 28.5z" />
    <glyph glyph-name="kcommaaccent" unicode="&#x137;" horiz-adv-x="980" 
d="M432 573l541 -493v-168l-674 614v-524h-135v1536h135v-930l461 416h174zM500 -82q43 0 71.5 -30.5t28.5 -77.5q1 -77 -18.5 -146.5t-65 -118t-108.5 -47.5v60q46 1 74.5 42t27 76t-9.5 41q-43 0 -72 28.5t-29 72.5q0 43 29 71.5t72 28.5z" />
    <glyph glyph-name="Lacute" unicode="&#x139;" horiz-adv-x="929" 
d="M180 1741l189 307h141l-215 -307h-115zM164 0v1536h139v-1411h580v-125h-719z" />
    <glyph glyph-name="lacute" unicode="&#x13a;" horiz-adv-x="626" 
d="M176 1741l189 307h141l-215 -307h-115zM440 -20q-122 0 -196 73.5t-74 192.5v1290h133l2 -1290q0 -71 36 -109.5t101 -38.5q69 0 109 43l76 -92q-69 -69 -187 -69z" />
    <glyph glyph-name="Lcommaaccent" unicode="&#x13b;" horiz-adv-x="929" 
d="M164 0v1536h139v-1411h580v-125h-719zM434 -502v60q46 1 74.5 42t27 76t-9.5 41q-43 0 -71.5 28.5t-28.5 72.5q0 43 28.5 71.5t71.5 28.5t72 -30.5t29 -77.5q1 -77 -19 -146.5t-65.5 -118t-108.5 -47.5z" />
    <glyph glyph-name="lcommaaccent" unicode="&#x13c;" horiz-adv-x="626" 
d="M440 -20q-122 0 -196 73.5t-74 192.5v1290h133l2 -1290q0 -71 36 -109.5t101 -38.5q69 0 109 43l76 -92q-69 -69 -187 -69zM315 -502v60q46 1 75 42t27.5 76t-9.5 41q-43 0 -72 28.5t-29 72.5q0 43 29 71.5t72 28.5t71.5 -30.5t28.5 -77.5q1 -77 -19 -146.5t-65.5 -118
t-108.5 -47.5z" />
    <glyph glyph-name="Lcaron" unicode="&#x13d;" horiz-adv-x="956" 
d="M696 973v71q49 3 86 82.5t37 151.5q0 65 -33 65q-41 0 -69.5 29t-28.5 72q0 41 28.5 69.5t71.5 28.5q59 0 90 -57.5t31 -145.5q0 -84 -24.5 -166t-75 -140.5t-113.5 -59.5zM164 0v1536h139v-1411h580v-125h-719z" />
    <glyph glyph-name="lcaron" unicode="&#x13e;" horiz-adv-x="645" 
d="M453 973v71q50 3 87.5 82.5t37.5 151.5q0 65 -33 65q-42 0 -71.5 29.5t-29.5 71.5q0 41 29.5 69.5t71.5 28.5q60 0 90.5 -57t30.5 -146q0 -84 -24 -166t-74.5 -140.5t-114.5 -59.5zM440 -20q-122 0 -196 73.5t-74 192.5v1290h133l2 -1290q0 -71 36 -109.5t101 -38.5
q69 0 109 43l76 -92q-69 -69 -187 -69z" />
    <glyph glyph-name="ldot" unicode="&#x140;" horiz-adv-x="626" 
d="M440 -20q-122 0 -196 73.5t-74 192.5v1290h133l2 -1290q0 -71 36 -109.5t101 -38.5q69 0 109 43l76 -92q-69 -69 -187 -69zM461 653q-34 0 -59 24.5t-25 59.5q0 34 25 59t59 25t59 -25t25 -59q0 -35 -25 -59.5t-59 -24.5z" />
    <glyph glyph-name="Lslash" unicode="&#x141;" horiz-adv-x="929" 
d="M303 125h580v-125h-719v639l-115 -121h-108l223 240v778h139v-631l113 123h114l-227 -242v-661z" />
    <glyph glyph-name="lslash" unicode="&#x142;" horiz-adv-x="626" 
d="M551 141l76 -92q-69 -69 -187 -69q-122 0 -196 73.5t-74 192.5v372l-127 -133h-109l236 252v799h133v-655l107 114h114l-221 -233l2 -516q0 -71 36 -109.5t101 -38.5q69 0 109 43z" />
    <glyph glyph-name="Nacute" unicode="&#x143;" horiz-adv-x="1566" 
d="M1055 2048l-215 -307h-115l188 307h142zM1266 1536h137v-1536h-125l-975 1303v-1303h-139v1536h125l977 -1303v1303z" />
    <glyph glyph-name="nacute" unicode="&#x144;" horiz-adv-x="1191" 
d="M877 1536l-215 -307h-115l188 307h142zM635 1044q169 0 283 -113.5t114 -283.5v-647h-135v635q0 122 -85.5 205.5t-209.5 83.5q-126 0 -214.5 -86t-88.5 -209v-629h-135v1024h125l6 -154q57 81 146 127.5t194 46.5z" />
    <glyph glyph-name="Ncommaaccent" unicode="&#x145;" horiz-adv-x="1566" 
d="M1266 1536h137v-1536h-125l-975 1303v-1303h-139v1536h125l977 -1303v1303zM793 -82q43 0 71.5 -30.5t28.5 -77.5q1 -77 -19 -146.5t-65.5 -118t-108.5 -47.5v60q46 1 75 42t27.5 76t-9.5 41q-43 0 -72 28.5t-29 72.5q0 43 29 71.5t72 28.5z" />
    <glyph glyph-name="ncommaaccent" unicode="&#x146;" horiz-adv-x="1191" 
d="M635 1044q169 0 283 -113.5t114 -283.5v-647h-135v635q0 122 -85.5 205.5t-209.5 83.5q-126 0 -214.5 -86t-88.5 -209v-629h-135v1024h125l6 -154q57 81 146 127.5t194 46.5zM600 -82q43 0 71.5 -30.5t28.5 -77.5q1 -77 -18.5 -146.5t-65 -118t-108.5 -47.5v60
q46 1 74.5 42t27 76t-9.5 41q-43 0 -71.5 28.5t-28.5 72.5q0 43 28.5 71.5t71.5 28.5z" />
    <glyph glyph-name="Ncaron" unicode="&#x147;" horiz-adv-x="1566" 
d="M850 1698h-145l-205 350h110l168 -272l166 272h111zM1266 1536h137v-1536h-125l-975 1303v-1303h-139v1536h125l977 -1303v1303z" />
    <glyph glyph-name="ncaron" unicode="&#x148;" horiz-adv-x="1191" 
d="M672 1186h-146l-204 350h110l168 -272l166 272h111zM635 1044q169 0 283 -113.5t114 -283.5v-647h-135v635q0 122 -85.5 205.5t-209.5 83.5q-126 0 -214.5 -86t-88.5 -209v-629h-135v1024h125l6 -154q57 81 146 127.5t194 46.5z" />
    <glyph glyph-name="Eng" unicode="&#x14a;" horiz-adv-x="1617" 
d="M1292 1536h133v-1708q0 -110 -76 -166t-192 -53v98q58 -5 94.5 23.5t36.5 97.5v197l-962 1271v-1296h-133v1536h118l981 -1296v1296z" />
    <glyph glyph-name="eng" unicode="&#x14b;" horiz-adv-x="1230" 
d="M659 1044q167 0 284.5 -118t117.5 -285v-819q0 -110 -77 -166t-193 -53v96q60 -3 97.5 25.5t37.5 97.5v807q0 123 -87 209t-210 86q-126 0 -214.5 -86t-88.5 -209v-629h-133v1024h133v-164q56 86 143 135t190 49z" />
    <glyph glyph-name="Omacron" unicode="&#x14c;" horiz-adv-x="1716" 
d="M543 1755v94h635v-94h-635zM858 -20q-213 0 -385.5 106t-268 286t-95.5 396t95.5 396t268 286t385.5 106q160 0 300 -62t238.5 -168t155 -251t56.5 -307t-56.5 -307t-155 -251t-238.5 -168t-300 -62zM858 113q134 0 250 51t196 139t125.5 208.5t45.5 256.5
q0 183 -77.5 332.5t-219 237t-320.5 87.5t-321 -87.5t-219.5 -237.5t-77.5 -332t77.5 -331t219.5 -236.5t321 -87.5z" />
    <glyph glyph-name="omacron" unicode="&#x14d;" horiz-adv-x="1157" 
d="M262 1243v94h635v-94h-635zM578 -20q-143 0 -256.5 71.5t-174.5 192.5t-61 268t61 268t174.5 192.5t256.5 71.5q144 0 257.5 -71.5t174.5 -192.5t61 -268t-61 -268t-174.5 -192.5t-257.5 -71.5zM578 100q162 0 261 118.5t99 293.5q0 176 -99 294t-261 118
q-161 0 -261 -118t-100 -294q0 -174 100 -293t261 -119z" />
    <glyph glyph-name="Ohungarumlaut" unicode="&#x150;" horiz-adv-x="1716" 
d="M647 1694l305 354h135l-333 -354h-107zM967 1694l307 354h133l-332 -354h-108zM858 -20q-213 0 -385.5 106t-268 286t-95.5 396t95.5 396t268 286t385.5 106q160 0 300 -62t238.5 -168t155 -251t56.5 -307t-56.5 -307t-155 -251t-238.5 -168t-300 -62zM858 113
q134 0 250 51t196 139t125.5 208.5t45.5 256.5q0 183 -77.5 332.5t-219 237t-320.5 87.5t-321 -87.5t-219.5 -237.5t-77.5 -332t77.5 -331t219.5 -236.5t321 -87.5z" />
    <glyph glyph-name="ohungarumlaut" unicode="&#x151;" horiz-adv-x="1157" 
d="M367 1182l305 354h135l-334 -354h-106zM686 1182l307 354h133l-331 -354h-109zM578 -20q-143 0 -256.5 71.5t-174.5 192.5t-61 268t61 268t174.5 192.5t256.5 71.5q144 0 257.5 -71.5t174.5 -192.5t61 -268t-61 -268t-174.5 -192.5t-257.5 -71.5zM578 100
q162 0 261 118.5t99 293.5q0 176 -99 294t-261 118q-161 0 -261 -118t-100 -294q0 -174 100 -293t261 -119z" />
    <glyph glyph-name="OE" unicode="&#x152;" horiz-adv-x="2611" 
d="M2419 1417h-690v-588h604v-120h-604v-588h690v-121h-807v356q-106 -173 -284 -274.5t-388 -101.5q-214 0 -395.5 105.5t-287 287t-105.5 395.5t105.5 395.5t287 287t395.5 105.5q210 0 388 -101.5t284 -274.5v356h807v-119zM940 113q133 0 254.5 52t209 139.5t139.5 209
t52 254.5q0 134 -52 255.5t-139.5 209t-209 139t-254.5 51.5q-135 0 -256 -51.5t-208.5 -139t-139 -208.5t-51.5 -256q0 -133 51.5 -254.5t139 -209t209 -139.5t255.5 -52z" />
    <glyph glyph-name="oe" unicode="&#x153;" horiz-adv-x="1980" 
d="M1894 520q0 -35 -2 -53h-819q11 -165 106 -267t251 -102q100 0 171.5 41t131.5 133l96 -67q-134 -225 -404 -225q-143 0 -252 67.5t-169 185.5q-63 -118 -173.5 -185.5t-252.5 -67.5q-143 0 -256.5 71.5t-174.5 192.5t-61 268t61 268t174.5 192.5t256.5 71.5
q141 0 252 -68t174 -185q62 119 170 186t251 67q214 0 341.5 -146t127.5 -378zM1427 928q-150 0 -242 -97t-110 -258h697q-11 160 -103 257.5t-242 97.5zM578 100q162 0 261 118.5t99 293.5q0 176 -99 294t-261 118q-161 0 -261 -118t-100 -294q0 -174 100 -293t261 -119z
" />
    <glyph glyph-name="Racute" unicode="&#x154;" horiz-adv-x="1185" 
d="M883 2048l-215 -307h-115l188 307h142zM762 707l393 -707h-156l-378 700h-318v-700h-139v1536h534q175 0 298.5 -123.5t123.5 -300.5q0 -156 -102.5 -270.5t-255.5 -134.5zM303 817h391q124 0 211.5 87.5t87.5 211.5q0 123 -88 210t-211 87h-391v-596z" />
    <glyph glyph-name="racute" unicode="&#x155;" horiz-adv-x="774" 
d="M717 1536l-215 -307h-115l188 307h142zM608 1044q126 0 197 -49l-64 -98q-61 27 -139 27q-121 0 -212 -94.5t-91 -231.5v-598h-135v1024h125l6 -168q55 86 138 137t175 51z" />
    <glyph glyph-name="Rcommaaccent" unicode="&#x156;" horiz-adv-x="1185" 
d="M762 707l393 -707h-156l-378 700h-318v-700h-139v1536h534q175 0 298.5 -123.5t123.5 -300.5q0 -156 -102.5 -270.5t-255.5 -134.5zM303 817h391q124 0 211.5 87.5t87.5 211.5q0 123 -88 210t-211 87h-391v-596zM608 -82q43 0 72 -30.5t29 -77.5q1 -77 -19 -146.5
t-65.5 -118t-108.5 -47.5v60q46 1 74.5 42t27 76t-9.5 41q-43 0 -71.5 28.5t-28.5 72.5q0 43 28.5 71.5t71.5 28.5z" />
    <glyph glyph-name="rcommaaccent" unicode="&#x157;" horiz-adv-x="774" 
d="M608 1044q126 0 197 -49l-64 -98q-61 27 -139 27q-121 0 -212 -94.5t-91 -231.5v-598h-135v1024h125l6 -168q55 86 138 137t175 51zM233 -82q43 0 72 -30.5t29 -77.5q1 -77 -19 -146.5t-65.5 -118t-108.5 -47.5v60q46 1 74.5 42t27 76t-9.5 41q-43 0 -71.5 28.5
t-28.5 72.5q0 43 28.5 71.5t71.5 28.5z" />
    <glyph glyph-name="Rcaron" unicode="&#x158;" horiz-adv-x="1185" 
d="M678 1698h-146l-204 350h110l168 -272l166 272h111zM762 707l393 -707h-156l-378 700h-318v-700h-139v1536h534q175 0 298.5 -123.5t123.5 -300.5q0 -156 -102.5 -270.5t-255.5 -134.5zM303 817h391q124 0 211.5 87.5t87.5 211.5q0 123 -88 210t-211 87h-391v-596z" />
    <glyph glyph-name="rcaron" unicode="&#x159;" horiz-adv-x="774" 
d="M512 1186h-145l-205 350h110l168 -272l166 272h111zM608 1044q126 0 197 -49l-64 -98q-61 27 -139 27q-121 0 -212 -94.5t-91 -231.5v-598h-135v1024h125l6 -168q55 86 138 137t175 51z" />
    <glyph glyph-name="Sacute" unicode="&#x15a;" horiz-adv-x="1273" 
d="M670 1739l188 307h141l-215 -307h-114zM659 -20q-186 0 -337 82t-224 212l99 103q47 -115 173.5 -189.5t291.5 -74.5q160 0 262 70t102 212q0 44 -12 82.5t-29.5 67.5t-51 57t-61 46t-76 40t-79 33.5t-86.5 32.5q-175 66 -245 107q-160 94 -183 243q-4 27 -4 57
q0 97 37.5 174t102 124.5t146 72t174.5 24.5q156 0 281 -55t201 -145l-94 -96q-56 79 -155.5 127.5t-232.5 48.5q-135 0 -227 -67.5t-92 -197.5q0 -36 11 -68.5t26.5 -57t45 -48.5t54.5 -40t68 -35.5t72 -31t79 -30.5q181 -70 255 -113q177 -103 208 -265q8 -38 8 -81
q0 -104 -39.5 -185.5t-109 -132.5t-160.5 -77t-199 -26z" />
    <glyph glyph-name="sacute" unicode="&#x15b;" horiz-adv-x="958" 
d="M438 1229l189 307h141l-215 -307h-115zM489 -20q-126 0 -242.5 49t-166.5 123l78 86q35 -60 130 -102t195 -44q109 -2 181.5 46t72.5 134q0 29 -9 52.5t-29 42t-40 32t-54 26t-59 20.5t-66 20q-5 1 -7.5 2t-6.5 2t-7 2q-41 12 -68 20.5t-64 23.5t-61.5 29.5t-51.5 36.5
t-42.5 46.5t-26 58t-10.5 72.5q0 88 54.5 155t135 99t171.5 32q94 0 184.5 -32.5t146.5 -81.5l-79 -92q-40 43 -102 68t-128 28q-98 3 -173 -38.5t-75 -121.5q0 -36 15 -65t35.5 -47.5t59 -35.5t67.5 -26t79 -22q36 -10 50 -14t48 -14.5t49.5 -17t44.5 -19t43 -24t35.5 -28
t32 -34.5t22.5 -40.5t16.5 -49t4.5 -56.5q0 -131 -109.5 -216t-273.5 -85z" />
    <glyph glyph-name="Scedilla" unicode="&#x15e;" horiz-adv-x="1273" 
d="M659 -20q-4 0 -10.5 1t-9.5 1l-55 -123q109 22 185.5 -32.5t76.5 -152.5q0 -86 -59.5 -145t-145.5 -59q-66 0 -133.5 34.5t-99.5 85.5l65 33q26 -34 75 -57t93 -23q55 0 92 37.5t37 93.5q0 77 -63.5 108t-155.5 -1l-64 45l78 160q-156 20 -280 98t-187 190l99 103
q47 -115 173.5 -189.5t291.5 -74.5q160 0 262 70t102 212q0 44 -12 82.5t-29.5 67.5t-51 57t-61 46t-76 40t-79 33.5t-86.5 32.5q-175 66 -245 107q-160 94 -183 243q-4 27 -4 57q0 97 37.5 174t102 124.5t146 72t174.5 24.5q156 0 281 -55t201 -145l-94 -96
q-56 79 -155.5 127.5t-232.5 48.5q-135 0 -227 -67.5t-92 -197.5q0 -36 11 -68.5t26.5 -57t45 -48.5t54.5 -40t68 -35.5t72 -31t79 -30.5q181 -70 255 -113q177 -103 208 -265q8 -38 8 -81q0 -104 -39.5 -185.5t-109 -132.5t-160.5 -77t-199 -26z" />
    <glyph glyph-name="scedilla" unicode="&#x15f;" horiz-adv-x="958" 
d="M872 281q0 -124 -98.5 -207t-249.5 -92l-57 -125q109 22 185.5 -32.5t76.5 -152.5q0 -86 -59.5 -145t-145.5 -59q-66 0 -133.5 34.5t-99.5 85.5l65 33q26 -34 75 -57t93 -23q55 0 92 37.5t37 93.5q0 77 -63.5 108t-155.5 -1l-63 45l75 158q-116 8 -219 55.5t-147 114.5
l78 86q35 -60 130 -102t195 -44q109 -2 181.5 46t72.5 134q0 29 -9 52.5t-29 42t-40 32t-54 26t-59 20.5t-66 20q-5 1 -7.5 2t-6.5 2t-7 2q-41 12 -68 20.5t-64 23.5t-61.5 29.5t-51.5 36.5t-42.5 46.5t-26 58t-10.5 72.5q0 88 54.5 155t135 99t171.5 32q94 0 184.5 -32.5
t146.5 -81.5l-79 -92q-40 43 -102 68t-128 28q-98 3 -173 -38.5t-75 -121.5q0 -36 15 -65t35.5 -47.5t59 -35.5t67.5 -26t79 -22q36 -10 50 -14t48 -14.5t49.5 -17t44.5 -19t43 -24t35.5 -28t32 -34.5t22.5 -40.5t16.5 -49t4.5 -56.5z" />
    <glyph glyph-name="Scaron" unicode="&#x160;" horiz-adv-x="1273" 
d="M649 1696l-205 350h111l168 -272l166 272h110l-204 -350h-146zM659 -20q-186 0 -337 82t-224 212l99 103q47 -115 173.5 -189.5t291.5 -74.5q160 0 262 70t102 212q0 44 -12 82.5t-29.5 67.5t-51 57t-61 46t-76 40t-79 33.5t-86.5 32.5q-175 66 -245 107
q-160 94 -183 243q-4 27 -4 57q0 97 37.5 174t102 124.5t146 72t174.5 24.5q156 0 281 -55t201 -145l-94 -96q-56 79 -155.5 127.5t-232.5 48.5q-135 0 -227 -67.5t-92 -197.5q0 -36 11 -68.5t26.5 -57t45 -48.5t54.5 -40t68 -35.5t72 -31t79 -30.5q181 -70 255 -113
q177 -103 208 -265q8 -38 8 -81q0 -104 -39.5 -185.5t-109 -132.5t-160.5 -77t-199 -26z" />
    <glyph glyph-name="scaron" unicode="&#x161;" horiz-adv-x="958" 
d="M418 1186l-205 350h111l168 -272l165 272h111l-205 -350h-145zM489 -20q-126 0 -242.5 49t-166.5 123l78 86q35 -60 130 -102t195 -44q109 -2 181.5 46t72.5 134q0 29 -9 52.5t-29 42t-40 32t-54 26t-59 20.5t-66 20q-5 1 -7.5 2t-6.5 2t-7 2q-41 12 -68 20.5t-64 23.5
t-61.5 29.5t-51.5 36.5t-42.5 46.5t-26 58t-10.5 72.5q0 88 54.5 155t135 99t171.5 32q94 0 184.5 -32.5t146.5 -81.5l-79 -92q-40 43 -102 68t-128 28q-98 3 -173 -38.5t-75 -121.5q0 -36 15 -65t35.5 -47.5t59 -35.5t67.5 -26t79 -22q36 -10 50 -14t48 -14.5t49.5 -17
t44.5 -19t43 -24t35.5 -28t32 -34.5t22.5 -40.5t16.5 -49t4.5 -56.5q0 -131 -109.5 -216t-273.5 -85z" />
    <glyph glyph-name="uni0162" unicode="&#x162;" horiz-adv-x="1052" 
d="M29 1538h997v-125h-430v-1411h-137v1411h-430v125zM498 -143q109 22 185.5 -32.5t76.5 -152.5q0 -86 -59.5 -145t-145.5 -59q-66 0 -133.5 34.5t-99.5 85.5l65 33q26 -34 75 -57t93 -23q55 0 92 37.5t37 93.5q0 77 -63.5 108t-155.5 -1l-64 45l86 176h76z" />
    <glyph glyph-name="uni0163" unicode="&#x163;" horiz-adv-x="657" 
d="M420 -143q109 22 185.5 -32.5t76.5 -152.5q0 -86 -59.5 -145t-145.5 -59q-66 0 -133.5 34.5t-99.5 85.5l65 33q26 -34 75 -57t93 -23q55 0 92 37.5t37 93.5q0 77 -63.5 108t-155.5 -1l-63 45l77 160q-97 19 -154 89.5t-57 172.5v672h-141v106h141v348h136v-348h264v-106
h-264v-672q0 -71 37 -109.5t102 -38.5q66 0 106 43l76 -92q-63 -63 -170 -69z" />
    <glyph glyph-name="Tcaron" unicode="&#x164;" horiz-adv-x="1052" 
d="M598 1698h-145l-205 350h110l168 -272l166 272h111zM1026 1538v-125h-430v-1411h-137v1411h-430v125h997z" />
    <glyph glyph-name="tcaron" unicode="&#x165;" horiz-adv-x="706" 
d="M616 1468q-42 0 -71 29t-29 72q0 41 29.5 69.5t70.5 28.5q60 0 90.5 -57t30.5 -146q0 -84 -24 -166t-74.5 -140.5t-114.5 -59.5v71q50 3 87.5 82.5t37.5 151.5q0 65 -33 65zM465 98q66 0 106 43l76 -92q-69 -69 -186 -69q-122 0 -196.5 73.5t-74.5 192.5v672h-141v106
h141v348h136v-348h264v-106h-264v-672q0 -71 37 -109.5t102 -38.5z" />
    <glyph glyph-name="Tbar" unicode="&#x166;" horiz-adv-x="1052" 
d="M1026 1413h-430v-594h219v-100h-219v-717h-137v717h-221v100h221v594h-430v125h997v-125z" />
    <glyph glyph-name="tbar" unicode="&#x167;" horiz-adv-x="657" 
d="M571 141l76 -92q-69 -69 -186 -69q-122 0 -196.5 73.5t-74.5 192.5v215h-137v100h137v357h-141v106h141v348h136v-348h264v-106h-264v-357h305v-100h-305v-215q0 -71 37 -109.5t102 -38.5q66 0 106 43z" />
    <glyph glyph-name="Utilde" unicode="&#x168;" horiz-adv-x="1474" 
d="M885 1729q-118 0 -185 108q-42 68 -106 68q-53 0 -81 -44.5t-19 -113.5h-91q-10 106 43.5 176t143.5 70q115 0 184 -109q41 -67 109 -67q51 0 79 43t21 112h88q12 -106 -41 -174.5t-145 -68.5zM737 -20q-155 0 -285.5 70t-206 191t-75.5 265v1030h139v-1010
q0 -175 125 -298.5t303 -123.5q180 0 305 123.5t125 298.5v1010h138v-1030q0 -144 -76 -265t-206.5 -191t-285.5 -70z" />
    <glyph glyph-name="Umacron" unicode="&#x16a;" horiz-adv-x="1474" 
d="M422 1755v94h635v-94h-635zM737 -20q-155 0 -285.5 70t-206 191t-75.5 265v1030h139v-1010q0 -175 125 -298.5t303 -123.5q180 0 305 123.5t125 298.5v1010h138v-1030q0 -144 -76 -265t-206.5 -191t-285.5 -70z" />
    <glyph glyph-name="umacron" unicode="&#x16b;" horiz-adv-x="1198" 
d="M920 1337v-94h-635v94h635zM901 1024h133v-1024h-123l-8 156q-57 -81 -145 -128.5t-189 -47.5q-168 0 -285.5 117.5t-117.5 285.5v641h135v-627q0 -123 86.5 -210t210.5 -87q125 0 214 87t89 210v627z" />
    <glyph glyph-name="Uring" unicode="&#x16e;" horiz-adv-x="1474" 
d="M739 1661q-82 0 -140 58.5t-58 138.5q0 82 57.5 140t140.5 58q80 0 137.5 -58t57.5 -140q0 -80 -58 -138.5t-137 -58.5zM739 1731q53 0 90 36.5t37 90.5t-37.5 92.5t-89.5 38.5q-54 0 -91.5 -38.5t-37.5 -92.5t37.5 -90.5t91.5 -36.5zM737 -20q-155 0 -285.5 70t-206 191
t-75.5 265v1030h139v-1010q0 -175 125 -298.5t303 -123.5q180 0 305 123.5t125 298.5v1010h138v-1030q0 -144 -76 -265t-206.5 -191t-285.5 -70z" />
    <glyph glyph-name="uring" unicode="&#x16f;" horiz-adv-x="1198" 
d="M602 1149q-83 0 -141 58.5t-58 138.5q0 82 58 140t141 58q80 0 137.5 -58t57.5 -140q0 -80 -58 -138.5t-137 -58.5zM602 1477q-54 0 -91.5 -38.5t-37.5 -92.5t37.5 -90.5t91.5 -36.5q53 0 90 36.5t37 90.5t-37.5 92.5t-89.5 38.5zM901 1024h133v-1024h-123l-8 156
q-57 -81 -145 -128.5t-189 -47.5q-168 0 -285.5 117.5t-117.5 285.5v641h135v-627q0 -123 86.5 -210t210.5 -87q125 0 214 87t89 210v627z" />
    <glyph glyph-name="Uhungarumlaut" unicode="&#x170;" horiz-adv-x="1474" 
d="M526 1694l305 354h136l-334 -354h-107zM846 1694l307 354h133l-332 -354h-108zM737 -20q-155 0 -285.5 70t-206 191t-75.5 265v1030h139v-1010q0 -175 125 -298.5t303 -123.5q180 0 305 123.5t125 298.5v1010h138v-1030q0 -144 -76 -265t-206.5 -191t-285.5 -70z" />
    <glyph glyph-name="uhungarumlaut" unicode="&#x171;" horiz-adv-x="1198" 
d="M829 1536l-333 -354h-107l305 354h135zM817 1182h-108l307 354h133zM901 397v627h133v-1024h-123l-8 156q-57 -81 -145 -128.5t-189 -47.5q-168 0 -285.5 117.5t-117.5 285.5v641h135v-627q0 -123 86.5 -210t210.5 -87q125 0 214 87t89 210z" />
    <glyph glyph-name="Uogonek" unicode="&#x172;" horiz-adv-x="1474" 
d="M1167 1536h138v-1030q0 -181 -116 -320.5t-298 -187.5q-89 -47 -156 -126.5t-67 -168.5q0 -64 36.5 -102.5t104.5 -38.5q119 0 197 88l47 -68q-106 -103 -265 -100q-100 3 -158.5 59t-58.5 150q0 152 187 289h-21q-155 0 -285.5 70t-206 191t-75.5 265v1030h139v-1010
q0 -175 125 -298.5t303 -123.5q180 0 305 123.5t125 298.5v1010z" />
    <glyph glyph-name="uogonek" unicode="&#x173;" horiz-adv-x="1198" 
d="M1118 -365l47 -67q-106 -103 -264 -100q-100 3 -158.5 59t-58.5 149q0 172 236 324h-9l-8 156q-57 -81 -145 -128.5t-189 -47.5q-168 0 -285.5 117.5t-117.5 285.5v641h135v-627q0 -123 86.5 -210t210.5 -87q125 0 214 87t89 210v627h133v-1024h2q-98 -42 -177 -128
t-79 -183q0 -64 37 -103t105 -39q118 0 196 88z" />
    <glyph glyph-name="Wcircumflex" unicode="&#x174;" horiz-adv-x="2142" 
d="M1073 1978l-164 -280h-114l204 350h146l205 -350h-115zM2013 1536h150l-650 -1536h-149l-293 692l-291 -692h-149l-651 1536h149l580 -1370l292 692l-286 678h143l578 -1372z" />
    <glyph glyph-name="wcircumflex" unicode="&#x175;" horiz-adv-x="1435" 
d="M627 1466l-164 -280h-115l205 350h145l205 -350h-115zM1264 1024h147l-350 -1024h-150l-196 559l-189 -559h-147l-352 1024h149l285 -862l192 575l-100 287h133l293 -866z" />
    <glyph glyph-name="Ycircumflex" unicode="&#x176;" horiz-adv-x="1302" 
d="M653 1978l-164 -280h-114l205 350h145l205 -350h-115zM1255 1536l-534 -807v-729h-137v725l-537 811h156l448 -688l451 688h153z" />
    <glyph glyph-name="ycircumflex" unicode="&#x177;" horiz-adv-x="1200" 
d="M602 1466l-164 -280h-114l204 350h146l205 -350h-115zM1034 1024l2 -1075q0 -102 -28 -187t-82.5 -150t-143.5 -101.5t-204 -36.5q-212 0 -361 112v152q151 -144 369 -144q162 0 238.5 95t76.5 260v201q-58 -78 -145.5 -124t-186.5 -46q-168 0 -285.5 117.5t-117.5 285.5
v641h135v-627q0 -123 86.5 -210t210.5 -87q125 0 214 87t89 210v627h133z" />
    <glyph glyph-name="Ydieresis" unicode="&#x178;" horiz-adv-x="1302" 
d="M475 1731q-41 0 -70.5 29.5t-29.5 70.5t29.5 70.5t70.5 29.5q40 0 70 -29.5t30 -70.5t-30 -70.5t-70 -29.5zM834 1731q-41 0 -71 29.5t-30 70.5t30 70.5t71 29.5q40 0 69 -29.5t29 -70.5t-29 -70.5t-69 -29.5zM1255 1536l-534 -807v-729h-137v725l-537 811h156l448 -688
l451 688h153z" />
    <glyph glyph-name="Zacute" unicode="&#x179;" horiz-adv-x="1353" 
d="M956 2048l-215 -307h-114l188 307h141zM289 125h966v-125h-1159v70l932 1343h-909v123h1102v-70z" />
    <glyph glyph-name="zacute" unicode="&#x17a;" horiz-adv-x="1054" 
d="M496 1229l188 307h141l-215 -307h-114zM86 0v90l678 819h-662v115h846v-84l-678 -825h699v-115h-883z" />
    <glyph glyph-name="Zdotaccent" unicode="&#x17b;" horiz-adv-x="1353" 
d="M680 1731q-41 0 -70.5 29.5t-29.5 70.5t29.5 70.5t70.5 29.5q40 0 70 -29.5t30 -70.5t-30 -70.5t-70 -29.5zM289 125h966v-125h-1159v70l932 1343h-909v123h1102v-70z" />
    <glyph glyph-name="zdotaccent" unicode="&#x17c;" horiz-adv-x="1054" 
d="M549 1219q-41 0 -70.5 29.5t-29.5 70.5t29.5 70.5t70.5 29.5q40 0 70 -29.5t30 -70.5t-30 -70.5t-70 -29.5zM86 0v90l678 819h-662v115h846v-84l-678 -825h699v-115h-883z" />
    <glyph glyph-name="Zcaron" unicode="&#x17d;" horiz-adv-x="1353" 
d="M752 1698h-146l-205 350h111l168 -272l166 272h110zM289 125h966v-125h-1159v70l932 1343h-909v123h1102v-70z" />
    <glyph glyph-name="zcaron" unicode="&#x17e;" horiz-adv-x="1054" 
d="M475 1186l-205 350h111l168 -272l166 272h110l-204 -350h-146zM86 0v90l678 819h-662v115h846v-84l-678 -825h699v-115h-883z" />
    <glyph glyph-name="florin" unicode="&#x192;" horiz-adv-x="856" 
d="M698 1454q-77 0 -135 -52t-71 -134l-39 -244h290l-16 -106h-291l-227 -1430h-123l225 1430h-170l17 106h172l41 262q19 115 111 192.5t208 77.5q34 0 70 -10t55 -24l-12 -105q-40 37 -105 37z" />
    <glyph glyph-name="uni01CD" unicode="&#x1cd;" horiz-adv-x="1480" 
d="M813 1698h-145l-205 350h110l168 -272l166 272h111zM1282 0l-129 334h-825l-129 -334h-152l617 1536h153l617 -1536h-152zM375 453h731l-367 938z" />
    <glyph glyph-name="uni01CE" unicode="&#x1ce;" horiz-adv-x="1097" 
d="M618 1186h-145l-205 350h111l168 -272l166 272h110zM530 1044q117 0 207 -39.5t145.5 -125.5t55.5 -209v-670h-121l-6 168q-92 -89 -197.5 -138.5t-210.5 -49.5q-136 0 -223.5 88t-87.5 225q0 72 27 130t88 103t158 55t237 -14l205 -39v148q0 126 -78.5 189t-206.5 63
q-102 0 -181.5 -41t-121.5 -117l-94 82q56 90 159 141t246 51zM432 100q187 0 375 191v133l-203 43q-195 39 -285 -13.5t-90 -154.5q0 -88 55.5 -143.5t147.5 -55.5z" />
    <glyph glyph-name="uni01CF" unicode="&#x1cf;" horiz-adv-x="466" 
d="M160 1698l-207 350h113l167 -272l166 272h111l-205 -350h-145zM164 0v1536h139v-1536h-139z" />
    <glyph glyph-name="uni01D0" unicode="&#x1d0;" horiz-adv-x="462" 
d="M158 1186l-207 350h112l168 -272l166 272h111l-205 -350h-145zM164 0v1024h135v-1024h-135z" />
    <glyph glyph-name="uni01D1" unicode="&#x1d1;" horiz-adv-x="1716" 
d="M786 1698l-204 350h110l168 -272l166 272h111l-205 -350h-146zM858 -20q-213 0 -385.5 106t-268 286t-95.5 396t95.5 396t268 286t385.5 106q160 0 300 -62t238.5 -168t155 -251t56.5 -307t-56.5 -307t-155 -251t-238.5 -168t-300 -62zM858 113q134 0 250 51t196 139
t125.5 208.5t45.5 256.5q0 183 -77.5 332.5t-219 237t-320.5 87.5t-321 -87.5t-219.5 -237.5t-77.5 -332t77.5 -331t219.5 -236.5t321 -87.5z" />
    <glyph glyph-name="uni01D2" unicode="&#x1d2;" horiz-adv-x="1157" 
d="M506 1186l-205 350h111l168 -272l165 272h111l-205 -350h-145zM578 -20q-143 0 -256.5 71.5t-174.5 192.5t-61 268t61 268t174.5 192.5t256.5 71.5q144 0 257.5 -71.5t174.5 -192.5t61 -268t-61 -268t-174.5 -192.5t-257.5 -71.5zM578 100q162 0 261 118.5t99 293.5
q0 176 -99 294t-261 118q-161 0 -261 -118t-100 -294q0 -174 100 -293t261 -119z" />
    <glyph glyph-name="uni01D3" unicode="&#x1d3;" horiz-adv-x="1474" 
d="M666 1698l-205 350h110l168 -272l166 272h111l-205 -350h-145zM737 -20q-155 0 -285.5 70t-206 191t-75.5 265v1030h139v-1010q0 -175 125 -298.5t303 -123.5q180 0 305 123.5t125 298.5v1010h138v-1030q0 -144 -76 -265t-206.5 -191t-285.5 -70z" />
    <glyph glyph-name="uni01D4" unicode="&#x1d4;" horiz-adv-x="1198" 
d="M674 1186h-146l-204 350h110l168 -272l166 272h111zM901 1024h133v-1024h-123l-8 156q-57 -81 -145 -128.5t-189 -47.5q-168 0 -285.5 117.5t-117.5 285.5v641h135v-627q0 -123 86.5 -210t210.5 -87q125 0 214 87t89 210v627z" />
    <glyph glyph-name="Gcaron" unicode="&#x1e6;" horiz-adv-x="1507" 
d="M995 1698h-145l-205 350h111l168 -272l166 272h110zM920 1425q-132 0 -249.5 -49t-204 -135t-137 -210t-50.5 -267t50.5 -267t137 -209.5t203.5 -134.5t248 -49q161 0 301 76v488h-398v125h522v-693q-198 -129 -428 -129q-157 0 -297.5 59.5t-243.5 163t-163.5 252
t-60.5 318.5t60.5 318.5t164 251.5t243.5 162.5t295 59.5q236 0 430 -126v-175q-83 82 -193 126t-230 44z" />
    <glyph glyph-name="gcaron" unicode="&#x1e7;" horiz-adv-x="1224" 
d="M645 1186h-145l-205 350h111l167 -272l166 272h111zM940 1024h121v-1010q0 -148 -59.5 -267.5t-170 -189t-251.5 -69.5q-182 0 -320 113v151q136 -143 328 -143q149 0 245.5 113t96.5 292v170q-64 -96 -160 -150t-211 -54q-140 0 -249 71.5t-166.5 192t-57.5 268.5
q0 227 131 379.5t342 152.5q116 0 213 -55.5t160 -152.5zM578 100q128 0 226 90.5t126 229.5v186q-28 138 -126 228t-226 90q-161 0 -261 -118t-100 -294q0 -174 100 -293t261 -119z" />
    <glyph glyph-name="Oslashacute" unicode="&#x1fe;" horiz-adv-x="1716" 
d="M1137 2048l-215 -307h-115l188 307h142zM1333 1386q129 -110 202 -271.5t73 -346.5q0 -162 -56.5 -307t-155 -251t-238.5 -168t-300 -62q-220 0 -399 114l-76 -110h-107l111 163q-131 108 -204.5 270.5t-73.5 350.5q0 216 95.5 396t268 286t385.5 106q227 0 406 -118
l75 112h105zM240 768q0 -156 58 -289t163 -223l729 1073q-148 96 -332 96q-179 0 -321 -87.5t-219.5 -237.5t-77.5 -332zM858 113q134 0 250 51t196 139t125.5 208.5t45.5 256.5q0 154 -56.5 286t-158.5 222l-728 -1073q145 -90 326 -90z" />
    <glyph glyph-name="oslashacute" unicode="&#x1ff;" horiz-adv-x="1157" 
d="M856 1536l-215 -307h-115l189 307h141zM899 926q82 -74 127 -181.5t45 -232.5q0 -147 -61 -268t-174.5 -192.5t-257.5 -71.5q-150 0 -269 77l-80 -118h-77l108 157q-83 74 -128.5 182t-45.5 234q0 147 61 268t174.5 192.5t256.5 71.5q152 0 270 -79l82 118h76zM217 512
q0 -191 115 -309l446 657q-86 64 -200 64q-161 0 -261 -118t-100 -294zM578 100q162 0 261 118.5t99 293.5q0 188 -113 307l-444 -659q86 -60 197 -60z" />
    <glyph glyph-name="Scommaaccent" unicode="&#x218;" horiz-adv-x="1273" 
d="M659 -20q-186 0 -337 82t-224 212l99 103q47 -115 173.5 -189.5t291.5 -74.5q160 0 262 70t102 212q0 44 -12 82.5t-29.5 67.5t-51 57t-61 46t-76 40t-79 33.5t-86.5 32.5q-175 66 -245 107q-160 94 -183 243q-4 27 -4 57q0 97 37.5 174t102 124.5t146 72t174.5 24.5
q156 0 281 -55t201 -145l-94 -96q-56 79 -155.5 127.5t-232.5 48.5q-135 0 -227 -67.5t-92 -197.5q0 -36 11 -68.5t26.5 -57t45 -48.5t54.5 -40t68 -35.5t72 -31t79 -30.5q181 -70 255 -113q177 -103 208 -265q8 -38 8 -81q0 -104 -39.5 -185.5t-109 -132.5t-160.5 -77
t-199 -26zM520 -500v60q46 1 74.5 42t27 76t-9.5 41q-43 0 -71.5 28.5t-28.5 72.5q0 43 28.5 71.5t71.5 28.5t72 -30.5t29 -77.5q1 -77 -19 -146.5t-65.5 -118t-108.5 -47.5z" />
    <glyph glyph-name="scommaaccent" unicode="&#x219;" horiz-adv-x="958" 
d="M489 -20q-126 0 -242.5 49t-166.5 123l78 86q35 -60 130 -102t195 -44q109 -2 181.5 46t72.5 134q0 29 -9 52.5t-29 42t-40 32t-54 26t-59 20.5t-66 20q-5 1 -7.5 2t-6.5 2t-7 2q-41 12 -68 20.5t-64 23.5t-61.5 29.5t-51.5 36.5t-42.5 46.5t-26 58t-10.5 72.5
q0 88 54.5 155t135 99t171.5 32q94 0 184.5 -32.5t146.5 -81.5l-79 -92q-40 43 -102 68t-128 28q-98 3 -173 -38.5t-75 -121.5q0 -36 15 -65t35.5 -47.5t59 -35.5t67.5 -26t79 -22q36 -10 50 -14t48 -14.5t49.5 -17t44.5 -19t43 -24t35.5 -28t32 -34.5t22.5 -40.5t16.5 -49
t4.5 -56.5q0 -131 -109.5 -216t-273.5 -85zM406 -502v60q46 1 74.5 42t27 76t-9.5 41q-43 0 -72 28.5t-29 72.5q0 43 29 71.5t72 28.5t71.5 -30.5t28.5 -77.5q1 -77 -18.5 -146.5t-65 -118t-108.5 -47.5z" />
    <glyph glyph-name="uni021A" unicode="&#x21a;" horiz-adv-x="1052" 
d="M29 1538h997v-125h-430v-1411h-137v1411h-430v125zM528 -82q43 0 72 -30.5t29 -77.5q1 -77 -19 -146.5t-65.5 -118t-108.5 -47.5v60q46 1 74.5 42t27 76t-9.5 41q-43 0 -71.5 28.5t-28.5 72.5q0 43 28.5 71.5t71.5 28.5z" />
    <glyph glyph-name="uni021B" unicode="&#x21b;" horiz-adv-x="657" 
d="M571 141l76 -92q-69 -69 -186 -69q-122 0 -196.5 73.5t-74.5 192.5v672h-141v106h141v348h136v-348h264v-106h-264v-672q0 -71 37 -109.5t102 -38.5q66 0 106 43zM449 -82q43 0 71.5 -30.5t28.5 -77.5q1 -77 -19 -146.5t-65.5 -118t-108.5 -47.5v60q46 1 75 42t27.5 76
t-9.5 41q-43 0 -72 28.5t-29 72.5q0 43 29 71.5t72 28.5z" />
    <glyph glyph-name="uni0228" unicode="&#x228;" horiz-adv-x="1107" 
d="M991 1413h-688v-582h602v-124h-602v-582h688v-125h-377l-65 -143q109 22 185.5 -32.5t76.5 -152.5q0 -86 -59.5 -145t-145.5 -59q-66 0 -133.5 34.5t-99.5 85.5l65 33q26 -34 75 -57t93 -23q55 0 92 37.5t37 93.5q0 77 -63.5 108t-155.5 -1l-63 45l86 176h-375v1536h827
v-123z" />
    <glyph glyph-name="uni0229" unicode="&#x229;" horiz-adv-x="1124" 
d="M1040 520q0 -35 -2 -53h-821q12 -167 107 -268t251 -101q100 0 172 41t132 133l94 -67q-121 -210 -371 -225l-57 -123q109 22 185.5 -32.5t76.5 -152.5q0 -86 -59.5 -145t-145.5 -59q-66 0 -133.5 34.5t-99.5 85.5l65 33q26 -34 75 -57t93 -23q55 0 92 37.5t37 93.5
q0 77 -63.5 108t-155.5 -1l-63 45l77 158q-201 17 -320.5 164.5t-119.5 365.5q0 150 58.5 270.5t170 191t256.5 70.5q213 0 341 -146t128 -378zM573 928q-150 0 -243 -97.5t-111 -257.5h699q-14 160 -105.5 257.5t-239.5 97.5z" />
    <glyph glyph-name="uni0237" unicode="&#x237;" horiz-adv-x="571" 
d="M90 -532q-32 0 -69.5 9.5t-57.5 22.5v121q21 -17 54.5 -28t60.5 -11q68 0 115 49t47 119v1274h135v-1280q0 -115 -83 -195.5t-202 -80.5z" />
    <glyph glyph-name="circumflex" unicode="&#x2c6;" horiz-adv-x="108" 
d="M70 1186l204 350h146l205 -350h-115l-162 280l-164 -280h-114z" />
    <glyph glyph-name="caron" unicode="&#x2c7;" horiz-adv-x="108" 
d="M274 1186l-204 350h110l168 -272l166 272h111l-205 -350h-146z" />
    <glyph glyph-name="breve" unicode="&#x2d8;" horiz-adv-x="108" 
d="M592 1165q-143 0 -236.5 84.5t-93.5 220.5h88q0 -90 69.5 -153.5t172.5 -63.5q105 0 175.5 63.5t70.5 153.5h86q0 -136 -94 -220.5t-238 -84.5z" />
    <glyph glyph-name="dotaccent" unicode="&#x2d9;" horiz-adv-x="108" 
d="M293 1219q-41 0 -70.5 29.5t-29.5 70.5t29.5 70.5t70.5 29.5q40 0 70 -29.5t30 -70.5t-30 -70.5t-70 -29.5z" />
    <glyph glyph-name="ring" unicode="&#x2da;" horiz-adv-x="108" 
d="M180 1149q-83 0 -141.5 58.5t-58.5 138.5q0 82 58.5 140t141.5 58q80 0 137.5 -58t57.5 -140q0 -80 -58 -138.5t-137 -58.5zM180 1219q53 0 90 36.5t37 90.5t-37.5 92.5t-89.5 38.5q-54 0 -91.5 -38.5t-37.5 -92.5t37.5 -90.5t91.5 -36.5z" />
    <glyph glyph-name="ogonek" unicode="&#x2db;" horiz-adv-x="108" 
d="M270 -532q-100 3 -158.5 59t-58.5 149q0 186 277 349l76 -25q-98 -42 -177 -128t-79 -183q0 -64 36.5 -103t104.5 -39q118 0 196 88l48 -67q-106 -103 -265 -100z" />
    <glyph glyph-name="tilde" unicode="&#x2dc;" horiz-adv-x="114" 
d="M553 1278q-117 0 -184 108q-42 68 -107 68q-53 0 -81 -44.5t-19 -113.5h-90q-10 107 43 176.5t143 69.5q116 0 184 -108q42 -68 109 -68q51 0 79 43.5t21 112.5h88q12 -106 -41 -175t-145 -69z" />
    <glyph glyph-name="hungarumlaut" unicode="&#x2dd;" horiz-adv-x="108" 
d="M70 1182l305 354h135l-334 -354h-106zM389 1182l307 354h133l-331 -354h-109z" />
    <glyph glyph-name="gravecomb" unicode="&#x300;" 
d="M-184 1229l-215 307h141l188 -307h-114z" />
    <glyph glyph-name="acutecomb" unicode="&#x301;" 
d="M-399 1229l188 307h141l-215 -307h-114z" />
    <glyph glyph-name="uni0302" unicode="&#x302;" 
d="M-625 1186l205 350h146l204 -350h-114l-162 280l-164 -280h-115z" />
    <glyph glyph-name="tildecomb" unicode="&#x303;" 
d="M-260 1278q-117 0 -184 108q-42 68 -107 68q-53 0 -81 -44.5t-19 -113.5h-90q-10 107 43 176.5t143 69.5q116 0 184 -108q42 -68 109 -68q51 0 79 43.5t21 112.5h88q12 -106 -41 -175t-145 -69z" />
    <glyph glyph-name="uni0304" unicode="&#x304;" 
d="M-702 1243v94h634v-94h-634z" />
    <glyph glyph-name="uni0306" unicode="&#x306;" 
d="M-692 1165q-143 0 -236.5 84.5t-93.5 220.5h88q0 -90 69.5 -153.5t172.5 -63.5q105 0 175.5 63.5t70.5 153.5h86q0 -136 -94 -220.5t-238 -84.5z" />
    <glyph glyph-name="uni0307" unicode="&#x307;" 
d="M-291 1219q-41 0 -70.5 29.5t-29.5 70.5t29.5 70.5t70.5 29.5q40 0 70.5 -29.5t30.5 -70.5t-30.5 -70.5t-70.5 -29.5z" />
    <glyph glyph-name="uni0308" unicode="&#x308;" 
d="M-592 1219q-41 0 -70.5 29.5t-29.5 70.5t29.5 70.5t70.5 29.5q40 0 70 -29.5t30 -70.5t-30 -70.5t-70 -29.5zM-233 1219q-41 0 -71 29.5t-30 70.5t30 70.5t71 29.5q40 0 69 -29.5t29 -70.5t-29 -70.5t-69 -29.5z" />
    <glyph glyph-name="uni030A" unicode="&#x30a;" 
d="M-176 1149q-83 0 -142 58.5t-59 138.5q0 82 59 140t142 58q80 0 137 -58t57 -140q0 -80 -57.5 -138.5t-136.5 -58.5zM-176 1219q53 0 90 36.5t37 90.5t-37.5 92.5t-89.5 38.5q-54 0 -91.5 -38.5t-37.5 -92.5t37.5 -90.5t91.5 -36.5z" />
    <glyph glyph-name="uni030B" unicode="&#x30b;" 
d="M-829 1182l305 354h135l-334 -354h-106zM-510 1182l307 354h133l-331 -354h-109z" />
    <glyph glyph-name="uni030C" unicode="&#x30c;" 
d="M-420 1186l-205 350h111l168 -272l166 272h110l-204 -350h-146z" />
    <glyph glyph-name="uni0312" unicode="&#x312;" 
d="M-172 1137q-43 0 -71.5 31t-28.5 75q-3 110 58.5 207.5t133.5 105.5v-59q-40 -13 -68.5 -54.5t-30.5 -70.5t7 -35q42 0 71 -29t29 -71q0 -41 -29.5 -70.5t-70.5 -29.5z" />
    <glyph glyph-name="dotbelowcomb" unicode="&#x323;" 
d="M-168 -512q-41 0 -70.5 29.5t-29.5 70.5q0 40 29.5 70.5t70.5 30.5q40 0 70 -30.5t30 -70.5q0 -41 -30 -70.5t-70 -29.5z" />
    <glyph glyph-name="uni0326" unicode="&#x326;" 
d="M-262 -240v60q46 1 74.5 42.5t27 76.5t-9.5 41q-43 0 -71.5 28.5t-28.5 71.5t28.5 71.5t71.5 28.5t71.5 -30t28.5 -76q1 -79 -18.5 -148.5t-65 -118t-108.5 -47.5z" />
    <glyph glyph-name="uni0327" unicode="&#x327;" 
d="M-272 -532q-66 0 -134 34.5t-100 85.5l66 33q26 -34 75 -57t93 -23q55 0 92 37.5t37 93.5q0 77 -63.5 108t-155.5 -1l-64 45l86 176h76l-66 -143q109 22 185.5 -32.5t76.5 -152.5q0 -86 -59 -145t-145 -59z" />
    <glyph glyph-name="uni0328" unicode="&#x328;" 
d="M-332 -532q-100 3 -158.5 59t-58.5 149q0 186 277 349l75 -25q-98 -42 -177 -128t-79 -183q0 -64 37 -103t105 -39q118 0 196 88l47 -67q-106 -103 -264 -100z" />
    <glyph glyph-name="uni0335" unicode="&#x335;" 
d="M-934 489v101h578v-101h-578z" />
    <glyph glyph-name="uni0336" unicode="&#x336;" 
d="M-1518 500v67h1448v-67h-1448z" />
    <glyph glyph-name="uni0337" unicode="&#x337;" 
d="M-834 266l474 510h114l-481 -510h-107z" />
    <glyph glyph-name="uni0338" unicode="&#x338;" 
d="M-1219 -14l1063 1566h105l-1061 -1566h-107z" />
    <glyph glyph-name="uni0394" unicode="&#x394;" horiz-adv-x="1613" 
d="M78 0v94l653 1460h160l645 -1458v-96h-1458zM209 109h1188l-400 892q-9 23 -85.5 200t-94.5 231h-24q-8 -27 -37 -96t-68.5 -159.5t-56.5 -132.5z" />
    <glyph glyph-name="Lambda" unicode="&#x39b;" horiz-adv-x="1480" 
d="M1434 0h-152l-543 1378l-540 -1378h-152l617 1536h153z" />
    <glyph glyph-name="Xi" unicode="&#x39e;" horiz-adv-x="1208" 
d="M147 1413v123h867v-123h-867zM246 707v124h672v-124h-672zM147 0v125h867v-125h-867z" />
    <glyph glyph-name="uni03A9" unicode="&#x3a9;" horiz-adv-x="1832" 
d="M129 0v102h367v17q-143 106 -237.5 283.5t-94.5 394.5q0 207 98 377t271.5 267t388.5 97q164 0 305.5 -61t236.5 -163t149 -235t54 -276q0 -219 -99 -404t-235 -280v-17h371v-102h-582v74q80 40 151.5 106t131 154.5t94.5 205t35 244.5q-1 93 -26 185t-76.5 176.5
t-122.5 149t-170.5 103t-214.5 38.5q-139 0 -257 -53t-198 -142.5t-125 -209t-45 -251.5q0 -123 35 -239t94 -205t131 -156t150 -106v-74h-580z" />
    <glyph glyph-name="uni03BC" unicode="&#x3bc;" horiz-adv-x="1243" 
d="M905 1024h135v-1024h-135v164q-56 -86 -144 -135t-190 -49q-176 0 -295 129v-621h-104v1536h133v-627q0 -123 87 -210t210 -87q126 0 214.5 87t88.5 210v627z" />
    <glyph glyph-name="pi" unicode="&#x3c0;" horiz-adv-x="1396" 
d="M158 0q68 165 122.5 460.5t65.5 547.5q-207 0 -305 -31l-16 78q104 53 333 53h990l-13 -100h-217v-678q0 -226 37 -330h-129q-35 63 -35 309v699l-516 2q-12 -236 -68 -553t-122 -457h-127z" />
    <glyph glyph-name="uni1E04" unicode="&#x1e04;" horiz-adv-x="1316" 
d="M889 788q144 -29 236 -133t92 -252q0 -173 -120 -288t-294 -115h-639v1536h514q175 0 296.5 -115t121.5 -288q0 -116 -55.5 -205t-151.5 -140zM956 1120q0 121 -85 207t-205 86h-365v-586h365q121 0 205.5 85.5t84.5 207.5zM786 125q121 0 206 86t85 207t-85 207t-206 86
h-485v-586h485zM627 -154q40 0 70 -30t30 -70q0 -41 -30 -70.5t-70 -29.5q-41 0 -71 29.5t-30 70.5q0 40 30 70t71 30z" />
    <glyph glyph-name="uni1E05" unicode="&#x1e05;" horiz-adv-x="1224" 
d="M666 1044q211 0 342 -152.5t131 -379.5q0 -148 -57.5 -268.5t-166.5 -192t-249 -71.5q-119 0 -215.5 54t-159.5 150l-4 -184h-123v1536h133v-690q62 93 157 145.5t212 52.5zM647 100q162 0 261.5 118.5t99.5 293.5q0 176 -99.5 294t-261.5 118q-133 0 -228 -88.5
t-122 -227.5v-192q27 -139 122 -227.5t228 -88.5zM705 -154q40 0 70 -30t30 -70q0 -41 -30 -70.5t-70 -29.5q-41 0 -71 29.5t-30 70.5q0 40 30 70t71 30z" />
    <glyph glyph-name="uni1E24" unicode="&#x1e24;" horiz-adv-x="1482" 
d="M1182 1536h137v-1536h-137v707h-879v-707h-139v1536h139v-705h879v705zM750 -154q40 0 70 -30t30 -70q0 -41 -30 -70.5t-70 -29.5q-41 0 -71 29.5t-30 70.5q0 40 30 70t71 30z" />
    <glyph glyph-name="uni1E25" unicode="&#x1e25;" horiz-adv-x="1191" 
d="M635 1044q169 0 283 -113.5t114 -283.5v-647h-135v635q0 122 -85.5 205.5t-209.5 83.5q-126 0 -214.5 -86t-88.5 -209v-629h-135v1536h135v-662q56 79 144 124.5t192 45.5zM586 -154q40 0 70 -30t30 -70q0 -41 -30 -70.5t-70 -29.5q-41 0 -71 29.5t-30 70.5q0 40 30 70
t71 30z" />
    <glyph glyph-name="uni1E36" unicode="&#x1e36;" horiz-adv-x="929" 
d="M164 0v1536h139v-1411h580v-125h-719zM524 -354q-41 0 -70.5 29.5t-29.5 70.5q0 40 29.5 70t70.5 30q40 0 70.5 -30t30.5 -70q0 -41 -30.5 -70.5t-70.5 -29.5z" />
    <glyph glyph-name="uni1E37" unicode="&#x1e37;" horiz-adv-x="626" 
d="M440 -20q-122 0 -196 73.5t-74 192.5v1290h133l2 -1290q0 -71 36 -109.5t101 -38.5q69 0 109 43l76 -92q-69 -69 -187 -69zM406 -354q-41 0 -71 29.5t-30 70.5q0 40 30 70t71 30q40 0 70 -30t30 -70q0 -41 -30 -70.5t-70 -29.5z" />
    <glyph glyph-name="uni1E44" unicode="&#x1e44;" horiz-adv-x="1566" 
d="M778 1731q-41 0 -70.5 29.5t-29.5 70.5t29.5 70.5t70.5 29.5q40 0 70.5 -29.5t30.5 -70.5t-30.5 -70.5t-70.5 -29.5zM1266 1536h137v-1536h-125l-975 1303v-1303h-139v1536h125l977 -1303v1303z" />
    <glyph glyph-name="uni1E45" unicode="&#x1e45;" horiz-adv-x="1191" 
d="M600 1219q-41 0 -70.5 29.5t-29.5 70.5t29.5 70.5t70.5 29.5q40 0 70 -29.5t30 -70.5t-30 -70.5t-70 -29.5zM635 1044q169 0 283 -113.5t114 -283.5v-647h-135v635q0 122 -85.5 205.5t-209.5 83.5q-126 0 -214.5 -86t-88.5 -209v-629h-135v1024h125l6 -154
q57 81 146 127.5t194 46.5z" />
    <glyph glyph-name="uni1E46" unicode="&#x1e46;" horiz-adv-x="1566" 
d="M1266 1536h137v-1536h-125l-975 1303v-1303h-139v1536h125l977 -1303v1303zM793 -154q40 0 70 -30t30 -70q0 -41 -30 -70.5t-70 -29.5q-41 0 -71 29.5t-30 70.5q0 40 30 70t71 30z" />
    <glyph glyph-name="uni1E47" unicode="&#x1e47;" horiz-adv-x="1191" 
d="M635 1044q169 0 283 -113.5t114 -283.5v-647h-135v635q0 122 -85.5 205.5t-209.5 83.5q-126 0 -214.5 -86t-88.5 -209v-629h-135v1024h125l6 -154q57 81 146 127.5t194 46.5zM600 -154q40 0 70 -30t30 -70q0 -41 -30 -70.5t-70 -29.5q-41 0 -70.5 29.5t-29.5 70.5
q0 40 29.5 70t70.5 30z" />
    <glyph glyph-name="uni1E62" unicode="&#x1e62;" horiz-adv-x="1273" 
d="M659 -20q-186 0 -337 82t-224 212l99 103q47 -115 173.5 -189.5t291.5 -74.5q160 0 262 70t102 212q0 44 -12 82.5t-29.5 67.5t-51 57t-61 46t-76 40t-79 33.5t-86.5 32.5q-175 66 -245 107q-160 94 -183 243q-4 27 -4 57q0 97 37.5 174t102 124.5t146 72t174.5 24.5
q156 0 281 -55t201 -145l-94 -96q-56 79 -155.5 127.5t-232.5 48.5q-135 0 -227 -67.5t-92 -197.5q0 -36 11 -68.5t26.5 -57t45 -48.5t54.5 -40t68 -35.5t72 -31t79 -30.5q181 -70 255 -113q177 -103 208 -265q8 -38 8 -81q0 -104 -39.5 -185.5t-109 -132.5t-160.5 -77
t-199 -26zM612 -352q-41 0 -70.5 29.5t-29.5 70.5q0 40 29.5 70t70.5 30q40 0 70.5 -30t30.5 -70q0 -41 -30.5 -70.5t-70.5 -29.5z" />
    <glyph glyph-name="uni1E63" unicode="&#x1e63;" horiz-adv-x="958" 
d="M489 -20q-126 0 -242.5 49t-166.5 123l78 86q35 -60 130 -102t195 -44q109 -2 181.5 46t72.5 134q0 29 -9 52.5t-29 42t-40 32t-54 26t-59 20.5t-66 20q-5 1 -7.5 2t-6.5 2t-7 2q-41 12 -68 20.5t-64 23.5t-61.5 29.5t-51.5 36.5t-42.5 46.5t-26 58t-10.5 72.5
q0 88 54.5 155t135 99t171.5 32q94 0 184.5 -32.5t146.5 -81.5l-79 -92q-40 43 -102 68t-128 28q-98 3 -173 -38.5t-75 -121.5q0 -36 15 -65t35.5 -47.5t59 -35.5t67.5 -26t79 -22q36 -10 50 -14t48 -14.5t49.5 -17t44.5 -19t43 -24t35.5 -28t32 -34.5t22.5 -40.5t16.5 -49
t4.5 -56.5q0 -131 -109.5 -216t-273.5 -85zM496 -354q-41 0 -71 29.5t-30 70.5q0 40 30 70t71 30q40 0 70 -30t30 -70q0 -41 -30 -70.5t-70 -29.5z" />
    <glyph glyph-name="uni1E6C" unicode="&#x1e6c;" horiz-adv-x="1052" 
d="M29 1538h997v-125h-430v-1411h-137v1411h-430v125zM526 -154q40 0 70.5 -30t30.5 -70q0 -41 -30.5 -70.5t-70.5 -29.5q-41 0 -70.5 29.5t-29.5 70.5q0 40 29.5 70t70.5 30z" />
    <glyph glyph-name="uni1E6D" unicode="&#x1e6d;" horiz-adv-x="657" 
d="M571 141l76 -92q-69 -69 -186 -69q-122 0 -196.5 73.5t-74.5 192.5v672h-141v106h141v348h136v-348h264v-106h-264v-672q0 -71 37 -109.5t102 -38.5q66 0 106 43zM449 -154q40 0 70 -30t30 -70q0 -41 -30 -70.5t-70 -29.5q-41 0 -71 29.5t-30 70.5q0 40 30 70t71 30z" />
    <glyph glyph-name="Wgrave" unicode="&#x1e80;" horiz-adv-x="2142" 
d="M1122 1741h-114l-215 307h141zM2013 1536h150l-650 -1536h-149l-293 692l-291 -692h-149l-651 1536h149l580 -1370l292 692l-286 678h143l578 -1372z" />
    <glyph glyph-name="wgrave" unicode="&#x1e81;" horiz-adv-x="1435" 
d="M678 1229h-115l-215 307h141zM1264 1024h147l-350 -1024h-150l-196 559l-189 -559h-147l-352 1024h149l285 -862l192 575l-100 287h133l293 -866z" />
    <glyph glyph-name="Wacute" unicode="&#x1e82;" horiz-adv-x="2142" 
d="M1350 2048l-215 -307h-115l188 307h142zM2013 1536h150l-650 -1536h-149l-293 692l-291 -692h-149l-651 1536h149l580 -1370l292 692l-286 678h143l578 -1372z" />
    <glyph glyph-name="wacute" unicode="&#x1e83;" horiz-adv-x="1435" 
d="M903 1536l-215 -307h-115l189 307h141zM1264 1024h147l-350 -1024h-150l-196 559l-189 -559h-147l-352 1024h149l285 -862l192 575l-100 287h133l293 -866z" />
    <glyph glyph-name="Wdieresis" unicode="&#x1e84;" horiz-adv-x="2142" 
d="M893 1731q-41 0 -70.5 29.5t-29.5 70.5t29.5 70.5t70.5 29.5q40 0 70 -29.5t30 -70.5t-30 -70.5t-70 -29.5zM1251 1731q-41 0 -70.5 29.5t-29.5 70.5t29.5 70.5t70.5 29.5q40 0 69.5 -29.5t29.5 -70.5t-29.5 -70.5t-69.5 -29.5zM2013 1536h150l-650 -1536h-149l-293 692
l-291 -692h-149l-651 1536h149l580 -1370l292 692l-286 678h143l578 -1372z" />
    <glyph glyph-name="wdieresis" unicode="&#x1e85;" horiz-adv-x="1435" 
d="M449 1219q-41 0 -71 29.5t-30 70.5t30 70.5t71 29.5q40 0 70 -29.5t30 -70.5t-30 -70.5t-70 -29.5zM807 1219q-41 0 -70.5 29.5t-29.5 70.5t29.5 70.5t70.5 29.5q40 0 69 -29.5t29 -70.5t-29 -70.5t-69 -29.5zM1264 1024h147l-350 -1024h-150l-196 559l-189 -559h-147
l-352 1024h149l285 -862l192 575l-100 287h133l293 -866z" />
    <glyph glyph-name="uni1E92" unicode="&#x1e92;" horiz-adv-x="1353" 
d="M289 125h966v-125h-1159v70l932 1343h-909v123h1102v-70zM670 -154q40 0 70 -30t30 -70q0 -41 -30 -70.5t-70 -29.5q-41 0 -71 29.5t-30 70.5q0 40 30 70t71 30z" />
    <glyph glyph-name="uni1E93" unicode="&#x1e93;" horiz-adv-x="1054" 
d="M86 0v90l678 819h-662v115h846v-84l-678 -825h699v-115h-883zM528 -354q-41 0 -70.5 29.5t-29.5 70.5q0 40 29.5 70t70.5 30q40 0 70.5 -30t30.5 -70q0 -41 -30.5 -70.5t-70.5 -29.5z" />
    <glyph glyph-name="uni1EA0" unicode="&#x1ea0;" horiz-adv-x="1480" 
d="M1434 0h-152l-129 334h-825l-129 -334h-152l617 1536h153zM375 453h731l-367 938zM741 -154q40 0 70.5 -30t30.5 -70q0 -41 -30.5 -70.5t-70.5 -29.5q-41 0 -70.5 29.5t-29.5 70.5q0 40 29.5 70t70.5 30z" />
    <glyph glyph-name="uni1EA1" unicode="&#x1ea1;" horiz-adv-x="1097" 
d="M530 1044q117 0 207 -39.5t145.5 -125.5t55.5 -209v-670h-121l-6 168q-92 -89 -197.5 -138.5t-210.5 -49.5q-136 0 -223.5 88t-87.5 225q0 72 27 130t88 103t158 55t237 -14l205 -39v148q0 126 -78.5 189t-206.5 63q-102 0 -181.5 -41t-121.5 -117l-94 82q56 90 159 141
t246 51zM432 100q187 0 375 191v133l-203 43q-195 39 -285 -13.5t-90 -154.5q0 -88 55.5 -143.5t147.5 -55.5zM516 -154q40 0 70 -30t30 -70q0 -41 -30 -70.5t-70 -29.5q-41 0 -70.5 29.5t-29.5 70.5q0 40 29.5 70t70.5 30z" />
    <glyph glyph-name="uni1EB8" unicode="&#x1eb8;" horiz-adv-x="1107" 
d="M991 1413h-688v-582h602v-124h-602v-582h688v-125h-827v1536h827v-123zM578 -154q40 0 70 -30t30 -70q0 -41 -30 -70.5t-70 -29.5q-41 0 -71 29.5t-30 70.5q0 40 30 70t71 30z" />
    <glyph glyph-name="uni1EB9" unicode="&#x1eb9;" horiz-adv-x="1124" 
d="M1040 520q0 -35 -2 -53h-821q12 -167 107 -268t251 -101q100 0 172 41t132 133l94 -67q-63 -108 -165 -166.5t-237 -58.5q-145 0 -256.5 70.5t-170 190.5t-58.5 271q0 150 58.5 270.5t170 191t256.5 70.5q213 0 341 -146t128 -378zM573 928q-150 0 -243 -97.5
t-111 -257.5h699q-14 160 -105.5 257.5t-239.5 97.5zM573 -154q40 0 70.5 -30t30.5 -70q0 -41 -30.5 -70.5t-70.5 -29.5q-41 0 -70.5 29.5t-29.5 70.5q0 40 29.5 70t70.5 30z" />
    <glyph glyph-name="uni1EBC" unicode="&#x1ebc;" horiz-adv-x="1107" 
d="M334 1747h-90q-10 107 43 176.5t143 69.5q115 0 184 -109q41 -67 109 -67q51 0 79 43t21 112h88q12 -106 -41 -174.5t-145 -68.5q-117 0 -184 108q-42 68 -107 68q-53 0 -81 -44.5t-19 -113.5zM991 1413h-688v-582h602v-124h-602v-582h688v-125h-827v1536h827v-123z" />
    <glyph glyph-name="uni1EBD" unicode="&#x1ebd;" horiz-adv-x="1124" 
d="M328 1245h-90q-10 107 43 176.5t143 69.5q115 0 184 -109q41 -67 109 -67q51 0 79 43t21 112h88q12 -106 -41 -174.5t-145 -68.5q-117 0 -184 108q-42 68 -107 68q-53 0 -81 -44.5t-19 -113.5zM1040 520q0 -35 -2 -53h-821q12 -167 107 -268t251 -101q100 0 172 41
t132 133l94 -67q-63 -108 -165 -166.5t-237 -58.5q-145 0 -256.5 70.5t-170 190.5t-58.5 271q0 150 58.5 270.5t170 191t256.5 70.5q213 0 341 -146t128 -378zM573 928q-150 0 -243 -97.5t-111 -257.5h699q-14 160 -105.5 257.5t-239.5 97.5z" />
    <glyph glyph-name="uni1ECA" unicode="&#x1eca;" horiz-adv-x="466" 
d="M164 0v1536h139v-1536h-139zM233 -354q-41 0 -70.5 29.5t-29.5 70.5q0 40 29.5 70t70.5 30q40 0 70.5 -30t30.5 -70q0 -41 -30.5 -70.5t-70.5 -29.5z" />
    <glyph glyph-name="uni1ECB" unicode="&#x1ecb;" horiz-adv-x="536" 
d="M268 1219q-40 0 -70 29.5t-30 70.5t30 70.5t70 29.5q41 0 71 -29.5t30 -70.5t-30 -70.5t-71 -29.5zM201 0v1024h135v-1024h-135zM279 -379q-41 0 -71 29.5t-30 70.5q0 40 30 70.5t71 30.5q40 0 70 -30.5t30 -70.5q0 -41 -30 -70.5t-70 -29.5z" />
    <glyph glyph-name="uni1ECC" unicode="&#x1ecc;" horiz-adv-x="1716" 
d="M858 -20q-213 0 -385.5 106t-268 286t-95.5 396t95.5 396t268 286t385.5 106q160 0 300 -62t238.5 -168t155 -251t56.5 -307t-56.5 -307t-155 -251t-238.5 -168t-300 -62zM858 113q134 0 250 51t196 139t125.5 208.5t45.5 256.5q0 183 -77.5 332.5t-219 237t-320.5 87.5
t-321 -87.5t-219.5 -237.5t-77.5 -332t77.5 -331t219.5 -236.5t321 -87.5zM860 -354q-41 0 -70.5 29.5t-29.5 70.5q0 40 29.5 70t70.5 30q40 0 70.5 -30t30.5 -70q0 -41 -30.5 -70.5t-70.5 -29.5z" />
    <glyph glyph-name="uni1ECD" unicode="&#x1ecd;" horiz-adv-x="1157" 
d="M578 -20q-143 0 -256.5 71.5t-174.5 192.5t-61 268t61 268t174.5 192.5t256.5 71.5q144 0 257.5 -71.5t174.5 -192.5t61 -268t-61 -268t-174.5 -192.5t-257.5 -71.5zM578 100q162 0 261 118.5t99 293.5q0 176 -99 294t-261 118q-161 0 -261 -118t-100 -294
q0 -174 100 -293t261 -119zM580 -354q-41 0 -71 29.5t-30 70.5q0 40 30 70t71 30q40 0 70 -30t30 -70q0 -41 -30 -70.5t-70 -29.5z" />
    <glyph glyph-name="uni1EE4" unicode="&#x1ee4;" horiz-adv-x="1474" 
d="M737 -20q-155 0 -285.5 70t-206 191t-75.5 265v1030h139v-1010q0 -175 125 -298.5t303 -123.5q180 0 305 123.5t125 298.5v1010h138v-1030q0 -144 -76 -265t-206.5 -191t-285.5 -70zM739 -354q-41 0 -70.5 29.5t-29.5 70.5q0 40 29.5 70t70.5 30q40 0 70.5 -30t30.5 -70
q0 -41 -30.5 -70.5t-70.5 -29.5z" />
    <glyph glyph-name="Ygrave" unicode="&#x1ef2;" horiz-adv-x="1302" 
d="M705 1741h-115l-215 307h141zM1255 1536l-534 -807v-729h-137v725l-537 811h156l448 -688l451 688h153z" />
    <glyph glyph-name="ygrave" unicode="&#x1ef3;" horiz-adv-x="1200" 
d="M651 1229h-114l-215 307h141zM1034 1024l2 -1075q0 -102 -28 -187t-82.5 -150t-143.5 -101.5t-204 -36.5q-212 0 -361 112v152q151 -144 369 -144q162 0 238.5 95t76.5 260v201q-58 -78 -145.5 -124t-186.5 -46q-168 0 -285.5 117.5t-117.5 285.5v641h135v-627
q0 -123 86.5 -210t210.5 -87q125 0 214 87t89 210v627h133z" />
    <glyph glyph-name="uni1EF4" unicode="&#x1ef4;" horiz-adv-x="1302" 
d="M584 0v725l-537 811h156l448 -688l451 688h153l-534 -807v-729h-137zM653 -154q40 0 70.5 -30t30.5 -70q0 -41 -30.5 -70.5t-70.5 -29.5q-41 0 -70.5 29.5t-29.5 70.5q0 40 29.5 70t70.5 30z" />
    <glyph glyph-name="uni1EF8" unicode="&#x1ef8;" horiz-adv-x="1302" 
d="M410 1747h-91q-10 106 43.5 176t143.5 70q115 0 184 -109q41 -67 109 -67q51 0 79 43t21 112h88q12 -106 -41 -174.5t-145 -68.5q-118 0 -185 108q-42 68 -106 68q-53 0 -81 -44.5t-19 -113.5zM1255 1536l-534 -807v-729h-137v725l-537 811h156l448 -688l451 688h153z
" />
    <glyph glyph-name="endash" unicode="&#x2013;" horiz-adv-x="1406" 
d="M193 483v99h1024v-99h-1024z" />
    <glyph glyph-name="emdash" unicode="&#x2014;" horiz-adv-x="2086" 
d="M20 483v99h2048v-99h-2048z" />
    <glyph glyph-name="quoteleft" unicode="&#x2018;" horiz-adv-x="485" 
d="M190 973q-98 0 -118.5 141t42.5 283t169 145v-72q-51 -3 -92 -92q-38 -84 -33 -156q3 -51 32 -51q42 0 71.5 -29t29.5 -71q0 -41 -29.5 -69.5t-71.5 -28.5z" />
    <glyph glyph-name="quoteright" unicode="&#x2019;" horiz-adv-x="368" 
d="M88 973v71q49 3 86 82.5t37 151.5q0 65 -33 65q-41 0 -69.5 29t-28.5 72q0 41 28.5 69.5t71.5 28.5q59 0 90 -57.5t31 -145.5q0 -84 -24.5 -166t-75 -140.5t-113.5 -59.5z" />
    <glyph glyph-name="quotesinglbase" unicode="&#x201a;" horiz-adv-x="489" 
d="M96 -391v72q57 0 97 74t40 147q0 78 -47 78q-41 0 -69.5 29.5t-28.5 70.5q0 43 28.5 71.5t71.5 28.5q66 0 100 -60.5t34 -152.5q0 -84 -26 -164.5t-79.5 -137t-120.5 -56.5z" />
    <glyph glyph-name="quotedblleft" unicode="&#x201c;" horiz-adv-x="819" 
d="M498 1556v-71q-49 -3 -86 -83.5t-37 -152.5q0 -63 33 -63q41 0 69.5 -29.5t28.5 -71.5q0 -43 -28.5 -71.5t-71.5 -28.5q-59 0 -90 58t-31 145q0 85 24.5 167t75 140.5t113.5 60.5zM774 1556v-71q-49 -3 -86 -83.5t-37 -152.5q0 -63 33 -63q41 0 69.5 -29.5t28.5 -71.5
q0 -43 -28.5 -71.5t-71.5 -28.5q-59 0 -90 58t-31 145q0 85 24.5 167t75 140.5t113.5 60.5z" />
    <glyph glyph-name="quotedblright" unicode="&#x201d;" horiz-adv-x="788" 
d="M92 973v71q49 3 86 82.5t37 151.5q0 65 -33 65q-41 0 -69.5 29t-28.5 72q0 41 28.5 69.5t71.5 28.5q59 0 90 -57.5t31 -145.5q0 -84 -24.5 -166t-75 -140.5t-113.5 -59.5zM369 973v71q49 3 86 82.5t37 151.5q0 65 -33 65q-41 0 -70 29t-29 72q0 41 29 69.5t72 28.5
q59 0 90 -57.5t31 -145.5q0 -84 -24.5 -166t-75 -140.5t-113.5 -59.5z" />
    <glyph glyph-name="quotedblbase" unicode="&#x201e;" horiz-adv-x="794" 
d="M96 -391v72q57 0 97 74t40 147q0 78 -47 78q-41 0 -69.5 29.5t-28.5 70.5q0 43 28.5 71.5t71.5 28.5q66 0 100 -60.5t34 -152.5q0 -84 -26 -164.5t-79.5 -137t-120.5 -56.5zM412 -391v72q57 0 97 74t40 147q0 78 -47 78q-41 0 -70 29.5t-29 70.5q0 43 29 71.5t72 28.5
q66 0 99.5 -60.5t33.5 -152.5q0 -84 -26 -164.5t-79 -137t-120 -56.5z" />
    <glyph glyph-name="dagger" unicode="&#x2020;" horiz-adv-x="1361" 
d="M1087 956v-94h-364v-1210h-94v1210h-355v94h355v416h94v-416h364z" />
    <glyph glyph-name="daggerdbl" unicode="&#x2021;" horiz-adv-x="1361" 
d="M1087 862h-364v-692h364v-94h-364v-424h-94v424h-355v94h355v692h-355v94h355v416h94v-416h364v-94z" />
    <glyph glyph-name="bullet" unicode="&#x2022;" horiz-adv-x="927" 
d="M465 432q-95 0 -163.5 67t-68.5 163q0 94 69 162.5t163 68.5q92 0 160.5 -68.5t68.5 -162.5q0 -96 -68 -163t-161 -67z" />
    <glyph glyph-name="ellipsis" unicode="&#x2026;" horiz-adv-x="1415" 
d="M172 -20q-40 0 -70 29.5t-30 70.5t30 70.5t70 29.5q41 0 70.5 -29.5t29.5 -70.5t-29.5 -70.5t-70.5 -29.5zM596 -20q-41 0 -70.5 29.5t-29.5 70.5t29.5 70.5t70.5 29.5q40 0 70 -29.5t30 -70.5t-30 -70.5t-70 -29.5zM1004 -20q-41 0 -71 29.5t-30 70.5t30 70.5t71 29.5
q40 0 70 -29.5t30 -70.5t-30 -70.5t-70 -29.5z" />
    <glyph glyph-name="perthousand" unicode="&#x2030;" horiz-adv-x="2101" 
d="M391 938q-110 0 -188 90.5t-78 218.5t78 218.5t188 90.5t188 -90.5t78 -218.5t-78 -218.5t-188 -90.5zM141 0l1057 1536h141l-1056 -1536h-142zM391 1044q65 0 112.5 59.5t47.5 143.5t-47.5 143.5t-112.5 59.5t-111.5 -59.5t-46.5 -143.5t46.5 -143.5t111.5 -59.5z
M1092 -20q-110 0 -188.5 91t-78.5 220q0 128 78.5 218.5t188.5 90.5t188 -90.5t78 -218.5q0 -129 -78 -220t-188 -91zM1726 -20q-110 0 -188 91t-78 220q0 128 78 218.5t188 90.5t188.5 -90.5t78.5 -218.5q0 -129 -78.5 -220t-188.5 -91zM1092 88q65 0 111 58.5t46 144.5
q0 84 -46 142.5t-111 58.5q-66 0 -113 -58.5t-47 -142.5q0 -86 47 -144.5t113 -58.5zM1726 88q65 0 111.5 59t46.5 144q0 84 -46.5 142.5t-111.5 58.5q-66 0 -112.5 -58.5t-46.5 -142.5q0 -86 46.5 -144.5t112.5 -58.5z" />
    <glyph glyph-name="guilsinglleft" unicode="&#x2039;" horiz-adv-x="694" 
d="M424 195l-311 376l311 377h119l-312 -377l312 -376h-119z" />
    <glyph glyph-name="guilsinglright" unicode="&#x203a;" horiz-adv-x="694" 
d="M152 195l311 376l-311 377h118l312 -377l-312 -376h-118z" />
    <glyph glyph-name="fraction" unicode="&#x2044;" horiz-adv-x="1183" 
d="M-31 0l1073 1536h142l-1071 -1536h-144z" />
    <glyph glyph-name="Euro" unicode="&#x20ac;" horiz-adv-x="1318" 
d="M715 88q106 0 193.5 65t113.5 166l104 -43q-41 -129 -157.5 -212.5t-253.5 -83.5q-195 0 -318 126.5t-123 327.5v117h-184l47 94h137v238h-184l47 94h137v127q0 200 123 326t318 126q137 0 253.5 -83t157.5 -211l-104 -45q-26 101 -113.5 167t-193.5 66
q-151 0 -242.5 -95.5t-91.5 -250.5v-127h424l-47 -94h-377v-238h424l-47 -94h-377v-117q0 -157 91.5 -251.5t242.5 -94.5z" />
    <glyph glyph-name="uni2113" unicode="&#x2113;" horiz-adv-x="1241" 
d="M664 -10q-98 0 -175.5 34t-124.5 92t-73 128t-31 149v25q-24 -17 -74.5 -56t-72.5 -55l-47 88q20 16 63 48t73 56t56 48v612q0 117 22 210t58 150.5t85 95.5t98.5 53t103.5 15q76 0 135 -29t94.5 -79.5t53.5 -113t18 -134.5q0 -137 -68.5 -279t-180 -269.5t-280.5 -274.5
l2 -55q1 -87 26 -155t67 -108.5t92.5 -61t105.5 -20.5q115 0 209.5 72.5t147.5 169.5l73 -63q-167 -293 -456 -293zM397 643q76 74 133 135t113 133t92 135.5t58 133.5t22 137q0 260 -194 260q-39 0 -76 -20.5t-71.5 -64t-55.5 -124.5t-21 -188v-537z" />
    <glyph glyph-name="trademark" unicode="&#x2122;" horiz-adv-x="1460" 
d="M41 1466v70h479v-70h-201v-651h-77v651h-201zM1235 1536h82v-721h-76v598l-280 -416l-279 414v-596h-78v721h84l273 -408z" />
    <glyph glyph-name="estimated" unicode="&#x212e;" horiz-adv-x="1880" 
d="M938 -18q-178 0 -340 62t-279 167.5t-186.5 250.5t-69.5 304q0 161 69.5 307.5t186.5 252t279 168t340 62.5q239 0 440.5 -105.5t319 -287.5t117.5 -397v-21h-1418q-12 0 -12 -8v-430q0 -24 18 -49q106 -109 245 -171t292 -62q167 0 313.5 69.5t251.5 192.5h125
q-119 -141 -301.5 -223t-390.5 -82zM397 788h1088q8 0 8 15v430q0 34 -20 51q-106 105 -243.5 165t-289.5 60q-151 0 -288.5 -61.5t-245.5 -169.5q-21 -24 -21 -53v-422q0 -15 12 -15z" />
    <glyph glyph-name="arrowleft" unicode="&#x2190;" horiz-adv-x="1720" 
d="M1546 846v-248h-1100l62 -260l-498 385l498 385l-62 -262h1100z" />
    <glyph glyph-name="arrowup" unicode="&#x2191;" horiz-adv-x="1054" 
d="M375 0v1100l-262 -62l385 498l385 -498l-260 62v-1100h-248z" />
    <glyph glyph-name="arrowright" unicode="&#x2192;" horiz-adv-x="1720" 
d="M174 846h1100l-62 262l498 -385l-498 -385l62 260h-1100v248z" />
    <glyph glyph-name="arrowdown" unicode="&#x2193;" horiz-adv-x="995" 
d="M375 1536h248v-1100l260 62l-385 -498l-385 498l262 -62v1100z" />
    <glyph glyph-name="arrowboth" unicode="&#x2194;" horiz-adv-x="1753" 
d="M360 295l-493 387l498 385l-64 -260l1149 -2l-61 260l497 -385l-495 -385l61 262l-1151 2z" />
    <glyph glyph-name="arrowupdn" unicode="&#x2195;" horiz-adv-x="995" 
d="M498 -145l-385 495l262 -61v798l-262 -61l385 496l385 -498l-260 61v-794l260 61z" />
    <glyph glyph-name="uni2196" unicode="&#x2196;" horiz-adv-x="1095" 
d="M1229 311l-174 -174l-779 776l-141 -227l-80 625l625 -80l-229 -141z" />
    <glyph glyph-name="uni2197" unicode="&#x2197;" horiz-adv-x="1095" 
d="M-133 311l778 779l-229 141l624 80l-79 -625l-142 227l-778 -776z" />
    <glyph glyph-name="uni2198" unicode="&#x2198;" horiz-adv-x="1097" 
d="M-131 1225l174 174l778 -776l142 227l79 -625l-624 80l229 141z" />
    <glyph glyph-name="uni2199" unicode="&#x2199;" horiz-adv-x="1097" 
d="M1229 1225l-778 -779l229 -141l-625 -80l80 625l141 -227l779 776z" />
    <glyph glyph-name="partialdiff" unicode="&#x2202;" horiz-adv-x="1073" 
d="M358 1442q126 14 239 -39t193.5 -156t127 -253t45.5 -322q-1 -182 -63.5 -332t-171 -236t-239.5 -86q-114 0 -199 46t-127 126.5t-46 189.5t45 234q44 116 116 198.5t158.5 122t184.5 37.5t194 -48q-50 214 -174.5 330t-282.5 87v101zM842 672q0 76 -8 133
q-83 56 -167 68t-157 -17t-135 -99t-101 -175q-45 -133 -34.5 -237t77 -168t172.5 -64q95 0 176 74.5t128.5 203t48.5 281.5z" />
    <glyph glyph-name="emptyset" unicode="&#x2205;" horiz-adv-x="1689" 
d="M1300 1006q158 -176 158 -410q0 -166 -82 -307t-223 -223t-307 -82q-234 0 -410 155l-88 -86l-47 47l88 86q-156 174 -156 410q0 166 82 307t223.5 223t307.5 82q231 0 407 -155l88 88l48 -47zM344 596q0 -188 123 -330l709 707q-141 125 -330 125q-209 0 -355.5 -146.5
t-146.5 -355.5zM846 96q209 0 354.5 145.5t145.5 354.5q0 188 -123 330l-709 -707q139 -123 332 -123z" />
    <glyph glyph-name="product" unicode="&#x220f;" horiz-adv-x="1509" 
d="M1401 1440v-101h-592v-1585h-100h-7v1585h-591v101h1290z" />
    <glyph glyph-name="summation" unicode="&#x2211;" horiz-adv-x="1546" 
d="M193 -244v72l770 770l-770 770v72h1161v-107h-975l729 -735l-729 -735h975v-107h-1161z" />
    <glyph glyph-name="minus" unicode="&#x2212;" horiz-adv-x="1488" 
d="M131 541v96h1229v-96h-1229z" />
    <glyph glyph-name="radical" unicode="&#x221a;" horiz-adv-x="1484" 
d="M522 -160l-239 735h-131v95h198l217 -660l742 1546l86 -36l-805 -1680h-68z" />
    <glyph glyph-name="infinity" unicode="&#x221e;" horiz-adv-x="1554" 
d="M403 309q-112 0 -189.5 82t-82.5 205q5 123 82.5 205t189.5 82q87 0 184 -56t191 -159q92 104 189.5 159.5t185.5 55.5q115 0 191 -80.5t81 -206.5q-5 -126 -81 -206.5t-191 -80.5q-88 0 -185.5 56t-189.5 159q-94 -103 -191 -159t-184 -56zM403 403q67 0 148.5 50.5
t163.5 142.5q-81 93 -162.5 142.5t-149.5 49.5q-72 0 -123.5 -55t-54.5 -137q3 -80 54.5 -136.5t123.5 -56.5zM1153 403q72 0 123.5 55.5t54.5 137.5q-3 83 -54 137.5t-124 54.5q-70 0 -151 -49.5t-162 -142.5q82 -93 163 -143t150 -50z" />
    <glyph glyph-name="integral" unicode="&#x222b;" horiz-adv-x="927" 
d="M350 -387q-71 0 -116.5 49.5t-38.5 130.5h77q0 -50 21 -75t57 -25q30 0 52 22t22 58v1585q0 72 46 116t112 44q69 0 114.5 -50.5t36.5 -130.5h-78q0 101 -75 101q-31 0 -53.5 -21.5t-22.5 -58.5v-1585q0 -72 -45 -116t-109 -44z" />
    <glyph glyph-name="approxequal" unicode="&#x2248;" horiz-adv-x="1175" 
d="M811 657q-44 0 -82.5 12.5t-72 39t-53 46t-50.5 54.5q-47 56 -88 84.5t-94 28.5q-86 0 -140 -68.5t-51 -169.5h-82q-4 140 74.5 228.5t200.5 88.5q77 0 132.5 -37.5t117.5 -113.5q45 -56 85 -84.5t97 -28.5q86 0 140 66.5t50 169.5h82q6 -135 -70.5 -225.5t-195.5 -90.5z
M811 268q-44 0 -82.5 12.5t-72 39t-53 46t-50.5 54.5q-47 55 -87.5 83.5t-94.5 28.5q-86 0 -140 -67.5t-51 -169.5h-82q-4 141 74.5 230t200.5 89q76 0 131.5 -37.5t118.5 -113.5q44 -57 84.5 -86t97.5 -29q86 0 140 66.5t50 171.5h82q6 -136 -70.5 -227t-195.5 -91z" />
    <glyph glyph-name="notequal" unicode="&#x2260;" horiz-adv-x="1488" 
d="M1360 688h-424l-248 -289h672v-94h-752l-254 -299h-96l256 299h-383v94h463l248 289h-711v94h791l213 248h96l-215 -248h344v-94z" />
    <glyph glyph-name="lessequal" unicode="&#x2264;" horiz-adv-x="1636" 
d="M1384 1386v-118l-1017 -486l1017 -487v-119l-1130 545v125zM254 0v88h1130v-88h-1130z" />
    <glyph glyph-name="greaterequal" unicode="&#x2265;" horiz-adv-x="1636" 
d="M254 1386l1130 -540v-125l-1130 -545v119l1016 487l-1016 486v118zM254 0v88h1130v-88h-1130z" />
    <glyph glyph-name="lozenge" unicode="&#x25ca;" horiz-adv-x="1619" 
d="M811 106l-618 617l618 618l616 -616zM811 262l461 463l-461 463l-463 -465z" />
    <glyph glyph-name="uniF8FF" unicode="&#xf8ff;" horiz-adv-x="1986" 
d="M993 0q-158 0 -302 62t-248 166t-166 248t-62 302t62 302.5t166 248.5t248 165.5t302 61.5q127 0 246 -39t214.5 -111t167.5 -168t111.5 -214.5t39.5 -245.5q0 -211 -104.5 -390t-284 -283.5t-390.5 -104.5zM993 74q143 0 273.5 56t225 150.5t150.5 224.5t56 273
q0 191 -94.5 353.5t-257 257t-353.5 94.5q-143 0 -273 -56t-224.5 -150.5t-150.5 -225t-56 -273.5t56 -273t150.5 -224.5t224.5 -150.5t273 -56zM1401 444q-15 0 -25 13l-297 295q-11 12 -11 27t11 26l297 297q10 10 25 10t26 -10t11 -26t-11 -27l-270 -271l270 -270
q11 -10 11 -24.5t-11 -26.5q-10 -13 -26 -13zM586 444q-15 0 -26 11t-11 26v594q0 15 11 26t26 11t26 -11t11 -26v-594q0 -15 -11 -26t-26 -11zM993 444q-15 0 -26 11t-11 26v594q0 15 11 26t26 11t26 -11t11 -26v-594q0 -15 -11 -26t-26 -11zM696 741q-15 0 -26 11t-11 26
t11 26t26 11h187q15 0 26 -11t11 -26t-11 -26t-26 -11h-187z" />
    <glyph glyph-name="i.loclTRK" horiz-adv-x="462" 
d="M231 1219q-41 0 -70.5 29.5t-29.5 70.5t29.5 70.5t70.5 29.5q40 0 70.5 -29.5t30.5 -70.5t-30.5 -70.5t-70.5 -29.5zM164 0v1024h135v-1024h-135z" />
    <glyph glyph-name="arrow" horiz-adv-x="995" 
d="M375 0v1100l-262 -62l385 498l385 -498l-260 62v-1100h-248z" />
    </font>
</defs>
</svg>
