<?xml version="1.0" standalone="no"?>
<!DOCTYPE svg PUBLIC "-//W3C//DTD SVG 1.1//EN" "http://www.w3.org/Graphics/SVG/1.1/DTD/svg11.dtd" >
<svg xmlns="http://www.w3.org/2000/svg" xmlns:xlink="http://www.w3.org/1999/xlink" version="1.1">
<metadata>
Created by FontForge 20170731 at Thu Oct 15 22:27:36 2020
 By Aleksey,,,
(c)2013-2015 Orkney is a trademark of Samuel Oakes and Alfredo Marco Pradil. All rights reserved.
</metadata>
<defs>
<font id="Orkney-Regular" horiz-adv-x="0" >
  <font-face 
    font-family="Orkney"
    font-weight="400"
    font-stretch="normal"
    units-per-em="2048"
    panose-1="0 0 5 0 0 0 0 0 0 0"
    ascent="1536"
    descent="-512"
    x-height="1024"
    cap-height="1536"
    bbox="-1534 -686 2390 2075"
    underline-thickness="75"
    underline-position="-279"
    unicode-range="U+0020-FB02"
  />
<missing-glyph horiz-adv-x="1218" 
d="M184 0v1536h850v-1536h-850zM326 141h567v1254h-567v-1254z" />
    <glyph glyph-name="fi" unicode="fi" horiz-adv-x="1222" 
d="M725 1405q-131 0 -210 -73.5t-79 -201.5v-106h625v-1024h-182v883h-443v-883h-182v883h-172v141h172v115q0 190 125 303.5t328 113.5q180 0 356 -88v-165q-185 102 -338 102z" />
    <glyph glyph-name="fl" unicode="fl" horiz-adv-x="1409" 
d="M1329 182l101 -123q-76 -79 -216 -79q-143 0 -228 84.5t-85 222.5v1089q-92 29 -180 29q-127 0 -206 -74t-79 -201v-106h269v-141h-269v-883h-182v883h-172v141h172v115q0 190 124.5 303.5t321.5 113.5q112 0 201 -24v4h180v-82h2v-172h-2l2 -995q0 -74 35.5 -113
t100.5 -39q66 0 110 47z" />
    <glyph glyph-name=".notdef" horiz-adv-x="1218" 
d="M184 0v1536h850v-1536h-850zM326 141h567v1254h-567v-1254z" />
    <glyph glyph-name=".null" 
 />
    <glyph glyph-name="nonmarkingreturn" horiz-adv-x="682" 
 />
    <glyph glyph-name="space" unicode=" " horiz-adv-x="532" 
 />
    <glyph glyph-name="exclam" unicode="!" horiz-adv-x="610" 
d="M233 449l-20 1087h182l-20 -1087h-142zM305 -20q-50 0 -85.5 35.5t-35.5 84.5t35.5 84t85.5 35q49 0 84 -34.5t35 -84.5t-35 -85t-84 -35z" />
    <glyph glyph-name="quotedbl" unicode="&#x22;" horiz-adv-x="892" 
d="M205 954l-21 582h172l-20 -582h-131zM555 954l-18 582h170l-19 -582h-133z" />
    <glyph glyph-name="numbersign" unicode="#" horiz-adv-x="1589" 
d="M367 0l49 356h-289l18 136h289l70 469h-289l21 133h284l53 358h132l-50 -358h383l49 358h134l-50 -358h291l-22 -133h-287l-66 -469h287l-18 -136h-287l-53 -356h-133l51 356h-385l-49 -356h-133zM569 492h383l68 469h-385z" />
    <glyph glyph-name="dollar" unicode="$" horiz-adv-x="1337" 
d="M1171 418q0 -92 -35.5 -169t-95.5 -128t-133.5 -83t-156.5 -44v-170h-160v170q-149 18 -267 100t-173 197l135 78q45 -99 148.5 -163.5t236.5 -64.5q144 0 242 73t98 196q0 76 -44 132.5t-114 92t-155 66t-169.5 66.5t-154.5 81.5t-114 122t-44 178.5q0 87 31 158.5
t84.5 119t119 76.5t140.5 39v176h160v-178q97 -17 181.5 -64.5t143.5 -113.5l-108 -92q-50 60 -128 97.5t-167 37.5q-78 0 -144 -27.5t-108.5 -85t-42.5 -135.5q0 -59 27 -106.5t73 -80t105.5 -60t125.5 -51.5t132 -50t125.5 -61t105.5 -78.5t73 -107.5t27 -144z" />
    <glyph glyph-name="percent" unicode="%" horiz-adv-x="1540" 
d="M399 903q-119 0 -201.5 96t-82.5 230q0 137 82 232t202 95q117 0 200 -95.5t83 -231.5q0 -134 -83 -230t-200 -96zM150 0l1050 1536h189l-1049 -1536h-190zM399 1044q58 0 101 54.5t43 130.5q0 78 -43 132t-101 54q-59 0 -101 -53.5t-42 -132.5q0 -76 42 -130.5
t101 -54.5zM1143 -20q-118 0 -201.5 96t-83.5 231q0 134 83.5 230t201.5 96t200 -96t82 -230q0 -136 -82 -231.5t-200 -95.5zM1141 121q59 0 100 54t41 132q0 77 -41.5 131t-99.5 54q-57 0 -99.5 -54.5t-42.5 -130.5q0 -77 42 -131.5t100 -54.5z" />
    <glyph glyph-name="ampersand" unicode="&#x26;" horiz-adv-x="1505" 
d="M1423 106l-116 -116l-213 211l-88 -88q-89 -88 -210.5 -119.5t-242 0t-209.5 119.5q-136 137 -135.5 330.5t135.5 328.5l90 88l-55 55q-53 53 -82 123.5t-29 143.5q0 154 110 262t265 108q156 0 266.5 -107.5t110.5 -262.5h-164q0 87 -62 149t-149 62q-89 0 -152 -63
t-63 -152q0 -83 64 -150l602 -596l211 209l114 -115l-211 -209zM891 229l88 86l-432 430l-88 -88q-91 -91 -91 -215t91 -213q91 -90 216 -90t216 90z" />
    <glyph glyph-name="quotesingle" unicode="'" horiz-adv-x="540" 
d="M205 954l-21 582h172l-20 -582h-131z" />
    <glyph glyph-name="parenleft" unicode="(" horiz-adv-x="827" 
d="M694 -657q-116 8 -216 89.5t-174.5 226.5t-117.5 364t-43 485q0 267 43 487t117.5 366.5t174.5 229t216 90.5v-131q-82 -9 -152.5 -84.5t-123.5 -206t-83 -324.5t-30 -427q0 -231 30 -423.5t83 -322t123.5 -204.5t152.5 -84v-131z" />
    <glyph glyph-name="parenright" unicode=")" horiz-adv-x="827" 
d="M133 -657v131q82 9 153.5 84t124 205t83 322t30.5 423q0 233 -30.5 427t-83 324.5t-124 206t-153.5 84.5v131q93 -6 176 -59t151.5 -153t118.5 -238.5t77.5 -323.5t27.5 -399t-27.5 -398t-77.5 -321t-118.5 -236t-151.5 -151.5t-176 -58.5z" />
    <glyph glyph-name="asterisk" unicode="*" horiz-adv-x="702" 
d="M270 1044l-86 52l109 153l-191 -16v102l191 -18l-109 156l86 51l80 -170l82 170l88 -51l-110 -156l188 18v-102l-188 16l110 -153l-88 -52l-82 170z" />
    <glyph glyph-name="plus" unicode="+" horiz-adv-x="1640" 
d="M750 0v563h-566v144h566v563h141v-563h563v-144h-563v-563h-141z" />
    <glyph glyph-name="comma" unicode="," horiz-adv-x="432" 
d="M96 -381v90q61 0 102.5 69.5t41.5 137.5q0 66 -39 66q-50 0 -84.5 34.5t-34.5 83.5q0 50 35 84.5t86 34.5q73 0 111 -63t38 -160q0 -65 -17.5 -131t-49 -121t-81.5 -90t-108 -35z" />
    <glyph glyph-name="hyphen" unicode="-" horiz-adv-x="1087" 
d="M184 469v127h717v-127h-717z" />
    <glyph glyph-name="period" unicode="." horiz-adv-x="372" 
d="M186 -20q-49 0 -83.5 35t-34.5 85q0 48 34.5 83.5t83.5 35.5t85 -35.5t36 -83.5q0 -49 -35.5 -84.5t-85.5 -35.5z" />
    <glyph glyph-name="slash" unicode="/" horiz-adv-x="1210" 
d="M-37 -512l1084 2048h172l-1080 -2048h-176z" />
    <glyph glyph-name="zero" unicode="0" horiz-adv-x="1396" 
d="M698 -20q-117 0 -220 60t-176.5 164.5t-116 250.5t-42.5 313q0 223 72 403.5t199.5 282.5t283.5 102t283 -102t198.5 -282.5t71.5 -403.5q0 -222 -71.5 -402.5t-198.5 -283t-283 -102.5zM700 141q103 0 188 82t134 226t49 319t-49 319.5t-134 227t-188 82.5
q-104 0 -190 -82.5t-135 -227t-49 -319.5t49 -319t135 -226t190 -82z" />
    <glyph glyph-name="one" unicode="1" horiz-adv-x="817" 
d="M387 0v1317l-309 -246v219l323 246h168v-1536h-182z" />
    <glyph glyph-name="two" unicode="2" horiz-adv-x="1212" 
d="M88 0v125q473 485 555 574q173 185 217 274q31 63 31 137q0 135 -81.5 209.5t-205.5 77.5q-127 2 -210 -78.5t-83 -214.5l-176 2q-2 133 62 237t173 160t242 56q190 -2 318.5 -117.5t134.5 -306.5q5 -165 -98.5 -304.5t-507.5 -547.5q-77 -78 -119 -121h774v-162h-1026z
" />
    <glyph glyph-name="three" unicode="3" horiz-adv-x="1226" 
d="M809 864q124 -57 198 -165.5t74 -243.5q0 -198 -139 -336.5t-340 -138.5q-131 0 -241 59.5t-174 162t-64 224.5l180 2q0 -116 87.5 -197t211.5 -81q127 0 214 89.5t87 217.5q0 129 -87 217t-214 88h-121l-2 147h113h2q101 0 171.5 71.5t70.5 174.5q0 98 -70.5 166
t-171.5 68q-97 0 -165.5 -65t-68.5 -157l-174 4q0 161 118 273t290 112q169 0 287 -112t118 -273q0 -98 -51 -179.5t-139 -127.5z" />
    <glyph glyph-name="four" unicode="4" horiz-adv-x="1239" 
d="M1116 485v-161h-160v-324h-180v324h-739v116l696 1096h223v-1051h160zM246 485h530v861z" />
    <glyph glyph-name="five" unicode="5" horiz-adv-x="1265" 
d="M616 -20q-137 0 -259.5 57.5t-202.5 157.5l116 122q59 -80 148.5 -125t189.5 -45q151 0 252 101t101 252q0 153 -102 255.5t-253 102.5q-79 0 -154 -31.5t-130 -89.5l-154 72l86 723h795v-160h-652l-61 -461q125 109 315 109q212 0 351 -146t139 -368q0 -228 -148.5 -377
t-376.5 -149z" />
    <glyph glyph-name="six" unicode="6" horiz-adv-x="1329" 
d="M1206 528q7 -218 -145 -376.5t-373 -169.5q-148 -5 -275.5 60t-204.5 182.5t-83 260.5q-9 199 133 367l535 684h213l-418 -516q41 8 102 8q137 -2 253.5 -69.5t186.5 -181.5t76 -249zM684 139q155 9 254 120.5t90 264.5q-9 154 -119.5 254.5t-263.5 93.5
q-101 -5 -181 -59t-122.5 -141t-36.5 -187q8 -153 117 -254t262 -92z" />
    <glyph glyph-name="seven" unicode="7" horiz-adv-x="1138" 
d="M109 0l786 1376h-817v160h1024v-121l-791 -1415h-202z" />
    <glyph glyph-name="eight" unicode="8" horiz-adv-x="1173" 
d="M817 854q121 -58 192.5 -166.5t71.5 -241.5q0 -197 -142.5 -331.5t-352.5 -134.5q-209 0 -351.5 134.5t-142.5 331.5q0 133 71 241.5t191 166.5q-81 52 -127.5 135t-46.5 182q0 162 117.5 273.5t290.5 111.5q171 0 288 -111.5t117 -273.5q0 -100 -46.5 -182.5
t-129.5 -134.5zM588 1409q-106 0 -179 -72t-73 -178t73 -179t179 -73q104 0 177 73t73 179q0 105 -72.5 177.5t-177.5 72.5zM586 141q132 0 222.5 93t90.5 225t-90.5 221.5t-222.5 89.5q-131 0 -221.5 -89.5t-90.5 -221.5t91 -225t221 -93z" />
    <glyph glyph-name="nine" unicode="9" horiz-adv-x="1329" 
d="M1206 1051q9 -197 -131 -367l-536 -684h-213l426 524q-35 -16 -111 -16q-136 3 -252.5 70.5t-187 182t-76.5 249.5q-4 108 35 206.5t109.5 170.5t168.5 117t207 50q147 5 274 -60t204 -182.5t83 -260.5zM684 666q154 6 252.5 118.5t89.5 266.5q-8 152 -117.5 253.5
t-263.5 92.5q-101 -5 -182 -58.5t-124 -140t-38 -186.5q9 -154 119.5 -254.5t263.5 -91.5z" />
    <glyph glyph-name="colon" unicode=":" horiz-adv-x="610" 
d="M305 805q-49 0 -85 35.5t-36 85.5q0 47 36 82.5t85 35.5t84 -35t35 -83q0 -50 -35 -85.5t-84 -35.5zM305 -20q-50 0 -85.5 35.5t-35.5 84.5q0 48 36 83.5t85 35.5t84 -35.5t35 -83.5q0 -50 -35 -85t-84 -35z" />
    <glyph glyph-name="semicolon" unicode=";" horiz-adv-x="624" 
d="M307 805q-49 0 -84 35.5t-35 85.5q0 48 35 83t84 35t85 -35.5t36 -82.5q0 -50 -36 -85.5t-85 -35.5zM203 -381v90q57 2 99 90q36 78 30 142q-3 41 -27 41q-49 0 -83 34t-34 84t34 84.5t85 34.5q111 0 135 -148.5t-47 -298.5t-192 -153z" />
    <glyph glyph-name="less" unicode="&#x3c;" horiz-adv-x="1501" 
d="M1315 1358v-156l-985 -495l985 -498v-156l-1131 572v166z" />
    <glyph glyph-name="equal" unicode="=" horiz-adv-x="1476" 
d="M123 678v121h1229v-121h-1229zM123 287v121h1229v-121h-1229z" />
    <glyph glyph-name="greater" unicode="&#x3e;" horiz-adv-x="1501" 
d="M184 1358l1131 -567v-166l-1131 -572v156l985 498l-985 495v156z" />
    <glyph glyph-name="question" unicode="?" horiz-adv-x="1146" 
d="M489 432v127q0 78 20.5 134t53 87.5t72 55t79.5 45t72.5 49t53 75t20.5 115.5q0 117 -81.5 191.5t-207.5 74.5q-123 0 -202.5 -77.5t-81.5 -196.5h-164q0 186 127.5 310t320.5 124q195 0 323 -121.5t128 -304.5q0 -81 -20 -143.5t-52.5 -99.5t-71.5 -65.5t-78.5 -50
t-72 -44.5t-52.5 -58t-20 -81v-146h-166zM580 -20q-48 0 -83.5 35t-35.5 85q0 47 36 83t83 36q49 0 84.5 -35.5t35.5 -83.5q0 -51 -35 -85.5t-85 -34.5z" />
    <glyph glyph-name="at" unicode="@" horiz-adv-x="1241" 
d="M1057 305h-113v70q-37 -41 -92.5 -66.5t-108.5 -25.5q-109 0 -184.5 74.5t-75.5 183.5q0 107 75.5 181.5t184.5 74.5q55 0 111 -28t90 -71v52q0 109 -84 184.5t-205 75.5q-175 0 -296 -129.5t-121 -315.5q0 -125 62.5 -228.5t170.5 -162.5t236 -59h350v-115h-350
q-161 0 -295.5 74.5t-211.5 204.5t-77 286q0 153 70.5 281.5t193 203t268.5 74.5q169 0 285.5 -108t116.5 -266v-445zM784 381q56 0 99.5 30.5t60.5 80.5v98q-18 48 -61 78t-99 30q-72 0 -121 -45t-49 -112q0 -69 49 -114.5t121 -45.5z" />
    <glyph glyph-name="A" unicode="A" horiz-adv-x="1521" 
d="M1278 0l-125 322h-786l-125 -322h-203l616 1536h209l617 -1536h-203zM426 479h668l-334 864z" />
    <glyph glyph-name="B" unicode="B" horiz-adv-x="1320" 
d="M909 791q141 -35 227.5 -135.5t86.5 -247.5q0 -180 -122 -294t-302 -114h-645v1536h524q181 0 304.5 -115t123.5 -295q0 -114 -52.5 -200t-144.5 -135zM920 1110q0 107 -77 183.5t-186 76.5h-317v-524h317q109 0 186 77.5t77 186.5zM774 166q109 0 185.5 77.5t76.5 186.5
q0 106 -77 183t-185 77h-434v-524h434z" />
    <glyph glyph-name="C" unicode="C" horiz-adv-x="1368" 
d="M854 -20q-213 0 -386 106t-268.5 286t-95.5 396t95.5 396t268.5 286t386 106q232 0 418 -143v-225q-175 190 -418 190q-167 0 -299 -81t-203 -220t-71 -309t71 -309t203 -220t299 -81q246 0 418 190v-225q-186 -143 -418 -143z" />
    <glyph glyph-name="D" unicode="D" horiz-adv-x="1456" 
d="M154 0v1536h430q209 0 385.5 -103t279.5 -279.5t103 -385.5t-103 -385.5t-279.5 -279.5t-385.5 -103h-430zM340 166h244q159 0 293 80t211 218.5t77 303.5t-77 303.5t-211 218.5t-293 80h-244v-1204z" />
    <glyph glyph-name="E" unicode="E" horiz-adv-x="1110" 
d="M1004 1370h-664v-518h578v-168h-578v-518h664v-166h-850v1536h850v-166z" />
    <glyph glyph-name="F" unicode="F" horiz-adv-x="1081" 
d="M1004 1370h-664v-518h578v-168h-578v-684h-186v1536h850v-166z" />
    <glyph glyph-name="G" unicode="G" horiz-adv-x="1515" 
d="M926 1378q-125 0 -235.5 -44t-193 -122.5t-130.5 -195t-48 -254.5q0 -184 82.5 -326t220 -216.5t304.5 -74.5q139 0 270 64v444h-356v168h522v-723q-208 -131 -438 -131q-127 0 -245 36.5t-214.5 107t-168.5 166t-111.5 220.5t-39.5 265q0 175 61.5 324.5t166.5 252
t247 160t300 57.5q234 0 442 -131v-233q-79 87 -195 136.5t-241 49.5z" />
    <glyph glyph-name="H" unicode="H" horiz-adv-x="1497" 
d="M1157 1536h186v-1536h-186v684h-817v-684h-186v1536h186v-684h817v684z" />
    <glyph glyph-name="I" unicode="I" horiz-adv-x="493" 
d="M154 0v1536h186v-1536h-186z" />
    <glyph glyph-name="J" unicode="J" horiz-adv-x="776" 
d="M254 -20q-94 0 -152 20v190q74 -24 152 -24q70 0 121 51t51 121v1198h186v-1198q0 -149 -105 -253.5t-253 -104.5z" />
    <glyph glyph-name="K" unicode="K" horiz-adv-x="1277" 
d="M1219 184v-245l-879 849v-788h-186v1536h186v-645l631 645h241l-680 -690z" />
    <glyph glyph-name="L" unicode="L" horiz-adv-x="972" 
d="M154 0v1536h186v-1370h563v-166h-749z" />
    <glyph glyph-name="M" unicode="M" horiz-adv-x="1855" 
d="M1505 1536h197v-1536h-184v1266l-592 -889l-586 887v-1264h-186v1536h198l576 -856z" />
    <glyph glyph-name="N" unicode="N" horiz-adv-x="1593" 
d="M1255 1536h185v-1536h-178l-922 1235v-1235h-186v1536h178l923 -1237v1237z" />
    <glyph glyph-name="O" unicode="O" horiz-adv-x="1708" 
d="M854 -20q-213 0 -386 106t-268.5 286t-95.5 396t95.5 396t268.5 286t386 106q160 0 300 -62t238.5 -168t155 -251t56.5 -307t-56.5 -307t-155 -251t-238.5 -168t-300 -62zM854 158q167 0 298.5 81t202 220t70.5 309t-70.5 309t-202 220t-298.5 81t-298.5 -81t-203 -220
t-71.5 -309t71.5 -309t203 -220t298.5 -81z" />
    <glyph glyph-name="P" unicode="P" horiz-adv-x="1204" 
d="M717 1536q180 0 306 -126.5t126 -305.5q0 -180 -126 -304t-306 -124h-377v-676h-186v1536h563zM707 831q113 0 191.5 76t78.5 195q0 115 -79.5 191.5t-190.5 76.5h-367v-539h367z" />
    <glyph glyph-name="Q" unicode="Q" horiz-adv-x="1693" 
d="M1591 176h64v-176h-72q-100 0 -194 94l-56 60q-203 -174 -479 -174q-213 0 -386 106t-268.5 286t-95.5 396t95.5 396t268.5 286t386 106q160 0 300 -62t238.5 -168t155 -251t56.5 -307q0 -277 -156 -489l65 -70q33 -33 78 -33zM854 158q208 0 356 123l-247 260l118 118
l242 -251q102 155 102 360q0 170 -70.5 309t-202 220t-298.5 81t-298.5 -81t-203 -220t-71.5 -309t71.5 -309t203 -220t298.5 -81z" />
    <glyph glyph-name="R" unicode="R" horiz-adv-x="1212" 
d="M801 696l387 -696h-209l-367 686h-272v-686h-186v1536h563q179 0 305.5 -126.5t126.5 -307.5q0 -153 -99 -267t-249 -139zM340 840h373q110 0 187 78t77 188t-77.5 187t-186.5 77h-373v-530z" />
    <glyph glyph-name="S" unicode="S" horiz-adv-x="1288" 
d="M666 -20q-186 0 -342.5 81.5t-237.5 214.5l135 138q46 -116 169.5 -186t281.5 -70q94 0 165.5 24t116 80t45.5 139q0 42 -11.5 78.5t-27.5 63.5t-48.5 54t-58 44t-73 38.5t-76 33t-83.5 32.5q-43 16 -65 24.5t-62 25t-62 28t-56.5 30.5t-54 35.5t-44.5 39t-39.5 46.5
t-28 52.5t-19.5 61t-6 69.5q0 126 65 218t171 136.5t237 44.5q172 0 306.5 -58t214.5 -155l-125 -126q-55 82 -154.5 130t-236.5 48q-125 0 -207 -57t-82 -167q0 -37 11.5 -68.5t37.5 -58t52 -46.5t71.5 -41.5t77.5 -35t88 -34.5q184 -73 263 -121q187 -115 210 -296
q4 -28 4 -58q0 -108 -40 -191.5t-111.5 -135.5t-165 -78.5t-205.5 -26.5z" />
    <glyph glyph-name="T" unicode="T" horiz-adv-x="1126" 
d="M1077 1536v-164h-420v-1372h-186v1372h-420v164h1026z" />
    <glyph glyph-name="U" unicode="U" horiz-adv-x="1495" 
d="M748 -20q-161 0 -295 69.5t-211.5 190t-77.5 264.5v1032h186v-1001q0 -163 116 -276.5t282 -113.5t281.5 113.5t115.5 276.5v1001h188v-1032q0 -144 -77.5 -264.5t-212 -190t-295.5 -69.5z" />
    <glyph glyph-name="V" unicode="V" horiz-adv-x="1470" 
d="M1245 1536h211l-616 -1536h-211l-617 1536h211l512 -1321z" />
    <glyph glyph-name="W" unicode="W" horiz-adv-x="2217" 
d="M2038 1536h200l-647 -1536h-202l-279 659l-279 -659h-200l-651 1536h202l555 -1315l279 660l-277 655h193l551 -1315z" />
    <glyph glyph-name="X" unicode="X" horiz-adv-x="1331" 
d="M1290 0h-215l-411 627l-410 -627h-215l522 780l-508 756h215l396 -602l397 602h215l-510 -756z" />
    <glyph glyph-name="Y" unicode="Y" horiz-adv-x="1337" 
d="M1298 1536l-534 -807v-729h-189v725l-536 811h211l420 -649l420 649h208z" />
    <glyph glyph-name="Z" unicode="Z" horiz-adv-x="1349" 
d="M348 166h907v-166h-1163v98l883 1272h-860v166h1116v-98z" />
    <glyph glyph-name="bracketleft" unicode="[" horiz-adv-x="563" 
d="M162 -686v2396h422v-139h-265v-2118h265v-139h-422z" />
    <glyph glyph-name="backslash" unicode="\" horiz-adv-x="1210" 
d="M1047 -512l-1084 2048h176l1080 -2048h-172z" />
    <glyph glyph-name="bracketright" unicode="]" horiz-adv-x="563" 
d="M162 -686v139h264v2118h-264v139h422v-2396h-422z" />
    <glyph glyph-name="asciicircum" unicode="^" horiz-adv-x="1429" 
d="M1366 406h-156l-495 985l-498 -985h-156l570 1130h166z" />
    <glyph glyph-name="underscore" unicode="_" horiz-adv-x="1394" 
d="M184 -125v125h1024v-125h-1024z" />
    <glyph glyph-name="grave" unicode="`" horiz-adv-x="102" 
d="M287 1219l-226 317h187l184 -317h-145z" />
    <glyph glyph-name="a" unicode="a" horiz-adv-x="1099" 
d="M530 1044q90 0 166 -24t134 -71t91 -122.5t33 -171.5v-655h-159l-11 145q-187 -165 -378 -165q-137 0 -225.5 88.5t-88.5 224.5q0 71 27.5 129.5t87.5 103.5t154.5 58t228.5 -6l186 -31v121q0 111 -71 167t-183 56q-181 0 -274 -141l-125 110q127 184 407 184zM276 301
q0 -72 47 -116t123 -44q160 0 330 156v117l-168 28q-178 32 -255 -11t-77 -130z" />
    <glyph glyph-name="b" unicode="b" horiz-adv-x="1218" 
d="M666 1044q106 0 195 -41.5t149 -113t93.5 -169t33.5 -208.5t-33.5 -208.5t-93.5 -169t-149 -113t-195 -41.5q-105 0 -193 44t-149 123l-9 -147h-161v1536h178v-649q131 157 334 157zM637 141q147 0 235.5 106t88.5 265q0 160 -88.5 266.5t-235.5 106.5q-109 0 -192 -73
t-113 -189v-222q30 -116 113 -188t192 -72z" />
    <glyph glyph-name="c" unicode="c" horiz-adv-x="911" 
d="M565 -20q-147 0 -258 69.5t-168 189.5t-57 273t57 273t168 189.5t258 69.5q158 0 264 -81v-183q-45 51 -110 81t-135 30q-149 0 -236.5 -107t-87.5 -272t87.5 -272t236.5 -107q72 0 136.5 30t108.5 81v-181q-106 -83 -264 -83z" />
    <glyph glyph-name="d" unicode="d" horiz-adv-x="1218" 
d="M889 1536h176v-1536h-162l-8 147q-132 -167 -342 -167q-106 0 -195 41.5t-149 113t-93.5 169t-33.5 208.5t33.5 208.5t93.5 169t149 113t195 41.5q102 0 188.5 -42t147.5 -117v651zM582 141q109 0 193 72.5t114 187.5v222q-30 116 -114 189t-193 73q-147 0 -234.5 -106.5
t-87.5 -266.5t87.5 -265.5t234.5 -105.5z" />
    <glyph glyph-name="e" unicode="e" horiz-adv-x="1116" 
d="M1034 512q0 -39 -2 -59h-774q14 -145 96 -230.5t221 -85.5q94 0 158 38t125 132l127 -88q-132 -239 -416 -239q-223 0 -355 148.5t-132 381.5t132.5 383.5t354.5 150.5q216 0 340.5 -147t124.5 -385zM573 889q-130 0 -210 -79.5t-101 -215.5h608q-14 137 -91 216t-206 79
z" />
    <glyph glyph-name="f" unicode="f" horiz-adv-x="753" 
d="M436 1243v-219h269v-141h-269v-883h-182v883h-172v141h172v229q0 127 92 215t223 88q147 0 234 -106l-103 -111q-49 66 -129 66q-59 0 -97 -46t-38 -116z" />
    <glyph glyph-name="g" unicode="g" horiz-adv-x="1220" 
d="M903 1024h164v-1012q0 -228 -132 -376t-351 -148q-176 0 -316 96v197q140 -133 328 -133q131 0 212 99t81 265v129q-132 -161 -336 -161q-106 0 -195 41.5t-149 113t-93.5 169t-33.5 208.5q0 150 56.5 270t165 191t249.5 71q103 0 191 -45t151 -125zM582 141
q106 0 191 73.5t116 188.5v218q-31 116 -116 190t-191 74q-147 0 -234.5 -106.5t-87.5 -266.5q0 -159 87.5 -265t234.5 -106z" />
    <glyph glyph-name="h" unicode="h" horiz-adv-x="1204" 
d="M659 1044q172 0 286 -112t114 -285v-647h-182v627q0 110 -76.5 184t-190.5 74q-115 0 -195.5 -78t-80.5 -189v-618h-180v1536h180v-641q60 70 143.5 109.5t181.5 39.5z" />
    <glyph glyph-name="i" unicode="i" horiz-adv-x="559" 
d="M281 1214q-50 0 -85.5 34t-35.5 83q0 51 35.5 86t85.5 35q48 0 83 -35.5t35 -85.5q0 -49 -35 -83t-83 -34zM188 0v1024h181v-1024h-181z" />
    <glyph glyph-name="j" unicode="j" horiz-adv-x="542" 
d="M305 1214q-50 0 -85.5 34t-35.5 83q0 51 35.5 86t85.5 35t84.5 -35t34.5 -86q0 -49 -34.5 -83t-84.5 -34zM82 -532q-35 0 -74 9.5t-59 22.5v158q21 -17 53 -28t59 -11q65 0 109.5 46.5t44.5 115.5v1243h180v-1253q0 -128 -90.5 -215.5t-222.5 -87.5z" />
    <glyph glyph-name="k" unicode="k" horiz-adv-x="1038" 
d="M1014 119v-221l-680 610v-508h-180v1536h180v-911l434 399h229l-489 -451z" />
    <glyph glyph-name="l" unicode="l" horiz-adv-x="669" 
d="M475 -20q-143 0 -228 84.5t-85 222.5v1249h180l2 -1249q0 -74 35.5 -113t99.5 -39q67 0 111 47l100 -123q-76 -79 -215 -79z" />
    <glyph glyph-name="m" unicode="m" horiz-adv-x="1845" 
d="M1319 1044q166 0 273.5 -109t107.5 -276v-659h-182v639q0 104 -70 175t-174 71q-108 0 -182 -75t-74 -181v-629h-182v639q0 104 -70 175t-174 71q-107 0 -182.5 -75t-75.5 -181v-629h-180v1024h165l9 -125q119 145 311 145q108 0 194 -49.5t134 -136.5q58 87 150 136.5
t202 49.5z" />
    <glyph glyph-name="n" unicode="n" horiz-adv-x="1204" 
d="M659 1044q172 0 286 -112t114 -285v-647h-182v627q0 110 -76.5 184t-190.5 74q-115 0 -195.5 -78t-80.5 -189v-618h-180v1024h165l9 -135q60 73 145.5 114t185.5 41z" />
    <glyph glyph-name="o" unicode="o" horiz-adv-x="1161" 
d="M582 -20q-220 0 -360 153.5t-140 378.5q0 148 62 269t177 192t261 71q145 0 260 -71t177 -192t62 -269q0 -147 -62 -268t-177 -192.5t-260 -71.5zM582 141q145 0 233 106t88 265t-88.5 266t-232.5 107q-147 0 -234.5 -106.5t-87.5 -266.5t87.5 -265.5t234.5 -105.5z" />
    <glyph glyph-name="p" unicode="p" horiz-adv-x="1218" 
d="M666 1044q106 0 195 -41.5t149 -113t93.5 -169t33.5 -208.5t-33.5 -208.5t-93.5 -169t-149 -113t-195 -41.5q-203 0 -334 157v-649h-178v1536h178v-137q131 157 334 157zM637 141q147 0 235.5 106t88.5 265q0 160 -88.5 266.5t-235.5 106.5q-109 0 -192 -73t-113 -189
v-222q30 -116 113 -188t192 -72z" />
    <glyph glyph-name="q" unicode="q" horiz-adv-x="1218" 
d="M889 1024h176v-1536h-176v651q-61 -75 -147.5 -117t-188.5 -42q-106 0 -195 41.5t-149 113t-93.5 169t-33.5 208.5t33.5 208.5t93.5 169t149 113t195 41.5q102 0 188.5 -42t147.5 -117v139zM582 141q109 0 193 72.5t114 187.5v222q-30 116 -114 189t-193 73
q-147 0 -234.5 -106.5t-87.5 -266.5t87.5 -265.5t234.5 -105.5z" />
    <glyph glyph-name="r" unicode="r" horiz-adv-x="817" 
d="M631 1044q80 0 129.5 -14t93.5 -47l-88 -131q-63 33 -143 33q-116 0 -202.5 -89.5t-86.5 -222.5v-573h-180v1024h165l9 -156q57 81 136.5 128.5t166.5 47.5z" />
    <glyph glyph-name="s" unicode="s" horiz-adv-x="970" 
d="M496 -20q-124 0 -243.5 44.5t-176.5 112.5l94 123q38 -54 130 -91.5t185 -39.5q97 -3 161.5 37t64.5 110q0 22 -8 41t-18 32.5t-32 27.5t-37.5 22.5t-48.5 20t-50 16.5t-56 17q-42 13 -60 19t-57 20t-58 25t-49.5 29t-46 36.5t-32.5 43t-24 54.5t-7 65q0 132 111.5 215.5
t265.5 83.5q97 0 194.5 -32t159.5 -82l-100 -123q-41 38 -101.5 62.5t-121.5 29.5q-85 7 -154.5 -29t-69.5 -102q0 -25 8 -46t27 -38t37 -29t51 -24.5t55 -19.5t62 -19q46 -13 70 -20.5t66.5 -23t66 -29.5t54 -37.5t46.5 -49.5t27.5 -62t11.5 -79q0 -135 -113.5 -223
t-283.5 -88z" />
    <glyph glyph-name="t" unicode="t" horiz-adv-x="714" 
d="M608 182l101 -123q-76 -79 -215 -79q-142 0 -228 85t-86 222v596h-133v141h133v348h180v-348h279v-141h-277v-596q0 -74 36 -113t100 -39q66 0 110 47z" />
    <glyph glyph-name="u" unicode="u" horiz-adv-x="1216" 
d="M881 1024h182v-1024h-166l-10 137q-58 -73 -143 -115t-183 -42q-170 0 -286.5 119t-116.5 288v637h180v-618q0 -110 78 -187.5t190 -77.5q114 0 194.5 77.5t80.5 187.5v618z" />
    <glyph glyph-name="v" unicode="v" horiz-adv-x="1026" 
d="M817 1024h193l-410 -1024h-174l-410 1024h193l305 -811z" />
    <glyph glyph-name="w" unicode="w" horiz-adv-x="1468" 
d="M1249 1024h201l-350 -1024h-199l-170 487l-164 -487h-196l-353 1024h205l256 -807l168 506l-104 301h178l268 -811z" />
    <glyph glyph-name="x" unicode="x" horiz-adv-x="1048" 
d="M1061 1024l-428 -512l428 -512h-221l-316 379l-315 -379h-221l426 512l-426 512h217l319 -381l318 381h219z" />
    <glyph glyph-name="y" unicode="y" horiz-adv-x="1216" 
d="M1063 1024v-1051q0 -143 -53.5 -253.5t-167 -177t-273.5 -66.5q-205 0 -356 98v197q153 -133 371 -133q149 0 223 88t74 247v158q-58 -71 -141 -111t-179 -40q-170 0 -286.5 119t-116.5 288v637h180v-618q0 -110 78 -187.5t190 -77.5q114 0 194.5 77.5t80.5 187.5v618
h182z" />
    <glyph glyph-name="z" unicode="z" horiz-adv-x="1081" 
d="M98 0v127l631 745h-618v152h858v-123l-631 -749h645v-152h-885z" />
    <glyph glyph-name="braceleft" unicode="{" horiz-adv-x="675" 
d="M471 -662q-92 0 -153.5 80t-61.5 199v496q0 154 -28 222.5t-126 113.5v122q99 48 126.5 116t27.5 220v488q0 119 61.5 198.5t153.5 79.5h96v-127q-97 0 -132.5 -33t-35.5 -131v-505q0 -131 -27.5 -218t-111.5 -149q84 -62 111.5 -148.5t27.5 -218.5v-514q0 -84 36 -118.5
t132 -34.5v-138h-96z" />
    <glyph glyph-name="bar" unicode="|" horiz-adv-x="595" 
d="M238 -307v1843h118v-1843h-118z" />
    <glyph glyph-name="braceright" unicode="}" horiz-adv-x="675" 
d="M109 -662v138q96 0 131.5 34.5t35.5 118.5v514q0 131 27.5 218t110.5 149q-82 62 -110 149.5t-28 217.5v505q0 98 -35 131t-132 33v135h96q92 0 152.5 -80t60.5 -198v-496q0 -78 4.5 -123.5t20.5 -88t46.5 -71t81.5 -53.5v-122q-97 -45 -125 -113t-28 -223v-496
q0 -119 -60.5 -199t-152.5 -80h-96z" />
    <glyph glyph-name="asciitilde" unicode="~" horiz-adv-x="1150" 
d="M795 367q-38 0 -73 10.5t-59.5 23.5t-52.5 37.5t-41.5 39t-36.5 40.5q-47 54 -84 79.5t-86 25.5q-82 0 -132.5 -67t-45.5 -165h-100q-9 145 71 238.5t207 93.5q78 0 136.5 -38t117.5 -112q42 -53 80 -80.5t90 -27.5q81 0 133 64.5t46 166.5h100q12 -140 -67 -234.5
t-203 -94.5z" />
    <glyph glyph-name="exclamdown" unicode="&#xa1;" horiz-adv-x="610" 
d="M305 784q-50 0 -85.5 35t-35.5 86q0 48 36 83.5t85 35.5t84 -35.5t35 -83.5q0 -51 -34.5 -86t-84.5 -35zM213 -512l20 1087h142l20 -1087h-182z" />
    <glyph glyph-name="cent" unicode="&#xa2;" horiz-adv-x="1075" 
d="M657 1090q-155 0 -263.5 -109t-108.5 -264t108.5 -263t263.5 -108q171 0 273 96v-180q-110 -72 -250 -78v-186h-115v192q-198 33 -329.5 181t-131.5 346t131.5 345.5t329.5 180.5v193h115v-187q137 -6 250 -75v-183q-105 99 -273 99z" />
    <glyph glyph-name="sterling" unicode="&#xa3;" horiz-adv-x="1247" 
d="M379 131h778v-131h-919v690h-164v125h164v270q0 207 128.5 339t329.5 132q146 0 269 -91t163 -230l-135 -59q-20 102 -106 169.5t-191 67.5q-143 0 -230 -89.5t-87 -238.5v-270h381v-125h-381v-559z" />
    <glyph glyph-name="currency" unicode="&#xa4;" horiz-adv-x="1239" 
d="M250 272l-98 105l104 102q-89 117 -88.5 264.5t88.5 264.5l-102 100l98 104l104 -106q117 89 264.5 90t264.5 -88l104 104l101 -100l-105 -102q89 -118 89 -266t-89 -267l105 -100l-99 -105l-106 107q-117 -89 -265.5 -89t-265.5 89zM397 522q94 -93 223 -93t222 93
q91 92 91 222t-91 221q-92 91 -221.5 90.5t-221.5 -92.5q-91 -91 -92 -220.5t90 -220.5z" />
    <glyph glyph-name="yen" unicode="&#xa5;" horiz-adv-x="1380" 
d="M770 741v-16h414v-121h-414v-196h414v-113h-414v-295h-160v295h-409v113h409v196h-409v121h409v16l-528 795h174l432 -668l436 668h172z" />
    <glyph glyph-name="brokenbar" unicode="&#xa6;" horiz-adv-x="595" 
d="M238 799v737h118v-737h-118zM238 -307v737h118v-737h-118z" />
    <glyph glyph-name="section" unicode="&#xa7;" horiz-adv-x="1267" 
d="M1059 508q80 -73 80 -182q0 -95 -69.5 -170t-182 -113.5t-244.5 -38.5q-173 0 -313 67t-197 169l117 67q40 -77 146 -126.5t253 -49.5t249.5 52.5t102.5 144.5q0 44 -27.5 78t-73.5 57.5t-106 43t-126 37.5t-132 37.5t-126 46.5t-106 60.5t-73.5 84.5t-27.5 114
q0 108 82 184q-80 73 -80 178q0 73 37 133t99 97t139 57t161 20q123 0 233 -40t177 -107l-95 -78q-53 49 -133.5 78t-173.5 29q-126 0 -216.5 -49t-90.5 -134q0 -49 34.5 -86.5t90.5 -61t128 -46.5t146.5 -41.5t146.5 -47.5t128 -63t90.5 -90t34.5 -127q0 -102 -82 -184z
M342 891q0 -53 38.5 -93t107.5 -66.5t142 -47t164.5 -48.5t151.5 -56q55 49 55 114q0 52 -38.5 91t-107.5 65.5t-142 46.5t-164.5 47t-151.5 55q-55 -43 -55 -108z" />
    <glyph glyph-name="dieresis" unicode="&#xa8;" horiz-adv-x="102" 
d="M248 1214q-50 0 -85.5 34t-35.5 83q0 51 35.5 86t85.5 35t84.5 -35t34.5 -86q0 -49 -34.5 -83t-84.5 -34zM631 1214q-48 0 -83.5 34t-35.5 83q0 50 35.5 85.5t83.5 35.5q50 0 84.5 -35t34.5 -86q0 -49 -34.5 -83t-84.5 -34z" />
    <glyph glyph-name="copyright" unicode="&#xa9;" horiz-adv-x="1785" 
d="M893 -20q-128 0 -248.5 40t-217.5 113t-170 170t-113 217t-40 248t40 248t113 217t170 170t217.5 113t248.5 40q160 0 306 -62.5t251.5 -168t168 -251.5t62.5 -306t-62.5 -306t-168 -251.5t-251.5 -168t-306 -62.5zM893 86q187 0 344.5 91t248.5 247.5t91 343.5
q0 188 -91 345t-248 248t-345 91q-187 0 -343.5 -91t-247.5 -248.5t-91 -344.5q0 -186 91 -343t248 -248t343 -91zM920 356q-173 0 -295.5 118.5t-122.5 285.5q0 170 122 288.5t296 118.5q120 0 217 -63v-119l-9 -4q-87 74 -202 74q-127 0 -214 -82.5t-87 -212.5
q0 -127 87.5 -210t213.5 -83q54 0 108 19t92 51h11v-117q-95 -64 -217 -64z" />
    <glyph glyph-name="ordfeminine" unicode="&#xaa;" horiz-adv-x="837" 
d="M629 1536h96v-614h-96v131q-39 -66 -105.5 -105t-146.5 -39q-129 0 -220 93.5t-91 226.5q0 132 91 225.5t220 93.5q80 0 146.5 -39t105.5 -106v133zM393 993q98 0 167 69.5t69 166.5q0 96 -69 164.5t-167 68.5q-96 0 -163.5 -68.5t-67.5 -164.5q0 -97 67.5 -166.5
t163.5 -69.5z" />
    <glyph glyph-name="guillemotleft" unicode="&#xab;" horiz-adv-x="1306" 
d="M539 195l-312 376l312 377h153l-311 -377l311 -376h-153zM926 195l-312 376l312 377h155l-311 -377l311 -376h-155z" />
    <glyph glyph-name="logicalnot" unicode="&#xac;" horiz-adv-x="1603" 
d="M1296 240v524h-1112v121h1233v-645h-121z" />
    <glyph glyph-name="uni00AD" unicode="&#xad;" horiz-adv-x="1218" 
d="M184 469v127h717v-127h-717z" />
    <glyph glyph-name="registered" unicode="&#xae;" horiz-adv-x="1785" 
d="M893 1556q160 0 306 -62.5t251.5 -168t168 -251.5t62.5 -306t-62.5 -306t-168 -251.5t-251.5 -168t-306 -62.5q-128 0 -248.5 40t-217.5 113t-170 170t-113 217t-40 248t40 248t113 217t170 170t217.5 113t248.5 40zM893 86q187 0 344.5 91t248.5 247.5t91 343.5
q0 188 -91 345t-248 248t-345 91q-187 0 -343.5 -91t-247.5 -248.5t-91 -344.5q0 -186 91 -343t248 -248t343 -91zM1176 940q0 -76 -44 -135.5t-114 -83.5l192 -352h-108l-191 342h-131v-342h-96v798h260q97 0 164.5 -66t67.5 -161zM780 1069v-262h164q56 0 94.5 38.5
t38.5 94.5q0 54 -38.5 91.5t-94.5 37.5h-164z" />
    <glyph glyph-name="macron" unicode="&#xaf;" horiz-adv-x="124" 
d="M61 1231v121h635v-121h-635z" />
    <glyph glyph-name="degree" unicode="&#xb0;" horiz-adv-x="1001" 
d="M500 1008q-113 0 -194 80t-81 194t81 194t194 80q114 0 194 -80t80 -194t-80 -194t-194 -80zM500 1104q75 0 126.5 51.5t51.5 126.5t-51.5 126.5t-126.5 51.5q-74 0 -126 -51.5t-52 -126.5t52 -126.5t126 -51.5z" />
    <glyph glyph-name="plusminus" unicode="&#xb1;" horiz-adv-x="1617" 
d="M870 879h646v-121h-646v-369h-120v369h-648v121h648v368h120v-368zM102 0v113h1414v-113h-1414z" />
    <glyph glyph-name="uni00B2" unicode="&#xb2;" horiz-adv-x="698" 
d="M88 778v68q271 279 319 335q66 76 74 123q2 12 2 27q0 66 -39.5 103t-99.5 39q-63 0 -103 -39t-40 -105h-92q-1 101 68 164t171 63q95 0 159.5 -57t67.5 -151q3 -86 -51 -158.5t-269 -290.5q-23 -24 -36 -37h381v-84h-512z" />
    <glyph glyph-name="uni00B3" unicode="&#xb3;" horiz-adv-x="749" 
d="M471 1210q61 -28 97 -81t36 -121q0 -100 -69 -170t-170 -70q-100 0 -171 65t-71 158l94 2q0 -56 43.5 -95.5t104.5 -39.5t103 44t42 106q0 63 -42 106t-103 43h-62v78h55q51 0 84 34t33 87q0 47 -33 78.5t-84 31.5q-46 0 -79 -30.5t-33 -73.5l-92 2q0 81 59.5 136.5
t144.5 55.5t145 -55.5t60 -136.5q0 -48 -25 -88.5t-67 -65.5z" />
    <glyph glyph-name="acute" unicode="&#xb4;" horiz-adv-x="102" 
d="M61 1219l185 317h186l-223 -317h-148z" />
    <glyph glyph-name="uni00B5" unicode="&#xb5;" horiz-adv-x="1218" 
d="M889 1024h180v-1024h-180v147q-58 -78 -142.5 -122.5t-181.5 -44.5q-150 0 -262 98v-590h-139v1536h182v-618q0 -110 78 -187.5t188 -77.5q115 0 196 77.5t81 187.5v618z" />
    <glyph glyph-name="paragraph" unicode="&#xb6;" horiz-adv-x="1271" 
d="M633 -307v1157h-64q-171 0 -267.5 89.5t-96.5 254.5t96.5 253.5t267.5 88.5h164v-1843h-100zM924 -307v1843h102v-1843h-102z" />
    <glyph glyph-name="periodcentered" unicode="&#xb7;" horiz-adv-x="561" 
d="M281 643q-39 0 -68 27t-29 67q0 38 29.5 67.5t67.5 29.5t67 -29.5t29 -67.5q0 -40 -28.5 -67t-67.5 -27z" />
    <glyph glyph-name="cedilla" unicode="&#xb8;" horiz-adv-x="102" 
d="M299 -532q-69 0 -138 37.5t-100 91.5l86 36q23 -31 67 -52t85 -21q49 0 82 33t33 83q0 72 -59.5 100t-145.5 -5l-74 49l90 180h94l-67 -137q107 22 181.5 -33t74.5 -154q0 -86 -61 -147t-148 -61z" />
    <glyph glyph-name="uni00B9" unicode="&#xb9;" horiz-adv-x="536" 
d="M193 768v684h-115v84h211v-768h-96z" />
    <glyph glyph-name="ordmasculine" unicode="&#xba;" horiz-adv-x="788" 
d="M393 909q-136 0 -231.5 93t-95.5 227q0 132 95.5 225.5t231.5 93.5q138 0 235 -93.5t97 -225.5q0 -133 -97 -226.5t-235 -93.5zM393 993q98 0 167 69.5t69 166.5q0 96 -69 164.5t-167 68.5q-96 0 -163.5 -68.5t-67.5 -164.5q0 -97 67.5 -166.5t163.5 -69.5z" />
    <glyph glyph-name="guillemotright" unicode="&#xbb;" horiz-adv-x="1306" 
d="M225 195l312 376l-312 377h154l311 -377l-311 -376h-154zM612 195l312 376l-312 377h156l311 -377l-311 -376h-156z" />
    <glyph glyph-name="questiondown" unicode="&#xbf;" horiz-adv-x="1138" 
d="M561 1059q50 0 85.5 -35t35.5 -84q0 -50 -36 -85.5t-85 -35.5t-84 35.5t-35 85.5t35 84.5t84 34.5zM651 606v-125q0 -78 -20.5 -134.5t-53 -88.5t-72 -55.5t-79 -45t-72 -49t-53 -75t-20.5 -115.5q0 -117 81.5 -191.5t206.5 -74.5q123 0 203.5 77.5t83.5 196.5h162
q1 -186 -127 -310t-322 -124q-193 0 -320.5 121.5t-127.5 304.5q0 81 20 143.5t52 99.5t71 65.5t78 50.5t71 45.5t52 58.5t20 82v143h166z" />
    <glyph glyph-name="Agrave" unicode="&#xc0;" horiz-adv-x="1521" 
d="M825 1731h-145l-225 317h186zM1278 0l-125 322h-786l-125 -322h-203l616 1536h209l617 -1536h-203zM426 479h668l-334 864z" />
    <glyph glyph-name="Aacute" unicode="&#xc1;" horiz-adv-x="1521" 
d="M1061 2048l-223 -317h-148l184 317h187zM1278 0l-125 322h-786l-125 -322h-203l616 1536h209l617 -1536h-203zM426 479h668l-334 864z" />
    <glyph glyph-name="Acircumflex" unicode="&#xc2;" horiz-adv-x="1521" 
d="M760 1960l-158 -262h-147l209 350h192l209 -350h-147zM1278 0l-125 322h-786l-125 -322h-203l616 1536h209l617 -1536h-203zM426 479h668l-334 864z" />
    <glyph glyph-name="Atilde" unicode="&#xc3;" horiz-adv-x="1521" 
d="M539 1731h-115q-17 115 39 189.5t153 74.5q118 0 191 -113q36 -59 92 -59q48 0 71 42.5t11 110.5h115q17 -113 -38.5 -188.5t-154.5 -75.5q-116 0 -190 111q-39 59 -92 59q-48 0 -71 -42t-11 -109zM1278 0l-125 322h-786l-125 -322h-203l616 1536h209l617 -1536h-203z
M426 479h668l-334 864z" />
    <glyph glyph-name="Adieresis" unicode="&#xc4;" horiz-adv-x="1521" 
d="M569 1726q-50 0 -85 34t-35 83q0 51 35 86t85 35t84.5 -35t34.5 -86q0 -49 -34.5 -83t-84.5 -34zM952 1726q-48 0 -83 34t-35 83q0 50 35 85.5t83 35.5q50 0 84.5 -35t34.5 -86q0 -49 -34.5 -83t-84.5 -34zM1278 0l-125 322h-786l-125 -322h-203l616 1536h209l617 -1536
h-203zM426 479h668l-334 864z" />
    <glyph glyph-name="Aring" unicode="&#xc5;" horiz-adv-x="1521" 
d="M1278 0l-125 322h-786l-125 -322h-203l600 1497q-88 65 -88 168q0 86 62.5 148.5t148.5 62.5t147.5 -62.5t61.5 -148.5q0 -52 -24 -97t-66 -73l600 -1495h-203zM762 1794q-52 0 -87.5 -38t-35.5 -91q0 -54 35 -89.5t88 -35.5t89 35.5t36 89.5q0 53 -36.5 91t-88.5 38z
M426 479h668l-334 864z" />
    <glyph glyph-name="AE" unicode="&#xc6;" horiz-adv-x="1832" 
d="M39 0l616 1536h1074v-160h-668v-534h581v-146h-581v-534h668v-162h-850v336h-506l-125 -336h-209zM436 481h445v895h-95z" />
    <glyph glyph-name="Ccedilla" unicode="&#xc7;" horiz-adv-x="1368" 
d="M854 1378q-167 0 -299 -81t-203 -220t-71 -309t71 -309t203 -220t299 -81q246 0 418 190v-225q-171 -132 -381 -141l-57 -119q107 22 181.5 -33t74.5 -154q0 -86 -61 -147t-148 -61q-69 0 -138 37.5t-100 91.5l86 36q23 -31 67 -52t85 -21q49 0 81.5 33t32.5 83
q0 72 -59 100t-145 -5l-74 49l80 162q-199 14 -358 122t-247 282.5t-88 381.5q0 216 95.5 396t268.5 286t386 106q232 0 418 -143v-225q-175 190 -418 190z" />
    <glyph glyph-name="Egrave" unicode="&#xc8;" horiz-adv-x="1110" 
d="M643 1731h-145l-226 317h187zM1004 1370h-664v-518h578v-168h-578v-518h664v-166h-850v1536h850v-166z" />
    <glyph glyph-name="Eacute" unicode="&#xc9;" horiz-adv-x="1110" 
d="M879 2048l-224 -317h-147l184 317h187zM1004 1370h-664v-518h578v-168h-578v-518h664v-166h-850v1536h850v-166z" />
    <glyph glyph-name="Ecircumflex" unicode="&#xca;" horiz-adv-x="1110" 
d="M578 1960l-158 -262h-148l209 350h193l209 -350h-148zM1004 1370h-664v-518h578v-168h-578v-518h664v-166h-850v1536h850v-166z" />
    <glyph glyph-name="Edieresis" unicode="&#xcb;" horiz-adv-x="1110" 
d="M387 1726q-50 0 -85.5 34t-35.5 83q0 51 35.5 86t85.5 35t84.5 -35t34.5 -86q0 -49 -34.5 -83t-84.5 -34zM770 1726q-48 0 -83.5 34t-35.5 83q0 50 35.5 85.5t83.5 35.5q50 0 84.5 -35t34.5 -86q0 -49 -34.5 -83t-84.5 -34zM1004 1370h-664v-518h578v-168h-578v-518h664
v-166h-850v1536h850v-166z" />
    <glyph glyph-name="Igrave" unicode="&#xcc;" horiz-adv-x="493" 
d="M166 1731l-225 317h186l184 -317h-145zM154 0v1536h186v-1536h-186z" />
    <glyph glyph-name="Iacute" unicode="&#xcd;" horiz-adv-x="493" 
d="M176 1731l184 317h187l-223 -317h-148zM154 0v1536h186v-1536h-186z" />
    <glyph glyph-name="Icircumflex" unicode="&#xce;" horiz-adv-x="493" 
d="M-59 1698l209 350h192l209 -350h-148l-157 262l-158 -262h-147zM154 0v1536h186v-1536h-186z" />
    <glyph glyph-name="Idieresis" unicode="&#xcf;" horiz-adv-x="493" 
d="M55 1726q-50 0 -85.5 34t-35.5 83q0 51 35.5 86t85.5 35t84.5 -35t34.5 -86q0 -49 -34.5 -83t-84.5 -34zM438 1726q-48 0 -83.5 34t-35.5 83q0 50 35.5 85.5t83.5 35.5q50 0 84.5 -35t34.5 -86q0 -49 -34.5 -83t-84.5 -34zM154 0v1536h186v-1536h-186z" />
    <glyph glyph-name="Eth" unicode="&#xd0;" horiz-adv-x="1456" 
d="M584 1536q209 0 385.5 -103t279.5 -279.5t103 -385.5t-103 -385.5t-279.5 -279.5t-385.5 -103h-430v705h-158v129h158v702h430zM584 166q159 0 293 80t211 218.5t77 303.5t-77 303.5t-211 218.5t-293 80h-244v-536h268v-129h-268v-539h244z" />
    <glyph glyph-name="Ntilde" unicode="&#xd1;" horiz-adv-x="1593" 
d="M573 1731h-114q-17 115 39 189.5t153 74.5q118 0 191 -113q36 -59 92 -59q48 0 71 42.5t11 110.5h114q17 -113 -38 -188.5t-154 -75.5q-116 0 -190 111q-39 59 -93 59q-48 0 -71 -42t-11 -109zM1255 1536h185v-1536h-178l-922 1235v-1235h-186v1536h178l923 -1237v1237z
" />
    <glyph glyph-name="Ograve" unicode="&#xd2;" horiz-adv-x="1708" 
d="M774 1731l-225 317h186l185 -317h-146zM854 -20q-213 0 -386 106t-268.5 286t-95.5 396t95.5 396t268.5 286t386 106q160 0 300 -62t238.5 -168t155 -251t56.5 -307t-56.5 -307t-155 -251t-238.5 -168t-300 -62zM854 158q167 0 298.5 81t202 220t70.5 309t-70.5 309
t-202 220t-298.5 81t-298.5 -81t-203 -220t-71.5 -309t71.5 -309t203 -220t298.5 -81z" />
    <glyph glyph-name="Oacute" unicode="&#xd3;" horiz-adv-x="1708" 
d="M784 1731l185 317h186l-223 -317h-148zM854 -20q-213 0 -386 106t-268.5 286t-95.5 396t95.5 396t268.5 286t386 106q160 0 300 -62t238.5 -168t155 -251t56.5 -307t-56.5 -307t-155 -251t-238.5 -168t-300 -62zM854 158q167 0 298.5 81t202 220t70.5 309t-70.5 309
t-202 220t-298.5 81t-298.5 -81t-203 -220t-71.5 -309t71.5 -309t203 -220t298.5 -81z" />
    <glyph glyph-name="Ocircumflex" unicode="&#xd4;" horiz-adv-x="1708" 
d="M549 1698l209 350h192l209 -350h-147l-158 262l-158 -262h-147zM854 -20q-213 0 -386 106t-268.5 286t-95.5 396t95.5 396t268.5 286t386 106q160 0 300 -62t238.5 -168t155 -251t56.5 -307t-56.5 -307t-155 -251t-238.5 -168t-300 -62zM854 158q167 0 298.5 81t202 220
t70.5 309t-70.5 309t-202 220t-298.5 81t-298.5 -81t-203 -220t-71.5 -309t71.5 -309t203 -220t298.5 -81z" />
    <glyph glyph-name="Otilde" unicode="&#xd5;" horiz-adv-x="1708" 
d="M997 1712q-116 0 -190 111q-39 59 -92 59q-48 0 -71 -42t-11 -109h-115q-17 115 39.5 189.5t153.5 74.5q117 0 190 -113q36 -59 92 -59q48 0 71 42.5t11 110.5h115q17 -113 -38.5 -188.5t-154.5 -75.5zM854 -20q-213 0 -386 106t-268.5 286t-95.5 396t95.5 396t268.5 286
t386 106q160 0 300 -62t238.5 -168t155 -251t56.5 -307t-56.5 -307t-155 -251t-238.5 -168t-300 -62zM854 158q167 0 298.5 81t202 220t70.5 309t-70.5 309t-202 220t-298.5 81t-298.5 -81t-203 -220t-71.5 -309t71.5 -309t203 -220t298.5 -81z" />
    <glyph glyph-name="Odieresis" unicode="&#xd6;" horiz-adv-x="1708" 
d="M664 1726q-50 0 -85.5 34t-35.5 83q0 51 35.5 86t85.5 35t84 -35t34 -86q0 -49 -34 -83t-84 -34zM1047 1726q-48 0 -83.5 34t-35.5 83q0 50 35.5 85.5t83.5 35.5q50 0 84 -35t34 -86q0 -49 -34 -83t-84 -34zM854 -20q-213 0 -386 106t-268.5 286t-95.5 396t95.5 396
t268.5 286t386 106q160 0 300 -62t238.5 -168t155 -251t56.5 -307t-56.5 -307t-155 -251t-238.5 -168t-300 -62zM854 158q167 0 298.5 81t202 220t70.5 309t-70.5 309t-202 220t-298.5 81t-298.5 -81t-203 -220t-71.5 -309t71.5 -309t203 -220t298.5 -81z" />
    <glyph glyph-name="multiply" unicode="&#xd7;" horiz-adv-x="1507" 
d="M1282 1034l-401 -399l401 -399l-100 -99l-400 400l-399 -400l-100 99l399 399l-399 399l100 99l399 -400l400 400z" />
    <glyph glyph-name="Oslash" unicode="&#xd8;" horiz-adv-x="1708" 
d="M1333 1382q128 -110 199.5 -270t71.5 -344q0 -162 -56.5 -307t-155 -251t-238.5 -168t-300 -62q-218 0 -389 108l-80 -119h-131l123 183q-129 110 -201 270.5t-72 345.5q0 216 95.5 396t268.5 286t386 106q217 0 391 -110l80 119h131zM281 768q0 -142 50.5 -263.5
t143.5 -205.5l672 1001q-131 78 -293 78q-167 0 -298.5 -81t-203 -220t-71.5 -309zM854 158q167 0 298.5 81t202 220t70.5 309q0 141 -49.5 262.5t-140.5 204.5l-672 -1002q126 -75 291 -75z" />
    <glyph glyph-name="Ugrave" unicode="&#xd9;" horiz-adv-x="1495" 
d="M668 1731l-226 317h187l184 -317h-145zM748 -20q-161 0 -295 69.5t-211.5 190t-77.5 264.5v1032h186v-1001q0 -163 116 -276.5t282 -113.5t281.5 113.5t115.5 276.5v1001h188v-1032q0 -144 -77.5 -264.5t-212 -190t-295.5 -69.5z" />
    <glyph glyph-name="Uacute" unicode="&#xda;" horiz-adv-x="1495" 
d="M678 1731l184 317h187l-224 -317h-147zM748 -20q-161 0 -295 69.5t-211.5 190t-77.5 264.5v1032h186v-1001q0 -163 116 -276.5t282 -113.5t281.5 113.5t115.5 276.5v1001h188v-1032q0 -144 -77.5 -264.5t-212 -190t-295.5 -69.5z" />
    <glyph glyph-name="Ucircumflex" unicode="&#xdb;" horiz-adv-x="1495" 
d="M442 1698l209 350h193l209 -350h-148l-157 262l-158 -262h-148zM748 -20q-161 0 -295 69.5t-211.5 190t-77.5 264.5v1032h186v-1001q0 -163 116 -276.5t282 -113.5t281.5 113.5t115.5 276.5v1001h188v-1032q0 -144 -77.5 -264.5t-212 -190t-295.5 -69.5z" />
    <glyph glyph-name="Udieresis" unicode="&#xdc;" horiz-adv-x="1495" 
d="M557 1726q-50 0 -85.5 34t-35.5 83q0 51 35.5 86t85.5 35t84.5 -35t34.5 -86q0 -49 -34.5 -83t-84.5 -34zM940 1726q-48 0 -83.5 34t-35.5 83q0 50 35.5 85.5t83.5 35.5q50 0 84.5 -35t34.5 -86q0 -49 -34.5 -83t-84.5 -34zM748 -20q-161 0 -295 69.5t-211.5 190
t-77.5 264.5v1032h186v-1001q0 -163 116 -276.5t282 -113.5t281.5 113.5t115.5 276.5v1001h188v-1032q0 -144 -77.5 -264.5t-212 -190t-295.5 -69.5z" />
    <glyph glyph-name="Yacute" unicode="&#xdd;" horiz-adv-x="1337" 
d="M971 2048l-223 -317h-148l184 317h187zM1298 1536l-534 -807v-729h-189v725l-536 811h211l420 -649l420 649h208z" />
    <glyph glyph-name="Thorn" unicode="&#xde;" horiz-adv-x="1208" 
d="M713 1323q180 0 305 -126t125 -308q0 -178 -125 -302t-305 -124h-379v-463h-180v1323v207h180v-207h379zM707 623q114 0 193 78.5t79 191.5q0 111 -79 188.5t-193 77.5h-373v-536h373z" />
    <glyph glyph-name="germandbls" unicode="&#xdf;" horiz-adv-x="1376" 
d="M987 786q111 -55 177.5 -157.5t66.5 -227.5q0 -176 -117.5 -298.5t-284.5 -122.5q-89 0 -184.5 34t-152.5 90l77 138q39 -39 102.5 -67t125.5 -28q102 3 177 79t75 184q0 116 -83.5 197t-201.5 81h-115v152h49q114 0 194.5 79.5t80.5 194.5q0 114 -83 188t-212 74
q-134 0 -222.5 -80.5t-88.5 -201.5v-1094h-183v1094q0 191 141 316.5t351 125.5q203 0 335 -119t132 -301q0 -99 -41.5 -184.5t-114.5 -145.5z" />
    <glyph glyph-name="agrave" unicode="&#xe0;" horiz-adv-x="1099" 
d="M621 1219h-146l-225 317h186zM530 1044q90 0 166 -24t134 -71t91 -122.5t33 -171.5v-655h-159l-11 145q-187 -165 -378 -165q-137 0 -225.5 88.5t-88.5 224.5q0 71 27.5 129.5t87.5 103.5t154.5 58t228.5 -6l186 -31v121q0 111 -71 167t-183 56q-181 0 -274 -141
l-125 110q127 184 407 184zM276 301q0 -72 47 -116t123 -44q160 0 330 156v117l-168 28q-178 32 -255 -11t-77 -130z" />
    <glyph glyph-name="aacute" unicode="&#xe1;" horiz-adv-x="1099" 
d="M856 1536l-223 -317h-148l185 317h186zM530 1044q90 0 166 -24t134 -71t91 -122.5t33 -171.5v-655h-159l-11 145q-187 -165 -378 -165q-137 0 -225.5 88.5t-88.5 224.5q0 71 27.5 129.5t87.5 103.5t154.5 58t228.5 -6l186 -31v121q0 111 -71 167t-183 56
q-181 0 -274 -141l-125 110q127 184 407 184zM276 301q0 -72 47 -116t123 -44q160 0 330 156v117l-168 28q-178 32 -255 -11t-77 -130z" />
    <glyph glyph-name="acircumflex" unicode="&#xe2;" horiz-adv-x="1099" 
d="M555 1448l-158 -262h-147l209 350h192l209 -350h-147zM530 1044q90 0 166 -24t134 -71t91 -122.5t33 -171.5v-655h-159l-11 145q-187 -165 -378 -165q-137 0 -225.5 88.5t-88.5 224.5q0 71 27.5 129.5t87.5 103.5t154.5 58t228.5 -6l186 -31v121q0 111 -71 167t-183 56
q-181 0 -274 -141l-125 110q127 184 407 184zM276 301q0 -72 47 -116t123 -44q160 0 330 156v117l-168 28q-178 32 -255 -11t-77 -130z" />
    <glyph glyph-name="atilde" unicode="&#xe3;" horiz-adv-x="1099" 
d="M334 1219h-115q-17 115 39.5 189.5t153.5 74.5q117 0 190 -113q36 -59 92 -59q48 0 71 42.5t11 110.5h115q17 -113 -38.5 -188.5t-154.5 -75.5q-116 0 -190 111q-39 59 -92 59q-48 0 -71 -42t-11 -109zM530 1044q90 0 166 -24t134 -71t91 -122.5t33 -171.5v-655h-159
l-11 145q-187 -165 -378 -165q-137 0 -225.5 88.5t-88.5 224.5q0 71 27.5 129.5t87.5 103.5t154.5 58t228.5 -6l186 -31v121q0 111 -71 167t-183 56q-181 0 -274 -141l-125 110q127 184 407 184zM276 301q0 -72 47 -116t123 -44q160 0 330 156v117l-168 28q-178 32 -255 -11
t-77 -130z" />
    <glyph glyph-name="adieresis" unicode="&#xe4;" horiz-adv-x="1099" 
d="M365 1214q-50 0 -85.5 34t-35.5 83q0 51 35.5 86t85.5 35t84 -35t34 -86q0 -49 -34 -83t-84 -34zM748 1214q-48 0 -83.5 34t-35.5 83q0 50 35.5 85.5t83.5 35.5q50 0 84 -35t34 -86q0 -49 -34 -83t-84 -34zM530 1044q90 0 166 -24t134 -71t91 -122.5t33 -171.5v-655h-159
l-11 145q-187 -165 -378 -165q-137 0 -225.5 88.5t-88.5 224.5q0 71 27.5 129.5t87.5 103.5t154.5 58t228.5 -6l186 -31v121q0 111 -71 167t-183 56q-181 0 -274 -141l-125 110q127 184 407 184zM276 301q0 -72 47 -116t123 -44q160 0 330 156v117l-168 28q-178 32 -255 -11
t-77 -130z" />
    <glyph glyph-name="aring" unicode="&#xe5;" horiz-adv-x="1099" 
d="M557 1145q-88 0 -149.5 61.5t-61.5 147.5t61.5 147.5t149.5 61.5q86 0 146.5 -61.5t60.5 -147.5t-60.5 -147.5t-146.5 -61.5zM557 1481q-52 0 -88.5 -37t-36.5 -90q0 -55 36 -91t89 -36t88 36t35 91q0 53 -35.5 90t-87.5 37zM530 1044q90 0 166 -24t134 -71t91 -122.5
t33 -171.5v-655h-159l-11 145q-187 -165 -378 -165q-137 0 -225.5 88.5t-88.5 224.5q0 71 27.5 129.5t87.5 103.5t154.5 58t228.5 -6l186 -31v121q0 111 -71 167t-183 56q-181 0 -274 -141l-125 110q127 184 407 184zM276 301q0 -72 47 -116t123 -44q160 0 330 156v117
l-168 28q-178 32 -255 -11t-77 -130z" />
    <glyph glyph-name="ae" unicode="&#xe6;" horiz-adv-x="1767" 
d="M1686 512q0 -29 -3 -59h-774q14 -146 96.5 -231t221.5 -85q93 0 157 38t125 132l127 -88q-132 -239 -415 -239q-133 0 -236 55t-166 155q-95 -98 -204.5 -154t-219.5 -56q-137 0 -225 88t-88 225q0 71 27.5 129.5t87.5 103.5t154.5 58t228.5 -6l155 -25q3 74 27 156
q-13 91 -81.5 136.5t-168.5 45.5q-181 0 -274 -141l-125 110q127 184 407 184q269 0 350 -147q134 147 351 147q216 0 340.5 -147t124.5 -385zM1225 889q-131 0 -211 -79t-101 -216h609q-15 137 -92 216t-205 79zM436 141q163 0 330 160q-18 55 -27 117l-141 24
q-178 32 -255 -11t-77 -130q0 -72 47 -116t123 -44z" />
    <glyph glyph-name="ccedilla" unicode="&#xe7;" horiz-adv-x="911" 
d="M584 891q-149 0 -236.5 -107t-87.5 -272t87.5 -272t236.5 -107q72 0 136.5 30t108.5 81v-181q-93 -75 -239 -83l-58 -117q107 22 181.5 -33t74.5 -154q0 -87 -60.5 -147.5t-147.5 -60.5q-69 0 -138 37.5t-100 91.5l86 36q23 -31 67 -52t85 -21q49 0 81.5 33t32.5 83
q0 72 -59.5 100t-145.5 -5l-73 49l82 164q-193 23 -304.5 168t-111.5 360q0 153 57 273t168 189.5t258 69.5q158 0 264 -81v-183q-45 51 -110 81t-135 30z" />
    <glyph glyph-name="egrave" unicode="&#xe8;" horiz-adv-x="1116" 
d="M637 1225h-145l-226 317h187zM1034 512q0 -39 -2 -59h-774q14 -145 96 -230.5t221 -85.5q94 0 158 38t125 132l127 -88q-132 -239 -416 -239q-223 0 -355 148.5t-132 381.5t132.5 383.5t354.5 150.5q216 0 340.5 -147t124.5 -385zM573 889q-130 0 -210 -79.5t-101 -215.5
h608q-14 137 -91 216t-206 79z" />
    <glyph glyph-name="eacute" unicode="&#xe9;" horiz-adv-x="1116" 
d="M872 1542l-223 -317h-147l184 317h186zM1034 512q0 -39 -2 -59h-774q14 -145 96 -230.5t221 -85.5q94 0 158 38t125 132l127 -88q-132 -239 -416 -239q-223 0 -355 148.5t-132 381.5t132.5 383.5t354.5 150.5q216 0 340.5 -147t124.5 -385zM573 889q-130 0 -210 -79.5
t-101 -215.5h608q-14 137 -91 216t-206 79z" />
    <glyph glyph-name="ecircumflex" unicode="&#xea;" horiz-adv-x="1116" 
d="M571 1454l-157 -262h-148l209 350h193l209 -350h-148zM1034 512q0 -39 -2 -59h-774q14 -145 96 -230.5t221 -85.5q94 0 158 38t125 132l127 -88q-132 -239 -416 -239q-223 0 -355 148.5t-132 381.5t132.5 383.5t354.5 150.5q216 0 340.5 -147t124.5 -385zM573 889
q-130 0 -210 -79.5t-101 -215.5h608q-14 137 -91 216t-206 79z" />
    <glyph glyph-name="edieresis" unicode="&#xeb;" horiz-adv-x="1116" 
d="M381 1221q-50 0 -85.5 33.5t-35.5 82.5q0 51 35.5 86t85.5 35t84.5 -35t34.5 -86q0 -49 -34.5 -82.5t-84.5 -33.5zM764 1221q-48 0 -83.5 33.5t-35.5 82.5q0 50 35.5 85.5t83.5 35.5q50 0 84.5 -35t34.5 -86q0 -49 -34.5 -82.5t-84.5 -33.5zM1034 512q0 -39 -2 -59h-774
q14 -145 96 -230.5t221 -85.5q94 0 158 38t125 132l127 -88q-132 -239 -416 -239q-223 0 -355 148.5t-132 381.5t132.5 383.5t354.5 150.5q216 0 340.5 -147t124.5 -385zM573 889q-130 0 -210 -79.5t-101 -215.5h608q-14 137 -91 216t-206 79z" />
    <glyph glyph-name="igrave" unicode="&#xec;" horiz-adv-x="487" 
d="M164 1219l-225 317h186l184 -317h-145zM154 0v1024h180v-1024h-180z" />
    <glyph glyph-name="iacute" unicode="&#xed;" horiz-adv-x="487" 
d="M174 1219l184 317h187l-223 -317h-148zM154 0v1024h180v-1024h-180z" />
    <glyph glyph-name="icircumflex" unicode="&#xee;" horiz-adv-x="487" 
d="M-61 1186l208 350h193l209 -350h-148l-157 262l-158 -262h-147zM154 0v1024h180v-1024h-180z" />
    <glyph glyph-name="idieresis" unicode="&#xef;" horiz-adv-x="487" 
d="M53 1214q-50 0 -85.5 34t-35.5 83q0 51 35.5 86t85.5 35t84.5 -35t34.5 -86q0 -49 -34.5 -83t-84.5 -34zM436 1214q-48 0 -83.5 34t-35.5 83q0 50 35.5 85.5t83.5 35.5q50 0 84.5 -35t34.5 -86q0 -49 -34.5 -83t-84.5 -34zM154 0v1024h180v-1024h-180z" />
    <glyph glyph-name="eth" unicode="&#xf0;" horiz-adv-x="1269" 
d="M809 1401q174 -141 275.5 -375.5t101.5 -513.5q0 -145 -73.5 -267.5t-200.5 -193.5t-277 -71q-151 0 -278.5 71t-201 193.5t-73.5 267.5q0 109 43.5 208t117.5 170t176.5 112.5t215.5 41.5q164 0 299 -83q-77 204 -221 317l-107 -135l-63 49l104 133q-138 85 -313 88
l35 148q201 0 374 -115l93 117l63 -47zM635 141q154 0 261.5 108t107.5 263t-107.5 264t-261.5 109q-155 0 -264 -109t-109 -264t109 -263t264 -108z" />
    <glyph glyph-name="ntilde" unicode="&#xf1;" horiz-adv-x="1204" 
d="M385 1219h-115q-17 115 39.5 189.5t153.5 74.5q117 0 190 -113q36 -59 92 -59q48 0 71 42.5t11 110.5h115q17 -113 -38 -188.5t-154 -75.5q-117 0 -191 111q-39 59 -92 59q-48 0 -71 -42t-11 -109zM659 1044q172 0 286 -112t114 -285v-647h-182v627q0 110 -76.5 184
t-190.5 74q-115 0 -195.5 -78t-80.5 -189v-618h-180v1024h165l9 -135q60 73 145.5 114t185.5 41z" />
    <glyph glyph-name="ograve" unicode="&#xf2;" horiz-adv-x="1161" 
d="M500 1219l-226 317h187l184 -317h-145zM582 -20q-220 0 -360 153.5t-140 378.5q0 148 62 269t177 192t261 71q145 0 260 -71t177 -192t62 -269q0 -147 -62 -268t-177 -192.5t-260 -71.5zM582 141q145 0 233 106t88 265t-88.5 266t-232.5 107q-147 0 -234.5 -106.5
t-87.5 -266.5t87.5 -265.5t234.5 -105.5z" />
    <glyph glyph-name="oacute" unicode="&#xf3;" horiz-adv-x="1161" 
d="M510 1219l184 317h187l-224 -317h-147zM582 -20q-220 0 -360 153.5t-140 378.5q0 148 62 269t177 192t261 71q145 0 260 -71t177 -192t62 -269q0 -147 -62 -268t-177 -192.5t-260 -71.5zM582 141q145 0 233 106t88 265t-88.5 266t-232.5 107q-147 0 -234.5 -106.5
t-87.5 -266.5t87.5 -265.5t234.5 -105.5z" />
    <glyph glyph-name="ocircumflex" unicode="&#xf4;" horiz-adv-x="1161" 
d="M274 1186l209 350h193l209 -350h-148l-157 262l-158 -262h-148zM582 -20q-220 0 -360 153.5t-140 378.5q0 148 62 269t177 192t261 71q145 0 260 -71t177 -192t62 -269q0 -147 -62 -268t-177 -192.5t-260 -71.5zM582 141q145 0 233 106t88 265t-88.5 266t-232.5 107
q-147 0 -234.5 -106.5t-87.5 -266.5t87.5 -265.5t234.5 -105.5z" />
    <glyph glyph-name="otilde" unicode="&#xf5;" horiz-adv-x="1161" 
d="M725 1200q-116 0 -190 111q-39 59 -93 59q-48 0 -71 -42t-11 -109h-114q-17 115 39 189.5t153 74.5q118 0 191 -113q36 -59 92 -59q48 0 71 42.5t11 110.5h115q17 -113 -38.5 -188.5t-154.5 -75.5zM582 -20q-220 0 -360 153.5t-140 378.5q0 148 62 269t177 192t261 71
q145 0 260 -71t177 -192t62 -269q0 -147 -62 -268t-177 -192.5t-260 -71.5zM582 141q145 0 233 106t88 265t-88.5 266t-232.5 107q-147 0 -234.5 -106.5t-87.5 -266.5t87.5 -265.5t234.5 -105.5z" />
    <glyph glyph-name="odieresis" unicode="&#xf6;" horiz-adv-x="1161" 
d="M389 1214q-50 0 -85.5 34t-35.5 83q0 51 35.5 86t85.5 35t84.5 -35t34.5 -86q0 -49 -34.5 -83t-84.5 -34zM772 1214q-48 0 -83.5 34t-35.5 83q0 50 35.5 85.5t83.5 35.5q50 0 84.5 -35t34.5 -86q0 -49 -34.5 -83t-84.5 -34zM582 -20q-220 0 -360 153.5t-140 378.5
q0 148 62 269t177 192t261 71q145 0 260 -71t177 -192t62 -269q0 -147 -62 -268t-177 -192.5t-260 -71.5zM582 141q145 0 233 106t88 265t-88.5 266t-232.5 107q-147 0 -234.5 -106.5t-87.5 -266.5t87.5 -265.5t234.5 -105.5z" />
    <glyph glyph-name="divide" unicode="&#xf7;" horiz-adv-x="1476" 
d="M737 803q-43 0 -75.5 31.5t-32.5 76.5q0 44 32.5 76.5t75.5 32.5q44 0 77.5 -32.5t33.5 -76.5q0 -45 -33 -76.5t-78 -31.5zM123 514v98h1229v-98h-1229zM737 106q-43 0 -75.5 32t-32.5 77q0 44 32.5 76.5t75.5 32.5q44 0 77.5 -32.5t33.5 -76.5q0 -45 -33 -77t-78 -32z
" />
    <glyph glyph-name="oslash" unicode="&#xf8;" horiz-adv-x="1161" 
d="M907 924q82 -73 128 -180t46 -232q0 -147 -62 -268t-177 -192.5t-260 -71.5q-146 0 -263 71l-75 -114h-97l109 161q-83 72 -128.5 180t-45.5 234q0 148 62 269t177 192t261 71q147 0 262 -73l78 116h94zM260 512q0 -164 92 -270l400 592q-73 51 -170 51
q-147 0 -234.5 -106.5t-87.5 -266.5zM582 141q145 0 233 106t88 265q0 160 -92 270l-399 -594q71 -47 170 -47z" />
    <glyph glyph-name="ugrave" unicode="&#xf9;" horiz-adv-x="1216" 
d="M674 1219h-146l-225 317h186zM881 1024h182v-1024h-166l-10 137q-58 -73 -143 -115t-183 -42q-170 0 -286.5 119t-116.5 288v637h180v-618q0 -110 78 -187.5t190 -77.5q114 0 194.5 77.5t80.5 187.5v618z" />
    <glyph glyph-name="uacute" unicode="&#xfa;" horiz-adv-x="1216" 
d="M909 1536l-223 -317h-147l184 317h186zM881 1024h182v-1024h-166l-10 137q-58 -73 -143 -115t-183 -42q-170 0 -286.5 119t-116.5 288v637h180v-618q0 -110 78 -187.5t190 -77.5q114 0 194.5 77.5t80.5 187.5v618z" />
    <glyph glyph-name="ucircumflex" unicode="&#xfb;" horiz-adv-x="1216" 
d="M608 1448l-157 -262h-148l209 350h193l208 -350h-147zM881 1024h182v-1024h-166l-10 137q-58 -73 -143 -115t-183 -42q-170 0 -286.5 119t-116.5 288v637h180v-618q0 -110 78 -187.5t190 -77.5q114 0 194.5 77.5t80.5 187.5v618z" />
    <glyph glyph-name="udieresis" unicode="&#xfc;" horiz-adv-x="1216" 
d="M418 1214q-50 0 -85.5 34t-35.5 83q0 51 35.5 86t85.5 35t84.5 -35t34.5 -86q0 -49 -34.5 -83t-84.5 -34zM801 1214q-48 0 -83.5 34t-35.5 83q0 50 35.5 85.5t83.5 35.5q50 0 84.5 -35t34.5 -86q0 -49 -34.5 -83t-84.5 -34zM881 1024h182v-1024h-166l-10 137
q-58 -73 -143 -115t-183 -42q-170 0 -286.5 119t-116.5 288v637h180v-618q0 -110 78 -187.5t190 -77.5q114 0 194.5 77.5t80.5 187.5v618z" />
    <glyph glyph-name="yacute" unicode="&#xfd;" horiz-adv-x="1216" 
d="M909 1536l-223 -317h-147l184 317h186zM1063 1024v-1051q0 -143 -53.5 -253.5t-167 -177t-273.5 -66.5q-205 0 -356 98v197q153 -133 371 -133q149 0 223 88t74 247v158q-58 -71 -141 -111t-179 -40q-170 0 -286.5 119t-116.5 288v637h180v-618q0 -110 78 -187.5
t190 -77.5q114 0 194.5 77.5t80.5 187.5v618h182z" />
    <glyph glyph-name="thorn" unicode="&#xfe;" horiz-adv-x="1329" 
d="M731 1044q107 0 202.5 -41.5t164 -112.5t109 -169.5t40.5 -208.5q0 -145 -68 -267.5t-187 -193.5t-261 -71q-123 0 -226 55t-171 151v-696h-180v2046h180v-698q68 96 171 151t226 55zM707 141q155 0 262.5 108t107.5 263q0 156 -107.5 264.5t-262.5 108.5
q-154 0 -262.5 -109t-108.5 -264t108.5 -263t262.5 -108z" />
    <glyph glyph-name="ydieresis" unicode="&#xff;" horiz-adv-x="1216" 
d="M418 1214q-50 0 -85.5 34t-35.5 83q0 51 35.5 86t85.5 35t84.5 -35t34.5 -86q0 -49 -34.5 -83t-84.5 -34zM801 1214q-48 0 -83.5 34t-35.5 83q0 50 35.5 85.5t83.5 35.5q50 0 84.5 -35t34.5 -86q0 -49 -34.5 -83t-84.5 -34zM1063 1024v-1051q0 -143 -53.5 -253.5
t-167 -177t-273.5 -66.5q-205 0 -356 98v197q153 -133 371 -133q149 0 223 88t74 247v158q-58 -71 -141 -111t-179 -40q-170 0 -286.5 119t-116.5 288v637h180v-618q0 -110 78 -187.5t190 -77.5q114 0 194.5 77.5t80.5 187.5v618h182z" />
    <glyph glyph-name="Amacron" unicode="&#x100;" horiz-adv-x="1521" 
d="M1077 1864v-121h-635v121h635zM1278 0l-125 322h-786l-125 -322h-203l616 1536h209l617 -1536h-203zM426 479h668l-334 864z" />
    <glyph glyph-name="amacron" unicode="&#x101;" horiz-adv-x="1099" 
d="M872 1352v-121h-634v121h634zM530 1044q90 0 166 -24t134 -71t91 -122.5t33 -171.5v-655h-159l-11 145q-187 -165 -378 -165q-137 0 -225.5 88.5t-88.5 224.5q0 71 27.5 129.5t87.5 103.5t154.5 58t228.5 -6l186 -31v121q0 111 -71 167t-183 56q-181 0 -274 -141
l-125 110q127 184 407 184zM276 301q0 -72 47 -116t123 -44q160 0 330 156v117l-168 28q-178 32 -255 -11t-77 -130z" />
    <glyph glyph-name="Abreve" unicode="&#x102;" horiz-adv-x="1521" 
d="M760 1669q-151 0 -246.5 86.5t-95.5 233.5h112q0 -86 66 -146.5t164 -60.5q100 0 165.5 60.5t65.5 146.5h111q0 -147 -95 -233.5t-247 -86.5zM1278 0l-125 322h-786l-125 -322h-203l616 1536h209l617 -1536h-203zM426 479h668l-334 864z" />
    <glyph glyph-name="abreve" unicode="&#x103;" horiz-adv-x="1099" 
d="M555 1157q-151 0 -246.5 86.5t-95.5 233.5h113q0 -86 65.5 -146.5t163.5 -60.5q100 0 165.5 60.5t65.5 146.5h111q0 -147 -95 -233.5t-247 -86.5zM530 1044q90 0 166 -24t134 -71t91 -122.5t33 -171.5v-655h-159l-11 145q-187 -165 -378 -165q-137 0 -225.5 88.5
t-88.5 224.5q0 71 27.5 129.5t87.5 103.5t154.5 58t228.5 -6l186 -31v121q0 111 -71 167t-183 56q-181 0 -274 -141l-125 110q127 184 407 184zM276 301q0 -72 47 -116t123 -44q160 0 330 156v117l-168 28q-178 32 -255 -11t-77 -130z" />
    <glyph glyph-name="Aogonek" unicode="&#x104;" horiz-adv-x="1521" 
d="M1540 -338l59 -88q-114 -114 -280 -104q-106 5 -170 61.5t-64 153.5q0 183 242 315h-49l-125 322h-786l-125 -322h-203l616 1536h209l617 -1536q-100 -20 -184.5 -109.5t-84.5 -191.5q0 -59 36 -96t100 -37q56 0 107 25.5t85 70.5zM426 479h668l-334 864z" />
    <glyph glyph-name="aogonek" unicode="&#x105;" horiz-adv-x="1099" 
d="M1014 -338l59 -88q-114 -114 -280 -104q-106 5 -170 61.5t-64 153.5q0 183 242 315h-6l-11 145q-187 -165 -378 -165q-137 0 -225.5 88.5t-88.5 224.5q0 71 27.5 129.5t87.5 103.5t154.5 58t228.5 -6l186 -31v121q0 111 -71 167t-183 56q-181 0 -274 -141l-125 110
q127 184 407 184q90 0 166 -24t134 -71t91 -122.5t33 -171.5v-655q-100 -20 -184 -109.5t-84 -191.5q0 -59 35.5 -96t99.5 -37q57 0 108 25.5t85 70.5zM276 301q0 -72 47 -116t123 -44q160 0 330 156v117l-168 28q-178 32 -255 -11t-77 -130z" />
    <glyph glyph-name="Cacute" unicode="&#x106;" horiz-adv-x="1368" 
d="M784 1731l185 317h186l-223 -317h-148zM854 -20q-213 0 -386 106t-268.5 286t-95.5 396t95.5 396t268.5 286t386 106q232 0 418 -143v-225q-175 190 -418 190q-167 0 -299 -81t-203 -220t-71 -309t71 -309t203 -220t299 -81q246 0 418 190v-225q-186 -143 -418 -143z" />
    <glyph glyph-name="cacute" unicode="&#x107;" horiz-adv-x="911" 
d="M481 1219l185 317h186l-223 -317h-148zM565 -20q-147 0 -258 69.5t-168 189.5t-57 273t57 273t168 189.5t258 69.5q158 0 264 -81v-183q-45 51 -110 81t-135 30q-149 0 -236.5 -107t-87.5 -272t87.5 -272t236.5 -107q72 0 136.5 30t108.5 81v-181q-106 -83 -264 -83z" />
    <glyph glyph-name="Cdotaccent" unicode="&#x10a;" horiz-adv-x="1368" 
d="M854 1726q-50 0 -85.5 34t-35.5 83q0 51 35.5 86t85.5 35t84.5 -35t34.5 -86q0 -49 -34.5 -83t-84.5 -34zM854 -20q-213 0 -386 106t-268.5 286t-95.5 396t95.5 396t268.5 286t386 106q232 0 418 -143v-225q-175 190 -418 190q-167 0 -299 -81t-203 -220t-71 -309
t71 -309t203 -220t299 -81q246 0 418 190v-225q-186 -143 -418 -143z" />
    <glyph glyph-name="cdotaccent" unicode="&#x10b;" horiz-adv-x="911" 
d="M553 1214q-50 0 -85.5 34t-35.5 83q0 51 35.5 86t85.5 35t84.5 -35t34.5 -86q0 -49 -34.5 -83t-84.5 -34zM565 -20q-147 0 -258 69.5t-168 189.5t-57 273t57 273t168 189.5t258 69.5q158 0 264 -81v-183q-45 51 -110 81t-135 30q-149 0 -236.5 -107t-87.5 -272t87.5 -272
t236.5 -107q72 0 136.5 30t108.5 81v-181q-106 -83 -264 -83z" />
    <glyph glyph-name="Ccaron" unicode="&#x10c;" horiz-adv-x="1368" 
d="M758 1698l-209 350h143l162 -258l164 258h141l-209 -350h-192zM854 -20q-213 0 -386 106t-268.5 286t-95.5 396t95.5 396t268.5 286t386 106q232 0 418 -143v-225q-175 190 -418 190q-167 0 -299 -81t-203 -220t-71 -309t71 -309t203 -220t299 -81q246 0 418 190v-225
q-186 -143 -418 -143z" />
    <glyph glyph-name="ccaron" unicode="&#x10d;" horiz-adv-x="911" 
d="M455 1186l-209 350h143l162 -258l164 258h141l-209 -350h-192zM565 -20q-147 0 -258 69.5t-168 189.5t-57 273t57 273t168 189.5t258 69.5q158 0 264 -81v-183q-45 51 -110 81t-135 30q-149 0 -236.5 -107t-87.5 -272t87.5 -272t236.5 -107q72 0 136.5 30t108.5 81v-181
q-106 -83 -264 -83z" />
    <glyph glyph-name="Dcaron" unicode="&#x10e;" horiz-adv-x="1456" 
d="M485 1698l-209 350h144l162 -258l163 258h142l-209 -350h-193zM154 0v1536h430q209 0 385.5 -103t279.5 -279.5t103 -385.5t-103 -385.5t-279.5 -279.5t-385.5 -103h-430zM340 166h244q159 0 293 80t211 218.5t77 303.5t-77 303.5t-211 218.5t-293 80h-244v-1204z" />
    <glyph glyph-name="dcaron" unicode="&#x10f;" horiz-adv-x="1572" 
d="M1440 1546q67 0 102 -61.5t35 -153.5q0 -89 -27.5 -175.5t-85 -147.5t-131.5 -62v88q55 3 93 77t38 142q0 54 -26 54q-50 0 -84.5 34.5t-34.5 85.5t35 85t86 34zM889 885v651h176v-1536h-162l-8 147q-132 -167 -342 -167q-106 0 -195 41.5t-149 113t-93.5 169
t-33.5 208.5t33.5 208.5t93.5 169t149 113t195 41.5q102 0 188.5 -42t147.5 -117zM582 141q109 0 193 72.5t114 187.5v222q-30 116 -114 189t-193 73q-147 0 -234.5 -106.5t-87.5 -266.5t87.5 -265.5t234.5 -105.5z" />
    <glyph glyph-name="Dcroat" unicode="&#x110;" horiz-adv-x="1456" 
d="M584 1536q209 0 385.5 -103t279.5 -279.5t103 -385.5t-103 -385.5t-279.5 -279.5t-385.5 -103h-430v705h-158v129h158v702h430zM584 166q159 0 293 80t211 218.5t77 303.5t-77 303.5t-211 218.5t-293 80h-244v-536h268v-129h-268v-539h244z" />
    <glyph glyph-name="dcroat" unicode="&#x111;" horiz-adv-x="1218" 
d="M1217 1333v-129h-152v-1204h-162l-8 147q-132 -167 -342 -167q-106 0 -195 41.5t-149 113t-93.5 169t-33.5 208.5t33.5 208.5t93.5 169t149 113t195 41.5q102 0 188.5 -42t147.5 -117v319h-285v129h285v203h176v-203h152zM582 141q109 0 193 72.5t114 187.5v222
q-30 116 -114 189t-193 73q-147 0 -234.5 -106.5t-87.5 -266.5t87.5 -265.5t234.5 -105.5z" />
    <glyph glyph-name="Emacron" unicode="&#x112;" horiz-adv-x="1110" 
d="M895 1864v-121h-635v121h635zM1004 1370h-664v-518h578v-168h-578v-518h664v-166h-850v1536h850v-166z" />
    <glyph glyph-name="emacron" unicode="&#x113;" horiz-adv-x="1116" 
d="M889 1358v-121h-635v121h635zM1034 512q0 -39 -2 -59h-774q14 -145 96 -230.5t221 -85.5q94 0 158 38t125 132l127 -88q-132 -239 -416 -239q-223 0 -355 148.5t-132 381.5t132.5 383.5t354.5 150.5q216 0 340.5 -147t124.5 -385zM573 889q-130 0 -210 -79.5t-101 -215.5
h608q-14 137 -91 216t-206 79z" />
    <glyph glyph-name="Edotaccent" unicode="&#x116;" horiz-adv-x="1110" 
d="M580 1726q-50 0 -85.5 34t-35.5 83q0 51 35.5 86t85.5 35t84 -35t34 -86q0 -49 -34 -83t-84 -34zM1004 1370h-664v-518h578v-168h-578v-518h664v-166h-850v1536h850v-166z" />
    <glyph glyph-name="edotaccent" unicode="&#x117;" horiz-adv-x="1116" 
d="M571 1221q-50 0 -85 33.5t-35 82.5q0 51 35 86t85 35t84.5 -35t34.5 -86q0 -49 -34.5 -82.5t-84.5 -33.5zM1034 512q0 -39 -2 -59h-774q14 -145 96 -230.5t221 -85.5q94 0 158 38t125 132l127 -88q-132 -239 -416 -239q-223 0 -355 148.5t-132 381.5t132.5 383.5
t354.5 150.5q216 0 340.5 -147t124.5 -385zM573 889q-130 0 -210 -79.5t-101 -215.5h608q-14 137 -91 216t-206 79z" />
    <glyph glyph-name="Eogonek" unicode="&#x118;" horiz-adv-x="1110" 
d="M1063 -338l59 -88q-114 -114 -280 -104q-106 5 -170 61.5t-64 153.5q0 183 242 315h-696v1536h850v-166h-664v-518h578v-168h-578v-518h664v-166q-100 -20 -184.5 -109.5t-84.5 -191.5q0 -59 35.5 -96t99.5 -37q57 0 108 25.5t85 70.5z" />
    <glyph glyph-name="eogonek" unicode="&#x119;" horiz-adv-x="1116" 
d="M780 -297q57 0 108 25.5t85 70.5l59 -88q-114 -114 -280 -104q-106 5 -170 61.5t-64 153.5q0 85 51 158q-223 0 -355 148.5t-132 381.5t132.5 383.5t354.5 150.5q216 0 340.5 -147t124.5 -385q0 -39 -2 -59h-774q14 -145 96 -230.5t221 -85.5q94 0 158 38t125 132
l127 -88q-97 -177 -283 -223q-57 -80 -57 -160q0 -59 35.5 -96t99.5 -37zM573 889q-130 0 -210 -79.5t-101 -215.5h608q-14 137 -91 216t-206 79z" />
    <glyph glyph-name="Ecaron" unicode="&#x11a;" horiz-adv-x="1110" 
d="M674 1698h-193l-209 350h144l162 -258l163 258h142zM1004 1370h-664v-518h578v-168h-578v-518h664v-166h-850v1536h850v-166z" />
    <glyph glyph-name="ecaron" unicode="&#x11b;" horiz-adv-x="1116" 
d="M668 1192h-193l-209 350h144l161 -258l164 258h142zM1034 512q0 -39 -2 -59h-774q14 -145 96 -230.5t221 -85.5q94 0 158 38t125 132l127 -88q-132 -239 -416 -239q-223 0 -355 148.5t-132 381.5t132.5 383.5t354.5 150.5q216 0 340.5 -147t124.5 -385zM573 889
q-130 0 -210 -79.5t-101 -215.5h608q-14 137 -91 216t-206 79z" />
    <glyph glyph-name="Gbreve" unicode="&#x11e;" horiz-adv-x="1515" 
d="M930 1669q-151 0 -246.5 86.5t-95.5 233.5h112q0 -86 66 -146.5t164 -60.5q100 0 165.5 60.5t65.5 146.5h111q0 -147 -95 -233.5t-247 -86.5zM926 1378q-125 0 -235.5 -44t-193 -122.5t-130.5 -195t-48 -254.5q0 -184 82.5 -326t220 -216.5t304.5 -74.5q139 0 270 64v444
h-356v168h522v-723q-208 -131 -438 -131q-127 0 -245 36.5t-214.5 107t-168.5 166t-111.5 220.5t-39.5 265q0 175 61.5 324.5t166.5 252t247 160t300 57.5q234 0 442 -131v-233q-79 87 -195 136.5t-241 49.5z" />
    <glyph glyph-name="gbreve" unicode="&#x11f;" horiz-adv-x="1220" 
d="M571 1157q-151 0 -246.5 86.5t-95.5 233.5h113q0 -86 65.5 -146.5t163.5 -60.5q100 0 166 60.5t66 146.5h110q0 -147 -95 -233.5t-247 -86.5zM903 1024h164v-1012q0 -228 -132 -376t-351 -148q-176 0 -316 96v197q140 -133 328 -133q131 0 212 99t81 265v129
q-132 -161 -336 -161q-106 0 -195 41.5t-149 113t-93.5 169t-33.5 208.5q0 150 56.5 270t165 191t249.5 71q103 0 191 -45t151 -125zM582 141q106 0 191 73.5t116 188.5v218q-31 116 -116 190t-191 74q-147 0 -234.5 -106.5t-87.5 -266.5q0 -159 87.5 -265t234.5 -106z" />
    <glyph glyph-name="Gdotaccent" unicode="&#x120;" horiz-adv-x="1515" 
d="M930 1726q-50 0 -85.5 34t-35.5 83q0 51 35.5 86t85.5 35t84.5 -35t34.5 -86q0 -49 -34.5 -83t-84.5 -34zM926 1378q-125 0 -235.5 -44t-193 -122.5t-130.5 -195t-48 -254.5q0 -184 82.5 -326t220 -216.5t304.5 -74.5q139 0 270 64v444h-356v168h522v-723
q-208 -131 -438 -131q-127 0 -245 36.5t-214.5 107t-168.5 166t-111.5 220.5t-39.5 265q0 175 61.5 324.5t166.5 252t247 160t300 57.5q234 0 442 -131v-233q-79 87 -195 136.5t-241 49.5z" />
    <glyph glyph-name="gdotaccent" unicode="&#x121;" horiz-adv-x="1220" 
d="M573 1214q-50 0 -85 34t-35 83q0 51 35 86t85 35t84.5 -35t34.5 -86q0 -49 -34.5 -83t-84.5 -34zM903 1024h164v-1012q0 -228 -132 -376t-351 -148q-176 0 -316 96v197q140 -133 328 -133q131 0 212 99t81 265v129q-132 -161 -336 -161q-106 0 -195 41.5t-149 113
t-93.5 169t-33.5 208.5q0 150 56.5 270t165 191t249.5 71q103 0 191 -45t151 -125zM582 141q106 0 191 73.5t116 188.5v218q-31 116 -116 190t-191 74q-147 0 -234.5 -106.5t-87.5 -266.5q0 -159 87.5 -265t234.5 -106z" />
    <glyph glyph-name="Gcommaaccent" unicode="&#x122;" horiz-adv-x="1515" 
d="M926 1378q-125 0 -235.5 -44t-193 -122.5t-130.5 -195t-48 -254.5q0 -184 82.5 -326t220 -216.5t304.5 -74.5q139 0 270 64v444h-356v168h522v-723q-208 -131 -438 -131q-127 0 -245 36.5t-214.5 107t-168.5 166t-111.5 220.5t-39.5 265q0 175 61.5 324.5t166.5 252
t247 160t300 57.5q234 0 442 -131v-233q-79 87 -195 136.5t-241 49.5zM918 -82q52 0 86 -37t34 -94q0 -92 -25 -170t-77.5 -128.5t-122.5 -47.5v70q49 2 81 45t31 79.5t-10 42.5q-51 0 -83.5 33.5t-32.5 85.5q0 53 33.5 87t85.5 34z" />
    <glyph glyph-name="gcommaaccent" unicode="&#x123;" horiz-adv-x="1220" 
d="M573 1184q-51 0 -85.5 37.5t-34.5 93.5q-1 84 36.5 166t90 130t98.5 50v-68q-42 -16 -73.5 -59.5t-35.5 -74t4 -36.5q51 0 85 -33t34 -83q0 -51 -34 -87t-85 -36zM903 1024h164v-1012q0 -228 -132 -376t-351 -148q-176 0 -316 96v197q140 -133 328 -133q131 0 212 99
t81 265v129q-132 -161 -336 -161q-106 0 -195 41.5t-149 113t-93.5 169t-33.5 208.5q0 150 56.5 270t165 191t249.5 71q103 0 191 -45t151 -125zM582 141q106 0 191 73.5t116 188.5v218q-31 116 -116 190t-191 74q-147 0 -234.5 -106.5t-87.5 -266.5q0 -159 87.5 -265
t234.5 -106z" />
    <glyph glyph-name="Hbar" unicode="&#x126;" horiz-adv-x="1497" 
d="M1483 1241v-82h-140v-1159h-186v684h-817v-684h-186v1159h-142v82h142v295h186v-295h817v295h186v-295h140zM1157 852v307h-817v-307h817z" />
    <glyph glyph-name="hbar" unicode="&#x127;" horiz-adv-x="1204" 
d="M659 1044q172 0 286 -112t114 -285v-647h-182v627q0 110 -76.5 184t-190.5 74q-115 0 -195.5 -78t-80.5 -189v-618h-180v1212h-115v129h115v195h180v-195h317v-129h-317v-317q60 70 143.5 109.5t181.5 39.5z" />
    <glyph glyph-name="Itilde" unicode="&#x128;" horiz-adv-x="493" 
d="M389 1712q-116 0 -190 111q-39 59 -93 59q-47 0 -70 -42t-11 -109h-115q-17 115 39 189.5t153 74.5q118 0 191 -113q36 -59 92 -59q48 0 71 42.5t11 110.5h115q17 -113 -38.5 -188.5t-154.5 -75.5zM154 0v1536h186v-1536h-186z" />
    <glyph glyph-name="itilde" unicode="&#x129;" horiz-adv-x="487" 
d="M387 1200q-116 0 -190 111q-39 59 -93 59q-47 0 -70 -42t-11 -109h-115q-17 115 39 189.5t153 74.5q118 0 191 -113q36 -59 92 -59q48 0 71 42.5t11 110.5h115q17 -113 -38.5 -188.5t-154.5 -75.5zM154 0v1024h180v-1024h-180z" />
    <glyph glyph-name="Imacron" unicode="&#x12a;" horiz-adv-x="493" 
d="M-72 1743v121h635v-121h-635zM154 0v1536h186v-1536h-186z" />
    <glyph glyph-name="imacron" unicode="&#x12b;" horiz-adv-x="487" 
d="M-74 1231v121h635v-121h-635zM154 0v1024h180v-1024h-180z" />
    <glyph glyph-name="Iogonek" unicode="&#x12e;" horiz-adv-x="493" 
d="M381 -338l59 -88q-114 -114 -280 -104q-106 5 -170 61.5t-64 153.5q0 183 242 315h-14v1536h186v-1536h-18q-100 -20 -184.5 -109.5t-84.5 -191.5q0 -59 35.5 -96t99.5 -37q57 0 108 25.5t85 70.5z" />
    <glyph glyph-name="iogonek" unicode="&#x12f;" horiz-adv-x="487" 
d="M246 1214q-50 0 -85.5 34t-35.5 83q0 51 35.5 86t85.5 35t84.5 -35t34.5 -86q0 -49 -34.5 -83t-84.5 -34zM379 -338l59 -88q-114 -114 -280 -104q-106 5 -170 61.5t-64 153.5q0 183 242 315h-12v1024h180v-1024h-15q-100 -20 -184 -109.5t-84 -191.5q0 -59 35.5 -96
t99.5 -37q57 0 108 25.5t85 70.5z" />
    <glyph glyph-name="Idotaccent" unicode="&#x130;" horiz-adv-x="493" 
d="M246 1726q-50 0 -85.5 34t-35.5 83q0 51 35.5 86t85.5 35t84.5 -35t34.5 -86q0 -49 -34.5 -83t-84.5 -34zM154 0v1536h186v-1536h-186z" />
    <glyph glyph-name="dotlessi" unicode="&#x131;" horiz-adv-x="487" 
d="M154 0v1024h180v-1024h-180z" />
    <glyph glyph-name="IJ" unicode="&#x132;" horiz-adv-x="1269" 
d="M154 0v1536h186v-1536h-186zM748 -20q-94 0 -152 20v190q74 -24 152 -24q70 0 121 51t51 121v1198h186v-1198q0 -149 -105 -253.5t-253 -104.5z" />
    <glyph glyph-name="ij" unicode="&#x133;" horiz-adv-x="1101" 
d="M864 1214q-50 0 -85.5 34t-35.5 83q0 51 35.5 86t85.5 35t84.5 -35t34.5 -86q0 -49 -34.5 -83t-84.5 -34zM281 1214q-50 0 -85.5 34t-35.5 83q0 51 35.5 86t85.5 35q48 0 83 -35.5t35 -85.5q0 -49 -35 -83t-83 -34zM188 0v1024h181v-1024h-181zM641 -532q-35 0 -74 9.5
t-59 22.5v158q21 -17 53.5 -28t59.5 -11q65 0 109 46.5t44 115.5v1243h180v-1253q0 -128 -90.5 -215.5t-222.5 -87.5z" />
    <glyph glyph-name="Kcommaaccent" unicode="&#x136;" horiz-adv-x="1277" 
d="M532 846l687 -662v-245l-879 849v-788h-186v1536h186v-645l631 645h241zM647 -82q53 0 87 -37t34 -94q0 -92 -25 -170t-77.5 -128.5t-122.5 -47.5v70q49 2 81 45t31 79.5t-10 42.5q-51 0 -84 33.5t-33 85.5q0 53 33.5 87t85.5 34z" />
    <glyph glyph-name="kcommaaccent" unicode="&#x137;" horiz-adv-x="1038" 
d="M508 573l506 -454v-221l-680 610v-508h-180v1536h180v-911l434 399h229zM526 -82q53 0 87 -37t34 -94q0 -92 -25 -170t-77.5 -128.5t-122.5 -47.5v70q49 2 81 45t31 79.5t-10 42.5q-51 0 -83.5 33.5t-32.5 85.5q0 53 33 87t85 34z" />
    <glyph glyph-name="Lacute" unicode="&#x139;" horiz-adv-x="972" 
d="M176 1731l184 317h187l-223 -317h-148zM154 0v1536h186v-1370h563v-166h-749z" />
    <glyph glyph-name="lacute" unicode="&#x13a;" horiz-adv-x="669" 
d="M172 1731l184 317h187l-224 -317h-147zM475 -20q-143 0 -228 84.5t-85 222.5v1249h180l2 -1249q0 -74 35.5 -113t99.5 -39q67 0 111 47l100 -123q-76 -79 -215 -79z" />
    <glyph glyph-name="Lcommaaccent" unicode="&#x13b;" horiz-adv-x="972" 
d="M154 0v1536h186v-1370h563v-166h-749zM426 -559v70q49 2 81 45t31 79.5t-10 42.5q-51 0 -83.5 33.5t-32.5 85.5q0 53 33 87t85 34q53 0 87 -37t34 -94q0 -92 -25 -170t-77.5 -128.5t-122.5 -47.5z" />
    <glyph glyph-name="lcommaaccent" unicode="&#x13c;" horiz-adv-x="669" 
d="M475 -20q-143 0 -228 84.5t-85 222.5v1249h180l2 -1249q0 -74 35.5 -113t99.5 -39q67 0 111 47l100 -123q-76 -79 -215 -79zM332 -559v70q49 2 81 45t31 79.5t-10 42.5q-51 0 -84 33.5t-33 85.5q0 53 33.5 87t85.5 34q53 0 87 -37t34 -94q0 -92 -25 -170t-77.5 -128.5
t-122.5 -47.5z" />
    <glyph glyph-name="Lcaron" unicode="&#x13d;" horiz-adv-x="1003" 
d="M688 946v88q55 3 93 77t38 142q0 54 -26 54q-50 0 -84.5 34.5t-34.5 85.5t35 85t86 34q67 0 102 -61.5t35 -153.5q0 -89 -27.5 -175.5t-85 -147.5t-131.5 -62zM154 0v1536h186v-1370h563v-166h-749z" />
    <glyph glyph-name="lcaron" unicode="&#x13e;" horiz-adv-x="716" 
d="M494 946v88q36 2 67 41t46.5 88t15.5 90q0 54 -27 54q-50 0 -83.5 34.5t-33.5 85.5t34 85t85 34q67 0 103 -61.5t36 -153.5q0 -89 -27.5 -175.5t-85 -147.5t-130.5 -62zM475 -20q-143 0 -228 84.5t-85 222.5v1249h180l2 -1249q0 -74 35.5 -113t99.5 -39q67 0 111 47
l100 -123q-76 -79 -215 -79z" />
    <glyph glyph-name="ldot" unicode="&#x140;" horiz-adv-x="669" 
d="M475 -20q-143 0 -228 84.5t-85 222.5v1249h180l2 -1249q0 -74 35.5 -113t99.5 -39q67 0 111 47l100 -123q-76 -79 -215 -79zM506 643q-39 0 -67.5 27t-28.5 67q0 38 29 67.5t67 29.5t67 -29.5t29 -67.5q0 -40 -28.5 -67t-67.5 -27z" />
    <glyph glyph-name="Lslash" unicode="&#x141;" horiz-adv-x="972" 
d="M340 166h563v-166h-749v600l-103 -106h-135l238 251v791h186v-592l96 103h144l-240 -250v-631z" />
    <glyph glyph-name="lslash" unicode="&#x142;" horiz-adv-x="669" 
d="M590 182l100 -123q-76 -79 -215 -79q-143 0 -228 84.5t-85 222.5v301l-115 -119h-135l250 264v803h180v-608l90 94h143l-233 -244l2 -491q0 -74 35.5 -113t99.5 -39q67 0 111 47z" />
    <glyph glyph-name="Nacute" unicode="&#x143;" horiz-adv-x="1593" 
d="M1094 2048l-224 -317h-147l184 317h187zM1255 1536h185v-1536h-178l-922 1235v-1235h-186v1536h178l923 -1237v1237z" />
    <glyph glyph-name="nacute" unicode="&#x144;" horiz-adv-x="1204" 
d="M907 1536l-223 -317h-147l184 317h186zM659 1044q172 0 286 -112t114 -285v-647h-182v627q0 110 -76.5 184t-190.5 74q-115 0 -195.5 -78t-80.5 -189v-618h-180v1024h165l9 -135q60 73 145.5 114t185.5 41z" />
    <glyph glyph-name="Ncommaaccent" unicode="&#x145;" horiz-adv-x="1593" 
d="M1255 1536h185v-1536h-178l-922 1235v-1235h-186v1536h178l923 -1237v1237zM805 -82q53 0 87 -37t34 -94q0 -92 -25 -170t-78 -128.5t-123 -47.5v70q49 2 81 45t31.5 79.5t-9.5 42.5q-51 0 -84 33.5t-33 85.5q0 53 33.5 87t85.5 34z" />
    <glyph glyph-name="ncommaaccent" unicode="&#x146;" horiz-adv-x="1204" 
d="M659 1044q172 0 286 -112t114 -285v-647h-182v627q0 110 -76.5 184t-190.5 74q-115 0 -195.5 -78t-80.5 -189v-618h-180v1024h165l9 -135q60 73 145.5 114t185.5 41zM608 -82q53 0 87 -37t34 -94q0 -92 -25 -170t-77.5 -128.5t-122.5 -47.5v70q49 2 81 45t31 79.5
t-10 42.5q-51 0 -84 33.5t-33 85.5q0 53 33.5 87t85.5 34z" />
    <glyph glyph-name="Ncaron" unicode="&#x147;" horiz-adv-x="1593" 
d="M889 1698h-193l-209 350h144l162 -258l163 258h142zM1255 1536h185v-1536h-178l-922 1235v-1235h-186v1536h178l923 -1237v1237z" />
    <glyph glyph-name="ncaron" unicode="&#x148;" horiz-adv-x="1204" 
d="M702 1186h-192l-209 350h143l162 -258l164 258h141zM659 1044q172 0 286 -112t114 -285v-647h-182v627q0 110 -76.5 184t-190.5 74q-115 0 -195.5 -78t-80.5 -189v-618h-180v1024h165l9 -135q60 73 145.5 114t185.5 41z" />
    <glyph glyph-name="Eng" unicode="&#x14a;" horiz-adv-x="1652" 
d="M1284 1536h182v-1688q0 -134 -91 -199.5t-234 -62.5v125q65 -3 102 26.5t37 110.5v172l-913 1207v-1227h-183v1536h174l926 -1225v1225z" />
    <glyph glyph-name="eng" unicode="&#x14b;" horiz-adv-x="1255" 
d="M688 1044q167 0 284.5 -118t117.5 -287v-803q0 -131 -91.5 -197.5t-234.5 -64.5v127q143 -8 143 135v782q0 111 -77 189t-187 78q-115 0 -195.5 -78t-80.5 -189v-618h-183v1024h183v-147q57 78 140.5 122.5t180.5 44.5z" />
    <glyph glyph-name="Omacron" unicode="&#x14c;" horiz-adv-x="1708" 
d="M537 1743v121h634v-121h-634zM854 -20q-213 0 -386 106t-268.5 286t-95.5 396t95.5 396t268.5 286t386 106q160 0 300 -62t238.5 -168t155 -251t56.5 -307t-56.5 -307t-155 -251t-238.5 -168t-300 -62zM854 158q167 0 298.5 81t202 220t70.5 309t-70.5 309t-202 220
t-298.5 81t-298.5 -81t-203 -220t-71.5 -309t71.5 -309t203 -220t298.5 -81z" />
    <glyph glyph-name="omacron" unicode="&#x14d;" horiz-adv-x="1161" 
d="M262 1231v121h635v-121h-635zM582 -20q-220 0 -360 153.5t-140 378.5q0 148 62 269t177 192t261 71q145 0 260 -71t177 -192t62 -269q0 -147 -62 -268t-177 -192.5t-260 -71.5zM582 141q145 0 233 106t88 265t-88.5 266t-232.5 107q-147 0 -234.5 -106.5t-87.5 -266.5
t87.5 -265.5t234.5 -105.5z" />
    <glyph glyph-name="Ohungarumlaut" unicode="&#x150;" horiz-adv-x="1708" 
d="M612 1692l301 356h177l-340 -356h-138zM965 1692l299 356h176l-340 -356h-135zM854 -20q-213 0 -386 106t-268.5 286t-95.5 396t95.5 396t268.5 286t386 106q160 0 300 -62t238.5 -168t155 -251t56.5 -307t-56.5 -307t-155 -251t-238.5 -168t-300 -62zM854 158
q167 0 298.5 81t202 220t70.5 309t-70.5 309t-202 220t-298.5 81t-298.5 -81t-203 -220t-71.5 -309t71.5 -309t203 -220t298.5 -81z" />
    <glyph glyph-name="ohungarumlaut" unicode="&#x151;" horiz-adv-x="1161" 
d="M338 1180l301 356h176l-340 -356h-137zM690 1180l299 356h176l-340 -356h-135zM582 -20q-220 0 -360 153.5t-140 378.5q0 148 62 269t177 192t261 71q145 0 260 -71t177 -192t62 -269q0 -147 -62 -268t-177 -192.5t-260 -71.5zM582 141q145 0 233 106t88 265t-88.5 266
t-232.5 107q-147 0 -234.5 -106.5t-87.5 -266.5t87.5 -265.5t234.5 -105.5z" />
    <glyph glyph-name="OE" unicode="&#x152;" horiz-adv-x="2574" 
d="M2390 1376h-670v-528h582v-160h-582v-528h670v-160h-821v301q-111 -149 -277.5 -235t-359.5 -86q-161 0 -307 62.5t-251.5 167.5t-168 251t-62.5 307t62.5 307t168 251t251.5 167.5t307 62.5q193 0 359.5 -86t277.5 -235v301h821v-160zM934 160q166 0 306 81t221 221
t81 306t-81 306.5t-221 222t-306 81.5q-167 0 -307 -81.5t-220.5 -221.5t-80.5 -307q0 -166 80.5 -306t220.5 -221t307 -81z" />
    <glyph glyph-name="oe" unicode="&#x153;" horiz-adv-x="1939" 
d="M1858 512q0 -29 -3 -59h-774q14 -146 96.5 -231t221.5 -85q93 0 157 38t125 132l127 -88q-132 -239 -415 -239q-134 0 -237.5 56t-166.5 157q-68 -99 -173 -156t-234 -57q-220 0 -360 153.5t-140 378.5q0 148 62 269t177 192t261 71q131 0 236 -57t171 -158
q63 101 167.5 158t236.5 57q216 0 340.5 -147t124.5 -385zM1397 889q-131 0 -211 -79t-101 -216h609q-15 137 -92 216t-205 79zM582 141q145 0 233 106t88 265t-88.5 266t-232.5 107q-147 0 -234.5 -106.5t-87.5 -266.5t87.5 -265.5t234.5 -105.5z" />
    <glyph glyph-name="Racute" unicode="&#x154;" horiz-adv-x="1212" 
d="M922 2048l-224 -317h-147l184 317h187zM801 696l387 -696h-209l-367 686h-272v-686h-186v1536h563q179 0 305.5 -126.5t126.5 -307.5q0 -153 -99 -267t-249 -139zM340 840h373q110 0 187 78t77 188t-77.5 187t-186.5 77h-373v-530z" />
    <glyph glyph-name="racute" unicode="&#x155;" horiz-adv-x="817" 
d="M750 1536l-224 -317h-147l184 317h187zM631 1044q80 0 129.5 -14t93.5 -47l-88 -131q-63 33 -143 33q-116 0 -202.5 -89.5t-86.5 -222.5v-573h-180v1024h165l9 -156q57 81 136.5 128.5t166.5 47.5z" />
    <glyph glyph-name="Rcommaaccent" unicode="&#x156;" horiz-adv-x="1212" 
d="M801 696l387 -696h-209l-367 686h-272v-686h-186v1536h563q179 0 305.5 -126.5t126.5 -307.5q0 -153 -99 -267t-249 -139zM340 840h373q110 0 187 78t77 188t-77.5 187t-186.5 77h-373v-530zM623 -82q52 0 86 -37t34 -94q0 -92 -25 -170t-77.5 -128.5t-122.5 -47.5v70
q49 2 81 45t31.5 79.5t-9.5 42.5q-51 0 -84 33.5t-33 85.5q0 53 33.5 87t85.5 34z" />
    <glyph glyph-name="rcommaaccent" unicode="&#x157;" horiz-adv-x="817" 
d="M631 1044q80 0 129.5 -14t93.5 -47l-88 -131q-63 33 -143 33q-116 0 -202.5 -89.5t-86.5 -222.5v-573h-180v1024h165l9 -156q57 81 136.5 128.5t166.5 47.5zM248 -82q53 0 87 -37t34 -94q0 -92 -25 -170t-78 -128.5t-123 -47.5v70q49 2 81 45t31.5 79.5t-9.5 42.5
q-51 0 -84 33.5t-33 85.5q0 53 33.5 87t85.5 34z" />
    <glyph glyph-name="Rcaron" unicode="&#x158;" horiz-adv-x="1212" 
d="M717 1698h-193l-209 350h144l162 -258l163 258h142zM801 696l387 -696h-209l-367 686h-272v-686h-186v1536h563q179 0 305.5 -126.5t126.5 -307.5q0 -153 -99 -267t-249 -139zM340 840h373q110 0 187 78t77 188t-77.5 187t-186.5 77h-373v-530z" />
    <glyph glyph-name="rcaron" unicode="&#x159;" horiz-adv-x="817" 
d="M545 1186h-193l-209 350h144l162 -258l163 258h142zM631 1044q80 0 129.5 -14t93.5 -47l-88 -131q-63 33 -143 33q-116 0 -202.5 -89.5t-86.5 -222.5v-573h-180v1024h165l9 -156q57 81 136.5 128.5t166.5 47.5z" />
    <glyph glyph-name="Sacute" unicode="&#x15a;" horiz-adv-x="1288" 
d="M641 1731l184 317h187l-224 -317h-147zM666 -20q-186 0 -342.5 81.5t-237.5 214.5l135 138q46 -116 169.5 -186t281.5 -70q94 0 165.5 24t116 80t45.5 139q0 42 -11.5 78.5t-27.5 63.5t-48.5 54t-58 44t-73 38.5t-76 33t-83.5 32.5q-43 16 -65 24.5t-62 25t-62 28
t-56.5 30.5t-54 35.5t-44.5 39t-39.5 46.5t-28 52.5t-19.5 61t-6 69.5q0 126 65 218t171 136.5t237 44.5q172 0 306.5 -58t214.5 -155l-125 -126q-55 82 -154.5 130t-236.5 48q-125 0 -207 -57t-82 -167q0 -37 11.5 -68.5t37.5 -58t52 -46.5t71.5 -41.5t77.5 -35t88 -34.5
q184 -73 263 -121q187 -115 210 -296q4 -28 4 -58q0 -108 -40 -191.5t-111.5 -135.5t-165 -78.5t-205.5 -26.5z" />
    <glyph glyph-name="sacute" unicode="&#x15b;" horiz-adv-x="970" 
d="M424 1219l184 317h187l-224 -317h-147zM496 -20q-124 0 -243.5 44.5t-176.5 112.5l94 123q38 -54 130 -91.5t185 -39.5q97 -3 161.5 37t64.5 110q0 22 -8 41t-18 32.5t-32 27.5t-37.5 22.5t-48.5 20t-50 16.5t-56 17q-42 13 -60 19t-57 20t-58 25t-49.5 29t-46 36.5
t-32.5 43t-24 54.5t-7 65q0 132 111.5 215.5t265.5 83.5q97 0 194.5 -32t159.5 -82l-100 -123q-41 38 -101.5 62.5t-121.5 29.5q-85 7 -154.5 -29t-69.5 -102q0 -25 8 -46t27 -38t37 -29t51 -24.5t55 -19.5t62 -19q46 -13 70 -20.5t66.5 -23t66 -29.5t54 -37.5t46.5 -49.5
t27.5 -62t11.5 -79q0 -135 -113.5 -223t-283.5 -88z" />
    <glyph glyph-name="Scedilla" unicode="&#x15e;" horiz-adv-x="1288" 
d="M1188 412q0 -107 -39 -190t-109 -135t-162 -78.5t-202 -28.5l-58 -115q107 22 181.5 -33t74.5 -154q0 -87 -60.5 -147.5t-147.5 -60.5q-69 0 -138 37.5t-100 91.5l86 36q23 -31 67 -52t85 -21q49 0 81.5 33t32.5 83q0 72 -59.5 100t-145.5 -5l-73 49l82 162
q-161 19 -294 97.5t-204 194.5l135 138q46 -116 169.5 -186t281.5 -70q94 0 165.5 24t116 80t45.5 139q0 42 -11.5 78.5t-27.5 63.5t-48.5 54t-58 44t-73 38.5t-76 33t-83.5 32.5q-43 16 -65 24.5t-62 25t-62 28t-56.5 30.5t-54 35.5t-44.5 39t-39.5 46.5t-28 52.5t-19.5 61
t-6 69.5q0 126 65 218t171 136.5t237 44.5q172 0 306.5 -58t214.5 -155l-125 -126q-55 82 -154.5 130t-236.5 48q-125 0 -207 -57t-82 -167q0 -37 11.5 -68.5t37.5 -58t52 -46.5t71.5 -41.5t77.5 -35t88 -34.5q184 -73 263 -121q187 -115 210 -296q4 -28 4 -58z" />
    <glyph glyph-name="scedilla" unicode="&#x15f;" horiz-adv-x="970" 
d="M893 291q0 -125 -98 -211t-250 -98l-60 -119q107 22 181.5 -33t74.5 -154q0 -86 -60.5 -147t-148.5 -61q-69 0 -137.5 37.5t-99.5 91.5l86 36q23 -31 66.5 -52t84.5 -21q49 0 82 33t33 83q0 72 -59.5 100t-145.5 -5l-73 49l80 162q-114 7 -217 50t-156 105l94 123
q38 -54 130 -91.5t185 -39.5q97 -3 161.5 37t64.5 110q0 22 -8 41t-18 32.5t-32 27.5t-37.5 22.5t-48.5 20t-50 16.5t-56 17q-42 13 -60 19t-57 20t-58 25t-49.5 29t-46 36.5t-32.5 43t-24 54.5t-7 65q0 132 111.5 215.5t265.5 83.5q97 0 194.5 -32t159.5 -82l-100 -123
q-41 38 -101.5 62.5t-121.5 29.5q-85 7 -154.5 -29t-69.5 -102q0 -25 8 -46t27 -38t37 -29t51 -24.5t55 -19.5t62 -19q46 -13 70 -20.5t66.5 -23t66 -29.5t54 -37.5t46.5 -49.5t27.5 -62t11.5 -79z" />
    <glyph glyph-name="Scaron" unicode="&#x160;" horiz-adv-x="1288" 
d="M614 1698l-208 350h143l162 -258l163 258h142l-209 -350h-193zM666 -20q-186 0 -342.5 81.5t-237.5 214.5l135 138q46 -116 169.5 -186t281.5 -70q94 0 165.5 24t116 80t45.5 139q0 42 -11.5 78.5t-27.5 63.5t-48.5 54t-58 44t-73 38.5t-76 33t-83.5 32.5
q-43 16 -65 24.5t-62 25t-62 28t-56.5 30.5t-54 35.5t-44.5 39t-39.5 46.5t-28 52.5t-19.5 61t-6 69.5q0 126 65 218t171 136.5t237 44.5q172 0 306.5 -58t214.5 -155l-125 -126q-55 82 -154.5 130t-236.5 48q-125 0 -207 -57t-82 -167q0 -37 11.5 -68.5t37.5 -58t52 -46.5
t71.5 -41.5t77.5 -35t88 -34.5q184 -73 263 -121q187 -115 210 -296q4 -28 4 -58q0 -108 -40 -191.5t-111.5 -135.5t-165 -78.5t-205.5 -26.5z" />
    <glyph glyph-name="scaron" unicode="&#x161;" horiz-adv-x="970" 
d="M397 1186l-209 350h144l162 -258l163 258h142l-209 -350h-193zM496 -20q-124 0 -243.5 44.5t-176.5 112.5l94 123q38 -54 130 -91.5t185 -39.5q97 -3 161.5 37t64.5 110q0 22 -8 41t-18 32.5t-32 27.5t-37.5 22.5t-48.5 20t-50 16.5t-56 17q-42 13 -60 19t-57 20t-58 25
t-49.5 29t-46 36.5t-32.5 43t-24 54.5t-7 65q0 132 111.5 215.5t265.5 83.5q97 0 194.5 -32t159.5 -82l-100 -123q-41 38 -101.5 62.5t-121.5 29.5q-85 7 -154.5 -29t-69.5 -102q0 -25 8 -46t27 -38t37 -29t51 -24.5t55 -19.5t62 -19q46 -13 70 -20.5t66.5 -23t66 -29.5
t54 -37.5t46.5 -49.5t27.5 -62t11.5 -79q0 -135 -113.5 -223t-283.5 -88z" />
    <glyph glyph-name="uni0162" unicode="&#x162;" horiz-adv-x="1126" 
d="M51 1536h1026v-164h-420v-1372h-186v1372h-420v164zM543 -137q107 22 181.5 -33t74.5 -154q0 -86 -60.5 -147t-148.5 -61q-69 0 -138 37.5t-100 91.5l86 36q23 -31 67 -52t85 -21q49 0 82 33t33 83q0 72 -59.5 100t-145.5 -5l-74 49l90 180h94z" />
    <glyph glyph-name="uni0163" unicode="&#x163;" horiz-adv-x="714" 
d="M709 59q-73 -76 -207 -79l-58 -117q107 22 181.5 -33t74.5 -154q0 -87 -60.5 -147.5t-147.5 -60.5q-69 0 -138 37.5t-100 91.5l86 36q23 -31 67 -52t85 -21q49 0 81.5 33t32.5 83q0 72 -59.5 100t-145.5 -5l-73 49l84 168q-108 23 -170 102.5t-62 196.5v596h-133v141h133
v348h180v-348h279v-141h-277v-596q0 -74 36 -113t100 -39q66 0 110 47z" />
    <glyph glyph-name="Tcaron" unicode="&#x164;" horiz-adv-x="1126" 
d="M659 1698h-192l-209 350h143l162 -258l164 258h141zM1077 1536v-164h-420v-1372h-186v1372h-420v164h1026z" />
    <glyph glyph-name="tcaron" unicode="&#x165;" horiz-adv-x="765" 
d="M651 1448q-49 0 -84 35t-35 84q0 51 35 85t86 34q67 0 102.5 -61.5t35.5 -154.5q0 -89 -28 -175t-85.5 -147t-130.5 -63v91q36 1 67.5 40t47.5 88.5t16 90.5q0 53 -27 53zM498 135q66 0 110 47l101 -123q-76 -79 -215 -79q-142 0 -228 85t-86 222v596h-133v141h133v348
h180v-348h279v-141h-277v-596q0 -74 36 -113t100 -39z" />
    <glyph glyph-name="Tbar" unicode="&#x166;" horiz-adv-x="1126" 
d="M1077 1372h-420v-538h211v-129h-211v-705h-186v705h-215v129h215v538h-420v164h1026v-164z" />
    <glyph glyph-name="tbar" unicode="&#x167;" horiz-adv-x="714" 
d="M608 182l101 -123q-76 -79 -215 -79q-142 0 -228 85t-86 222v162h-131v129h131v305h-133v141h133v348h180v-348h279v-141h-277v-305h300v-129h-300v-162q0 -74 36 -113t100 -39q66 0 110 47z" />
    <glyph glyph-name="Utilde" unicode="&#x168;" horiz-adv-x="1495" 
d="M891 1712q-117 0 -191 111q-39 59 -92 59q-48 0 -71 -42t-11 -109h-114q-17 115 39 189.5t153 74.5q118 0 191 -113q36 -59 92 -59q48 0 71 42.5t11 110.5h114q17 -113 -38 -188.5t-154 -75.5zM748 -20q-161 0 -295 69.5t-211.5 190t-77.5 264.5v1032h186v-1001
q0 -163 116 -276.5t282 -113.5t281.5 113.5t115.5 276.5v1001h188v-1032q0 -144 -77.5 -264.5t-212 -190t-295.5 -69.5z" />
    <glyph glyph-name="Umacron" unicode="&#x16a;" horiz-adv-x="1495" 
d="M430 1743v121h635v-121h-635zM748 -20q-161 0 -295 69.5t-211.5 190t-77.5 264.5v1032h186v-1001q0 -163 116 -276.5t282 -113.5t281.5 113.5t115.5 276.5v1001h188v-1032q0 -144 -77.5 -264.5t-212 -190t-295.5 -69.5z" />
    <glyph glyph-name="umacron" unicode="&#x16b;" horiz-adv-x="1216" 
d="M926 1352v-121h-635v121h635zM881 1024h182v-1024h-166l-10 137q-58 -73 -143 -115t-183 -42q-170 0 -286.5 119t-116.5 288v637h180v-618q0 -110 78 -187.5t190 -77.5q114 0 194.5 77.5t80.5 187.5v618z" />
    <glyph glyph-name="Uring" unicode="&#x16e;" horiz-adv-x="1495" 
d="M748 1657q-88 0 -149.5 61.5t-61.5 147.5t61.5 147.5t149.5 61.5q86 0 146 -61t60 -148t-60 -148t-146 -61zM748 1739q53 0 87.5 36t34.5 91q0 53 -35 90t-87 37t-88.5 -37t-36.5 -90q0 -55 36 -91t89 -36zM748 -20q-161 0 -295 69.5t-211.5 190t-77.5 264.5v1032h186
v-1001q0 -163 116 -276.5t282 -113.5t281.5 113.5t115.5 276.5v1001h188v-1032q0 -144 -77.5 -264.5t-212 -190t-295.5 -69.5z" />
    <glyph glyph-name="uring" unicode="&#x16f;" horiz-adv-x="1216" 
d="M610 1145q-88 0 -149.5 61.5t-61.5 147.5t61.5 147.5t149.5 61.5q86 0 146.5 -61.5t60.5 -147.5t-60.5 -147.5t-146.5 -61.5zM610 1481q-52 0 -88.5 -37t-36.5 -90q0 -55 36 -91t89 -36t88 36t35 91q0 53 -35.5 90t-87.5 37zM881 1024h182v-1024h-166l-10 137
q-58 -73 -143 -115t-183 -42q-170 0 -286.5 119t-116.5 288v637h180v-618q0 -110 78 -187.5t190 -77.5q114 0 194.5 77.5t80.5 187.5v618z" />
    <glyph glyph-name="Uhungarumlaut" unicode="&#x170;" horiz-adv-x="1495" 
d="M506 1692l301 356h176l-340 -356h-137zM858 1692l299 356h176l-340 -356h-135zM748 -20q-161 0 -295 69.5t-211.5 190t-77.5 264.5v1032h186v-1001q0 -163 116 -276.5t282 -113.5t281.5 113.5t115.5 276.5v1001h188v-1032q0 -144 -77.5 -264.5t-212 -190t-295.5 -69.5z
" />
    <glyph glyph-name="uhungarumlaut" unicode="&#x171;" horiz-adv-x="1216" 
d="M844 1536l-340 -356h-137l301 356h176zM854 1180h-135l299 356h176zM881 406v618h182v-1024h-166l-10 137q-58 -73 -143 -115t-183 -42q-170 0 -286.5 119t-116.5 288v637h180v-618q0 -110 78 -187.5t190 -77.5q114 0 194.5 77.5t80.5 187.5z" />
    <glyph glyph-name="Uogonek" unicode="&#x172;" horiz-adv-x="1495" 
d="M1145 1536h188v-1032q0 -192 -133 -335t-338 -179q-83 -41 -141.5 -118t-58.5 -161q0 -59 35.5 -96t99.5 -37q56 0 107 25.5t85 70.5l60 -88q-114 -114 -281 -104q-105 5 -169 61t-64 154q0 161 186 283q-235 9 -396 160t-161 364v1032h186v-1001q0 -163 116 -276.5
t282 -113.5t281.5 113.5t115.5 276.5v1001z" />
    <glyph glyph-name="uogonek" unicode="&#x173;" horiz-adv-x="1216" 
d="M1120 -338l60 -88q-114 -114 -281 -104q-105 5 -169 61t-64 154q0 184 241 315h-10l-10 137q-58 -73 -143 -115t-183 -42q-170 0 -286.5 119t-116.5 288v637h180v-618q0 -110 78 -187.5t190 -77.5q114 0 194.5 77.5t80.5 187.5v618h182v-1024h-2q-100 -20 -184 -109.5
t-84 -191.5q0 -59 35.5 -96t99.5 -37q56 0 107 25.5t85 70.5z" />
    <glyph glyph-name="Wcircumflex" unicode="&#x174;" horiz-adv-x="2217" 
d="M1110 1960l-158 -262h-147l209 350h192l209 -350h-147zM2038 1536h200l-647 -1536h-202l-279 659l-279 -659h-200l-651 1536h202l555 -1315l279 660l-277 655h193l551 -1315z" />
    <glyph glyph-name="wcircumflex" unicode="&#x175;" horiz-adv-x="1468" 
d="M641 1448l-158 -262h-147l209 350h192l209 -350h-147zM1249 1024h201l-350 -1024h-199l-170 487l-164 -487h-196l-353 1024h205l256 -807l168 506l-104 301h178l268 -811z" />
    <glyph glyph-name="Ycircumflex" unicode="&#x176;" horiz-adv-x="1337" 
d="M670 1960l-158 -262h-147l208 350h193l209 -350h-148zM1298 1536l-534 -807v-729h-189v725l-536 811h211l420 -649l420 649h208z" />
    <glyph glyph-name="ycircumflex" unicode="&#x177;" horiz-adv-x="1216" 
d="M608 1448l-157 -262h-148l209 350h193l208 -350h-147zM1063 1024v-1051q0 -143 -53.5 -253.5t-167 -177t-273.5 -66.5q-205 0 -356 98v197q153 -133 371 -133q149 0 223 88t74 247v158q-58 -71 -141 -111t-179 -40q-170 0 -286.5 119t-116.5 288v637h180v-618
q0 -110 78 -187.5t190 -77.5q114 0 194.5 77.5t80.5 187.5v618h182z" />
    <glyph glyph-name="Ydieresis" unicode="&#x178;" horiz-adv-x="1337" 
d="M479 1726q-50 0 -85.5 34t-35.5 83q0 51 35.5 86t85.5 35t84.5 -35t34.5 -86q0 -49 -34.5 -83t-84.5 -34zM862 1726q-48 0 -83.5 34t-35.5 83q0 50 35.5 85.5t83.5 35.5q50 0 84.5 -35t34.5 -86q0 -49 -34.5 -83t-84.5 -34zM1298 1536l-534 -807v-729h-189v725l-536 811
h211l420 -649l420 649h208z" />
    <glyph glyph-name="Zacute" unicode="&#x179;" horiz-adv-x="1349" 
d="M985 2048l-223 -317h-148l185 317h186zM348 166h907v-166h-1163v98l883 1272h-860v166h1116v-98z" />
    <glyph glyph-name="zacute" unicode="&#x17a;" horiz-adv-x="1081" 
d="M496 1219l184 317h186l-223 -317h-147zM98 0v127l631 745h-618v152h858v-123l-631 -749h645v-152h-885z" />
    <glyph glyph-name="Zdotaccent" unicode="&#x17b;" horiz-adv-x="1349" 
d="M686 1726q-50 0 -85.5 34t-35.5 83q0 51 35.5 86t85.5 35t84.5 -35t34.5 -86q0 -49 -34.5 -83t-84.5 -34zM348 166h907v-166h-1163v98l883 1272h-860v166h1116v-98z" />
    <glyph glyph-name="zdotaccent" unicode="&#x17c;" horiz-adv-x="1081" 
d="M565 1214q-50 0 -85.5 34t-35.5 83q0 51 35.5 86t85.5 35t84.5 -35t34.5 -86q0 -49 -34.5 -83t-84.5 -34zM98 0v127l631 745h-618v152h858v-123l-631 -749h645v-152h-885z" />
    <glyph glyph-name="Zcaron" unicode="&#x17d;" horiz-adv-x="1349" 
d="M780 1698h-192l-209 350h143l162 -258l164 258h141zM348 166h907v-166h-1163v98l883 1272h-860v166h1116v-98z" />
    <glyph glyph-name="zcaron" unicode="&#x17e;" horiz-adv-x="1081" 
d="M469 1186l-209 350h143l162 -258l164 258h141l-208 -350h-193zM98 0v127l631 745h-618v152h858v-123l-631 -749h645v-152h-885z" />
    <glyph glyph-name="florin" unicode="&#x192;" horiz-adv-x="903" 
d="M737 1421q-78 0 -134.5 -51t-70.5 -133l-32 -213h286l-22 -141h-287l-221 -1395h-164l219 1395h-170l23 141h170l39 236q19 126 120.5 211t227.5 85q39 0 77.5 -10t57.5 -24l-16 -133q-35 32 -103 32z" />
    <glyph glyph-name="uni01CD" unicode="&#x1cd;" horiz-adv-x="1521" 
d="M856 1698h-192l-209 350h143l162 -258l164 258h141zM1278 0l-125 322h-786l-125 -322h-203l616 1536h209l617 -1536h-203zM426 479h668l-334 864z" />
    <glyph glyph-name="uni01CE" unicode="&#x1ce;" horiz-adv-x="1099" 
d="M651 1186h-192l-209 350h143l162 -258l164 258h141zM530 1044q90 0 166 -24t134 -71t91 -122.5t33 -171.5v-655h-159l-11 145q-187 -165 -378 -165q-137 0 -225.5 88.5t-88.5 224.5q0 71 27.5 129.5t87.5 103.5t154.5 58t228.5 -6l186 -31v121q0 111 -71 167t-183 56
q-181 0 -274 -141l-125 110q127 184 407 184zM276 301q0 -72 47 -116t123 -44q160 0 330 156v117l-168 28q-178 32 -255 -11t-77 -130z" />
    <glyph glyph-name="uni01CF" unicode="&#x1cf;" horiz-adv-x="493" 
d="M150 1698l-209 350h143l162 -258l164 258h141l-209 -350h-192zM154 0v1536h186v-1536h-186z" />
    <glyph glyph-name="uni01D0" unicode="&#x1d0;" horiz-adv-x="487" 
d="M147 1186l-208 350h143l162 -258l164 258h141l-209 -350h-193zM154 0v1024h180v-1024h-180z" />
    <glyph glyph-name="uni01D1" unicode="&#x1d1;" horiz-adv-x="1708" 
d="M758 1698l-209 350h143l162 -258l164 258h141l-209 -350h-192zM854 -20q-213 0 -386 106t-268.5 286t-95.5 396t95.5 396t268.5 286t386 106q160 0 300 -62t238.5 -168t155 -251t56.5 -307t-56.5 -307t-155 -251t-238.5 -168t-300 -62zM854 158q167 0 298.5 81t202 220
t70.5 309t-70.5 309t-202 220t-298.5 81t-298.5 -81t-203 -220t-71.5 -309t71.5 -309t203 -220t298.5 -81z" />
    <glyph glyph-name="uni01D2" unicode="&#x1d2;" horiz-adv-x="1161" 
d="M483 1186l-209 350h144l162 -258l163 258h142l-209 -350h-193zM582 -20q-220 0 -360 153.5t-140 378.5q0 148 62 269t177 192t261 71q145 0 260 -71t177 -192t62 -269q0 -147 -62 -268t-177 -192.5t-260 -71.5zM582 141q145 0 233 106t88 265t-88.5 266t-232.5 107
q-147 0 -234.5 -106.5t-87.5 -266.5t87.5 -265.5t234.5 -105.5z" />
    <glyph glyph-name="uni01D3" unicode="&#x1d3;" horiz-adv-x="1495" 
d="M651 1698l-209 350h144l162 -258l163 258h142l-209 -350h-193zM748 -20q-161 0 -295 69.5t-211.5 190t-77.5 264.5v1032h186v-1001q0 -163 116 -276.5t282 -113.5t281.5 113.5t115.5 276.5v1001h188v-1032q0 -144 -77.5 -264.5t-212 -190t-295.5 -69.5z" />
    <glyph glyph-name="uni01D4" unicode="&#x1d4;" horiz-adv-x="1216" 
d="M705 1186h-193l-209 350h143l162 -258l164 258h141zM881 1024h182v-1024h-166l-10 137q-58 -73 -143 -115t-183 -42q-170 0 -286.5 119t-116.5 288v637h180v-618q0 -110 78 -187.5t190 -77.5q114 0 194.5 77.5t80.5 187.5v618z" />
    <glyph glyph-name="Gcaron" unicode="&#x1e6;" horiz-adv-x="1515" 
d="M1026 1698h-192l-209 350h143l162 -258l164 258h141zM926 1378q-125 0 -235.5 -44t-193 -122.5t-130.5 -195t-48 -254.5q0 -184 82.5 -326t220 -216.5t304.5 -74.5q139 0 270 64v444h-356v168h522v-723q-208 -131 -438 -131q-127 0 -245 36.5t-214.5 107t-168.5 166
t-111.5 220.5t-39.5 265q0 175 61.5 324.5t166.5 252t247 160t300 57.5q234 0 442 -131v-233q-79 87 -195 136.5t-241 49.5z" />
    <glyph glyph-name="gcaron" unicode="&#x1e7;" horiz-adv-x="1220" 
d="M670 1186h-193l-209 350h144l161 -258l164 258h142zM903 1024h164v-1012q0 -228 -132 -376t-351 -148q-176 0 -316 96v197q140 -133 328 -133q131 0 212 99t81 265v129q-132 -161 -336 -161q-106 0 -195 41.5t-149 113t-93.5 169t-33.5 208.5q0 150 56.5 270t165 191
t249.5 71q103 0 191 -45t151 -125zM582 141q106 0 191 73.5t116 188.5v218q-31 116 -116 190t-191 74q-147 0 -234.5 -106.5t-87.5 -266.5q0 -159 87.5 -265t234.5 -106z" />
    <glyph glyph-name="Oslashacute" unicode="&#x1fe;" horiz-adv-x="1708" 
d="M1155 2048l-223 -317h-148l185 317h186zM1333 1382q128 -110 199.5 -270t71.5 -344q0 -162 -56.5 -307t-155 -251t-238.5 -168t-300 -62q-218 0 -389 108l-80 -119h-131l123 183q-129 110 -201 270.5t-72 345.5q0 216 95.5 396t268.5 286t386 106q217 0 391 -110l80 119
h131zM281 768q0 -142 50.5 -263.5t143.5 -205.5l672 1001q-131 78 -293 78q-167 0 -298.5 -81t-203 -220t-71.5 -309zM854 158q167 0 298.5 81t202 220t70.5 309q0 141 -49.5 262.5t-140.5 204.5l-672 -1002q126 -75 291 -75z" />
    <glyph glyph-name="oslashacute" unicode="&#x1ff;" horiz-adv-x="1161" 
d="M881 1536l-224 -317h-147l184 317h187zM907 924q82 -73 128 -180t46 -232q0 -147 -62 -268t-177 -192.5t-260 -71.5q-146 0 -263 71l-75 -114h-97l109 161q-83 72 -128.5 180t-45.5 234q0 148 62 269t177 192t261 71q147 0 262 -73l78 116h94zM260 512q0 -164 92 -270
l400 592q-73 51 -170 51q-147 0 -234.5 -106.5t-87.5 -266.5zM582 141q145 0 233 106t88 265q0 160 -92 270l-399 -594q71 -47 170 -47z" />
    <glyph glyph-name="Scommaaccent" unicode="&#x218;" horiz-adv-x="1288" 
d="M666 -20q-186 0 -342.5 81.5t-237.5 214.5l135 138q46 -116 169.5 -186t281.5 -70q94 0 165.5 24t116 80t45.5 139q0 42 -11.5 78.5t-27.5 63.5t-48.5 54t-58 44t-73 38.5t-76 33t-83.5 32.5q-43 16 -65 24.5t-62 25t-62 28t-56.5 30.5t-54 35.5t-44.5 39t-39.5 46.5
t-28 52.5t-19.5 61t-6 69.5q0 126 65 218t171 136.5t237 44.5q172 0 306.5 -58t214.5 -155l-125 -126q-55 82 -154.5 130t-236.5 48q-125 0 -207 -57t-82 -167q0 -37 11.5 -68.5t37.5 -58t52 -46.5t71.5 -41.5t77.5 -35t88 -34.5q184 -73 263 -121q187 -115 210 -296
q4 -28 4 -58q0 -108 -40 -191.5t-111.5 -135.5t-165 -78.5t-205.5 -26.5zM537 -559v70q49 2 81 45t31 79.5t-10 42.5q-51 0 -84 33.5t-33 85.5q0 53 33.5 87t85.5 34q53 0 87 -37t34 -94q0 -92 -25 -170t-77.5 -128.5t-122.5 -47.5z" />
    <glyph glyph-name="scommaaccent" unicode="&#x219;" horiz-adv-x="970" 
d="M496 -20q-124 0 -243.5 44.5t-176.5 112.5l94 123q38 -54 130 -91.5t185 -39.5q97 -3 161.5 37t64.5 110q0 22 -8 41t-18 32.5t-32 27.5t-37.5 22.5t-48.5 20t-50 16.5t-56 17q-42 13 -60 19t-57 20t-58 25t-49.5 29t-46 36.5t-32.5 43t-24 54.5t-7 65q0 132 111.5 215.5
t265.5 83.5q97 0 194.5 -32t159.5 -82l-100 -123q-41 38 -101.5 62.5t-121.5 29.5q-85 7 -154.5 -29t-69.5 -102q0 -25 8 -46t27 -38t37 -29t51 -24.5t55 -19.5t62 -19q46 -13 70 -20.5t66.5 -23t66 -29.5t54 -37.5t46.5 -49.5t27.5 -62t11.5 -79q0 -135 -113.5 -223
t-283.5 -88zM401 -559v70q49 2 81 45t31.5 79.5t-9.5 42.5q-51 0 -84 33.5t-33 85.5q0 53 33.5 87t85.5 34q53 0 87 -37t34 -94q0 -92 -25 -170t-78 -128.5t-123 -47.5z" />
    <glyph glyph-name="uni021A" unicode="&#x21a;" horiz-adv-x="1126" 
d="M51 1536h1026v-164h-420v-1372h-186v1372h-420v164zM565 -82q53 0 87 -37t34 -94q0 -92 -25 -170t-77.5 -128.5t-122.5 -47.5v70q49 2 81 45t31 79.5t-10 42.5q-51 0 -84 33.5t-33 85.5q0 53 33.5 87t85.5 34z" />
    <glyph glyph-name="uni021B" unicode="&#x21b;" horiz-adv-x="714" 
d="M608 182l101 -123q-76 -79 -215 -79q-142 0 -228 85t-86 222v596h-133v141h133v348h180v-348h279v-141h-277v-596q0 -74 36 -113t100 -39q66 0 110 47zM467 -82q53 0 87 -37t34 -94q0 -92 -25 -170t-78 -128.5t-123 -47.5v70q49 2 81 45t31.5 79.5t-9.5 42.5
q-51 0 -84 33.5t-33 85.5q0 53 33.5 87t85.5 34z" />
    <glyph glyph-name="uni0228" unicode="&#x228;" horiz-adv-x="1110" 
d="M1004 1370h-664v-518h578v-168h-578v-518h664v-166h-377l-68 -137q107 22 181.5 -33t74.5 -154q0 -86 -60.5 -147t-148.5 -61q-69 0 -137.5 37.5t-99.5 91.5l86 36q23 -31 66.5 -52t84.5 -21q49 0 82 33t33 83q0 72 -59.5 100t-145.5 -5l-74 49l90 180h-378v1536h850
v-166z" />
    <glyph glyph-name="uni0229" unicode="&#x229;" horiz-adv-x="1116" 
d="M1034 512q0 -39 -2 -59h-774q14 -145 96 -230.5t221 -85.5q94 0 158 38t125 132l127 -88q-125 -222 -375 -237l-57 -119q107 22 181.5 -33t74.5 -154q0 -86 -60.5 -147t-148.5 -61q-69 0 -138 37.5t-100 91.5l87 36q23 -31 66.5 -52t84.5 -21q49 0 82 33t33 83
q0 72 -59.5 100t-145.5 -5l-74 49l82 162q-201 18 -318.5 164t-117.5 364q0 233 132.5 383.5t354.5 150.5q216 0 340.5 -147t124.5 -385zM573 889q-130 0 -210 -79.5t-101 -215.5h608q-14 137 -91 216t-206 79z" />
    <glyph glyph-name="uni0237" unicode="&#x237;" horiz-adv-x="595" 
d="M90 -532q-35 0 -74 9.5t-59 22.5v158q21 -17 53.5 -28t59.5 -11q65 0 109 46.5t44 115.5v1243h180v-1253q0 -128 -90.5 -215.5t-222.5 -87.5z" />
    <glyph glyph-name="circumflex" unicode="&#x2c6;" horiz-adv-x="102" 
d="M61 1186l209 350h193l209 -350h-148l-157 262l-158 -262h-148z" />
    <glyph glyph-name="caron" unicode="&#x2c7;" horiz-adv-x="102" 
d="M270 1186l-209 350h144l162 -258l163 258h142l-209 -350h-193z" />
    <glyph glyph-name="breve" unicode="&#x2d8;" horiz-adv-x="102" 
d="M596 1157q-151 0 -246.5 86.5t-95.5 233.5h113q0 -86 65.5 -146.5t163.5 -60.5q100 0 165.5 60.5t65.5 146.5h111q0 -147 -95 -233.5t-247 -86.5z" />
    <glyph glyph-name="dotaccent" unicode="&#x2d9;" horiz-adv-x="102" 
d="M305 1214q-50 0 -85.5 34t-35.5 83q0 51 35.5 86t85.5 35t84.5 -35t34.5 -86q0 -49 -34.5 -83t-84.5 -34z" />
    <glyph glyph-name="ring" unicode="&#x2da;" horiz-adv-x="102" 
d="M186 1145q-88 0 -149.5 61.5t-61.5 147.5t61.5 147.5t149.5 61.5q86 0 146.5 -61.5t60.5 -147.5t-60.5 -147.5t-146.5 -61.5zM186 1227q53 0 88 36t35 91q0 53 -35.5 90t-87.5 37t-88.5 -37t-36.5 -90q0 -55 36 -91t89 -36z" />
    <glyph glyph-name="ogonek" unicode="&#x2db;" horiz-adv-x="102" 
d="M270 -530q-105 5 -169 61t-64 154q0 107 82 195.5t221 150.5l92 -31q-100 -20 -184 -109.5t-84 -191.5q0 -59 35.5 -96t99.5 -37q57 0 108 25.5t85 70.5l59 -88q-114 -114 -281 -104z" />
    <glyph glyph-name="tilde" unicode="&#x2dc;" horiz-adv-x="104" 
d="M545 1262q-117 0 -191 110q-40 60 -92 60q-48 0 -71 -42.5t-11 -109.5h-114q-17 115 39 189.5t153 74.5q119 0 191 -112q37 -60 92 -60q48 0 71 42.5t11 111.5h114q17 -113 -38 -188.5t-154 -75.5z" />
    <glyph glyph-name="hungarumlaut" unicode="&#x2dd;" horiz-adv-x="102" 
d="M61 1180l301 356h177l-340 -356h-138zM414 1180l299 356h176l-340 -356h-135z" />
    <glyph glyph-name="gravecomb" unicode="&#x300;" 
d="M-209 1219l-225 317h186l185 -317h-146z" />
    <glyph glyph-name="acutecomb" unicode="&#x301;" 
d="M-434 1219l184 317h187l-224 -317h-147z" />
    <glyph glyph-name="uni0302" unicode="&#x302;" 
d="M-672 1186l209 350h193l209 -350h-148l-158 262l-157 -262h-148z" />
    <glyph glyph-name="tildecomb" unicode="&#x303;" 
d="M-260 1262q-117 0 -191 110q-40 60 -92 60q-48 0 -71 -42.5t-11 -109.5h-114q-17 115 39 189.5t153 74.5q119 0 191 -112q37 -60 92 -60q48 0 71 42.5t11 111.5h114q17 -113 -38 -188.5t-154 -75.5z" />
    <glyph glyph-name="uni0304" unicode="&#x304;" 
d="M-698 1231v121h635v-121h-635z" />
    <glyph glyph-name="uni0306" unicode="&#x306;" 
d="M-696 1157q-151 0 -246.5 86.5t-95.5 233.5h112q0 -86 66 -146.5t164 -60.5q100 0 165.5 60.5t65.5 146.5h111q0 -147 -95 -233.5t-247 -86.5z" />
    <glyph glyph-name="uni0307" unicode="&#x307;" 
d="M-305 1214q-50 0 -85.5 34t-35.5 83q0 51 35.5 86t85.5 35t84.5 -35t34.5 -86q0 -49 -34.5 -83t-84.5 -34z" />
    <glyph glyph-name="uni0308" unicode="&#x308;" 
d="M-629 1214q-50 0 -85.5 34t-35.5 83q0 51 35.5 86t85.5 35t84.5 -35t34.5 -86q0 -49 -34.5 -83t-84.5 -34zM-246 1214q-48 0 -83.5 34t-35.5 83q0 50 35.5 85.5t83.5 35.5q50 0 84.5 -35t34.5 -86q0 -49 -34.5 -83t-84.5 -34z" />
    <glyph glyph-name="uni030A" unicode="&#x30a;" 
d="M-182 1145q-88 0 -149.5 61.5t-61.5 147.5t61.5 147.5t149.5 61.5q86 0 146.5 -61.5t60.5 -147.5t-60.5 -147.5t-146.5 -61.5zM-182 1227q53 0 88 36t35 91q0 53 -35.5 90t-87.5 37t-88.5 -37t-36.5 -90q0 -55 36 -91t89 -36z" />
    <glyph glyph-name="uni030B" unicode="&#x30b;" 
d="M-889 1180l301 356h176l-340 -356h-137zM-537 1180l299 356h177l-340 -356h-136z" />
    <glyph glyph-name="uni030C" unicode="&#x30c;" 
d="M-463 1186l-209 350h144l161 -258l164 258h142l-209 -350h-193z" />
    <glyph glyph-name="uni0312" unicode="&#x312;" 
d="M-184 1077q-51 0 -86 38t-35 93q-1 84 36.5 166t90 130t98.5 50v-67q-42 -16 -73.5 -59.5t-35 -74t4.5 -36.5q51 0 84.5 -33.5t33.5 -83.5q0 -52 -33.5 -87.5t-84.5 -35.5z" />
    <glyph glyph-name="dotbelowcomb" unicode="&#x323;" 
d="M-182 -512q-50 0 -85.5 35t-35.5 84t35.5 85t85.5 36q49 0 84 -35.5t35 -85.5q0 -49 -34.5 -84t-84.5 -35z" />
    <glyph glyph-name="uni0326" unicode="&#x326;" 
d="M-287 -258v70q49 2 81 45.5t31.5 80t-9.5 42.5q-51 0 -84 33t-33 87q0 51 33.5 85t85.5 34q53 0 87 -36.5t34 -94.5q0 -92 -25 -170t-78 -128.5t-123 -47.5z" />
    <glyph glyph-name="uni0327" unicode="&#x327;" 
d="M-270 -532q-69 0 -138 37.5t-100 91.5l86 36q23 -31 67 -52t85 -21q49 0 81.5 33t32.5 83q0 72 -59 100t-145 -5l-74 49l90 180h94l-67 -137q107 22 181.5 -33t74.5 -154q0 -86 -60.5 -147t-148.5 -61z" />
    <glyph glyph-name="uni0328" unicode="&#x328;" 
d="M-344 -530q-106 5 -170 61.5t-64 153.5q0 107 82.5 195.5t221.5 150.5l92 -31q-100 -20 -184.5 -109.5t-84.5 -191.5q0 -59 36 -96t100 -37q56 0 107 25.5t85 70.5l60 -88q-114 -114 -281 -104z" />
    <glyph glyph-name="uni0335" unicode="&#x335;" 
d="M-961 469v129h613v-129h-613z" />
    <glyph glyph-name="uni0336" unicode="&#x336;" 
d="M-1534 492v81h1471v-81h-1471z" />
    <glyph glyph-name="uni0337" unicode="&#x337;" 
d="M-887 244l520 553h144l-529 -553h-135z" />
    <glyph glyph-name="uni0338" unicode="&#x338;" 
d="M-1245 -29l1071 1596h131l-1071 -1596h-131z" />
    <glyph glyph-name="uni0394" unicode="&#x394;" horiz-adv-x="1615" 
d="M76 0v113l631 1439h208l623 -1439v-113h-1462zM256 147h1090l-363 828q-10 24 -81 194t-89 224h-20q-8 -28 -35 -94.5t-63.5 -153t-53.5 -129.5z" />
    <glyph glyph-name="Lambda" unicode="&#x39b;" horiz-adv-x="1521" 
d="M1481 0h-203l-518 1325l-518 -1325h-203l616 1536h209z" />
    <glyph glyph-name="Xi" unicode="&#x39e;" horiz-adv-x="1218" 
d="M150 1370v166h880v-166h-880zM254 684v168h672v-168h-672zM150 0v166h880v-166h-880z" />
    <glyph glyph-name="uni03A9" unicode="&#x3a9;" horiz-adv-x="1818" 
d="M123 0v133h342v14q-130 103 -218.5 276t-88.5 382q0 153 56.5 288.5t155.5 233.5t240.5 154.5t304.5 56.5q166 0 307.5 -60.5t236 -161.5t147.5 -232.5t53 -274.5q0 -208 -91.5 -386t-219.5 -276v-14h346v-133h-600v98q77 40 145 103t123.5 148t88 196.5t32.5 234.5
q0 92 -23.5 181.5t-71 169.5t-113.5 140.5t-158.5 96t-198.5 35.5q-129 0 -239 -49t-185.5 -133.5t-117.5 -199t-42 -243.5q0 -119 33 -230.5t88.5 -197.5t124 -150t143.5 -102v-98h-600z" />
    <glyph glyph-name="uni03BC" unicode="&#x3bc;" horiz-adv-x="1269" 
d="M889 1024h180v-1024h-180v147q-58 -78 -142.5 -122.5t-181.5 -44.5q-150 0 -262 98v-590h-139v1536h182v-618q0 -110 78 -187.5t188 -77.5q115 0 196 77.5t81 187.5v618z" />
    <glyph glyph-name="pi" unicode="&#x3c0;" horiz-adv-x="1417" 
d="M156 0q65 168 117 455.5t61 523.5q-209 0 -289 -29l-20 107q99 59 346 59h997l-14 -137h-205v-647q0 -232 33 -332h-168q-37 62 -37 311v668l-473 2q-10 -225 -63 -532t-117 -449h-168z" />
    <glyph glyph-name="uni1E04" unicode="&#x1e04;" horiz-adv-x="1320" 
d="M909 791q141 -35 227.5 -135.5t86.5 -247.5q0 -180 -122 -294t-302 -114h-645v1536h524q181 0 304.5 -115t123.5 -295q0 -114 -52.5 -200t-144.5 -135zM920 1110q0 107 -77 183.5t-186 76.5h-317v-524h317q109 0 186 77.5t77 186.5zM774 166q109 0 185.5 77.5t76.5 186.5
q0 106 -77 183t-185 77h-434v-524h434zM639 -137q49 0 84 -35.5t35 -85.5t-35 -84.5t-84 -34.5q-50 0 -85.5 35t-35.5 84q0 50 36 85.5t85 35.5z" />
    <glyph glyph-name="uni1E05" unicode="&#x1e05;" horiz-adv-x="1218" 
d="M666 1044q106 0 195 -41.5t149 -113t93.5 -169t33.5 -208.5t-33.5 -208.5t-93.5 -169t-149 -113t-195 -41.5q-105 0 -193 44t-149 123l-9 -147h-161v1536h178v-649q131 157 334 157zM637 141q147 0 235.5 106t88.5 265q0 160 -88.5 266.5t-235.5 106.5q-109 0 -192 -73
t-113 -189v-222q30 -116 113 -188t192 -72zM680 -137q49 0 84 -35.5t35 -85.5t-34.5 -84.5t-84.5 -34.5t-85.5 35t-35.5 84q0 50 35.5 85.5t85.5 35.5z" />
    <glyph glyph-name="uni1E24" unicode="&#x1e24;" horiz-adv-x="1497" 
d="M1157 1536h186v-1536h-186v684h-817v-684h-186v1536h186v-684h817v684zM756 -137q49 0 83.5 -35.5t34.5 -85.5t-34.5 -84.5t-83.5 -34.5q-50 0 -85.5 35t-35.5 84q0 50 35.5 85.5t85.5 35.5z" />
    <glyph glyph-name="uni1E25" unicode="&#x1e25;" horiz-adv-x="1204" 
d="M659 1044q172 0 286 -112t114 -285v-647h-182v627q0 110 -76.5 184t-190.5 74q-115 0 -195.5 -78t-80.5 -189v-618h-180v1536h180v-641q60 70 143.5 109.5t181.5 39.5zM594 -137q49 0 84 -35.5t35 -85.5t-34.5 -84.5t-84.5 -34.5t-85.5 35t-35.5 84q0 50 35.5 85.5
t85.5 35.5z" />
    <glyph glyph-name="uni1E36" unicode="&#x1e36;" horiz-adv-x="972" 
d="M154 0v1536h186v-1370h563v-166h-749zM530 -377q-50 0 -85 35t-35 84q0 50 35.5 85.5t84.5 35.5t84 -35.5t35 -85.5t-34.5 -84.5t-84.5 -34.5z" />
    <glyph glyph-name="uni1E37" unicode="&#x1e37;" horiz-adv-x="669" 
d="M475 -20q-143 0 -228 84.5t-85 222.5v1249h180l2 -1249q0 -74 35.5 -113t99.5 -39q67 0 111 47l100 -123q-76 -79 -215 -79zM436 -377q-50 0 -85.5 35t-35.5 84q0 50 35.5 85.5t85.5 35.5q49 0 84 -35.5t35 -85.5t-34.5 -84.5t-84.5 -34.5z" />
    <glyph glyph-name="uni1E44" unicode="&#x1e44;" horiz-adv-x="1593" 
d="M795 1726q-50 0 -85.5 34t-35.5 83q0 51 35.5 86t85.5 35t84 -35t34 -86q0 -49 -34 -83t-84 -34zM1255 1536h185v-1536h-178l-922 1235v-1235h-186v1536h178l923 -1237v1237z" />
    <glyph glyph-name="uni1E45" unicode="&#x1e45;" horiz-adv-x="1204" 
d="M606 1214q-50 0 -85.5 34t-35.5 83q0 51 35.5 86t85.5 35t84.5 -35t34.5 -86q0 -49 -34.5 -83t-84.5 -34zM659 1044q172 0 286 -112t114 -285v-647h-182v627q0 110 -76.5 184t-190.5 74q-115 0 -195.5 -78t-80.5 -189v-618h-180v1024h165l9 -135q60 73 145.5 114
t185.5 41z" />
    <glyph glyph-name="uni1E46" unicode="&#x1e46;" horiz-adv-x="1593" 
d="M1255 1536h185v-1536h-178l-922 1235v-1235h-186v1536h178l923 -1237v1237zM803 -137q49 0 84 -35.5t35 -85.5t-35 -84.5t-84 -34.5q-50 0 -85.5 35t-35.5 84q0 50 36 85.5t85 35.5z" />
    <glyph glyph-name="uni1E47" unicode="&#x1e47;" horiz-adv-x="1204" 
d="M659 1044q172 0 286 -112t114 -285v-647h-182v627q0 110 -76.5 184t-190.5 74q-115 0 -195.5 -78t-80.5 -189v-618h-180v1024h165l9 -135q60 73 145.5 114t185.5 41zM606 -137q49 0 84 -35.5t35 -85.5t-34.5 -84.5t-84.5 -34.5t-85.5 35t-35.5 84q0 50 35.5 85.5
t85.5 35.5z" />
    <glyph glyph-name="uni1E62" unicode="&#x1e62;" horiz-adv-x="1288" 
d="M666 -20q-186 0 -342.5 81.5t-237.5 214.5l135 138q46 -116 169.5 -186t281.5 -70q94 0 165.5 24t116 80t45.5 139q0 42 -11.5 78.5t-27.5 63.5t-48.5 54t-58 44t-73 38.5t-76 33t-83.5 32.5q-43 16 -65 24.5t-62 25t-62 28t-56.5 30.5t-54 35.5t-44.5 39t-39.5 46.5
t-28 52.5t-19.5 61t-6 69.5q0 126 65 218t171 136.5t237 44.5q172 0 306.5 -58t214.5 -155l-125 -126q-55 82 -154.5 130t-236.5 48q-125 0 -207 -57t-82 -167q0 -37 11.5 -68.5t37.5 -58t52 -46.5t71.5 -41.5t77.5 -35t88 -34.5q184 -73 263 -121q187 -115 210 -296
q4 -28 4 -58q0 -108 -40 -191.5t-111.5 -135.5t-165 -78.5t-205.5 -26.5zM639 -377q-50 0 -85.5 35t-35.5 84q0 50 36 85.5t85 35.5t84 -35.5t35 -85.5t-35 -84.5t-84 -34.5z" />
    <glyph glyph-name="uni1E63" unicode="&#x1e63;" horiz-adv-x="970" 
d="M496 -20q-124 0 -243.5 44.5t-176.5 112.5l94 123q38 -54 130 -91.5t185 -39.5q97 -3 161.5 37t64.5 110q0 22 -8 41t-18 32.5t-32 27.5t-37.5 22.5t-48.5 20t-50 16.5t-56 17q-42 13 -60 19t-57 20t-58 25t-49.5 29t-46 36.5t-32.5 43t-24 54.5t-7 65q0 132 111.5 215.5
t265.5 83.5q97 0 194.5 -32t159.5 -82l-100 -123q-41 38 -101.5 62.5t-121.5 29.5q-85 7 -154.5 -29t-69.5 -102q0 -25 8 -46t27 -38t37 -29t51 -24.5t55 -19.5t62 -19q46 -13 70 -20.5t66.5 -23t66 -29.5t54 -37.5t46.5 -49.5t27.5 -62t11.5 -79q0 -135 -113.5 -223
t-283.5 -88zM506 -377q-50 0 -85.5 35t-35.5 84q0 50 35.5 85.5t85.5 35.5q49 0 84 -35.5t35 -85.5t-34.5 -84.5t-84.5 -34.5z" />
    <glyph glyph-name="uni1E6C" unicode="&#x1e6c;" horiz-adv-x="1126" 
d="M51 1536h1026v-164h-420v-1372h-186v1372h-420v164zM563 -137q49 0 84 -35.5t35 -85.5t-35 -84.5t-84 -34.5q-50 0 -85.5 35t-35.5 84q0 50 36 85.5t85 35.5z" />
    <glyph glyph-name="uni1E6D" unicode="&#x1e6d;" horiz-adv-x="714" 
d="M608 182l101 -123q-76 -79 -215 -79q-142 0 -228 85t-86 222v596h-133v141h133v348h180v-348h279v-141h-277v-596q0 -74 36 -113t100 -39q66 0 110 47zM465 -137q49 0 84 -35.5t35 -85.5t-35 -84.5t-84 -34.5q-50 0 -85.5 35t-35.5 84q0 50 36 85.5t85 35.5z" />
    <glyph glyph-name="Wgrave" unicode="&#x1e80;" horiz-adv-x="2217" 
d="M1176 1731h-146l-225 317h186zM2038 1536h200l-647 -1536h-202l-279 659l-279 -659h-200l-651 1536h202l555 -1315l279 660l-277 655h193l551 -1315z" />
    <glyph glyph-name="wgrave" unicode="&#x1e81;" horiz-adv-x="1468" 
d="M705 1219h-146l-225 317h186zM1249 1024h201l-350 -1024h-199l-170 487l-164 -487h-196l-353 1024h205l256 -807l168 506l-104 301h178l268 -811z" />
    <glyph glyph-name="Wacute" unicode="&#x1e82;" horiz-adv-x="2217" 
d="M1411 2048l-223 -317h-148l185 317h186zM2038 1536h200l-647 -1536h-202l-279 659l-279 -659h-200l-651 1536h202l555 -1315l279 660l-277 655h193l551 -1315z" />
    <glyph glyph-name="wacute" unicode="&#x1e83;" horiz-adv-x="1468" 
d="M942 1536l-223 -317h-148l185 317h186zM1249 1024h201l-350 -1024h-199l-170 487l-164 -487h-196l-353 1024h205l256 -807l168 506l-104 301h178l268 -811z" />
    <glyph glyph-name="Wdieresis" unicode="&#x1e84;" horiz-adv-x="2217" 
d="M920 1726q-50 0 -85.5 34t-35.5 83q0 51 35.5 86t85.5 35t84 -35t34 -86q0 -49 -34 -83t-84 -34zM1303 1726q-48 0 -83.5 34t-35.5 83q0 50 35.5 85.5t83.5 35.5q50 0 84 -35t34 -86q0 -49 -34 -83t-84 -34zM2038 1536h200l-647 -1536h-202l-279 659l-279 -659h-200
l-651 1536h202l555 -1315l279 660l-277 655h193l551 -1315z" />
    <glyph glyph-name="wdieresis" unicode="&#x1e85;" horiz-adv-x="1468" 
d="M449 1214q-50 0 -85.5 34t-35.5 83q0 51 35.5 86t85.5 35t84 -35t34 -86q0 -49 -34 -83t-84 -34zM831 1214q-48 0 -83 34t-35 83q0 50 35 85.5t83 35.5q50 0 84.5 -35t34.5 -86q0 -49 -34.5 -83t-84.5 -34zM1249 1024h201l-350 -1024h-199l-170 487l-164 -487h-196
l-353 1024h205l256 -807l168 506l-104 301h178l268 -811z" />
    <glyph glyph-name="uni1E92" unicode="&#x1e92;" horiz-adv-x="1349" 
d="M348 166h907v-166h-1163v98l883 1272h-860v166h1116v-98zM668 -137q49 0 83.5 -35.5t34.5 -85.5t-34.5 -84.5t-83.5 -34.5q-50 0 -85.5 35t-35.5 84q0 50 35.5 85.5t85.5 35.5z" />
    <glyph glyph-name="uni1E93" unicode="&#x1e93;" horiz-adv-x="1081" 
d="M98 0v127l631 745h-618v152h858v-123l-631 -749h645v-152h-885zM543 -377q-50 0 -85.5 35t-35.5 84q0 50 36 85.5t85 35.5t84 -35.5t35 -85.5t-35 -84.5t-84 -34.5z" />
    <glyph glyph-name="uni1EA0" unicode="&#x1ea0;" horiz-adv-x="1521" 
d="M1481 0h-203l-125 322h-786l-125 -322h-203l616 1536h209zM426 479h668l-334 864zM762 -137q49 0 84 -35.5t35 -85.5t-34.5 -84.5t-84.5 -34.5t-85.5 35t-35.5 84q0 50 35.5 85.5t85.5 35.5z" />
    <glyph glyph-name="uni1EA1" unicode="&#x1ea1;" horiz-adv-x="1099" 
d="M530 1044q90 0 166 -24t134 -71t91 -122.5t33 -171.5v-655h-159l-11 145q-187 -165 -378 -165q-137 0 -225.5 88.5t-88.5 224.5q0 71 27.5 129.5t87.5 103.5t154.5 58t228.5 -6l186 -31v121q0 111 -71 167t-183 56q-181 0 -274 -141l-125 110q127 184 407 184zM276 301
q0 -72 47 -116t123 -44q160 0 330 156v117l-168 28q-178 32 -255 -11t-77 -130zM524 -139q49 0 84 -35.5t35 -85.5t-34.5 -84.5t-84.5 -34.5t-85.5 35t-35.5 84q0 50 35.5 85.5t85.5 35.5z" />
    <glyph glyph-name="uni1EB8" unicode="&#x1eb8;" horiz-adv-x="1110" 
d="M1004 1370h-664v-518h578v-168h-578v-518h664v-166h-850v1536h850v-166zM580 -137q49 0 83.5 -35.5t34.5 -85.5t-34.5 -84.5t-83.5 -34.5q-50 0 -85.5 35t-35.5 84q0 50 35.5 85.5t85.5 35.5z" />
    <glyph glyph-name="uni1EB9" unicode="&#x1eb9;" horiz-adv-x="1116" 
d="M1034 512q0 -39 -2 -59h-774q14 -145 96 -230.5t221 -85.5q94 0 158 38t125 132l127 -88q-132 -239 -416 -239q-223 0 -355 148.5t-132 381.5t132.5 383.5t354.5 150.5q216 0 340.5 -147t124.5 -385zM573 889q-130 0 -210 -79.5t-101 -215.5h608q-14 137 -91 216t-206 79
zM573 -137q49 0 84 -35.5t35 -85.5t-35 -84.5t-84 -34.5q-50 0 -85 35t-35 84q0 50 35.5 85.5t84.5 35.5z" />
    <glyph glyph-name="uni1EBC" unicode="&#x1ebc;" horiz-adv-x="1110" 
d="M356 1731h-114q-17 115 39 189.5t153 74.5q118 0 191 -113q36 -59 92 -59q48 0 71 42.5t11 110.5h114q17 -113 -38 -188.5t-154 -75.5q-117 0 -191 111q-39 59 -92 59q-48 0 -71 -42t-11 -109zM1004 1370h-664v-518h578v-168h-578v-518h664v-166h-850v1536h850v-166z" />
    <glyph glyph-name="uni1EBD" unicode="&#x1ebd;" horiz-adv-x="1116" 
d="M350 1225h-114q-17 115 39 189.5t153 74.5q117 0 190 -113q36 -59 93 -59q48 0 71 42.5t11 110.5h114q17 -113 -38 -188.5t-154 -75.5q-117 0 -191 111q-39 59 -92 59q-48 0 -71 -42t-11 -109zM1034 512q0 -39 -2 -59h-774q14 -145 96 -230.5t221 -85.5q94 0 158 38
t125 132l127 -88q-132 -239 -416 -239q-223 0 -355 148.5t-132 381.5t132.5 383.5t354.5 150.5q216 0 340.5 -147t124.5 -385zM573 889q-130 0 -210 -79.5t-101 -215.5h608q-14 137 -91 216t-206 79z" />
    <glyph glyph-name="uni1ECA" unicode="&#x1eca;" horiz-adv-x="493" 
d="M154 0v1536h186v-1536h-186zM248 -377q-50 0 -85.5 35t-35.5 84q0 50 35.5 85.5t85.5 35.5q49 0 84 -35.5t35 -85.5t-34.5 -84.5t-84.5 -34.5z" />
    <glyph glyph-name="uni1ECB" unicode="&#x1ecb;" horiz-adv-x="559" 
d="M281 1214q-50 0 -85.5 34t-35.5 83q0 51 35.5 86t85.5 35q48 0 83 -35.5t35 -85.5q0 -49 -35 -83t-83 -34zM188 0v1024h181v-1024h-181zM291 -406q-50 0 -85.5 35t-35.5 84t36 85t85 36t84 -35.5t35 -85.5q0 -49 -35 -84t-84 -35z" />
    <glyph glyph-name="uni1ECC" unicode="&#x1ecc;" horiz-adv-x="1708" 
d="M854 -20q-213 0 -386 106t-268.5 286t-95.5 396t95.5 396t268.5 286t386 106q160 0 300 -62t238.5 -168t155 -251t56.5 -307t-56.5 -307t-155 -251t-238.5 -168t-300 -62zM854 158q167 0 298.5 81t202 220t70.5 309t-70.5 309t-202 220t-298.5 81t-298.5 -81t-203 -220
t-71.5 -309t71.5 -309t203 -220t298.5 -81zM854 -377q-50 0 -85.5 35t-35.5 84q0 50 35.5 85.5t85.5 35.5q49 0 84 -35.5t35 -85.5t-34.5 -84.5t-84.5 -34.5z" />
    <glyph glyph-name="uni1ECD" unicode="&#x1ecd;" horiz-adv-x="1161" 
d="M582 -20q-220 0 -360 153.5t-140 378.5q0 148 62 269t177 192t261 71q145 0 260 -71t177 -192t62 -269q0 -147 -62 -268t-177 -192.5t-260 -71.5zM582 141q145 0 233 106t88 265t-88.5 266t-232.5 107q-147 0 -234.5 -106.5t-87.5 -266.5t87.5 -265.5t234.5 -105.5z
M582 -377q-50 0 -85.5 35t-35.5 84q0 50 35.5 85.5t85.5 35.5q49 0 83.5 -35.5t34.5 -85.5t-34.5 -84.5t-83.5 -34.5z" />
    <glyph glyph-name="uni1EE4" unicode="&#x1ee4;" horiz-adv-x="1495" 
d="M748 -20q-161 0 -295 69.5t-211.5 190t-77.5 264.5v1032h186v-1001q0 -163 116 -276.5t282 -113.5t281.5 113.5t115.5 276.5v1001h188v-1032q0 -144 -77.5 -264.5t-212 -190t-295.5 -69.5zM748 -377q-50 0 -85.5 35t-35.5 84q0 50 35.5 85.5t85.5 35.5q49 0 83.5 -35.5
t34.5 -85.5t-34.5 -84.5t-83.5 -34.5z" />
    <glyph glyph-name="Ygrave" unicode="&#x1ef2;" horiz-adv-x="1337" 
d="M735 1731h-145l-225 317h186zM1298 1536l-534 -807v-729h-189v725l-536 811h211l420 -649l420 649h208z" />
    <glyph glyph-name="ygrave" unicode="&#x1ef3;" horiz-adv-x="1216" 
d="M674 1219h-146l-225 317h186zM1063 1024v-1051q0 -143 -53.5 -253.5t-167 -177t-273.5 -66.5q-205 0 -356 98v197q153 -133 371 -133q149 0 223 88t74 247v158q-58 -71 -141 -111t-179 -40q-170 0 -286.5 119t-116.5 288v637h180v-618q0 -110 78 -187.5t190 -77.5
q114 0 194.5 77.5t80.5 187.5v618h182z" />
    <glyph glyph-name="uni1EF4" unicode="&#x1ef4;" horiz-adv-x="1337" 
d="M575 0v725l-536 811h211l420 -649l420 649h208l-534 -807v-729h-189zM672 -137q49 0 84 -35.5t35 -85.5t-34.5 -84.5t-84.5 -34.5t-85.5 35t-35.5 84q0 50 35.5 85.5t85.5 35.5z" />
    <glyph glyph-name="uni1EF8" unicode="&#x1ef8;" horiz-adv-x="1337" 
d="M449 1731h-115q-17 115 39 189.5t153 74.5q118 0 191 -113q36 -59 92 -59q48 0 71 42.5t11 110.5h115q17 -113 -38.5 -188.5t-154.5 -75.5q-116 0 -190 111q-39 59 -93 59q-47 0 -70 -42t-11 -109zM1298 1536l-534 -807v-729h-189v725l-536 811h211l420 -649l420 649h208
z" />
    <glyph glyph-name="endash" unicode="&#x2013;" horiz-adv-x="1394" 
d="M184 469v127h1024v-127h-1024z" />
    <glyph glyph-name="emdash" unicode="&#x2014;" horiz-adv-x="2084" 
d="M18 469v127h2048v-127h-2048z" />
    <glyph glyph-name="quoteleft" unicode="&#x2018;" horiz-adv-x="507" 
d="M201 946q-112 0 -137 148.5t47 298.5t194 153v-90q-59 -3 -100 -92q-36 -76 -29 -139q5 -40 27 -41q49 0 82.5 -34.5t33.5 -84.5q0 -51 -33.5 -85t-84.5 -34z" />
    <glyph glyph-name="quoteright" unicode="&#x2019;" horiz-adv-x="397" 
d="M90 946v88q55 3 93 77t38 142q0 54 -26 54q-50 0 -84.5 34.5t-34.5 85.5t35 85t86 34q67 0 102 -61.5t35 -153.5q0 -89 -27.5 -175.5t-85 -147.5t-131.5 -62z" />
    <glyph glyph-name="quotesinglbase" unicode="&#x201a;" horiz-adv-x="503" 
d="M96 -381v90q61 0 102.5 69.5t41.5 137.5q0 66 -39 66q-50 0 -84.5 34.5t-34.5 83.5q0 50 35 84.5t86 34.5q73 0 111 -63t38 -160q0 -65 -17.5 -131t-49 -121t-81.5 -90t-108 -35z" />
    <glyph glyph-name="quotedblleft" unicode="&#x201c;" horiz-adv-x="874" 
d="M504 1563v-90q-36 -1 -67.5 -39.5t-47.5 -88t-16 -90.5q0 -55 26 -55q50 0 84.5 -34t34.5 -85t-34.5 -84.5t-84.5 -33.5q-69 0 -104 60.5t-35 154.5q0 89 28 175.5t85.5 147.5t130.5 62zM817 1563v-90q-37 -1 -68.5 -40t-47 -88t-15.5 -90q0 -55 27 -55q50 0 84 -34
t34 -85t-34.5 -84.5t-85.5 -33.5q-67 0 -102.5 61t-35.5 154q0 89 27.5 175.5t85 147.5t131.5 62z" />
    <glyph glyph-name="quotedblright" unicode="&#x201d;" horiz-adv-x="827" 
d="M94 946v88q55 3 93 77t38 142q0 54 -26 54q-50 0 -84.5 34.5t-34.5 85.5t35 85t86 34q67 0 102 -61.5t35 -153.5q0 -89 -27.5 -175.5t-85 -147.5t-131.5 -62zM408 946v88q54 3 92.5 77.5t38.5 141.5q0 54 -27 54q-50 0 -84.5 34.5t-34.5 85.5t34.5 85t84.5 34
q68 0 103.5 -61t35.5 -154q0 -89 -27.5 -175.5t-85 -147.5t-130.5 -62z" />
    <glyph glyph-name="quotedblbase" unicode="&#x201e;" horiz-adv-x="843" 
d="M96 -381v90q61 0 102.5 69.5t41.5 137.5q0 66 -39 66q-50 0 -84.5 34.5t-34.5 83.5q0 50 35 84.5t86 34.5q73 0 111 -63t38 -160q0 -65 -17.5 -131t-49 -121t-81.5 -90t-108 -35zM453 -381v90q40 0 74 35.5t50.5 82.5t16.5 89q0 66 -37 66q-50 0 -84.5 34.5t-34.5 83.5
q0 50 35 84.5t84 34.5q73 0 111.5 -63t38.5 -160q0 -88 -29 -173t-89 -144.5t-136 -59.5z" />
    <glyph glyph-name="dagger" unicode="&#x2020;" horiz-adv-x="1361" 
d="M1094 973v-121h-357v-1200h-123v1200h-348v121h348v399h123v-399h357z" />
    <glyph glyph-name="daggerdbl" unicode="&#x2021;" horiz-adv-x="1361" 
d="M1094 852h-357v-670h357v-121h-357v-409h-123v409h-348v121h348v670h-348v121h348v399h123v-399h357v-121z" />
    <glyph glyph-name="bullet" unicode="&#x2022;" horiz-adv-x="968" 
d="M485 408q-105 0 -182.5 75t-77.5 183q0 103 78 180.5t182 77.5q103 0 180.5 -77.5t77.5 -180.5q0 -107 -77 -182.5t-181 -75.5z" />
    <glyph glyph-name="ellipsis" unicode="&#x2026;" horiz-adv-x="1447" 
d="M186 -20q-49 0 -83.5 35t-34.5 85q0 48 34.5 83.5t83.5 35.5t85 -35.5t36 -83.5q0 -49 -35.5 -84.5t-85.5 -35.5zM616 -20q-50 0 -85 35t-35 85q0 48 35.5 83.5t84.5 35.5t84 -35.5t35 -83.5q0 -50 -35 -85t-84 -35zM1024 -20q-48 0 -83.5 35.5t-35.5 84.5q0 47 36 83
t83 36q49 0 85 -35.5t36 -83.5q0 -49 -35.5 -84.5t-85.5 -35.5z" />
    <glyph glyph-name="perthousand" unicode="&#x2030;" horiz-adv-x="2197" 
d="M399 903q-119 0 -201.5 96t-82.5 230q0 137 82 232t202 95q117 0 200 -95.5t83 -231.5q0 -134 -83 -230t-200 -96zM150 0l1050 1536h189l-1049 -1536h-190zM399 1044q58 0 101 54.5t43 130.5q0 78 -43 132t-101 54q-59 0 -101 -53.5t-42 -132.5q0 -76 42 -130.5
t101 -54.5zM1143 -20q-118 0 -201.5 96t-83.5 231q0 134 83.5 230t201.5 96t200 -96t82 -230q0 -136 -82 -231.5t-200 -95.5zM1812 -20q-119 0 -201.5 95.5t-82.5 231.5q0 134 82.5 230t201.5 96q117 0 199 -96t82 -230q0 -135 -82 -231t-199 -96zM1141 121q59 0 100 54
t41 132q0 77 -41.5 131t-99.5 54q-57 0 -99.5 -54.5t-42.5 -130.5q0 -77 42 -131.5t100 -54.5zM1810 121q58 0 100 54.5t42 131.5q0 76 -42.5 130.5t-99.5 54.5q-58 0 -99.5 -54t-41.5 -131q0 -78 41 -132t100 -54z" />
    <glyph glyph-name="guilsinglleft" unicode="&#x2039;" horiz-adv-x="712" 
d="M416 195l-312 376l312 377h153l-311 -377l311 -376h-153z" />
    <glyph glyph-name="guilsinglright" unicode="&#x203a;" horiz-adv-x="712" 
d="M143 195l312 376l-312 377h154l311 -377l-311 -376h-154z" />
    <glyph glyph-name="fraction" unicode="&#x2044;" horiz-adv-x="1214" 
d="M-37 0l1071 1536h189l-1071 -1536h-189z" />
    <glyph glyph-name="Euro" unicode="&#x20ac;" horiz-adv-x="1347" 
d="M731 121q104 0 190 68.5t105 170.5l137 -59q-41 -139 -164 -230t-268 -91q-202 0 -330.5 132t-128.5 339v88h-190l61 120h129v205h-190l61 121h129v100q0 209 128 340t331 131q145 0 268 -91t164 -230l-137 -57q-18 101 -104.5 169t-190.5 68q-145 0 -231 -89.5
t-86 -240.5v-100h426l-60 -121h-366v-205h426l-60 -120h-366v-88q0 -150 86.5 -240t230.5 -90z" />
    <glyph glyph-name="uni2113" unicode="&#x2113;" horiz-adv-x="1243" 
d="M674 -12q-98 0 -175 32.5t-125 88.5t-75.5 124t-34.5 146v24q-26 -18 -78 -58t-63 -48l-57 104q25 19 65 49.5t71.5 55t57.5 47.5v592q0 146 33 254t89.5 167.5t121.5 87t139 27.5q79 0 140 -30t98 -81t56 -115.5t19 -137.5q0 -198 -132.5 -393t-385.5 -416v-59
q3 -153 83 -233.5t192 -80.5q109 0 200 69t144 163l88 -80q-85 -150 -205.5 -224.5t-265.5 -74.5zM438 676q183 181 283 334.5t100 298.5q0 241 -178 241q-29 0 -56 -11.5t-54.5 -39.5t-48 -70t-33.5 -109t-13 -151v-493z" />
    <glyph glyph-name="trademark" unicode="&#x2122;" horiz-adv-x="1472" 
d="M31 1452v84h489v-84h-198v-637h-95v637h-196zM1239 1536h100v-721h-94v569l-270 -401l-270 399v-567h-97v721h103l264 -393z" />
    <glyph glyph-name="estimated" unicode="&#x212e;" horiz-adv-x="1890" 
d="M944 -18q-178 0 -340 62t-279 167.5t-186 250.5t-69 304q0 215 117 397t318 287.5t439 105.5q239 0 440.5 -105.5t319 -287.5t117.5 -397v-21h-1418q-12 0 -12 -8v-430q0 -22 19 -49q106 -109 244.5 -171t291.5 -62q167 0 313.5 69.5t251.5 192.5h125
q-119 -141 -301.5 -223t-390.5 -82zM403 788h1088q8 0 8 15v430q0 34 -20 51q-106 105 -243.5 165t-289.5 60q-151 0 -288.5 -61.5t-245.5 -169.5q-21 -24 -21 -53v-422q0 -15 12 -15z" />
    <glyph glyph-name="arrowleft" unicode="&#x2190;" horiz-adv-x="1730" 
d="M1552 846v-248h-1099l61 -260l-498 385l498 385l-61 -262h1099z" />
    <glyph glyph-name="arrowup" unicode="&#x2191;" horiz-adv-x="1052" 
d="M381 0v1100l-262 -62l385 498l385 -498l-260 62v-1100h-248z" />
    <glyph glyph-name="arrowright" unicode="&#x2192;" horiz-adv-x="1730" 
d="M180 846h1100l-61 262l497 -385l-497 -385l61 260h-1100v248z" />
    <glyph glyph-name="arrowdown" unicode="&#x2193;" horiz-adv-x="1005" 
d="M381 1536h248v-1100l260 62l-385 -498l-385 498l262 -62v1100z" />
    <glyph glyph-name="arrowboth" unicode="&#x2194;" horiz-adv-x="1763" 
d="M367 295l-496 387l500 385l-64 -260l1149 -2l-61 260l497 -385l-495 -385l61 262l-1151 2z" />
    <glyph glyph-name="arrowupdn" unicode="&#x2195;" horiz-adv-x="1005" 
d="M504 -145l-385 495l262 -61v798l-262 -61l385 496l385 -498l-260 61v-794l260 61z" />
    <glyph glyph-name="uni2196" unicode="&#x2196;" horiz-adv-x="1105" 
d="M1235 311l-176 -174l-778 776l-140 -227l-80 625l625 -80l-229 -141z" />
    <glyph glyph-name="uni2197" unicode="&#x2197;" horiz-adv-x="1105" 
d="M-129 311l778 779l-229 141l624 80l-79 -625l-140 227l-778 -776z" />
    <glyph glyph-name="uni2198" unicode="&#x2198;" horiz-adv-x="1107" 
d="M-127 1225l176 174l778 -776l140 227l80 -625l-625 80l229 141z" />
    <glyph glyph-name="uni2199" unicode="&#x2199;" horiz-adv-x="1107" 
d="M1235 1225l-778 -779l229 -141l-625 -80l80 625l140 -227l778 776z" />
    <glyph glyph-name="partialdiff" unicode="&#x2202;" horiz-adv-x="1097" 
d="M350 1446q133 20 253.5 -31t206.5 -154.5t136 -257.5t49 -331q-1 -183 -66 -334.5t-178 -238.5t-249 -87q-96 0 -172.5 30t-126 85t-74 129.5t-18 167.5t44.5 194q43 115 114.5 199t156.5 124t182.5 44.5t191.5 -39.5q-53 203 -175.5 306.5t-275.5 62.5v131zM834 672
q0 55 -7 127q-109 65 -207.5 62t-181.5 -77t-133 -209q-42 -123 -32.5 -221t71 -158.5t158.5 -60.5q89 0 165 71.5t121 195.5t46 270z" />
    <glyph glyph-name="emptyset" unicode="&#x2205;" horiz-adv-x="1677" 
d="M1298 999q152 -171 152 -403q0 -166 -82 -307t-223 -223t-307 -82q-229 0 -404 151l-88 -88l-55 57l88 89q-154 170 -154 403q0 166 82 307t223.5 223t307.5 82q233 0 403 -151l90 88l55 -58zM373 596q0 -171 108 -301l658 657q-128 109 -301 109q-127 0 -234 -61.5
t-169 -168.5t-62 -235zM838 131q128 0 235.5 62t169.5 169t62 234q0 171 -111 301l-655 -657q128 -109 299 -109z" />
    <glyph glyph-name="product" unicode="&#x220f;" horiz-adv-x="1523" 
d="M1419 1440v-131h-360v-1555h-129v1555h-334v-1555h-133v1555h-361v131h1317z" />
    <glyph glyph-name="summation" unicode="&#x2211;" horiz-adv-x="1544" 
d="M184 -242v103l750 737l-750 737v105h1176v-142h-938l702 -700l-702 -700h938v-142z" />
    <glyph glyph-name="minus" unicode="&#x2212;" horiz-adv-x="1476" 
d="M123 539v123h1229v-123h-1229z" />
    <glyph glyph-name="radical" unicode="&#x221a;" horiz-adv-x="1497" 
d="M516 -160l-235 723h-138v121h224l211 -637l725 1516l110 -47l-801 -1676h-96z" />
    <glyph glyph-name="infinity" unicode="&#x221e;" horiz-adv-x="1568" 
d="M410 297q-120 0 -201 85t-86 214q5 131 86 216t201 85q87 0 183 -54t191 -155q95 101 191.5 155t185.5 54q122 0 200.5 -83t82.5 -218q-4 -133 -82.5 -216t-200.5 -83q-183 0 -377 209q-95 -101 -191 -155t-183 -54zM410 418q63 0 140.5 46t154.5 132q-78 86 -155 133
t-140 47q-66 0 -114.5 -52.5t-51.5 -127.5q3 -75 51.5 -126.5t114.5 -51.5zM1159 418q68 0 115.5 50.5t48.5 127.5q-1 77 -48.5 128.5t-115.5 51.5q-132 0 -295 -180q161 -178 295 -178z" />
    <glyph glyph-name="integral" unicode="&#x222b;" horiz-adv-x="933" 
d="M352 -387q-78 0 -126.5 56.5t-35.5 144.5h97q0 -101 65 -101q27 0 45.5 19.5t18.5 50.5v1565q0 75 49.5 122.5t118.5 47.5q76 0 124.5 -56.5t36.5 -144.5h-98q0 100 -65 100q-26 0 -45 -19t-19 -50v-1565q0 -75 -48.5 -122.5t-117.5 -47.5z" />
    <glyph glyph-name="approxequal" unicode="&#x2248;" horiz-adv-x="1185" 
d="M813 653q-38 0 -73 11t-58 23t-52 39t-40.5 39.5t-38.5 43.5q-48 51 -84.5 75.5t-85.5 24.5q-82 0 -132.5 -65.5t-45.5 -163.5h-101q-9 146 71.5 239t209.5 93q78 0 133 -37t119 -115q29 -34 48.5 -52.5t52 -35t69.5 -16.5q81 0 132.5 63.5t45.5 163.5h100
q12 -140 -67 -235t-203 -95zM813 256q-46 0 -85.5 12.5t-74.5 40.5t-52.5 46t-49.5 55q-48 51 -84.5 75.5t-85.5 24.5q-82 0 -132.5 -65.5t-45.5 -163.5h-101q-9 147 71.5 239t209.5 92q78 0 133 -36.5t119 -112.5q44 -54 80.5 -80.5t89.5 -26.5q81 0 132.5 64.5t45.5 165.5
h100q12 -141 -67 -235.5t-203 -94.5z" />
    <glyph glyph-name="notequal" unicode="&#x2260;" horiz-adv-x="1476" 
d="M1352 678h-422l-232 -270h654v-121h-758l-238 -277h-114l237 277h-356v121h461l229 270h-690v121h795l200 235h115l-201 -235h320v-121z" />
    <glyph glyph-name="lessequal" unicode="&#x2264;" horiz-adv-x="1624" 
d="M1376 1419v-153l-979 -457l979 -459v-155l-1130 532v164zM246 0v113h1130v-113h-1130z" />
    <glyph glyph-name="greaterequal" unicode="&#x2265;" horiz-adv-x="1624" 
d="M246 1419l1130 -528v-164l-1130 -532v155l981 459l-981 457v153zM246 0v113h1130v-113h-1130z" />
    <glyph glyph-name="lozenge" unicode="&#x25ca;" horiz-adv-x="1607" 
d="M803 106l-619 617l619 618l616 -616zM805 309l412 416l-412 414l-416 -416z" />
    <glyph glyph-name="uniF8FF" unicode="&#xf8ff;" horiz-adv-x="1996" 
d="M999 0q-158 0 -302 62t-248 166t-166 248t-62 302t62 302.5t166 248.5t248 165.5t302 61.5q127 0 246 -39t214.5 -111t167.5 -168t111.5 -214.5t39.5 -245.5q0 -211 -104.5 -390t-284 -283.5t-390.5 -104.5zM999 74q143 0 273.5 56t225 150.5t150.5 224.5t56 273
q0 191 -94.5 353.5t-257 257t-353.5 94.5q-143 0 -273 -56t-224.5 -150.5t-150.5 -225t-56 -273.5t56 -273t150.5 -224.5t224.5 -150.5t273 -56zM1407 444q-15 0 -25 13l-297 295q-11 12 -11 27t11 26l297 297q10 10 26 10t26 -10t10 -26t-10 -27l-271 -271l271 -270
q22 -22 0 -51q-10 -13 -27 -13zM592 444q-15 0 -26 11t-11 26v594q0 15 11 26t26 11t26 -11t11 -26v-594q0 -15 -11 -26t-26 -11zM999 444q-15 0 -25.5 11t-10.5 26v594q0 15 10.5 26t25.5 11t26 -11t11 -26v-594q0 -15 -11 -26t-26 -11zM702 741q-15 0 -25.5 11t-10.5 26
t10.5 26t25.5 11h187q15 0 26 -11t11 -26t-11 -26t-26 -11h-187z" />
    <glyph glyph-name="i.loclTRK" horiz-adv-x="487" 
d="M246 1214q-50 0 -85.5 34t-35.5 83q0 51 35.5 86t85.5 35t84.5 -35t34.5 -86q0 -49 -34.5 -83t-84.5 -34zM154 0v1024h180v-1024h-180z" />
    <glyph glyph-name="arrow" horiz-adv-x="1005" 
d="M381 0v1100l-262 -62l385 498l385 -498l-260 62v-1100h-248z" />
    </font>
</defs>
</svg>
